<svg width="843" height="182" viewBox="0 0 843 182" fill="none" xmlns="http://www.w3.org/2000/svg">
<path d="M6.77375 21.872C6.50708 21.872 6.37375 21.728 6.37375 21.44V16.352C6.37375 16.064 6.50708 15.92 6.77375 15.92H11.8938C12.1604 15.92 12.2938 16.064 12.2938 16.352V21.44C12.2938 21.728 12.1604 21.872 11.8938 21.872H6.77375ZM17.7705 16.352C17.5038 16.352 17.3705 16.2187 17.3705 15.952V6.72C17.3705 6.45333 17.5038 6.32 17.7705 6.32H20.7145C20.9812 6.32 21.1145 6.45333 21.1145 6.72V15.952C21.1145 16.2187 20.9812 16.352 20.7145 16.352H17.7705ZM14.6345 13.2C14.3678 13.2 14.2345 13.0667 14.2345 12.8V9.872C14.2345 9.60533 14.3678 9.472 14.6345 9.472H23.8505C24.1172 9.472 24.2505 9.60533 24.2505 9.872V12.8C24.2505 13.0667 24.1172 13.2 23.8505 13.2H14.6345ZM27.0975 8.4C26.8628 8.4 26.7295 8.27733 26.6975 8.032L26.2175 1.088C26.1855 0.810666 26.3188 0.671999 26.6175 0.671999H30.2975C30.5962 0.671999 30.7295 0.810666 30.6975 1.088L30.2175 8.032C30.1855 8.27733 30.0522 8.4 29.8175 8.4H27.0975ZM32.3455 8.4C32.1108 8.4 31.9775 8.27733 31.9455 8.032L31.4655 1.088C31.4335 0.810666 31.5668 0.671999 31.8655 0.671999H35.5455C35.8442 0.671999 35.9775 0.810666 35.9455 1.088L35.4655 8.032C35.4335 8.27733 35.3002 8.4 35.0655 8.4H32.3455ZM41.4268 16.352C41.1601 16.352 41.0268 16.2187 41.0268 15.952V6.72C41.0268 6.45333 41.1601 6.32 41.4268 6.32H44.3708C44.6374 6.32 44.7708 6.45333 44.7708 6.72V15.952C44.7708 16.2187 44.6374 16.352 44.3708 16.352H41.4268ZM38.2908 13.2C38.0241 13.2 37.8908 13.0667 37.8908 12.8V9.872C37.8908 9.60533 38.0241 9.472 38.2908 9.472H47.5068C47.7734 9.472 47.9068 9.60533 47.9068 9.872V12.8C47.9068 13.0667 47.7734 13.2 47.5068 13.2H38.2908ZM50.2738 21.872C50.0071 21.872 49.8738 21.728 49.8738 21.44V16.352C49.8738 16.064 50.0071 15.92 50.2738 15.92H55.3938C55.6604 15.92 55.7938 16.064 55.7938 16.352V21.44C55.7938 21.728 55.6604 21.872 55.3938 21.872H50.2738ZM61.2705 16.352C61.0038 16.352 60.8705 16.2187 60.8705 15.952V6.72C60.8705 6.45333 61.0038 6.32 61.2705 6.32H64.2145C64.4812 6.32 64.6145 6.45333 64.6145 6.72V15.952C64.6145 16.2187 64.4812 16.352 64.2145 16.352H61.2705ZM58.1345 13.2C57.8678 13.2 57.7345 13.0667 57.7345 12.8V9.872C57.7345 9.60533 57.8678 9.472 58.1345 9.472H67.3505C67.6172 9.472 67.7505 9.60533 67.7505 9.872V12.8C67.7505 13.0667 67.6172 13.2 67.3505 13.2H58.1345ZM70.5975 8.4C70.3628 8.4 70.2295 8.27733 70.1975 8.032L69.7175 1.088C69.6855 0.810666 69.8188 0.671999 70.1175 0.671999H73.7975C74.0962 0.671999 74.2295 0.810666 74.1975 1.088L73.7175 8.032C73.6855 8.27733 73.5522 8.4 73.3175 8.4H70.5975ZM75.8455 8.4C75.6108 8.4 75.4775 8.27733 75.4455 8.032L74.9655 1.088C74.9335 0.810666 75.0668 0.671999 75.3655 0.671999H79.0455C79.3442 0.671999 79.4775 0.810666 79.4455 1.088L78.9655 8.032C78.9335 8.27733 78.8002 8.4 78.5655 8.4H75.8455ZM84.9268 16.352C84.6601 16.352 84.5268 16.2187 84.5268 15.952V6.72C84.5268 6.45333 84.6601 6.32 84.9268 6.32H87.8708C88.1374 6.32 88.2708 6.45333 88.2708 6.72V15.952C88.2708 16.2187 88.1374 16.352 87.8708 16.352H84.9268ZM81.7908 13.2C81.5241 13.2 81.3908 13.0667 81.3908 12.8V9.872C81.3908 9.60533 81.5241 9.472 81.7908 9.472H91.0068C91.2734 9.472 91.4068 9.60533 91.4068 9.872V12.8C91.4068 13.0667 91.2734 13.2 91.0068 13.2H81.7908ZM93.7738 21.872C93.5071 21.872 93.3738 21.728 93.3738 21.44V16.352C93.3738 16.064 93.5071 15.92 93.7738 15.92H98.8938C99.1604 15.92 99.2938 16.064 99.2938 16.352V21.44C99.2938 21.728 99.1604 21.872 98.8938 21.872H93.7738ZM104.771 16.352C104.504 16.352 104.371 16.2187 104.371 15.952V6.72C104.371 6.45333 104.504 6.32 104.771 6.32H107.715C107.981 6.32 108.115 6.45333 108.115 6.72V15.952C108.115 16.2187 107.981 16.352 107.715 16.352H104.771ZM101.635 13.2C101.368 13.2 101.235 13.0667 101.235 12.8V9.872C101.235 9.60533 101.368 9.472 101.635 9.472H110.851C111.117 9.472 111.251 9.60533 111.251 9.872V12.8C111.251 13.0667 111.117 13.2 110.851 13.2H101.635ZM114.098 8.4C113.863 8.4 113.73 8.27733 113.698 8.032L113.218 1.088C113.186 0.810666 113.319 0.671999 113.618 0.671999H117.298C117.596 0.671999 117.73 0.810666 117.698 1.088L117.218 8.032C117.186 8.27733 117.052 8.4 116.818 8.4H114.098ZM119.346 8.4C119.111 8.4 118.978 8.27733 118.946 8.032L118.466 1.088C118.434 0.810666 118.567 0.671999 118.866 0.671999H122.546C122.844 0.671999 122.978 0.810666 122.946 1.088L122.466 8.032C122.434 8.27733 122.3 8.4 122.066 8.4H119.346ZM128.427 16.352C128.16 16.352 128.027 16.2187 128.027 15.952V6.72C128.027 6.45333 128.16 6.32 128.427 6.32H131.371C131.637 6.32 131.771 6.45333 131.771 6.72V15.952C131.771 16.2187 131.637 16.352 131.371 16.352H128.427ZM125.291 13.2C125.024 13.2 124.891 13.0667 124.891 12.8V9.872C124.891 9.60533 125.024 9.472 125.291 9.472H134.507C134.773 9.472 134.907 9.60533 134.907 9.872V12.8C134.907 13.0667 134.773 13.2 134.507 13.2H125.291ZM137.274 21.872C137.007 21.872 136.874 21.728 136.874 21.44V16.352C136.874 16.064 137.007 15.92 137.274 15.92H142.394C142.66 15.92 142.794 16.064 142.794 16.352V21.44C142.794 21.728 142.66 21.872 142.394 21.872H137.274ZM148.271 16.352C148.004 16.352 147.871 16.2187 147.871 15.952V6.72C147.871 6.45333 148.004 6.32 148.271 6.32H151.215C151.481 6.32 151.615 6.45333 151.615 6.72V15.952C151.615 16.2187 151.481 16.352 151.215 16.352H148.271ZM145.135 13.2C144.868 13.2 144.735 13.0667 144.735 12.8V9.872C144.735 9.60533 144.868 9.472 145.135 9.472H154.351C154.617 9.472 154.751 9.60533 154.751 9.872V12.8C154.751 13.0667 154.617 13.2 154.351 13.2H145.135ZM157.598 8.4C157.363 8.4 157.23 8.27733 157.198 8.032L156.718 1.088C156.686 0.810666 156.819 0.671999 157.118 0.671999H160.798C161.096 0.671999 161.23 0.810666 161.198 1.088L160.718 8.032C160.686 8.27733 160.552 8.4 160.318 8.4H157.598ZM162.846 8.4C162.611 8.4 162.478 8.27733 162.446 8.032L161.966 1.088C161.934 0.810666 162.067 0.671999 162.366 0.671999H166.046C166.344 0.671999 166.478 0.810666 166.446 1.088L165.966 8.032C165.934 8.27733 165.8 8.4 165.566 8.4H162.846ZM171.927 16.352C171.66 16.352 171.527 16.2187 171.527 15.952V6.72C171.527 6.45333 171.66 6.32 171.927 6.32H174.871C175.137 6.32 175.271 6.45333 175.271 6.72V15.952C175.271 16.2187 175.137 16.352 174.871 16.352H171.927ZM168.791 13.2C168.524 13.2 168.391 13.0667 168.391 12.8V9.872C168.391 9.60533 168.524 9.472 168.791 9.472H178.007C178.273 9.472 178.407 9.60533 178.407 9.872V12.8C178.407 13.0667 178.273 13.2 178.007 13.2H168.791ZM180.774 21.872C180.507 21.872 180.374 21.728 180.374 21.44V16.352C180.374 16.064 180.507 15.92 180.774 15.92H185.894C186.16 15.92 186.294 16.064 186.294 16.352V21.44C186.294 21.728 186.16 21.872 185.894 21.872H180.774ZM191.771 16.352C191.504 16.352 191.371 16.2187 191.371 15.952V6.72C191.371 6.45333 191.504 6.32 191.771 6.32H194.715C194.981 6.32 195.115 6.45333 195.115 6.72V15.952C195.115 16.2187 194.981 16.352 194.715 16.352H191.771ZM188.635 13.2C188.368 13.2 188.235 13.0667 188.235 12.8V9.872C188.235 9.60533 188.368 9.472 188.635 9.472H197.851C198.117 9.472 198.251 9.60533 198.251 9.872V12.8C198.251 13.0667 198.117 13.2 197.851 13.2H188.635ZM201.098 8.4C200.863 8.4 200.73 8.27733 200.698 8.032L200.218 1.088C200.186 0.810666 200.319 0.671999 200.618 0.671999H204.298C204.596 0.671999 204.73 0.810666 204.698 1.088L204.218 8.032C204.186 8.27733 204.052 8.4 203.818 8.4H201.098ZM206.346 8.4C206.111 8.4 205.978 8.27733 205.946 8.032L205.466 1.088C205.434 0.810666 205.567 0.671999 205.866 0.671999H209.546C209.844 0.671999 209.978 0.810666 209.946 1.088L209.466 8.032C209.434 8.27733 209.3 8.4 209.066 8.4H206.346ZM215.427 16.352C215.16 16.352 215.027 16.2187 215.027 15.952V6.72C215.027 6.45333 215.16 6.32 215.427 6.32H218.371C218.637 6.32 218.771 6.45333 218.771 6.72V15.952C218.771 16.2187 218.637 16.352 218.371 16.352H215.427ZM212.291 13.2C212.024 13.2 211.891 13.0667 211.891 12.8V9.872C211.891 9.60533 212.024 9.472 212.291 9.472H221.507C221.773 9.472 221.907 9.60533 221.907 9.872V12.8C221.907 13.0667 221.773 13.2 221.507 13.2H212.291ZM224.274 21.872C224.007 21.872 223.874 21.728 223.874 21.44V16.352C223.874 16.064 224.007 15.92 224.274 15.92H229.394C229.66 15.92 229.794 16.064 229.794 16.352V21.44C229.794 21.728 229.66 21.872 229.394 21.872H224.274ZM235.271 16.352C235.004 16.352 234.871 16.2187 234.871 15.952V6.72C234.871 6.45333 235.004 6.32 235.271 6.32H238.215C238.481 6.32 238.615 6.45333 238.615 6.72V15.952C238.615 16.2187 238.481 16.352 238.215 16.352H235.271ZM232.135 13.2C231.868 13.2 231.735 13.0667 231.735 12.8V9.872C231.735 9.60533 231.868 9.472 232.135 9.472H241.351C241.617 9.472 241.751 9.60533 241.751 9.872V12.8C241.751 13.0667 241.617 13.2 241.351 13.2H232.135ZM244.598 8.4C244.363 8.4 244.23 8.27733 244.198 8.032L243.718 1.088C243.686 0.810666 243.819 0.671999 244.118 0.671999H247.798C248.096 0.671999 248.23 0.810666 248.198 1.088L247.718 8.032C247.686 8.27733 247.552 8.4 247.318 8.4H244.598ZM249.846 8.4C249.611 8.4 249.478 8.27733 249.446 8.032L248.966 1.088C248.934 0.810666 249.067 0.671999 249.366 0.671999H253.046C253.344 0.671999 253.478 0.810666 253.446 1.088L252.966 8.032C252.934 8.27733 252.8 8.4 252.566 8.4H249.846ZM258.927 16.352C258.66 16.352 258.527 16.2187 258.527 15.952V6.72C258.527 6.45333 258.66 6.32 258.927 6.32H261.871C262.137 6.32 262.271 6.45333 262.271 6.72V15.952C262.271 16.2187 262.137 16.352 261.871 16.352H258.927ZM255.791 13.2C255.524 13.2 255.391 13.0667 255.391 12.8V9.872C255.391 9.60533 255.524 9.472 255.791 9.472H265.007C265.273 9.472 265.407 9.60533 265.407 9.872V12.8C265.407 13.0667 265.273 13.2 265.007 13.2H255.791ZM267.774 21.872C267.507 21.872 267.374 21.728 267.374 21.44V16.352C267.374 16.064 267.507 15.92 267.774 15.92H272.894C273.16 15.92 273.294 16.064 273.294 16.352V21.44C273.294 21.728 273.16 21.872 272.894 21.872H267.774ZM278.771 16.352C278.504 16.352 278.371 16.2187 278.371 15.952V6.72C278.371 6.45333 278.504 6.32 278.771 6.32H281.715C281.981 6.32 282.115 6.45333 282.115 6.72V15.952C282.115 16.2187 281.981 16.352 281.715 16.352H278.771ZM275.635 13.2C275.368 13.2 275.235 13.0667 275.235 12.8V9.872C275.235 9.60533 275.368 9.472 275.635 9.472H284.851C285.117 9.472 285.251 9.60533 285.251 9.872V12.8C285.251 13.0667 285.117 13.2 284.851 13.2H275.635ZM288.098 8.4C287.863 8.4 287.73 8.27733 287.698 8.032L287.218 1.088C287.186 0.810666 287.319 0.671999 287.618 0.671999H291.298C291.596 0.671999 291.73 0.810666 291.698 1.088L291.218 8.032C291.186 8.27733 291.052 8.4 290.818 8.4H288.098ZM293.346 8.4C293.111 8.4 292.978 8.27733 292.946 8.032L292.466 1.088C292.434 0.810666 292.567 0.671999 292.866 0.671999H296.546C296.844 0.671999 296.978 0.810666 296.946 1.088L296.466 8.032C296.434 8.27733 296.3 8.4 296.066 8.4H293.346ZM302.427 16.352C302.16 16.352 302.027 16.2187 302.027 15.952V6.72C302.027 6.45333 302.16 6.32 302.427 6.32H305.371C305.637 6.32 305.771 6.45333 305.771 6.72V15.952C305.771 16.2187 305.637 16.352 305.371 16.352H302.427ZM299.291 13.2C299.024 13.2 298.891 13.0667 298.891 12.8V9.872C298.891 9.60533 299.024 9.472 299.291 9.472H308.507C308.773 9.472 308.907 9.60533 308.907 9.872V12.8C308.907 13.0667 308.773 13.2 308.507 13.2H299.291ZM311.274 21.872C311.007 21.872 310.874 21.728 310.874 21.44V16.352C310.874 16.064 311.007 15.92 311.274 15.92H316.394C316.66 15.92 316.794 16.064 316.794 16.352V21.44C316.794 21.728 316.66 21.872 316.394 21.872H311.274ZM322.271 16.352C322.004 16.352 321.871 16.2187 321.871 15.952V6.72C321.871 6.45333 322.004 6.32 322.271 6.32H325.215C325.481 6.32 325.615 6.45333 325.615 6.72V15.952C325.615 16.2187 325.481 16.352 325.215 16.352H322.271ZM319.135 13.2C318.868 13.2 318.735 13.0667 318.735 12.8V9.872C318.735 9.60533 318.868 9.472 319.135 9.472H328.351C328.617 9.472 328.751 9.60533 328.751 9.872V12.8C328.751 13.0667 328.617 13.2 328.351 13.2H319.135ZM331.598 8.4C331.363 8.4 331.23 8.27733 331.198 8.032L330.718 1.088C330.686 0.810666 330.819 0.671999 331.118 0.671999H334.798C335.096 0.671999 335.23 0.810666 335.198 1.088L334.718 8.032C334.686 8.27733 334.552 8.4 334.318 8.4H331.598ZM336.846 8.4C336.611 8.4 336.478 8.27733 336.446 8.032L335.966 1.088C335.934 0.810666 336.067 0.671999 336.366 0.671999H340.046C340.344 0.671999 340.478 0.810666 340.446 1.088L339.966 8.032C339.934 8.27733 339.8 8.4 339.566 8.4H336.846ZM345.927 16.352C345.66 16.352 345.527 16.2187 345.527 15.952V6.72C345.527 6.45333 345.66 6.32 345.927 6.32H348.871C349.137 6.32 349.271 6.45333 349.271 6.72V15.952C349.271 16.2187 349.137 16.352 348.871 16.352H345.927ZM342.791 13.2C342.524 13.2 342.391 13.0667 342.391 12.8V9.872C342.391 9.60533 342.524 9.472 342.791 9.472H352.007C352.273 9.472 352.407 9.60533 352.407 9.872V12.8C352.407 13.0667 352.273 13.2 352.007 13.2H342.791ZM354.774 21.872C354.507 21.872 354.374 21.728 354.374 21.44V16.352C354.374 16.064 354.507 15.92 354.774 15.92H359.894C360.16 15.92 360.294 16.064 360.294 16.352V21.44C360.294 21.728 360.16 21.872 359.894 21.872H354.774ZM365.771 16.352C365.504 16.352 365.371 16.2187 365.371 15.952V6.72C365.371 6.45333 365.504 6.32 365.771 6.32H368.715C368.981 6.32 369.115 6.45333 369.115 6.72V15.952C369.115 16.2187 368.981 16.352 368.715 16.352H365.771ZM362.635 13.2C362.368 13.2 362.235 13.0667 362.235 12.8V9.872C362.235 9.60533 362.368 9.472 362.635 9.472H371.851C372.117 9.472 372.251 9.60533 372.251 9.872V12.8C372.251 13.0667 372.117 13.2 371.851 13.2H362.635ZM375.098 8.4C374.863 8.4 374.73 8.27733 374.698 8.032L374.218 1.088C374.186 0.810666 374.319 0.671999 374.618 0.671999H378.298C378.596 0.671999 378.73 0.810666 378.698 1.088L378.218 8.032C378.186 8.27733 378.052 8.4 377.818 8.4H375.098ZM380.346 8.4C380.111 8.4 379.978 8.27733 379.946 8.032L379.466 1.088C379.434 0.810666 379.567 0.671999 379.866 0.671999H383.546C383.844 0.671999 383.978 0.810666 383.946 1.088L383.466 8.032C383.434 8.27733 383.3 8.4 383.066 8.4H380.346ZM389.427 16.352C389.16 16.352 389.027 16.2187 389.027 15.952V6.72C389.027 6.45333 389.16 6.32 389.427 6.32H392.371C392.637 6.32 392.771 6.45333 392.771 6.72V15.952C392.771 16.2187 392.637 16.352 392.371 16.352H389.427ZM386.291 13.2C386.024 13.2 385.891 13.0667 385.891 12.8V9.872C385.891 9.60533 386.024 9.472 386.291 9.472H395.507C395.773 9.472 395.907 9.60533 395.907 9.872V12.8C395.907 13.0667 395.773 13.2 395.507 13.2H386.291ZM398.274 21.872C398.007 21.872 397.874 21.728 397.874 21.44V16.352C397.874 16.064 398.007 15.92 398.274 15.92H403.394C403.66 15.92 403.794 16.064 403.794 16.352V21.44C403.794 21.728 403.66 21.872 403.394 21.872H398.274ZM409.271 16.352C409.004 16.352 408.871 16.2187 408.871 15.952V6.72C408.871 6.45333 409.004 6.32 409.271 6.32H412.215C412.481 6.32 412.615 6.45333 412.615 6.72V15.952C412.615 16.2187 412.481 16.352 412.215 16.352H409.271ZM406.135 13.2C405.868 13.2 405.735 13.0667 405.735 12.8V9.872C405.735 9.60533 405.868 9.472 406.135 9.472H415.351C415.617 9.472 415.751 9.60533 415.751 9.872V12.8C415.751 13.0667 415.617 13.2 415.351 13.2H406.135ZM418.598 8.4C418.363 8.4 418.23 8.27733 418.198 8.032L417.718 1.088C417.686 0.810666 417.819 0.671999 418.118 0.671999H421.798C422.096 0.671999 422.23 0.810666 422.198 1.088L421.718 8.032C421.686 8.27733 421.552 8.4 421.318 8.4H418.598ZM423.846 8.4C423.611 8.4 423.478 8.27733 423.446 8.032L422.966 1.088C422.934 0.810666 423.067 0.671999 423.366 0.671999H427.046C427.344 0.671999 427.478 0.810666 427.446 1.088L426.966 8.032C426.934 8.27733 426.8 8.4 426.566 8.4H423.846ZM432.927 16.352C432.66 16.352 432.527 16.2187 432.527 15.952V6.72C432.527 6.45333 432.66 6.32 432.927 6.32H435.871C436.137 6.32 436.271 6.45333 436.271 6.72V15.952C436.271 16.2187 436.137 16.352 435.871 16.352H432.927ZM429.791 13.2C429.524 13.2 429.391 13.0667 429.391 12.8V9.872C429.391 9.60533 429.524 9.472 429.791 9.472H439.007C439.273 9.472 439.407 9.60533 439.407 9.872V12.8C439.407 13.0667 439.273 13.2 439.007 13.2H429.791ZM441.774 21.872C441.507 21.872 441.374 21.728 441.374 21.44V16.352C441.374 16.064 441.507 15.92 441.774 15.92H446.894C447.16 15.92 447.294 16.064 447.294 16.352V21.44C447.294 21.728 447.16 21.872 446.894 21.872H441.774ZM452.771 16.352C452.504 16.352 452.371 16.2187 452.371 15.952V6.72C452.371 6.45333 452.504 6.32 452.771 6.32H455.715C455.981 6.32 456.115 6.45333 456.115 6.72V15.952C456.115 16.2187 455.981 16.352 455.715 16.352H452.771ZM449.635 13.2C449.368 13.2 449.235 13.0667 449.235 12.8V9.872C449.235 9.60533 449.368 9.472 449.635 9.472H458.851C459.117 9.472 459.251 9.60533 459.251 9.872V12.8C459.251 13.0667 459.117 13.2 458.851 13.2H449.635ZM462.098 8.4C461.863 8.4 461.73 8.27733 461.698 8.032L461.218 1.088C461.186 0.810666 461.319 0.671999 461.618 0.671999H465.298C465.596 0.671999 465.73 0.810666 465.698 1.088L465.218 8.032C465.186 8.27733 465.052 8.4 464.818 8.4H462.098ZM467.346 8.4C467.111 8.4 466.978 8.27733 466.946 8.032L466.466 1.088C466.434 0.810666 466.567 0.671999 466.866 0.671999H470.546C470.844 0.671999 470.978 0.810666 470.946 1.088L470.466 8.032C470.434 8.27733 470.3 8.4 470.066 8.4H467.346ZM476.427 16.352C476.16 16.352 476.027 16.2187 476.027 15.952V6.72C476.027 6.45333 476.16 6.32 476.427 6.32H479.371C479.637 6.32 479.771 6.45333 479.771 6.72V15.952C479.771 16.2187 479.637 16.352 479.371 16.352H476.427ZM473.291 13.2C473.024 13.2 472.891 13.0667 472.891 12.8V9.872C472.891 9.60533 473.024 9.472 473.291 9.472H482.507C482.773 9.472 482.907 9.60533 482.907 9.872V12.8C482.907 13.0667 482.773 13.2 482.507 13.2H473.291ZM485.274 21.872C485.007 21.872 484.874 21.728 484.874 21.44V16.352C484.874 16.064 485.007 15.92 485.274 15.92H490.394C490.66 15.92 490.794 16.064 490.794 16.352V21.44C490.794 21.728 490.66 21.872 490.394 21.872H485.274ZM496.271 16.352C496.004 16.352 495.871 16.2187 495.871 15.952V6.72C495.871 6.45333 496.004 6.32 496.271 6.32H499.215C499.481 6.32 499.615 6.45333 499.615 6.72V15.952C499.615 16.2187 499.481 16.352 499.215 16.352H496.271ZM493.135 13.2C492.868 13.2 492.735 13.0667 492.735 12.8V9.872C492.735 9.60533 492.868 9.472 493.135 9.472H502.351C502.617 9.472 502.751 9.60533 502.751 9.872V12.8C502.751 13.0667 502.617 13.2 502.351 13.2H493.135ZM505.598 8.4C505.363 8.4 505.23 8.27733 505.198 8.032L504.718 1.088C504.686 0.810666 504.819 0.671999 505.118 0.671999H508.798C509.096 0.671999 509.23 0.810666 509.198 1.088L508.718 8.032C508.686 8.27733 508.552 8.4 508.318 8.4H505.598ZM510.846 8.4C510.611 8.4 510.478 8.27733 510.446 8.032L509.966 1.088C509.934 0.810666 510.067 0.671999 510.366 0.671999H514.046C514.344 0.671999 514.478 0.810666 514.446 1.088L513.966 8.032C513.934 8.27733 513.8 8.4 513.566 8.4H510.846ZM519.927 16.352C519.66 16.352 519.527 16.2187 519.527 15.952V6.72C519.527 6.45333 519.66 6.32 519.927 6.32H522.871C523.137 6.32 523.271 6.45333 523.271 6.72V15.952C523.271 16.2187 523.137 16.352 522.871 16.352H519.927ZM516.791 13.2C516.524 13.2 516.391 13.0667 516.391 12.8V9.872C516.391 9.60533 516.524 9.472 516.791 9.472H526.007C526.273 9.472 526.407 9.60533 526.407 9.872V12.8C526.407 13.0667 526.273 13.2 526.007 13.2H516.791ZM528.774 21.872C528.507 21.872 528.374 21.728 528.374 21.44V16.352C528.374 16.064 528.507 15.92 528.774 15.92H533.894C534.16 15.92 534.294 16.064 534.294 16.352V21.44C534.294 21.728 534.16 21.872 533.894 21.872H528.774ZM539.771 16.352C539.504 16.352 539.371 16.2187 539.371 15.952V6.72C539.371 6.45333 539.504 6.32 539.771 6.32H542.715C542.981 6.32 543.115 6.45333 543.115 6.72V15.952C543.115 16.2187 542.981 16.352 542.715 16.352H539.771ZM536.635 13.2C536.368 13.2 536.235 13.0667 536.235 12.8V9.872C536.235 9.60533 536.368 9.472 536.635 9.472H545.851C546.117 9.472 546.251 9.60533 546.251 9.872V12.8C546.251 13.0667 546.117 13.2 545.851 13.2H536.635ZM549.098 8.4C548.863 8.4 548.73 8.27733 548.698 8.032L548.218 1.088C548.186 0.810666 548.319 0.671999 548.618 0.671999H552.298C552.596 0.671999 552.73 0.810666 552.698 1.088L552.218 8.032C552.186 8.27733 552.052 8.4 551.818 8.4H549.098ZM554.346 8.4C554.111 8.4 553.978 8.27733 553.946 8.032L553.466 1.088C553.434 0.810666 553.567 0.671999 553.866 0.671999H557.546C557.844 0.671999 557.978 0.810666 557.946 1.088L557.466 8.032C557.434 8.27733 557.3 8.4 557.066 8.4H554.346ZM563.427 16.352C563.16 16.352 563.027 16.2187 563.027 15.952V6.72C563.027 6.45333 563.16 6.32 563.427 6.32H566.371C566.637 6.32 566.771 6.45333 566.771 6.72V15.952C566.771 16.2187 566.637 16.352 566.371 16.352H563.427ZM560.291 13.2C560.024 13.2 559.891 13.0667 559.891 12.8V9.872C559.891 9.60533 560.024 9.472 560.291 9.472H569.507C569.773 9.472 569.907 9.60533 569.907 9.872V12.8C569.907 13.0667 569.773 13.2 569.507 13.2H560.291ZM572.274 21.872C572.007 21.872 571.874 21.728 571.874 21.44V16.352C571.874 16.064 572.007 15.92 572.274 15.92H577.394C577.66 15.92 577.794 16.064 577.794 16.352V21.44C577.794 21.728 577.66 21.872 577.394 21.872H572.274ZM583.271 16.352C583.004 16.352 582.871 16.2187 582.871 15.952V6.72C582.871 6.45333 583.004 6.32 583.271 6.32H586.215C586.481 6.32 586.615 6.45333 586.615 6.72V15.952C586.615 16.2187 586.481 16.352 586.215 16.352H583.271ZM580.135 13.2C579.868 13.2 579.735 13.0667 579.735 12.8V9.872C579.735 9.60533 579.868 9.472 580.135 9.472H589.351C589.617 9.472 589.751 9.60533 589.751 9.872V12.8C589.751 13.0667 589.617 13.2 589.351 13.2H580.135ZM592.598 8.4C592.363 8.4 592.23 8.27733 592.198 8.032L591.718 1.088C591.686 0.810666 591.819 0.671999 592.118 0.671999H595.798C596.096 0.671999 596.23 0.810666 596.198 1.088L595.718 8.032C595.686 8.27733 595.552 8.4 595.318 8.4H592.598ZM597.846 8.4C597.611 8.4 597.478 8.27733 597.446 8.032L596.966 1.088C596.934 0.810666 597.067 0.671999 597.366 0.671999H601.046C601.344 0.671999 601.478 0.810666 601.446 1.088L600.966 8.032C600.934 8.27733 600.8 8.4 600.566 8.4H597.846ZM606.927 16.352C606.66 16.352 606.527 16.2187 606.527 15.952V6.72C606.527 6.45333 606.66 6.32 606.927 6.32H609.871C610.137 6.32 610.271 6.45333 610.271 6.72V15.952C610.271 16.2187 610.137 16.352 609.871 16.352H606.927ZM603.791 13.2C603.524 13.2 603.391 13.0667 603.391 12.8V9.872C603.391 9.60533 603.524 9.472 603.791 9.472H613.007C613.273 9.472 613.407 9.60533 613.407 9.872V12.8C613.407 13.0667 613.273 13.2 613.007 13.2H603.791ZM615.774 21.872C615.507 21.872 615.374 21.728 615.374 21.44V16.352C615.374 16.064 615.507 15.92 615.774 15.92H620.894C621.16 15.92 621.294 16.064 621.294 16.352V21.44C621.294 21.728 621.16 21.872 620.894 21.872H615.774ZM626.771 16.352C626.504 16.352 626.371 16.2187 626.371 15.952V6.72C626.371 6.45333 626.504 6.32 626.771 6.32H629.715C629.981 6.32 630.115 6.45333 630.115 6.72V15.952C630.115 16.2187 629.981 16.352 629.715 16.352H626.771ZM623.635 13.2C623.368 13.2 623.235 13.0667 623.235 12.8V9.872C623.235 9.60533 623.368 9.472 623.635 9.472H632.851C633.117 9.472 633.251 9.60533 633.251 9.872V12.8C633.251 13.0667 633.117 13.2 632.851 13.2H623.635ZM636.098 8.4C635.863 8.4 635.73 8.27733 635.698 8.032L635.218 1.088C635.186 0.810666 635.319 0.671999 635.618 0.671999H639.298C639.596 0.671999 639.73 0.810666 639.698 1.088L639.218 8.032C639.186 8.27733 639.052 8.4 638.818 8.4H636.098ZM641.346 8.4C641.111 8.4 640.978 8.27733 640.946 8.032L640.466 1.088C640.434 0.810666 640.567 0.671999 640.866 0.671999H644.546C644.844 0.671999 644.978 0.810666 644.946 1.088L644.466 8.032C644.434 8.27733 644.3 8.4 644.066 8.4H641.346ZM650.427 16.352C650.16 16.352 650.027 16.2187 650.027 15.952V6.72C650.027 6.45333 650.16 6.32 650.427 6.32H653.371C653.637 6.32 653.771 6.45333 653.771 6.72V15.952C653.771 16.2187 653.637 16.352 653.371 16.352H650.427ZM647.291 13.2C647.024 13.2 646.891 13.0667 646.891 12.8V9.872C646.891 9.60533 647.024 9.472 647.291 9.472H656.507C656.773 9.472 656.907 9.60533 656.907 9.872V12.8C656.907 13.0667 656.773 13.2 656.507 13.2H647.291ZM659.274 21.872C659.007 21.872 658.874 21.728 658.874 21.44V16.352C658.874 16.064 659.007 15.92 659.274 15.92H664.394C664.66 15.92 664.794 16.064 664.794 16.352V21.44C664.794 21.728 664.66 21.872 664.394 21.872H659.274ZM670.271 16.352C670.004 16.352 669.871 16.2187 669.871 15.952V6.72C669.871 6.45333 670.004 6.32 670.271 6.32H673.215C673.481 6.32 673.615 6.45333 673.615 6.72V15.952C673.615 16.2187 673.481 16.352 673.215 16.352H670.271ZM667.135 13.2C666.868 13.2 666.735 13.0667 666.735 12.8V9.872C666.735 9.60533 666.868 9.472 667.135 9.472H676.351C676.617 9.472 676.751 9.60533 676.751 9.872V12.8C676.751 13.0667 676.617 13.2 676.351 13.2H667.135ZM679.598 8.4C679.363 8.4 679.23 8.27733 679.198 8.032L678.718 1.088C678.686 0.810666 678.819 0.671999 679.118 0.671999H682.798C683.096 0.671999 683.23 0.810666 683.198 1.088L682.718 8.032C682.686 8.27733 682.552 8.4 682.318 8.4H679.598ZM684.846 8.4C684.611 8.4 684.478 8.27733 684.446 8.032L683.966 1.088C683.934 0.810666 684.067 0.671999 684.366 0.671999H688.046C688.344 0.671999 688.478 0.810666 688.446 1.088L687.966 8.032C687.934 8.27733 687.8 8.4 687.566 8.4H684.846ZM693.927 16.352C693.66 16.352 693.527 16.2187 693.527 15.952V6.72C693.527 6.45333 693.66 6.32 693.927 6.32H696.871C697.137 6.32 697.271 6.45333 697.271 6.72V15.952C697.271 16.2187 697.137 16.352 696.871 16.352H693.927ZM690.791 13.2C690.524 13.2 690.391 13.0667 690.391 12.8V9.872C690.391 9.60533 690.524 9.472 690.791 9.472H700.007C700.273 9.472 700.407 9.60533 700.407 9.872V12.8C700.407 13.0667 700.273 13.2 700.007 13.2H690.791ZM702.774 21.872C702.507 21.872 702.374 21.728 702.374 21.44V16.352C702.374 16.064 702.507 15.92 702.774 15.92H707.894C708.16 15.92 708.294 16.064 708.294 16.352V21.44C708.294 21.728 708.16 21.872 707.894 21.872H702.774ZM713.771 16.352C713.504 16.352 713.371 16.2187 713.371 15.952V6.72C713.371 6.45333 713.504 6.32 713.771 6.32H716.715C716.981 6.32 717.115 6.45333 717.115 6.72V15.952C717.115 16.2187 716.981 16.352 716.715 16.352H713.771ZM710.635 13.2C710.368 13.2 710.235 13.0667 710.235 12.8V9.872C710.235 9.60533 710.368 9.472 710.635 9.472H719.851C720.117 9.472 720.251 9.60533 720.251 9.872V12.8C720.251 13.0667 720.117 13.2 719.851 13.2H710.635ZM723.098 8.4C722.863 8.4 722.73 8.27733 722.698 8.032L722.218 1.088C722.186 0.810666 722.319 0.671999 722.618 0.671999H726.298C726.596 0.671999 726.73 0.810666 726.698 1.088L726.218 8.032C726.186 8.27733 726.052 8.4 725.818 8.4H723.098ZM728.346 8.4C728.111 8.4 727.978 8.27733 727.946 8.032L727.466 1.088C727.434 0.810666 727.567 0.671999 727.866 0.671999H731.546C731.844 0.671999 731.978 0.810666 731.946 1.088L731.466 8.032C731.434 8.27733 731.3 8.4 731.066 8.4H728.346ZM737.427 16.352C737.16 16.352 737.027 16.2187 737.027 15.952V6.72C737.027 6.45333 737.16 6.32 737.427 6.32H740.371C740.637 6.32 740.771 6.45333 740.771 6.72V15.952C740.771 16.2187 740.637 16.352 740.371 16.352H737.427ZM734.291 13.2C734.024 13.2 733.891 13.0667 733.891 12.8V9.872C733.891 9.60533 734.024 9.472 734.291 9.472H743.507C743.773 9.472 743.907 9.60533 743.907 9.872V12.8C743.907 13.0667 743.773 13.2 743.507 13.2H734.291ZM746.274 21.872C746.007 21.872 745.874 21.728 745.874 21.44V16.352C745.874 16.064 746.007 15.92 746.274 15.92H751.394C751.66 15.92 751.794 16.064 751.794 16.352V21.44C751.794 21.728 751.66 21.872 751.394 21.872H746.274ZM757.271 16.352C757.004 16.352 756.871 16.2187 756.871 15.952V6.72C756.871 6.45333 757.004 6.32 757.271 6.32H760.215C760.481 6.32 760.615 6.45333 760.615 6.72V15.952C760.615 16.2187 760.481 16.352 760.215 16.352H757.271ZM754.135 13.2C753.868 13.2 753.735 13.0667 753.735 12.8V9.872C753.735 9.60533 753.868 9.472 754.135 9.472H763.351C763.617 9.472 763.751 9.60533 763.751 9.872V12.8C763.751 13.0667 763.617 13.2 763.351 13.2H754.135ZM766.598 8.4C766.363 8.4 766.23 8.27733 766.198 8.032L765.718 1.088C765.686 0.810666 765.819 0.671999 766.118 0.671999H769.798C770.096 0.671999 770.23 0.810666 770.198 1.088L769.718 8.032C769.686 8.27733 769.552 8.4 769.318 8.4H766.598ZM771.846 8.4C771.611 8.4 771.478 8.27733 771.446 8.032L770.966 1.088C770.934 0.810666 771.067 0.671999 771.366 0.671999H775.046C775.344 0.671999 775.478 0.810666 775.446 1.088L774.966 8.032C774.934 8.27733 774.8 8.4 774.566 8.4H771.846ZM780.927 16.352C780.66 16.352 780.527 16.2187 780.527 15.952V6.72C780.527 6.45333 780.66 6.32 780.927 6.32H783.871C784.137 6.32 784.271 6.45333 784.271 6.72V15.952C784.271 16.2187 784.137 16.352 783.871 16.352H780.927ZM777.791 13.2C777.524 13.2 777.391 13.0667 777.391 12.8V9.872C777.391 9.60533 777.524 9.472 777.791 9.472H787.007C787.273 9.472 787.407 9.60533 787.407 9.872V12.8C787.407 13.0667 787.273 13.2 787.007 13.2H777.791ZM789.774 21.872C789.507 21.872 789.374 21.728 789.374 21.44V16.352C789.374 16.064 789.507 15.92 789.774 15.92H794.894C795.16 15.92 795.294 16.064 795.294 16.352V21.44C795.294 21.728 795.16 21.872 794.894 21.872H789.774ZM800.771 16.352C800.504 16.352 800.371 16.2187 800.371 15.952V6.72C800.371 6.45333 800.504 6.32 800.771 6.32H803.715C803.981 6.32 804.115 6.45333 804.115 6.72V15.952C804.115 16.2187 803.981 16.352 803.715 16.352H800.771ZM797.635 13.2C797.368 13.2 797.235 13.0667 797.235 12.8V9.872C797.235 9.60533 797.368 9.472 797.635 9.472H806.851C807.117 9.472 807.251 9.60533 807.251 9.872V12.8C807.251 13.0667 807.117 13.2 806.851 13.2H797.635ZM810.098 8.4C809.863 8.4 809.73 8.27733 809.698 8.032L809.218 1.088C809.186 0.810666 809.319 0.671999 809.618 0.671999H813.298C813.596 0.671999 813.73 0.810666 813.698 1.088L813.218 8.032C813.186 8.27733 813.052 8.4 812.818 8.4H810.098ZM815.346 8.4C815.111 8.4 814.978 8.27733 814.946 8.032L814.466 1.088C814.434 0.810666 814.567 0.671999 814.866 0.671999H818.546C818.844 0.671999 818.978 0.810666 818.946 1.088L818.466 8.032C818.434 8.27733 818.3 8.4 818.066 8.4H815.346ZM824.427 16.352C824.16 16.352 824.027 16.2187 824.027 15.952V6.72C824.027 6.45333 824.16 6.32 824.427 6.32H827.371C827.637 6.32 827.771 6.45333 827.771 6.72V15.952C827.771 16.2187 827.637 16.352 827.371 16.352H824.427ZM821.291 13.2C821.024 13.2 820.891 13.0667 820.891 12.8V9.872C820.891 9.60533 821.024 9.472 821.291 9.472H830.507C830.773 9.472 830.907 9.60533 830.907 9.872V12.8C830.907 13.0667 830.773 13.2 830.507 13.2H821.291ZM833.274 21.872C833.007 21.872 832.874 21.728 832.874 21.44V16.352C832.874 16.064 833.007 15.92 833.274 15.92H838.394C838.66 15.92 838.794 16.064 838.794 16.352V21.44C838.794 21.728 838.66 21.872 838.394 21.872H833.274ZM6.64 68.672C6.36267 68.672 6.14933 68.5973 6 68.448L1.2 63.648C1.08267 63.5307 1.008 63.4347 0.976 63.36C0.944 63.296 0.928 63.1787 0.928 63.008V40.448C0.928 40.2773 0.944 40.16 0.976 40.096C1.008 40.0213 1.08267 39.9253 1.2 39.808L6 35.008C6.14933 34.8693 6.36267 34.8 6.64 34.8H9.52C9.78667 34.8 9.92 34.9333 9.92 35.2V37.488C9.92 37.584 9.90933 37.6747 9.888 37.76C9.86667 37.8347 9.81333 37.9147 9.728 38L5.952 41.792V61.68L9.728 65.472C9.81333 65.5467 9.86667 65.6267 9.888 65.712C9.90933 65.7973 9.92 65.8827 9.92 65.968V68.272C9.92 68.5387 9.78667 68.672 9.52 68.672H6.64ZM837.28 68.672H834.4C834.133 68.672 834 68.5387 834 68.272V65.968C834 65.8827 834.011 65.7973 834.032 65.712C834.064 65.6267 834.117 65.5467 834.192 65.472L837.968 61.68V41.792L834.192 38C834.117 37.9147 834.064 37.8347 834.032 37.76C834.011 37.6747 834 37.584 834 37.488V35.2C834 34.9333 834.133 34.8 834.4 34.8H837.28C837.557 34.8 837.771 34.8693 837.92 35.008L842.72 39.808C842.837 39.9253 842.912 40.0213 842.944 40.096C842.976 40.16 842.992 40.2773 842.992 40.448V63.008C842.992 63.1787 842.976 63.296 842.944 63.36C842.912 63.4347 842.837 63.5307 842.72 63.648L837.92 68.448C837.771 68.5973 837.557 68.672 837.28 68.672ZM10.3738 108.672H7.49375C7.22708 108.672 7.09375 108.539 7.09375 108.272V105.968C7.09375 105.883 7.10442 105.797 7.12575 105.712C7.15775 105.627 7.21108 105.547 7.28575 105.472L11.0618 101.68V81.792L7.28575 78C7.21108 77.9147 7.15775 77.8347 7.12575 77.76C7.10442 77.6747 7.09375 77.584 7.09375 77.488V75.2C7.09375 74.9333 7.22708 74.8 7.49375 74.8H10.3738C10.6511 74.8 10.8644 74.8693 11.0138 75.008L15.8138 79.808C15.9311 79.9253 16.0058 80.0213 16.0378 80.096C16.0698 80.16 16.0858 80.2773 16.0858 80.448V103.008C16.0858 103.179 16.0698 103.296 16.0378 103.36C16.0058 103.435 15.9311 103.531 15.8138 103.648L11.0138 108.448C10.8644 108.597 10.6511 108.672 10.3738 108.672ZM833.546 108.672C833.269 108.672 833.056 108.597 832.906 108.448L828.106 103.648C827.989 103.531 827.914 103.435 827.882 103.36C827.85 103.296 827.834 103.179 827.834 103.008V80.448C827.834 80.2773 827.85 80.16 827.882 80.096C827.914 80.0213 827.989 79.9253 828.106 79.808L832.906 75.008C833.056 74.8693 833.269 74.8 833.546 74.8H836.426C836.693 74.8 836.826 74.9333 836.826 75.2V77.488C836.826 77.584 836.816 77.6747 836.794 77.76C836.773 77.8347 836.72 77.9147 836.634 78L832.858 81.792V101.68L836.634 105.472C836.72 105.547 836.773 105.627 836.794 105.712C836.816 105.797 836.826 105.883 836.826 105.968V108.272C836.826 108.539 836.693 108.672 836.426 108.672H833.546ZM6.64 148.672C6.36267 148.672 6.14933 148.597 6 148.448L1.2 143.648C1.08267 143.531 1.008 143.435 0.976 143.36C0.944 143.296 0.928 143.179 0.928 143.008V120.448C0.928 120.277 0.944 120.16 0.976 120.096C1.008 120.021 1.08267 119.925 1.2 119.808L6 115.008C6.14933 114.869 6.36267 114.8 6.64 114.8H9.52C9.78667 114.8 9.92 114.933 9.92 115.2V117.488C9.92 117.584 9.90933 117.675 9.888 117.76C9.86667 117.835 9.81333 117.915 9.728 118L5.952 121.792V141.68L9.728 145.472C9.81333 145.547 9.86667 145.627 9.888 145.712C9.90933 145.797 9.92 145.883 9.92 145.968V148.272C9.92 148.539 9.78667 148.672 9.52 148.672H6.64ZM837.28 148.672H834.4C834.133 148.672 834 148.539 834 148.272V145.968C834 145.883 834.011 145.797 834.032 145.712C834.064 145.627 834.117 145.547 834.192 145.472L837.968 141.68V121.792L834.192 118C834.117 117.915 834.064 117.835 834.032 117.76C834.011 117.675 834 117.584 834 117.488V115.2C834 114.933 834.133 114.8 834.4 114.8H837.28C837.557 114.8 837.771 114.869 837.92 115.008L842.72 119.808C842.837 119.925 842.912 120.021 842.944 120.096C842.976 120.16 842.992 120.277 842.992 120.448V143.008C842.992 143.179 842.976 143.296 842.944 143.36C842.912 143.435 842.837 143.531 842.72 143.648L837.92 148.448C837.771 148.597 837.557 148.672 837.28 148.672ZM7.25375 168.4C7.01908 168.4 6.88575 168.277 6.85375 168.032L6.37375 161.088C6.34175 160.811 6.47508 160.672 6.77375 160.672H10.4538C10.7524 160.672 10.8858 160.811 10.8538 161.088L10.3738 168.032C10.3418 168.277 10.2084 168.4 9.97375 168.4H7.25375ZM12.5018 168.4C12.2671 168.4 12.1338 168.277 12.1018 168.032L11.6218 161.088C11.5898 160.811 11.7231 160.672 12.0218 160.672H15.7018C16.0004 160.672 16.1338 160.811 16.1018 161.088L15.6218 168.032C15.5898 168.277 15.4564 168.4 15.2218 168.4H12.5018ZM21.583 176.352C21.3163 176.352 21.183 176.219 21.183 175.952V166.72C21.183 166.453 21.3163 166.32 21.583 166.32H24.527C24.7937 166.32 24.927 166.453 24.927 166.72V175.952C24.927 176.219 24.7937 176.352 24.527 176.352H21.583ZM18.447 173.2C18.1803 173.2 18.047 173.067 18.047 172.8V169.872C18.047 169.605 18.1803 169.472 18.447 169.472H27.663C27.9297 169.472 28.063 169.605 28.063 169.872V172.8C28.063 173.067 27.9297 173.2 27.663 173.2H18.447ZM30.43 181.872C30.1633 181.872 30.03 181.728 30.03 181.44V176.352C30.03 176.064 30.1633 175.92 30.43 175.92H35.55C35.8167 175.92 35.95 176.064 35.95 176.352V181.44C35.95 181.728 35.8167 181.872 35.55 181.872H30.43ZM41.4268 176.352C41.1601 176.352 41.0268 176.219 41.0268 175.952V166.72C41.0268 166.453 41.1601 166.32 41.4268 166.32H44.3708C44.6374 166.32 44.7708 166.453 44.7708 166.72V175.952C44.7708 176.219 44.6374 176.352 44.3708 176.352H41.4268ZM38.2908 173.2C38.0241 173.2 37.8908 173.067 37.8908 172.8V169.872C37.8908 169.605 38.0241 169.472 38.2908 169.472H47.5068C47.7734 169.472 47.9068 169.605 47.9068 169.872V172.8C47.9068 173.067 47.7734 173.2 47.5068 173.2H38.2908ZM50.7538 168.4C50.5191 168.4 50.3858 168.277 50.3538 168.032L49.8738 161.088C49.8418 160.811 49.9751 160.672 50.2738 160.672H53.9538C54.2524 160.672 54.3858 160.811 54.3538 161.088L53.8738 168.032C53.8418 168.277 53.7084 168.4 53.4738 168.4H50.7538ZM56.0018 168.4C55.7671 168.4 55.6338 168.277 55.6018 168.032L55.1218 161.088C55.0898 160.811 55.2231 160.672 55.5218 160.672H59.2018C59.5004 160.672 59.6338 160.811 59.6018 161.088L59.1218 168.032C59.0898 168.277 58.9564 168.4 58.7218 168.4H56.0018ZM65.083 176.352C64.8163 176.352 64.683 176.219 64.683 175.952V166.72C64.683 166.453 64.8163 166.32 65.083 166.32H68.027C68.2937 166.32 68.427 166.453 68.427 166.72V175.952C68.427 176.219 68.2937 176.352 68.027 176.352H65.083ZM61.947 173.2C61.6803 173.2 61.547 173.067 61.547 172.8V169.872C61.547 169.605 61.6803 169.472 61.947 169.472H71.163C71.4297 169.472 71.563 169.605 71.563 169.872V172.8C71.563 173.067 71.4297 173.2 71.163 173.2H61.947ZM73.93 181.872C73.6633 181.872 73.53 181.728 73.53 181.44V176.352C73.53 176.064 73.6633 175.92 73.93 175.92H79.05C79.3167 175.92 79.45 176.064 79.45 176.352V181.44C79.45 181.728 79.3167 181.872 79.05 181.872H73.93ZM84.9268 176.352C84.6601 176.352 84.5268 176.219 84.5268 175.952V166.72C84.5268 166.453 84.6601 166.32 84.9268 166.32H87.8708C88.1374 166.32 88.2708 166.453 88.2708 166.72V175.952C88.2708 176.219 88.1374 176.352 87.8708 176.352H84.9268ZM81.7908 173.2C81.5241 173.2 81.3908 173.067 81.3908 172.8V169.872C81.3908 169.605 81.5241 169.472 81.7908 169.472H91.0068C91.2734 169.472 91.4068 169.605 91.4068 169.872V172.8C91.4068 173.067 91.2734 173.2 91.0068 173.2H81.7908ZM94.2538 168.4C94.0191 168.4 93.8858 168.277 93.8538 168.032L93.3738 161.088C93.3418 160.811 93.4751 160.672 93.7738 160.672H97.4538C97.7524 160.672 97.8858 160.811 97.8538 161.088L97.3738 168.032C97.3418 168.277 97.2084 168.4 96.9738 168.4H94.2538ZM99.5018 168.4C99.2671 168.4 99.1338 168.277 99.1018 168.032L98.6218 161.088C98.5898 160.811 98.7231 160.672 99.0218 160.672H102.702C103 160.672 103.134 160.811 103.102 161.088L102.622 168.032C102.59 168.277 102.456 168.4 102.222 168.4H99.5018ZM108.583 176.352C108.316 176.352 108.183 176.219 108.183 175.952V166.72C108.183 166.453 108.316 166.32 108.583 166.32H111.527C111.794 166.32 111.927 166.453 111.927 166.72V175.952C111.927 176.219 111.794 176.352 111.527 176.352H108.583ZM105.447 173.2C105.18 173.2 105.047 173.067 105.047 172.8V169.872C105.047 169.605 105.18 169.472 105.447 169.472H114.663C114.93 169.472 115.063 169.605 115.063 169.872V172.8C115.063 173.067 114.93 173.2 114.663 173.2H105.447ZM117.43 181.872C117.163 181.872 117.03 181.728 117.03 181.44V176.352C117.03 176.064 117.163 175.92 117.43 175.92H122.55C122.817 175.92 122.95 176.064 122.95 176.352V181.44C122.95 181.728 122.817 181.872 122.55 181.872H117.43ZM128.427 176.352C128.16 176.352 128.027 176.219 128.027 175.952V166.72C128.027 166.453 128.16 166.32 128.427 166.32H131.371C131.637 166.32 131.771 166.453 131.771 166.72V175.952C131.771 176.219 131.637 176.352 131.371 176.352H128.427ZM125.291 173.2C125.024 173.2 124.891 173.067 124.891 172.8V169.872C124.891 169.605 125.024 169.472 125.291 169.472H134.507C134.773 169.472 134.907 169.605 134.907 169.872V172.8C134.907 173.067 134.773 173.2 134.507 173.2H125.291ZM137.754 168.4C137.519 168.4 137.386 168.277 137.354 168.032L136.874 161.088C136.842 160.811 136.975 160.672 137.274 160.672H140.954C141.252 160.672 141.386 160.811 141.354 161.088L140.874 168.032C140.842 168.277 140.708 168.4 140.474 168.4H137.754ZM143.002 168.4C142.767 168.4 142.634 168.277 142.602 168.032L142.122 161.088C142.09 160.811 142.223 160.672 142.522 160.672H146.202C146.5 160.672 146.634 160.811 146.602 161.088L146.122 168.032C146.09 168.277 145.956 168.4 145.722 168.4H143.002ZM152.083 176.352C151.816 176.352 151.683 176.219 151.683 175.952V166.72C151.683 166.453 151.816 166.32 152.083 166.32H155.027C155.294 166.32 155.427 166.453 155.427 166.72V175.952C155.427 176.219 155.294 176.352 155.027 176.352H152.083ZM148.947 173.2C148.68 173.2 148.547 173.067 148.547 172.8V169.872C148.547 169.605 148.68 169.472 148.947 169.472H158.163C158.43 169.472 158.563 169.605 158.563 169.872V172.8C158.563 173.067 158.43 173.2 158.163 173.2H148.947ZM160.93 181.872C160.663 181.872 160.53 181.728 160.53 181.44V176.352C160.53 176.064 160.663 175.92 160.93 175.92H166.05C166.317 175.92 166.45 176.064 166.45 176.352V181.44C166.45 181.728 166.317 181.872 166.05 181.872H160.93ZM171.927 176.352C171.66 176.352 171.527 176.219 171.527 175.952V166.72C171.527 166.453 171.66 166.32 171.927 166.32H174.871C175.137 166.32 175.271 166.453 175.271 166.72V175.952C175.271 176.219 175.137 176.352 174.871 176.352H171.927ZM168.791 173.2C168.524 173.2 168.391 173.067 168.391 172.8V169.872C168.391 169.605 168.524 169.472 168.791 169.472H178.007C178.273 169.472 178.407 169.605 178.407 169.872V172.8C178.407 173.067 178.273 173.2 178.007 173.2H168.791ZM181.254 168.4C181.019 168.4 180.886 168.277 180.854 168.032L180.374 161.088C180.342 160.811 180.475 160.672 180.774 160.672H184.454C184.752 160.672 184.886 160.811 184.854 161.088L184.374 168.032C184.342 168.277 184.208 168.4 183.974 168.4H181.254ZM186.502 168.4C186.267 168.4 186.134 168.277 186.102 168.032L185.622 161.088C185.59 160.811 185.723 160.672 186.022 160.672H189.702C190 160.672 190.134 160.811 190.102 161.088L189.622 168.032C189.59 168.277 189.456 168.4 189.222 168.4H186.502ZM195.583 176.352C195.316 176.352 195.183 176.219 195.183 175.952V166.72C195.183 166.453 195.316 166.32 195.583 166.32H198.527C198.794 166.32 198.927 166.453 198.927 166.72V175.952C198.927 176.219 198.794 176.352 198.527 176.352H195.583ZM192.447 173.2C192.18 173.2 192.047 173.067 192.047 172.8V169.872C192.047 169.605 192.18 169.472 192.447 169.472H201.663C201.93 169.472 202.063 169.605 202.063 169.872V172.8C202.063 173.067 201.93 173.2 201.663 173.2H192.447ZM204.43 181.872C204.163 181.872 204.03 181.728 204.03 181.44V176.352C204.03 176.064 204.163 175.92 204.43 175.92H209.55C209.817 175.92 209.95 176.064 209.95 176.352V181.44C209.95 181.728 209.817 181.872 209.55 181.872H204.43ZM215.427 176.352C215.16 176.352 215.027 176.219 215.027 175.952V166.72C215.027 166.453 215.16 166.32 215.427 166.32H218.371C218.637 166.32 218.771 166.453 218.771 166.72V175.952C218.771 176.219 218.637 176.352 218.371 176.352H215.427ZM212.291 173.2C212.024 173.2 211.891 173.067 211.891 172.8V169.872C211.891 169.605 212.024 169.472 212.291 169.472H221.507C221.773 169.472 221.907 169.605 221.907 169.872V172.8C221.907 173.067 221.773 173.2 221.507 173.2H212.291ZM224.754 168.4C224.519 168.4 224.386 168.277 224.354 168.032L223.874 161.088C223.842 160.811 223.975 160.672 224.274 160.672H227.954C228.252 160.672 228.386 160.811 228.354 161.088L227.874 168.032C227.842 168.277 227.708 168.4 227.474 168.4H224.754ZM230.002 168.4C229.767 168.4 229.634 168.277 229.602 168.032L229.122 161.088C229.09 160.811 229.223 160.672 229.522 160.672H233.202C233.5 160.672 233.634 160.811 233.602 161.088L233.122 168.032C233.09 168.277 232.956 168.4 232.722 168.4H230.002ZM239.083 176.352C238.816 176.352 238.683 176.219 238.683 175.952V166.72C238.683 166.453 238.816 166.32 239.083 166.32H242.027C242.294 166.32 242.427 166.453 242.427 166.72V175.952C242.427 176.219 242.294 176.352 242.027 176.352H239.083ZM235.947 173.2C235.68 173.2 235.547 173.067 235.547 172.8V169.872C235.547 169.605 235.68 169.472 235.947 169.472H245.163C245.43 169.472 245.563 169.605 245.563 169.872V172.8C245.563 173.067 245.43 173.2 245.163 173.2H235.947ZM247.93 181.872C247.663 181.872 247.53 181.728 247.53 181.44V176.352C247.53 176.064 247.663 175.92 247.93 175.92H253.05C253.317 175.92 253.45 176.064 253.45 176.352V181.44C253.45 181.728 253.317 181.872 253.05 181.872H247.93ZM258.927 176.352C258.66 176.352 258.527 176.219 258.527 175.952V166.72C258.527 166.453 258.66 166.32 258.927 166.32H261.871C262.137 166.32 262.271 166.453 262.271 166.72V175.952C262.271 176.219 262.137 176.352 261.871 176.352H258.927ZM255.791 173.2C255.524 173.2 255.391 173.067 255.391 172.8V169.872C255.391 169.605 255.524 169.472 255.791 169.472H265.007C265.273 169.472 265.407 169.605 265.407 169.872V172.8C265.407 173.067 265.273 173.2 265.007 173.2H255.791ZM268.254 168.4C268.019 168.4 267.886 168.277 267.854 168.032L267.374 161.088C267.342 160.811 267.475 160.672 267.774 160.672H271.454C271.752 160.672 271.886 160.811 271.854 161.088L271.374 168.032C271.342 168.277 271.208 168.4 270.974 168.4H268.254ZM273.502 168.4C273.267 168.4 273.134 168.277 273.102 168.032L272.622 161.088C272.59 160.811 272.723 160.672 273.022 160.672H276.702C277 160.672 277.134 160.811 277.102 161.088L276.622 168.032C276.59 168.277 276.456 168.4 276.222 168.4H273.502ZM282.583 176.352C282.316 176.352 282.183 176.219 282.183 175.952V166.72C282.183 166.453 282.316 166.32 282.583 166.32H285.527C285.794 166.32 285.927 166.453 285.927 166.72V175.952C285.927 176.219 285.794 176.352 285.527 176.352H282.583ZM279.447 173.2C279.18 173.2 279.047 173.067 279.047 172.8V169.872C279.047 169.605 279.18 169.472 279.447 169.472H288.663C288.93 169.472 289.063 169.605 289.063 169.872V172.8C289.063 173.067 288.93 173.2 288.663 173.2H279.447ZM291.43 181.872C291.163 181.872 291.03 181.728 291.03 181.44V176.352C291.03 176.064 291.163 175.92 291.43 175.92H296.55C296.817 175.92 296.95 176.064 296.95 176.352V181.44C296.95 181.728 296.817 181.872 296.55 181.872H291.43ZM302.427 176.352C302.16 176.352 302.027 176.219 302.027 175.952V166.72C302.027 166.453 302.16 166.32 302.427 166.32H305.371C305.637 166.32 305.771 166.453 305.771 166.72V175.952C305.771 176.219 305.637 176.352 305.371 176.352H302.427ZM299.291 173.2C299.024 173.2 298.891 173.067 298.891 172.8V169.872C298.891 169.605 299.024 169.472 299.291 169.472H308.507C308.773 169.472 308.907 169.605 308.907 169.872V172.8C308.907 173.067 308.773 173.2 308.507 173.2H299.291ZM311.754 168.4C311.519 168.4 311.386 168.277 311.354 168.032L310.874 161.088C310.842 160.811 310.975 160.672 311.274 160.672H314.954C315.252 160.672 315.386 160.811 315.354 161.088L314.874 168.032C314.842 168.277 314.708 168.4 314.474 168.4H311.754ZM317.002 168.4C316.767 168.4 316.634 168.277 316.602 168.032L316.122 161.088C316.09 160.811 316.223 160.672 316.522 160.672H320.202C320.5 160.672 320.634 160.811 320.602 161.088L320.122 168.032C320.09 168.277 319.956 168.4 319.722 168.4H317.002ZM326.083 176.352C325.816 176.352 325.683 176.219 325.683 175.952V166.72C325.683 166.453 325.816 166.32 326.083 166.32H329.027C329.294 166.32 329.427 166.453 329.427 166.72V175.952C329.427 176.219 329.294 176.352 329.027 176.352H326.083ZM322.947 173.2C322.68 173.2 322.547 173.067 322.547 172.8V169.872C322.547 169.605 322.68 169.472 322.947 169.472H332.163C332.43 169.472 332.563 169.605 332.563 169.872V172.8C332.563 173.067 332.43 173.2 332.163 173.2H322.947ZM334.93 181.872C334.663 181.872 334.53 181.728 334.53 181.44V176.352C334.53 176.064 334.663 175.92 334.93 175.92H340.05C340.317 175.92 340.45 176.064 340.45 176.352V181.44C340.45 181.728 340.317 181.872 340.05 181.872H334.93ZM345.927 176.352C345.66 176.352 345.527 176.219 345.527 175.952V166.72C345.527 166.453 345.66 166.32 345.927 166.32H348.871C349.137 166.32 349.271 166.453 349.271 166.72V175.952C349.271 176.219 349.137 176.352 348.871 176.352H345.927ZM342.791 173.2C342.524 173.2 342.391 173.067 342.391 172.8V169.872C342.391 169.605 342.524 169.472 342.791 169.472H352.007C352.273 169.472 352.407 169.605 352.407 169.872V172.8C352.407 173.067 352.273 173.2 352.007 173.2H342.791ZM355.254 168.4C355.019 168.4 354.886 168.277 354.854 168.032L354.374 161.088C354.342 160.811 354.475 160.672 354.774 160.672H358.454C358.752 160.672 358.886 160.811 358.854 161.088L358.374 168.032C358.342 168.277 358.208 168.4 357.974 168.4H355.254ZM360.502 168.4C360.267 168.4 360.134 168.277 360.102 168.032L359.622 161.088C359.59 160.811 359.723 160.672 360.022 160.672H363.702C364 160.672 364.134 160.811 364.102 161.088L363.622 168.032C363.59 168.277 363.456 168.4 363.222 168.4H360.502ZM369.583 176.352C369.316 176.352 369.183 176.219 369.183 175.952V166.72C369.183 166.453 369.316 166.32 369.583 166.32H372.527C372.794 166.32 372.927 166.453 372.927 166.72V175.952C372.927 176.219 372.794 176.352 372.527 176.352H369.583ZM366.447 173.2C366.18 173.2 366.047 173.067 366.047 172.8V169.872C366.047 169.605 366.18 169.472 366.447 169.472H375.663C375.93 169.472 376.063 169.605 376.063 169.872V172.8C376.063 173.067 375.93 173.2 375.663 173.2H366.447ZM378.43 181.872C378.163 181.872 378.03 181.728 378.03 181.44V176.352C378.03 176.064 378.163 175.92 378.43 175.92H383.55C383.817 175.92 383.95 176.064 383.95 176.352V181.44C383.95 181.728 383.817 181.872 383.55 181.872H378.43ZM389.427 176.352C389.16 176.352 389.027 176.219 389.027 175.952V166.72C389.027 166.453 389.16 166.32 389.427 166.32H392.371C392.637 166.32 392.771 166.453 392.771 166.72V175.952C392.771 176.219 392.637 176.352 392.371 176.352H389.427ZM386.291 173.2C386.024 173.2 385.891 173.067 385.891 172.8V169.872C385.891 169.605 386.024 169.472 386.291 169.472H395.507C395.773 169.472 395.907 169.605 395.907 169.872V172.8C395.907 173.067 395.773 173.2 395.507 173.2H386.291ZM398.754 168.4C398.519 168.4 398.386 168.277 398.354 168.032L397.874 161.088C397.842 160.811 397.975 160.672 398.274 160.672H401.954C402.252 160.672 402.386 160.811 402.354 161.088L401.874 168.032C401.842 168.277 401.708 168.4 401.474 168.4H398.754ZM404.002 168.4C403.767 168.4 403.634 168.277 403.602 168.032L403.122 161.088C403.09 160.811 403.223 160.672 403.522 160.672H407.202C407.5 160.672 407.634 160.811 407.602 161.088L407.122 168.032C407.09 168.277 406.956 168.4 406.722 168.4H404.002ZM413.083 176.352C412.816 176.352 412.683 176.219 412.683 175.952V166.72C412.683 166.453 412.816 166.32 413.083 166.32H416.027C416.294 166.32 416.427 166.453 416.427 166.72V175.952C416.427 176.219 416.294 176.352 416.027 176.352H413.083ZM409.947 173.2C409.68 173.2 409.547 173.067 409.547 172.8V169.872C409.547 169.605 409.68 169.472 409.947 169.472H419.163C419.43 169.472 419.563 169.605 419.563 169.872V172.8C419.563 173.067 419.43 173.2 419.163 173.2H409.947ZM421.93 181.872C421.663 181.872 421.53 181.728 421.53 181.44V176.352C421.53 176.064 421.663 175.92 421.93 175.92H427.05C427.317 175.92 427.45 176.064 427.45 176.352V181.44C427.45 181.728 427.317 181.872 427.05 181.872H421.93ZM432.927 176.352C432.66 176.352 432.527 176.219 432.527 175.952V166.72C432.527 166.453 432.66 166.32 432.927 166.32H435.871C436.137 166.32 436.271 166.453 436.271 166.72V175.952C436.271 176.219 436.137 176.352 435.871 176.352H432.927ZM429.791 173.2C429.524 173.2 429.391 173.067 429.391 172.8V169.872C429.391 169.605 429.524 169.472 429.791 169.472H439.007C439.273 169.472 439.407 169.605 439.407 169.872V172.8C439.407 173.067 439.273 173.2 439.007 173.2H429.791ZM442.254 168.4C442.019 168.4 441.886 168.277 441.854 168.032L441.374 161.088C441.342 160.811 441.475 160.672 441.774 160.672H445.454C445.752 160.672 445.886 160.811 445.854 161.088L445.374 168.032C445.342 168.277 445.208 168.4 444.974 168.4H442.254ZM447.502 168.4C447.267 168.4 447.134 168.277 447.102 168.032L446.622 161.088C446.59 160.811 446.723 160.672 447.022 160.672H450.702C451 160.672 451.134 160.811 451.102 161.088L450.622 168.032C450.59 168.277 450.456 168.4 450.222 168.4H447.502ZM456.583 176.352C456.316 176.352 456.183 176.219 456.183 175.952V166.72C456.183 166.453 456.316 166.32 456.583 166.32H459.527C459.794 166.32 459.927 166.453 459.927 166.72V175.952C459.927 176.219 459.794 176.352 459.527 176.352H456.583ZM453.447 173.2C453.18 173.2 453.047 173.067 453.047 172.8V169.872C453.047 169.605 453.18 169.472 453.447 169.472H462.663C462.93 169.472 463.063 169.605 463.063 169.872V172.8C463.063 173.067 462.93 173.2 462.663 173.2H453.447ZM465.43 181.872C465.163 181.872 465.03 181.728 465.03 181.44V176.352C465.03 176.064 465.163 175.92 465.43 175.92H470.55C470.817 175.92 470.95 176.064 470.95 176.352V181.44C470.95 181.728 470.817 181.872 470.55 181.872H465.43ZM476.427 176.352C476.16 176.352 476.027 176.219 476.027 175.952V166.72C476.027 166.453 476.16 166.32 476.427 166.32H479.371C479.637 166.32 479.771 166.453 479.771 166.72V175.952C479.771 176.219 479.637 176.352 479.371 176.352H476.427ZM473.291 173.2C473.024 173.2 472.891 173.067 472.891 172.8V169.872C472.891 169.605 473.024 169.472 473.291 169.472H482.507C482.773 169.472 482.907 169.605 482.907 169.872V172.8C482.907 173.067 482.773 173.2 482.507 173.2H473.291ZM485.754 168.4C485.519 168.4 485.386 168.277 485.354 168.032L484.874 161.088C484.842 160.811 484.975 160.672 485.274 160.672H488.954C489.252 160.672 489.386 160.811 489.354 161.088L488.874 168.032C488.842 168.277 488.708 168.4 488.474 168.4H485.754ZM491.002 168.4C490.767 168.4 490.634 168.277 490.602 168.032L490.122 161.088C490.09 160.811 490.223 160.672 490.522 160.672H494.202C494.5 160.672 494.634 160.811 494.602 161.088L494.122 168.032C494.09 168.277 493.956 168.4 493.722 168.4H491.002ZM500.083 176.352C499.816 176.352 499.683 176.219 499.683 175.952V166.72C499.683 166.453 499.816 166.32 500.083 166.32H503.027C503.294 166.32 503.427 166.453 503.427 166.72V175.952C503.427 176.219 503.294 176.352 503.027 176.352H500.083ZM496.947 173.2C496.68 173.2 496.547 173.067 496.547 172.8V169.872C496.547 169.605 496.68 169.472 496.947 169.472H506.163C506.43 169.472 506.563 169.605 506.563 169.872V172.8C506.563 173.067 506.43 173.2 506.163 173.2H496.947ZM508.93 181.872C508.663 181.872 508.53 181.728 508.53 181.44V176.352C508.53 176.064 508.663 175.92 508.93 175.92H514.05C514.317 175.92 514.45 176.064 514.45 176.352V181.44C514.45 181.728 514.317 181.872 514.05 181.872H508.93ZM519.927 176.352C519.66 176.352 519.527 176.219 519.527 175.952V166.72C519.527 166.453 519.66 166.32 519.927 166.32H522.871C523.137 166.32 523.271 166.453 523.271 166.72V175.952C523.271 176.219 523.137 176.352 522.871 176.352H519.927ZM516.791 173.2C516.524 173.2 516.391 173.067 516.391 172.8V169.872C516.391 169.605 516.524 169.472 516.791 169.472H526.007C526.273 169.472 526.407 169.605 526.407 169.872V172.8C526.407 173.067 526.273 173.2 526.007 173.2H516.791ZM529.254 168.4C529.019 168.4 528.886 168.277 528.854 168.032L528.374 161.088C528.342 160.811 528.475 160.672 528.774 160.672H532.454C532.752 160.672 532.886 160.811 532.854 161.088L532.374 168.032C532.342 168.277 532.208 168.4 531.974 168.4H529.254ZM534.502 168.4C534.267 168.4 534.134 168.277 534.102 168.032L533.622 161.088C533.59 160.811 533.723 160.672 534.022 160.672H537.702C538 160.672 538.134 160.811 538.102 161.088L537.622 168.032C537.59 168.277 537.456 168.4 537.222 168.4H534.502ZM543.583 176.352C543.316 176.352 543.183 176.219 543.183 175.952V166.72C543.183 166.453 543.316 166.32 543.583 166.32H546.527C546.794 166.32 546.927 166.453 546.927 166.72V175.952C546.927 176.219 546.794 176.352 546.527 176.352H543.583ZM540.447 173.2C540.18 173.2 540.047 173.067 540.047 172.8V169.872C540.047 169.605 540.18 169.472 540.447 169.472H549.663C549.93 169.472 550.063 169.605 550.063 169.872V172.8C550.063 173.067 549.93 173.2 549.663 173.2H540.447ZM552.43 181.872C552.163 181.872 552.03 181.728 552.03 181.44V176.352C552.03 176.064 552.163 175.92 552.43 175.92H557.55C557.817 175.92 557.95 176.064 557.95 176.352V181.44C557.95 181.728 557.817 181.872 557.55 181.872H552.43ZM563.427 176.352C563.16 176.352 563.027 176.219 563.027 175.952V166.72C563.027 166.453 563.16 166.32 563.427 166.32H566.371C566.637 166.32 566.771 166.453 566.771 166.72V175.952C566.771 176.219 566.637 176.352 566.371 176.352H563.427ZM560.291 173.2C560.024 173.2 559.891 173.067 559.891 172.8V169.872C559.891 169.605 560.024 169.472 560.291 169.472H569.507C569.773 169.472 569.907 169.605 569.907 169.872V172.8C569.907 173.067 569.773 173.2 569.507 173.2H560.291ZM572.754 168.4C572.519 168.4 572.386 168.277 572.354 168.032L571.874 161.088C571.842 160.811 571.975 160.672 572.274 160.672H575.954C576.252 160.672 576.386 160.811 576.354 161.088L575.874 168.032C575.842 168.277 575.708 168.4 575.474 168.4H572.754ZM578.002 168.4C577.767 168.4 577.634 168.277 577.602 168.032L577.122 161.088C577.09 160.811 577.223 160.672 577.522 160.672H581.202C581.5 160.672 581.634 160.811 581.602 161.088L581.122 168.032C581.09 168.277 580.956 168.4 580.722 168.4H578.002ZM587.083 176.352C586.816 176.352 586.683 176.219 586.683 175.952V166.72C586.683 166.453 586.816 166.32 587.083 166.32H590.027C590.294 166.32 590.427 166.453 590.427 166.72V175.952C590.427 176.219 590.294 176.352 590.027 176.352H587.083ZM583.947 173.2C583.68 173.2 583.547 173.067 583.547 172.8V169.872C583.547 169.605 583.68 169.472 583.947 169.472H593.163C593.43 169.472 593.563 169.605 593.563 169.872V172.8C593.563 173.067 593.43 173.2 593.163 173.2H583.947ZM595.93 181.872C595.663 181.872 595.53 181.728 595.53 181.44V176.352C595.53 176.064 595.663 175.92 595.93 175.92H601.05C601.317 175.92 601.45 176.064 601.45 176.352V181.44C601.45 181.728 601.317 181.872 601.05 181.872H595.93ZM606.927 176.352C606.66 176.352 606.527 176.219 606.527 175.952V166.72C606.527 166.453 606.66 166.32 606.927 166.32H609.871C610.137 166.32 610.271 166.453 610.271 166.72V175.952C610.271 176.219 610.137 176.352 609.871 176.352H606.927ZM603.791 173.2C603.524 173.2 603.391 173.067 603.391 172.8V169.872C603.391 169.605 603.524 169.472 603.791 169.472H613.007C613.273 169.472 613.407 169.605 613.407 169.872V172.8C613.407 173.067 613.273 173.2 613.007 173.2H603.791ZM616.254 168.4C616.019 168.4 615.886 168.277 615.854 168.032L615.374 161.088C615.342 160.811 615.475 160.672 615.774 160.672H619.454C619.752 160.672 619.886 160.811 619.854 161.088L619.374 168.032C619.342 168.277 619.208 168.4 618.974 168.4H616.254ZM621.502 168.4C621.267 168.4 621.134 168.277 621.102 168.032L620.622 161.088C620.59 160.811 620.723 160.672 621.022 160.672H624.702C625 160.672 625.134 160.811 625.102 161.088L624.622 168.032C624.59 168.277 624.456 168.4 624.222 168.4H621.502ZM630.583 176.352C630.316 176.352 630.183 176.219 630.183 175.952V166.72C630.183 166.453 630.316 166.32 630.583 166.32H633.527C633.794 166.32 633.927 166.453 633.927 166.72V175.952C633.927 176.219 633.794 176.352 633.527 176.352H630.583ZM627.447 173.2C627.18 173.2 627.047 173.067 627.047 172.8V169.872C627.047 169.605 627.18 169.472 627.447 169.472H636.663C636.93 169.472 637.063 169.605 637.063 169.872V172.8C637.063 173.067 636.93 173.2 636.663 173.2H627.447ZM639.43 181.872C639.163 181.872 639.03 181.728 639.03 181.44V176.352C639.03 176.064 639.163 175.92 639.43 175.92H644.55C644.817 175.92 644.95 176.064 644.95 176.352V181.44C644.95 181.728 644.817 181.872 644.55 181.872H639.43ZM650.427 176.352C650.16 176.352 650.027 176.219 650.027 175.952V166.72C650.027 166.453 650.16 166.32 650.427 166.32H653.371C653.637 166.32 653.771 166.453 653.771 166.72V175.952C653.771 176.219 653.637 176.352 653.371 176.352H650.427ZM647.291 173.2C647.024 173.2 646.891 173.067 646.891 172.8V169.872C646.891 169.605 647.024 169.472 647.291 169.472H656.507C656.773 169.472 656.907 169.605 656.907 169.872V172.8C656.907 173.067 656.773 173.2 656.507 173.2H647.291ZM659.754 168.4C659.519 168.4 659.386 168.277 659.354 168.032L658.874 161.088C658.842 160.811 658.975 160.672 659.274 160.672H662.954C663.252 160.672 663.386 160.811 663.354 161.088L662.874 168.032C662.842 168.277 662.708 168.4 662.474 168.4H659.754ZM665.002 168.4C664.767 168.4 664.634 168.277 664.602 168.032L664.122 161.088C664.09 160.811 664.223 160.672 664.522 160.672H668.202C668.5 160.672 668.634 160.811 668.602 161.088L668.122 168.032C668.09 168.277 667.956 168.4 667.722 168.4H665.002ZM674.083 176.352C673.816 176.352 673.683 176.219 673.683 175.952V166.72C673.683 166.453 673.816 166.32 674.083 166.32H677.027C677.294 166.32 677.427 166.453 677.427 166.72V175.952C677.427 176.219 677.294 176.352 677.027 176.352H674.083ZM670.947 173.2C670.68 173.2 670.547 173.067 670.547 172.8V169.872C670.547 169.605 670.68 169.472 670.947 169.472H680.163C680.43 169.472 680.563 169.605 680.563 169.872V172.8C680.563 173.067 680.43 173.2 680.163 173.2H670.947ZM682.93 181.872C682.663 181.872 682.53 181.728 682.53 181.44V176.352C682.53 176.064 682.663 175.92 682.93 175.92H688.05C688.317 175.92 688.45 176.064 688.45 176.352V181.44C688.45 181.728 688.317 181.872 688.05 181.872H682.93ZM693.927 176.352C693.66 176.352 693.527 176.219 693.527 175.952V166.72C693.527 166.453 693.66 166.32 693.927 166.32H696.871C697.137 166.32 697.271 166.453 697.271 166.72V175.952C697.271 176.219 697.137 176.352 696.871 176.352H693.927ZM690.791 173.2C690.524 173.2 690.391 173.067 690.391 172.8V169.872C690.391 169.605 690.524 169.472 690.791 169.472H700.007C700.273 169.472 700.407 169.605 700.407 169.872V172.8C700.407 173.067 700.273 173.2 700.007 173.2H690.791ZM703.254 168.4C703.019 168.4 702.886 168.277 702.854 168.032L702.374 161.088C702.342 160.811 702.475 160.672 702.774 160.672H706.454C706.752 160.672 706.886 160.811 706.854 161.088L706.374 168.032C706.342 168.277 706.208 168.4 705.974 168.4H703.254ZM708.502 168.4C708.267 168.4 708.134 168.277 708.102 168.032L707.622 161.088C707.59 160.811 707.723 160.672 708.022 160.672H711.702C712 160.672 712.134 160.811 712.102 161.088L711.622 168.032C711.59 168.277 711.456 168.4 711.222 168.4H708.502ZM717.583 176.352C717.316 176.352 717.183 176.219 717.183 175.952V166.72C717.183 166.453 717.316 166.32 717.583 166.32H720.527C720.794 166.32 720.927 166.453 720.927 166.72V175.952C720.927 176.219 720.794 176.352 720.527 176.352H717.583ZM714.447 173.2C714.18 173.2 714.047 173.067 714.047 172.8V169.872C714.047 169.605 714.18 169.472 714.447 169.472H723.663C723.93 169.472 724.063 169.605 724.063 169.872V172.8C724.063 173.067 723.93 173.2 723.663 173.2H714.447ZM726.43 181.872C726.163 181.872 726.03 181.728 726.03 181.44V176.352C726.03 176.064 726.163 175.92 726.43 175.92H731.55C731.817 175.92 731.95 176.064 731.95 176.352V181.44C731.95 181.728 731.817 181.872 731.55 181.872H726.43ZM737.427 176.352C737.16 176.352 737.027 176.219 737.027 175.952V166.72C737.027 166.453 737.16 166.32 737.427 166.32H740.371C740.637 166.32 740.771 166.453 740.771 166.72V175.952C740.771 176.219 740.637 176.352 740.371 176.352H737.427ZM734.291 173.2C734.024 173.2 733.891 173.067 733.891 172.8V169.872C733.891 169.605 734.024 169.472 734.291 169.472H743.507C743.773 169.472 743.907 169.605 743.907 169.872V172.8C743.907 173.067 743.773 173.2 743.507 173.2H734.291ZM746.754 168.4C746.519 168.4 746.386 168.277 746.354 168.032L745.874 161.088C745.842 160.811 745.975 160.672 746.274 160.672H749.954C750.252 160.672 750.386 160.811 750.354 161.088L749.874 168.032C749.842 168.277 749.708 168.4 749.474 168.4H746.754ZM752.002 168.4C751.767 168.4 751.634 168.277 751.602 168.032L751.122 161.088C751.09 160.811 751.223 160.672 751.522 160.672H755.202C755.5 160.672 755.634 160.811 755.602 161.088L755.122 168.032C755.09 168.277 754.956 168.4 754.722 168.4H752.002ZM761.083 176.352C760.816 176.352 760.683 176.219 760.683 175.952V166.72C760.683 166.453 760.816 166.32 761.083 166.32H764.027C764.294 166.32 764.427 166.453 764.427 166.72V175.952C764.427 176.219 764.294 176.352 764.027 176.352H761.083ZM757.947 173.2C757.68 173.2 757.547 173.067 757.547 172.8V169.872C757.547 169.605 757.68 169.472 757.947 169.472H767.163C767.43 169.472 767.563 169.605 767.563 169.872V172.8C767.563 173.067 767.43 173.2 767.163 173.2H757.947ZM769.93 181.872C769.663 181.872 769.53 181.728 769.53 181.44V176.352C769.53 176.064 769.663 175.92 769.93 175.92H775.05C775.317 175.92 775.45 176.064 775.45 176.352V181.44C775.45 181.728 775.317 181.872 775.05 181.872H769.93ZM780.927 176.352C780.66 176.352 780.527 176.219 780.527 175.952V166.72C780.527 166.453 780.66 166.32 780.927 166.32H783.871C784.137 166.32 784.271 166.453 784.271 166.72V175.952C784.271 176.219 784.137 176.352 783.871 176.352H780.927ZM777.791 173.2C777.524 173.2 777.391 173.067 777.391 172.8V169.872C777.391 169.605 777.524 169.472 777.791 169.472H787.007C787.273 169.472 787.407 169.605 787.407 169.872V172.8C787.407 173.067 787.273 173.2 787.007 173.2H777.791ZM790.254 168.4C790.019 168.4 789.886 168.277 789.854 168.032L789.374 161.088C789.342 160.811 789.475 160.672 789.774 160.672H793.454C793.752 160.672 793.886 160.811 793.854 161.088L793.374 168.032C793.342 168.277 793.208 168.4 792.974 168.4H790.254ZM795.502 168.4C795.267 168.4 795.134 168.277 795.102 168.032L794.622 161.088C794.59 160.811 794.723 160.672 795.022 160.672H798.702C799 160.672 799.134 160.811 799.102 161.088L798.622 168.032C798.59 168.277 798.456 168.4 798.222 168.4H795.502ZM804.583 176.352C804.316 176.352 804.183 176.219 804.183 175.952V166.72C804.183 166.453 804.316 166.32 804.583 166.32H807.527C807.794 166.32 807.927 166.453 807.927 166.72V175.952C807.927 176.219 807.794 176.352 807.527 176.352H804.583ZM801.447 173.2C801.18 173.2 801.047 173.067 801.047 172.8V169.872C801.047 169.605 801.18 169.472 801.447 169.472H810.663C810.93 169.472 811.063 169.605 811.063 169.872V172.8C811.063 173.067 810.93 173.2 810.663 173.2H801.447ZM813.43 181.872C813.163 181.872 813.03 181.728 813.03 181.44V176.352C813.03 176.064 813.163 175.92 813.43 175.92H818.55C818.817 175.92 818.95 176.064 818.95 176.352V181.44C818.95 181.728 818.817 181.872 818.55 181.872H813.43ZM824.427 176.352C824.16 176.352 824.027 176.219 824.027 175.952V166.72C824.027 166.453 824.16 166.32 824.427 166.32H827.371C827.637 166.32 827.771 166.453 827.771 166.72V175.952C827.771 176.219 827.637 176.352 827.371 176.352H824.427ZM821.291 173.2C821.024 173.2 820.891 173.067 820.891 172.8V169.872C820.891 169.605 821.024 169.472 821.291 169.472H830.507C830.773 169.472 830.907 169.605 830.907 169.872V172.8C830.907 173.067 830.773 173.2 830.507 173.2H821.291ZM833.754 168.4C833.519 168.4 833.386 168.277 833.354 168.032L832.874 161.088C832.842 160.811 832.975 160.672 833.274 160.672H836.954C837.252 160.672 837.386 160.811 837.354 161.088L836.874 168.032C836.842 168.277 836.708 168.4 836.474 168.4H833.754ZM839.002 168.4C838.767 168.4 838.634 168.277 838.602 168.032L838.122 161.088C838.09 160.811 838.223 160.672 838.522 160.672H842.202C842.5 160.672 842.634 160.811 842.602 161.088L842.122 168.032C842.09 168.277 841.956 168.4 841.722 168.4H839.002Z" fill="#FFF7F3"/>
</svg>
