<svg width="306" height="134" viewBox="0 0 306 134" fill="none" xmlns="http://www.w3.org/2000/svg">
<path d="M61.6154 116.347C61.1514 116.347 60.9754 116.131 61.0874 115.699L70.4954 76.8907C70.5754 76.5227 70.7914 76.3387 71.1434 76.3387H77.2634C77.7114 76.3387 77.8794 76.5547 77.7674 76.9867L68.3834 115.771C68.2874 116.155 68.0714 116.347 67.7354 116.347H61.6154ZM87.6374 79.2667L80.1254 76.1467C79.7894 76.0187 79.6934 75.7467 79.8374 75.3307L81.0374 72.2587C81.2134 71.8267 81.4854 71.7067 81.8534 71.8987L89.1254 76.3387C89.4934 76.5627 89.5894 76.8427 89.4134 77.1787L88.4054 78.9787C88.2294 79.2987 87.9734 79.3947 87.6374 79.2667ZM92.0853 119.539C91.6853 119.539 91.4853 119.339 91.4853 118.939V113.347C91.4853 112.947 91.6853 112.747 92.0853 112.747H95.3253L100.965 82.5067C101.045 82.0427 101.245 81.6427 101.565 81.3067L106.029 76.7467C106.301 76.4747 106.621 76.3387 106.989 76.3387H110.877C111.277 76.3387 111.477 76.5387 111.477 76.9387V82.5307C111.477 82.9307 111.277 83.1307 110.877 83.1307H107.637L101.997 113.371C101.917 113.835 101.717 114.235 101.397 114.571L96.9093 119.131C96.6533 119.403 96.3333 119.539 95.9493 119.539H92.0853ZM114.07 94.4107C113.67 94.4107 113.47 94.2107 113.47 93.8107V89.4187C113.47 89.0187 113.67 88.8187 114.07 88.8187H127.894C128.294 88.8187 128.494 89.0187 128.494 89.4187V93.8107C128.494 94.2107 128.294 94.4107 127.894 94.4107H114.07ZM114.07 103.867C113.67 103.867 113.47 103.667 113.47 103.267V98.8507C113.47 98.4507 113.67 98.2507 114.07 98.2507H127.894C128.294 98.2507 128.494 98.4507 128.494 98.8507V103.267C128.494 103.667 128.294 103.867 127.894 103.867H114.07ZM149.636 103.123H152.9V104.227C152.9 105.955 152.5 107.507 151.7 108.883C150.932 110.227 149.844 111.395 148.436 112.387C147.028 113.379 145.396 114.195 143.54 114.835C141.716 115.507 139.732 116.003 137.588 116.323L136.148 113.395C138.068 113.139 139.844 112.755 141.476 112.243C143.14 111.731 144.564 111.091 145.748 110.323C146.964 109.555 147.908 108.659 148.58 107.635C149.284 106.611 149.636 105.475 149.636 104.227V103.123ZM150.212 103.123H153.476V104.227C153.476 105.475 153.812 106.611 154.484 107.635C155.156 108.659 156.1 109.555 157.316 110.323C158.532 111.091 159.956 111.731 161.588 112.243C163.252 112.755 165.028 113.139 166.916 113.395L165.524 116.323C163.412 116.003 161.428 115.507 159.572 114.835C157.716 114.195 156.084 113.379 154.676 112.387C153.268 111.395 152.164 110.227 151.364 108.883C150.596 107.507 150.212 105.955 150.212 104.227V103.123ZM137.828 102.163H165.428V105.091H137.828V102.163ZM175.288 94.4107C174.888 94.4107 174.688 94.2107 174.688 93.8107V89.4187C174.688 89.0187 174.888 88.8187 175.288 88.8187H189.112C189.512 88.8187 189.712 89.0187 189.712 89.4187V93.8107C189.712 94.2107 189.512 94.4107 189.112 94.4107H175.288ZM175.288 103.867C174.888 103.867 174.688 103.667 174.688 103.267V98.8507C174.688 98.4507 174.888 98.2507 175.288 98.2507H189.112C189.512 98.2507 189.712 98.4507 189.712 98.8507V103.267C189.712 103.667 189.512 103.867 189.112 103.867H175.288ZM207.984 76.9387C208.416 76.9387 208.632 77.1547 208.632 77.5867V80.9467C208.632 81.3627 208.416 81.5707 207.984 81.5707H206.232C205.752 81.5707 205.512 81.7707 205.512 82.1707V82.8907H208.584C208.984 82.8907 209.184 83.1067 209.184 83.5387L209.136 89.6107C209.136 90.0427 208.928 90.2587 208.512 90.2587H200.904C200.504 90.2587 200.304 90.0427 200.304 89.6107V82.2667C200.304 80.4587 200.728 79.1227 201.576 78.2587C202.44 77.3787 203.576 76.9387 204.984 76.9387H207.984ZM235.935 116.347H229.815C229.479 116.347 229.263 116.155 229.167 115.771L219.783 76.9867C219.671 76.5547 219.839 76.3387 220.287 76.3387H226.407C226.759 76.3387 226.975 76.5227 227.055 76.8907L236.463 115.699C236.591 116.131 236.415 116.347 235.935 116.347Z" fill="#FFF7F3"/>
<mask id="path-2-outside-1_74_12" maskUnits="userSpaceOnUse" x="182.476" y="30" width="50" height="42" fill="black">
<rect fill="white" x="182.476" y="30" width="50" height="42"/>
<path d="M215.142 70C212.166 65.2 206.646 62.656 200.934 62.656C197.814 62.656 194.79 63.568 191.958 65.152L190.278 62.08C192.246 61.12 194.646 60.352 196.854 60.208V60.064C189.942 57.904 184.278 53.056 184.278 43.888C184.278 36.592 187.59 31.792 193.782 31.792C197.334 31.792 199.542 33.52 200.55 36.352H200.79C201.846 33.52 204.198 31.792 207.75 31.792C211.494 31.792 213.702 33.52 214.71 36.352H214.95C216.006 33.52 218.358 31.792 221.766 31.792C227.958 31.792 231.27 37.024 231.27 44.752C231.27 48.832 230.406 52.288 228.63 55.648L224.982 54.304C226.47 51.184 226.95 48.4 226.95 44.704C226.95 38.512 224.886 35.296 221.43 35.296C218.55 35.296 216.87 37.552 216.87 41.536V49.264H212.838V41.536C212.838 37.936 211.398 35.296 207.75 35.296C204.39 35.296 202.71 37.552 202.71 41.536V49.264H198.678V41.536C198.678 37.936 197.238 35.296 194.07 35.296C190.662 35.296 188.598 38.08 188.598 43.888C188.598 52.816 194.982 56.896 201.846 58.384C208.326 59.776 215.43 62.32 218.358 68.272L215.142 70Z"/>
</mask>
<path d="M215.142 70C212.166 65.2 206.646 62.656 200.934 62.656C197.814 62.656 194.79 63.568 191.958 65.152L190.278 62.08C192.246 61.12 194.646 60.352 196.854 60.208V60.064C189.942 57.904 184.278 53.056 184.278 43.888C184.278 36.592 187.59 31.792 193.782 31.792C197.334 31.792 199.542 33.52 200.55 36.352H200.79C201.846 33.52 204.198 31.792 207.75 31.792C211.494 31.792 213.702 33.52 214.71 36.352H214.95C216.006 33.52 218.358 31.792 221.766 31.792C227.958 31.792 231.27 37.024 231.27 44.752C231.27 48.832 230.406 52.288 228.63 55.648L224.982 54.304C226.47 51.184 226.95 48.4 226.95 44.704C226.95 38.512 224.886 35.296 221.43 35.296C218.55 35.296 216.87 37.552 216.87 41.536V49.264H212.838V41.536C212.838 37.936 211.398 35.296 207.75 35.296C204.39 35.296 202.71 37.552 202.71 41.536V49.264H198.678V41.536C198.678 37.936 197.238 35.296 194.07 35.296C190.662 35.296 188.598 38.08 188.598 43.888C188.598 52.816 194.982 56.896 201.846 58.384C208.326 59.776 215.43 62.32 218.358 68.272L215.142 70Z" fill="#FFF7F3"/>
<path d="M215.142 70L214.292 70.5269L214.787 71.3258L215.615 70.8809L215.142 70ZM191.958 65.152L191.081 65.6318L191.565 66.5176L192.446 66.0248L191.958 65.152ZM190.278 62.08L189.84 61.1812L188.898 61.6406L189.401 62.5598L190.278 62.08ZM196.854 60.208L196.919 61.2059L197.854 61.1449V60.208H196.854ZM196.854 60.064H197.854V59.3288L197.152 59.1095L196.854 60.064ZM200.55 36.352L199.608 36.6873L199.844 37.352H200.55V36.352ZM200.79 36.352V37.352H201.484L201.727 36.7014L200.79 36.352ZM214.71 36.352L213.768 36.6873L214.004 37.352H214.71V36.352ZM214.95 36.352V37.352H215.644L215.887 36.7014L214.95 36.352ZM228.63 55.648L228.284 56.5863L229.105 56.8888L229.514 56.1153L228.63 55.648ZM224.982 54.304L224.079 53.8735L223.607 54.8633L224.636 55.2423L224.982 54.304ZM216.87 49.264V50.264H217.87V49.264H216.87ZM212.838 49.264H211.838V50.264H212.838V49.264ZM202.71 49.264V50.264H203.71V49.264H202.71ZM198.678 49.264H197.678V50.264H198.678V49.264ZM201.846 58.384L201.634 59.3613L201.636 59.3617L201.846 58.384ZM218.358 68.272L218.831 69.1529L219.681 68.6963L219.255 67.8306L218.358 68.272ZM215.992 69.4731C212.8 64.325 206.923 61.656 200.934 61.656V63.656C206.368 63.656 211.532 66.075 214.292 70.5269L215.992 69.4731ZM200.934 61.656C197.614 61.656 194.424 62.627 191.47 64.2792L192.446 66.0248C195.156 64.509 198.014 63.656 200.934 63.656V61.656ZM192.835 64.6722L191.155 61.6002L189.401 62.5598L191.081 65.6318L192.835 64.6722ZM190.716 62.9788C192.602 62.0589 194.874 61.3392 196.919 61.2059L196.789 59.2101C194.418 59.3648 191.89 60.1811 189.84 61.1812L190.716 62.9788ZM197.854 60.208V60.064H195.854V60.208H197.854ZM197.152 59.1095C193.818 58.0675 190.854 56.3982 188.729 53.9487C186.618 51.5154 185.278 48.2489 185.278 43.888H183.278C183.278 48.6951 184.77 52.4366 187.219 55.2593C189.653 58.0658 192.978 59.9005 196.556 61.0185L197.152 59.1095ZM185.278 43.888C185.278 40.3742 186.078 37.5897 187.505 35.7083C188.904 33.8637 190.975 32.792 193.782 32.792V30.792C190.397 30.792 187.716 32.1203 185.911 34.4997C184.134 36.8423 183.278 40.1058 183.278 43.888H185.278ZM193.782 32.792C195.393 32.792 196.622 33.1818 197.546 33.829C198.47 34.4761 199.161 35.4315 199.608 36.6873L201.492 36.0167C200.931 34.4405 200.014 33.1159 198.694 32.191C197.374 31.2662 195.723 30.792 193.782 30.792V32.792ZM200.55 37.352H200.79V35.352H200.55V37.352ZM201.727 36.7014C202.191 35.4556 202.923 34.4941 203.894 33.8387C204.866 33.1823 206.139 32.792 207.75 32.792V30.792C205.809 30.792 204.13 31.2657 202.774 32.1812C201.417 33.0979 200.444 34.4164 199.853 36.0026L201.727 36.7014ZM207.75 32.792C209.467 32.792 210.746 33.1868 211.69 33.8347C212.632 34.4807 213.321 35.4326 213.768 36.6873L215.652 36.0167C215.091 34.4394 214.172 33.1113 212.822 32.1853C211.474 31.2612 209.777 30.792 207.75 30.792V32.792ZM214.71 37.352H214.95V35.352H214.71V37.352ZM215.887 36.7014C216.352 35.4548 217.085 34.4908 218.042 33.8347C218.999 33.1783 220.235 32.792 221.766 32.792V30.792C219.889 30.792 218.245 31.2697 216.91 32.1853C215.575 33.1012 214.604 34.4172 214.013 36.0026L215.887 36.7014ZM221.766 32.792C224.538 32.792 226.609 33.9431 228.022 35.9499C229.466 37.9987 230.27 41.012 230.27 44.752H232.27C232.27 40.764 231.418 37.2973 229.657 34.7981C227.867 32.2569 225.186 30.792 221.766 30.792V32.792ZM230.27 44.752C230.27 48.6742 229.443 51.9691 227.746 55.1807L229.514 56.1153C231.369 52.6069 232.27 48.9898 232.27 44.752H230.27ZM228.976 54.7097L225.328 53.3657L224.636 55.2423L228.284 56.5863L228.976 54.7097ZM225.885 54.7345C227.452 51.4483 227.95 48.5093 227.95 44.704H225.95C225.95 48.2907 225.488 50.9197 224.079 53.8735L225.885 54.7345ZM227.95 44.704C227.95 41.5226 227.424 38.9622 226.343 37.163C225.227 35.3043 223.532 34.296 221.43 34.296V36.296C222.784 36.296 223.849 36.8956 224.629 38.193C225.444 39.5498 225.95 41.6934 225.95 44.704H227.95ZM221.43 34.296C219.696 34.296 218.246 34.9929 217.264 36.33C216.313 37.6254 215.87 39.4231 215.87 41.536H217.87C217.87 39.6649 218.267 38.3426 218.876 37.514C219.454 36.7271 220.284 36.296 221.43 36.296V34.296ZM215.87 41.536V49.264H217.87V41.536H215.87ZM216.87 48.264H212.838V50.264H216.87V48.264ZM213.838 49.264V41.536H211.838V49.264H213.838ZM213.838 41.536C213.838 39.6274 213.46 37.8238 212.468 36.4737C211.437 35.0722 209.846 34.296 207.75 34.296V36.296C209.302 36.296 210.255 36.8398 210.856 37.6583C211.496 38.5282 211.838 39.8446 211.838 41.536H213.838ZM207.75 34.296C205.827 34.296 204.251 34.9544 203.186 36.3016C202.152 37.6089 201.71 39.4257 201.71 41.536H203.71C203.71 39.6623 204.108 38.3591 204.754 37.5424C205.369 36.7656 206.313 36.296 207.75 36.296V34.296ZM201.71 41.536V49.264H203.71V41.536H201.71ZM202.71 48.264H198.678V50.264H202.71V48.264ZM199.678 49.264V41.536H197.678V49.264H199.678ZM199.678 41.536C199.678 39.6252 199.299 37.8404 198.388 36.5031C197.443 35.1142 195.978 34.296 194.07 34.296V36.296C195.33 36.296 196.169 36.7978 196.735 37.6289C197.337 38.5116 197.678 39.8468 197.678 41.536H199.678ZM194.07 34.296C192.048 34.296 190.359 35.1463 189.222 36.8617C188.126 38.517 187.598 40.892 187.598 43.888H189.598C189.598 41.076 190.102 39.155 190.89 37.9663C191.637 36.8377 192.684 36.296 194.07 36.296V34.296ZM187.598 43.888C187.598 48.6198 189.302 52.1367 191.961 54.6524C194.592 57.1417 198.095 58.594 201.634 59.3613L202.058 57.4067C198.733 56.686 195.612 55.3543 193.335 53.1996C191.086 51.0713 189.598 48.0842 189.598 43.888H187.598ZM201.636 59.3617C208.121 60.7547 214.762 63.2279 217.461 68.7134L219.255 67.8306C216.098 61.4121 208.531 58.7973 202.056 57.4063L201.636 59.3617ZM217.885 67.3911L214.669 69.1191L215.615 70.8809L218.831 69.1529L217.885 67.3911Z" fill="#FFF7F3" mask="url(#path-2-outside-1_74_12)"/>
</svg>
