<svg width="1010" height="605" viewBox="0 0 1010 605" fill="none" xmlns="http://www.w3.org/2000/svg">
<rect width="1010" height="604.975" rx="41" fill="#FAD0C4"/>
<path d="M31.4672 39.84C31.1339 39.84 30.9672 39.66 30.9672 39.3V32.94C30.9672 32.58 31.1339 32.4 31.4672 32.4H37.8672C38.2005 32.4 38.3672 32.58 38.3672 32.94V39.3C38.3672 39.66 38.2005 39.84 37.8672 39.84H31.4672ZM45.2131 32.94C44.8798 32.94 44.7131 32.7733 44.7131 32.44V20.9C44.7131 20.5667 44.8798 20.4 45.2131 20.4H48.8931C49.2265 20.4 49.3931 20.5667 49.3931 20.9V32.44C49.3931 32.7733 49.2265 32.94 48.8931 32.94H45.2131ZM41.2931 29C40.9598 29 40.7931 28.8333 40.7931 28.5V24.84C40.7931 24.5067 40.9598 24.34 41.2931 24.34H52.8131C53.1465 24.34 53.3131 24.5067 53.3131 24.84V28.5C53.3131 28.8333 53.1465 29 52.8131 29H41.2931ZM56.8719 23C56.5785 23 56.4119 22.8467 56.3719 22.54L55.7719 13.86C55.7319 13.5133 55.8985 13.34 56.2719 13.34H60.8719C61.2452 13.34 61.4119 13.5133 61.3719 13.86L60.7719 22.54C60.7319 22.8467 60.5652 23 60.2719 23H56.8719ZM63.4319 23C63.1385 23 62.9719 22.8467 62.9319 22.54L62.3319 13.86C62.2919 13.5133 62.4585 13.34 62.8319 13.34H67.4319C67.8052 13.34 67.9719 13.5133 67.9319 13.86L67.3319 22.54C67.2919 22.8467 67.1252 23 66.8319 23H63.4319ZM74.7834 32.94C74.4501 32.94 74.2834 32.7733 74.2834 32.44V20.9C74.2834 20.5667 74.4501 20.4 74.7834 20.4H78.4634C78.7968 20.4 78.9634 20.5667 78.9634 20.9V32.44C78.9634 32.7733 78.7968 32.94 78.4634 32.94H74.7834ZM70.8634 29C70.5301 29 70.3634 28.8333 70.3634 28.5V24.84C70.3634 24.5067 70.5301 24.34 70.8634 24.34H82.3834C82.7168 24.34 82.8834 24.5067 82.8834 24.84V28.5C82.8834 28.8333 82.7168 29 82.3834 29H70.8634ZM85.8422 39.84C85.5089 39.84 85.3422 39.66 85.3422 39.3V32.94C85.3422 32.58 85.5089 32.4 85.8422 32.4H92.2422C92.5755 32.4 92.7422 32.58 92.7422 32.94V39.3C92.7422 39.66 92.5755 39.84 92.2422 39.84H85.8422ZM99.5881 32.94C99.2548 32.94 99.0881 32.7733 99.0881 32.44V20.9C99.0881 20.5667 99.2548 20.4 99.5881 20.4H103.268C103.601 20.4 103.768 20.5667 103.768 20.9V32.44C103.768 32.7733 103.601 32.94 103.268 32.94H99.5881ZM95.6681 29C95.3348 29 95.1681 28.8333 95.1681 28.5V24.84C95.1681 24.5067 95.3348 24.34 95.6681 24.34H107.188C107.521 24.34 107.688 24.5067 107.688 24.84V28.5C107.688 28.8333 107.521 29 107.188 29H95.6681ZM111.247 23C110.954 23 110.787 22.8467 110.747 22.54L110.147 13.86C110.107 13.5133 110.274 13.34 110.647 13.34H115.247C115.62 13.34 115.787 13.5133 115.747 13.86L115.147 22.54C115.107 22.8467 114.94 23 114.647 23H111.247ZM117.807 23C117.514 23 117.347 22.8467 117.307 22.54L116.707 13.86C116.667 13.5133 116.834 13.34 117.207 13.34H121.807C122.18 13.34 122.347 13.5133 122.307 13.86L121.707 22.54C121.667 22.8467 121.5 23 121.207 23H117.807ZM129.158 32.94C128.825 32.94 128.658 32.7733 128.658 32.44V20.9C128.658 20.5667 128.825 20.4 129.158 20.4H132.838C133.172 20.4 133.338 20.5667 133.338 20.9V32.44C133.338 32.7733 133.172 32.94 132.838 32.94H129.158ZM125.238 29C124.905 29 124.738 28.8333 124.738 28.5V24.84C124.738 24.5067 124.905 24.34 125.238 24.34H136.758C137.092 24.34 137.258 24.5067 137.258 24.84V28.5C137.258 28.8333 137.092 29 136.758 29H125.238ZM140.217 39.84C139.884 39.84 139.717 39.66 139.717 39.3V32.94C139.717 32.58 139.884 32.4 140.217 32.4H146.617C146.951 32.4 147.117 32.58 147.117 32.94V39.3C147.117 39.66 146.951 39.84 146.617 39.84H140.217ZM153.963 32.94C153.63 32.94 153.463 32.7733 153.463 32.44V20.9C153.463 20.5667 153.63 20.4 153.963 20.4H157.643C157.976 20.4 158.143 20.5667 158.143 20.9V32.44C158.143 32.7733 157.976 32.94 157.643 32.94H153.963ZM150.043 29C149.71 29 149.543 28.8333 149.543 28.5V24.84C149.543 24.5067 149.71 24.34 150.043 24.34H161.563C161.896 24.34 162.063 24.5067 162.063 24.84V28.5C162.063 28.8333 161.896 29 161.563 29H150.043ZM165.622 23C165.329 23 165.162 22.8467 165.122 22.54L164.522 13.86C164.482 13.5133 164.649 13.34 165.022 13.34H169.622C169.995 13.34 170.162 13.5133 170.122 13.86L169.522 22.54C169.482 22.8467 169.315 23 169.022 23H165.622ZM172.182 23C171.889 23 171.722 22.8467 171.682 22.54L171.082 13.86C171.042 13.5133 171.209 13.34 171.582 13.34H176.182C176.555 13.34 176.722 13.5133 176.682 13.86L176.082 22.54C176.042 22.8467 175.875 23 175.582 23H172.182ZM183.533 32.94C183.2 32.94 183.033 32.7733 183.033 32.44V20.9C183.033 20.5667 183.2 20.4 183.533 20.4H187.213C187.547 20.4 187.713 20.5667 187.713 20.9V32.44C187.713 32.7733 187.547 32.94 187.213 32.94H183.533ZM179.613 29C179.28 29 179.113 28.8333 179.113 28.5V24.84C179.113 24.5067 179.28 24.34 179.613 24.34H191.133C191.467 24.34 191.633 24.5067 191.633 24.84V28.5C191.633 28.8333 191.467 29 191.133 29H179.613ZM194.592 39.84C194.259 39.84 194.092 39.66 194.092 39.3V32.94C194.092 32.58 194.259 32.4 194.592 32.4H200.992C201.326 32.4 201.492 32.58 201.492 32.94V39.3C201.492 39.66 201.326 39.84 200.992 39.84H194.592ZM208.338 32.94C208.005 32.94 207.838 32.7733 207.838 32.44V20.9C207.838 20.5667 208.005 20.4 208.338 20.4H212.018C212.351 20.4 212.518 20.5667 212.518 20.9V32.44C212.518 32.7733 212.351 32.94 212.018 32.94H208.338ZM204.418 29C204.085 29 203.918 28.8333 203.918 28.5V24.84C203.918 24.5067 204.085 24.34 204.418 24.34H215.938C216.271 24.34 216.438 24.5067 216.438 24.84V28.5C216.438 28.8333 216.271 29 215.938 29H204.418ZM219.997 23C219.704 23 219.537 22.8467 219.497 22.54L218.897 13.86C218.857 13.5133 219.024 13.34 219.397 13.34H223.997C224.37 13.34 224.537 13.5133 224.497 13.86L223.897 22.54C223.857 22.8467 223.69 23 223.397 23H219.997ZM226.557 23C226.264 23 226.097 22.8467 226.057 22.54L225.457 13.86C225.417 13.5133 225.584 13.34 225.957 13.34H230.557C230.93 13.34 231.097 13.5133 231.057 13.86L230.457 22.54C230.417 22.8467 230.25 23 229.957 23H226.557ZM237.908 32.94C237.575 32.94 237.408 32.7733 237.408 32.44V20.9C237.408 20.5667 237.575 20.4 237.908 20.4H241.588C241.922 20.4 242.088 20.5667 242.088 20.9V32.44C242.088 32.7733 241.922 32.94 241.588 32.94H237.908ZM233.988 29C233.655 29 233.488 28.8333 233.488 28.5V24.84C233.488 24.5067 233.655 24.34 233.988 24.34H245.508C245.842 24.34 246.008 24.5067 246.008 24.84V28.5C246.008 28.8333 245.842 29 245.508 29H233.988ZM248.967 39.84C248.634 39.84 248.467 39.66 248.467 39.3V32.94C248.467 32.58 248.634 32.4 248.967 32.4H255.367C255.701 32.4 255.867 32.58 255.867 32.94V39.3C255.867 39.66 255.701 39.84 255.367 39.84H248.967ZM262.713 32.94C262.38 32.94 262.213 32.7733 262.213 32.44V20.9C262.213 20.5667 262.38 20.4 262.713 20.4H266.393C266.726 20.4 266.893 20.5667 266.893 20.9V32.44C266.893 32.7733 266.726 32.94 266.393 32.94H262.713ZM258.793 29C258.46 29 258.293 28.8333 258.293 28.5V24.84C258.293 24.5067 258.46 24.34 258.793 24.34H270.313C270.646 24.34 270.813 24.5067 270.813 24.84V28.5C270.813 28.8333 270.646 29 270.313 29H258.793ZM274.372 23C274.079 23 273.912 22.8467 273.872 22.54L273.272 13.86C273.232 13.5133 273.399 13.34 273.772 13.34H278.372C278.745 13.34 278.912 13.5133 278.872 13.86L278.272 22.54C278.232 22.8467 278.065 23 277.772 23H274.372ZM280.932 23C280.639 23 280.472 22.8467 280.432 22.54L279.832 13.86C279.792 13.5133 279.959 13.34 280.332 13.34H284.932C285.305 13.34 285.472 13.5133 285.432 13.86L284.832 22.54C284.792 22.8467 284.625 23 284.332 23H280.932ZM292.283 32.94C291.95 32.94 291.783 32.7733 291.783 32.44V20.9C291.783 20.5667 291.95 20.4 292.283 20.4H295.963C296.297 20.4 296.463 20.5667 296.463 20.9V32.44C296.463 32.7733 296.297 32.94 295.963 32.94H292.283ZM288.363 29C288.03 29 287.863 28.8333 287.863 28.5V24.84C287.863 24.5067 288.03 24.34 288.363 24.34H299.883C300.217 24.34 300.383 24.5067 300.383 24.84V28.5C300.383 28.8333 300.217 29 299.883 29H288.363ZM303.342 39.84C303.009 39.84 302.842 39.66 302.842 39.3V32.94C302.842 32.58 303.009 32.4 303.342 32.4H309.742C310.076 32.4 310.242 32.58 310.242 32.94V39.3C310.242 39.66 310.076 39.84 309.742 39.84H303.342ZM317.088 32.94C316.755 32.94 316.588 32.7733 316.588 32.44V20.9C316.588 20.5667 316.755 20.4 317.088 20.4H320.768C321.101 20.4 321.268 20.5667 321.268 20.9V32.44C321.268 32.7733 321.101 32.94 320.768 32.94H317.088ZM313.168 29C312.835 29 312.668 28.8333 312.668 28.5V24.84C312.668 24.5067 312.835 24.34 313.168 24.34H324.688C325.021 24.34 325.188 24.5067 325.188 24.84V28.5C325.188 28.8333 325.021 29 324.688 29H313.168ZM328.747 23C328.454 23 328.287 22.8467 328.247 22.54L327.647 13.86C327.607 13.5133 327.774 13.34 328.147 13.34H332.747C333.12 13.34 333.287 13.5133 333.247 13.86L332.647 22.54C332.607 22.8467 332.44 23 332.147 23H328.747ZM335.307 23C335.014 23 334.847 22.8467 334.807 22.54L334.207 13.86C334.167 13.5133 334.334 13.34 334.707 13.34H339.307C339.68 13.34 339.847 13.5133 339.807 13.86L339.207 22.54C339.167 22.8467 339 23 338.707 23H335.307ZM346.658 32.94C346.325 32.94 346.158 32.7733 346.158 32.44V20.9C346.158 20.5667 346.325 20.4 346.658 20.4H350.338C350.672 20.4 350.838 20.5667 350.838 20.9V32.44C350.838 32.7733 350.672 32.94 350.338 32.94H346.658ZM342.738 29C342.405 29 342.238 28.8333 342.238 28.5V24.84C342.238 24.5067 342.405 24.34 342.738 24.34H354.258C354.592 24.34 354.758 24.5067 354.758 24.84V28.5C354.758 28.8333 354.592 29 354.258 29H342.738ZM357.717 39.84C357.384 39.84 357.217 39.66 357.217 39.3V32.94C357.217 32.58 357.384 32.4 357.717 32.4H364.117C364.451 32.4 364.617 32.58 364.617 32.94V39.3C364.617 39.66 364.451 39.84 364.117 39.84H357.717ZM371.463 32.94C371.13 32.94 370.963 32.7733 370.963 32.44V20.9C370.963 20.5667 371.13 20.4 371.463 20.4H375.143C375.476 20.4 375.643 20.5667 375.643 20.9V32.44C375.643 32.7733 375.476 32.94 375.143 32.94H371.463ZM367.543 29C367.21 29 367.043 28.8333 367.043 28.5V24.84C367.043 24.5067 367.21 24.34 367.543 24.34H379.063C379.396 24.34 379.563 24.5067 379.563 24.84V28.5C379.563 28.8333 379.396 29 379.063 29H367.543ZM383.122 23C382.829 23 382.662 22.8467 382.622 22.54L382.022 13.86C381.982 13.5133 382.149 13.34 382.522 13.34H387.122C387.495 13.34 387.662 13.5133 387.622 13.86L387.022 22.54C386.982 22.8467 386.815 23 386.522 23H383.122ZM389.682 23C389.389 23 389.222 22.8467 389.182 22.54L388.582 13.86C388.542 13.5133 388.709 13.34 389.082 13.34H393.682C394.055 13.34 394.222 13.5133 394.182 13.86L393.582 22.54C393.542 22.8467 393.375 23 393.082 23H389.682ZM401.033 32.94C400.7 32.94 400.533 32.7733 400.533 32.44V20.9C400.533 20.5667 400.7 20.4 401.033 20.4H404.713C405.047 20.4 405.213 20.5667 405.213 20.9V32.44C405.213 32.7733 405.047 32.94 404.713 32.94H401.033ZM397.113 29C396.78 29 396.613 28.8333 396.613 28.5V24.84C396.613 24.5067 396.78 24.34 397.113 24.34H408.633C408.967 24.34 409.133 24.5067 409.133 24.84V28.5C409.133 28.8333 408.967 29 408.633 29H397.113ZM412.092 39.84C411.759 39.84 411.592 39.66 411.592 39.3V32.94C411.592 32.58 411.759 32.4 412.092 32.4H418.492C418.826 32.4 418.992 32.58 418.992 32.94V39.3C418.992 39.66 418.826 39.84 418.492 39.84H412.092ZM425.838 32.94C425.505 32.94 425.338 32.7733 425.338 32.44V20.9C425.338 20.5667 425.505 20.4 425.838 20.4H429.518C429.851 20.4 430.018 20.5667 430.018 20.9V32.44C430.018 32.7733 429.851 32.94 429.518 32.94H425.838ZM421.918 29C421.585 29 421.418 28.8333 421.418 28.5V24.84C421.418 24.5067 421.585 24.34 421.918 24.34H433.438C433.771 24.34 433.938 24.5067 433.938 24.84V28.5C433.938 28.8333 433.771 29 433.438 29H421.918ZM437.497 23C437.204 23 437.037 22.8467 436.997 22.54L436.397 13.86C436.357 13.5133 436.524 13.34 436.897 13.34H441.497C441.87 13.34 442.037 13.5133 441.997 13.86L441.397 22.54C441.357 22.8467 441.19 23 440.897 23H437.497ZM444.057 23C443.764 23 443.597 22.8467 443.557 22.54L442.957 13.86C442.917 13.5133 443.084 13.34 443.457 13.34H448.057C448.43 13.34 448.597 13.5133 448.557 13.86L447.957 22.54C447.917 22.8467 447.75 23 447.457 23H444.057ZM455.408 32.94C455.075 32.94 454.908 32.7733 454.908 32.44V20.9C454.908 20.5667 455.075 20.4 455.408 20.4H459.088C459.422 20.4 459.588 20.5667 459.588 20.9V32.44C459.588 32.7733 459.422 32.94 459.088 32.94H455.408ZM451.488 29C451.155 29 450.988 28.8333 450.988 28.5V24.84C450.988 24.5067 451.155 24.34 451.488 24.34H463.008C463.342 24.34 463.508 24.5067 463.508 24.84V28.5C463.508 28.8333 463.342 29 463.008 29H451.488ZM466.467 39.84C466.134 39.84 465.967 39.66 465.967 39.3V32.94C465.967 32.58 466.134 32.4 466.467 32.4H472.867C473.201 32.4 473.367 32.58 473.367 32.94V39.3C473.367 39.66 473.201 39.84 472.867 39.84H466.467ZM480.213 32.94C479.88 32.94 479.713 32.7733 479.713 32.44V20.9C479.713 20.5667 479.88 20.4 480.213 20.4H483.893C484.226 20.4 484.393 20.5667 484.393 20.9V32.44C484.393 32.7733 484.226 32.94 483.893 32.94H480.213ZM476.293 29C475.96 29 475.793 28.8333 475.793 28.5V24.84C475.793 24.5067 475.96 24.34 476.293 24.34H487.813C488.146 24.34 488.313 24.5067 488.313 24.84V28.5C488.313 28.8333 488.146 29 487.813 29H476.293ZM500.132 40.8C499.172 40.8 498.279 40.5467 497.452 40.04C496.652 39.56 495.999 38.9067 495.492 38.08C495.012 37.2533 494.772 36.3467 494.772 35.36C494.772 33.92 495.305 32.6933 496.372 31.68C497.465 30.6667 498.825 30.08 500.452 29.92L500.052 28.64C499.519 28.9333 498.905 29.1867 498.212 29.4C497.545 29.6133 496.905 29.72 496.292 29.72C495.332 29.72 494.465 29.48 493.692 29C492.945 28.4933 492.345 27.84 491.892 27.04C491.439 26.2133 491.212 25.3333 491.212 24.4C491.212 23.3867 491.452 22.48 491.932 21.68C492.439 20.8533 493.092 20.2 493.892 19.72C494.692 19.24 495.572 19 496.532 19C497.625 19 498.679 19.3867 499.692 20.16C500.705 20.9333 501.439 21.8667 501.892 22.96L502.932 22.16C502.212 21.4933 501.625 20.76 501.172 19.96C500.745 19.1333 500.532 18.3467 500.532 17.6C500.532 16.5867 500.772 15.68 501.252 14.88C501.732 14.0533 502.372 13.4 503.172 12.92C503.999 12.4133 504.905 12.16 505.892 12.16C506.879 12.16 507.785 12.4133 508.612 12.92C509.439 13.4 510.092 14.0533 510.572 14.88C511.079 15.7067 511.332 16.6133 511.332 17.6C511.332 18.3467 511.105 19.1467 510.652 20C510.199 20.8267 509.625 21.5467 508.932 22.16L509.972 22.96C510.425 21.84 511.145 20.9067 512.132 20.16C513.145 19.3867 514.212 19 515.332 19C516.292 19 517.172 19.24 517.972 19.72C518.799 20.2 519.452 20.8533 519.932 21.68C520.412 22.48 520.652 23.3867 520.652 24.4C520.652 25.3333 520.412 26.2133 519.932 27.04C519.479 27.84 518.865 28.4933 518.092 29C517.345 29.48 516.519 29.72 515.612 29.72C514.412 29.72 513.145 29.36 511.812 28.64L511.412 29.92C512.479 30.0267 513.439 30.3333 514.292 30.84C515.145 31.32 515.825 31.96 516.332 32.76C516.839 33.5333 517.092 34.4 517.092 35.36C517.092 36.32 516.839 37.2133 516.332 38.04C515.852 38.8667 515.212 39.5333 514.412 40.04C513.612 40.5467 512.719 40.8 511.732 40.8C510.212 40.8 508.945 40.28 507.932 39.24C506.919 38.1733 506.412 36.8133 506.412 35.16C506.412 34.5467 506.479 33.9733 506.612 33.44H505.252C505.305 33.7067 505.345 33.9867 505.372 34.28C505.425 34.5733 505.452 34.8667 505.452 35.16C505.452 36.7867 504.945 38.1333 503.932 39.2C502.919 40.2667 501.652 40.8 500.132 40.8ZM505.892 32.4C506.799 32.4 507.625 32.1733 508.372 31.72C509.119 31.2667 509.719 30.6667 510.172 29.92C510.625 29.1733 510.852 28.3467 510.852 27.44C510.852 26.5333 510.625 25.7067 510.172 24.96C509.719 24.2133 509.119 23.6133 508.372 23.16C507.625 22.7067 506.799 22.48 505.892 22.48C504.985 22.48 504.159 22.7067 503.412 23.16C502.692 23.6133 502.105 24.2133 501.652 24.96C501.225 25.7067 501.012 26.5333 501.012 27.44C501.012 28.3467 501.225 29.1867 501.652 29.96C502.105 30.7067 502.705 31.3067 503.452 31.76C504.199 32.1867 505.012 32.4 505.892 32.4ZM527.948 32.94C527.614 32.94 527.448 32.7733 527.448 32.44V20.9C527.448 20.5667 527.614 20.4 527.948 20.4H531.628C531.961 20.4 532.128 20.5667 532.128 20.9V32.44C532.128 32.7733 531.961 32.94 531.628 32.94H527.948ZM524.028 29C523.694 29 523.528 28.8333 523.528 28.5V24.84C523.528 24.5067 523.694 24.34 524.028 24.34H535.548C535.881 24.34 536.048 24.5067 536.048 24.84V28.5C536.048 28.8333 535.881 29 535.548 29H524.028ZM539.006 39.84C538.673 39.84 538.506 39.66 538.506 39.3V32.94C538.506 32.58 538.673 32.4 539.006 32.4H545.406C545.74 32.4 545.906 32.58 545.906 32.94V39.3C545.906 39.66 545.74 39.84 545.406 39.84H539.006ZM552.752 32.94C552.419 32.94 552.252 32.7733 552.252 32.44V20.9C552.252 20.5667 552.419 20.4 552.752 20.4H556.432C556.766 20.4 556.932 20.5667 556.932 20.9V32.44C556.932 32.7733 556.766 32.94 556.432 32.94H552.752ZM548.832 29C548.499 29 548.332 28.8333 548.332 28.5V24.84C548.332 24.5067 548.499 24.34 548.832 24.34H560.352C560.686 24.34 560.852 24.5067 560.852 24.84V28.5C560.852 28.8333 560.686 29 560.352 29H548.832ZM564.411 23C564.118 23 563.951 22.8467 563.911 22.54L563.311 13.86C563.271 13.5133 563.438 13.34 563.811 13.34H568.411C568.784 13.34 568.951 13.5133 568.911 13.86L568.311 22.54C568.271 22.8467 568.104 23 567.811 23H564.411ZM570.971 23C570.678 23 570.511 22.8467 570.471 22.54L569.871 13.86C569.831 13.5133 569.998 13.34 570.371 13.34H574.971C575.344 13.34 575.511 13.5133 575.471 13.86L574.871 22.54C574.831 22.8467 574.664 23 574.371 23H570.971ZM582.323 32.94C581.989 32.94 581.823 32.7733 581.823 32.44V20.9C581.823 20.5667 581.989 20.4 582.323 20.4H586.003C586.336 20.4 586.503 20.5667 586.503 20.9V32.44C586.503 32.7733 586.336 32.94 586.003 32.94H582.323ZM578.403 29C578.069 29 577.903 28.8333 577.903 28.5V24.84C577.903 24.5067 578.069 24.34 578.403 24.34H589.923C590.256 24.34 590.423 24.5067 590.423 24.84V28.5C590.423 28.8333 590.256 29 589.923 29H578.403ZM593.381 39.84C593.048 39.84 592.881 39.66 592.881 39.3V32.94C592.881 32.58 593.048 32.4 593.381 32.4H599.781C600.115 32.4 600.281 32.58 600.281 32.94V39.3C600.281 39.66 600.115 39.84 599.781 39.84H593.381ZM607.127 32.94C606.794 32.94 606.627 32.7733 606.627 32.44V20.9C606.627 20.5667 606.794 20.4 607.127 20.4H610.807C611.141 20.4 611.307 20.5667 611.307 20.9V32.44C611.307 32.7733 611.141 32.94 610.807 32.94H607.127ZM603.207 29C602.874 29 602.707 28.8333 602.707 28.5V24.84C602.707 24.5067 602.874 24.34 603.207 24.34H614.727C615.061 24.34 615.227 24.5067 615.227 24.84V28.5C615.227 28.8333 615.061 29 614.727 29H603.207ZM618.786 23C618.493 23 618.326 22.8467 618.286 22.54L617.686 13.86C617.646 13.5133 617.813 13.34 618.186 13.34H622.786C623.159 13.34 623.326 13.5133 623.286 13.86L622.686 22.54C622.646 22.8467 622.479 23 622.186 23H618.786ZM625.346 23C625.053 23 624.886 22.8467 624.846 22.54L624.246 13.86C624.206 13.5133 624.373 13.34 624.746 13.34H629.346C629.719 13.34 629.886 13.5133 629.846 13.86L629.246 22.54C629.206 22.8467 629.039 23 628.746 23H625.346ZM636.698 32.94C636.364 32.94 636.198 32.7733 636.198 32.44V20.9C636.198 20.5667 636.364 20.4 636.698 20.4H640.378C640.711 20.4 640.878 20.5667 640.878 20.9V32.44C640.878 32.7733 640.711 32.94 640.378 32.94H636.698ZM632.778 29C632.444 29 632.278 28.8333 632.278 28.5V24.84C632.278 24.5067 632.444 24.34 632.778 24.34H644.298C644.631 24.34 644.798 24.5067 644.798 24.84V28.5C644.798 28.8333 644.631 29 644.298 29H632.778ZM647.756 39.84C647.423 39.84 647.256 39.66 647.256 39.3V32.94C647.256 32.58 647.423 32.4 647.756 32.4H654.156C654.49 32.4 654.656 32.58 654.656 32.94V39.3C654.656 39.66 654.49 39.84 654.156 39.84H647.756ZM661.502 32.94C661.169 32.94 661.002 32.7733 661.002 32.44V20.9C661.002 20.5667 661.169 20.4 661.502 20.4H665.182C665.516 20.4 665.682 20.5667 665.682 20.9V32.44C665.682 32.7733 665.516 32.94 665.182 32.94H661.502ZM657.582 29C657.249 29 657.082 28.8333 657.082 28.5V24.84C657.082 24.5067 657.249 24.34 657.582 24.34H669.102C669.436 24.34 669.602 24.5067 669.602 24.84V28.5C669.602 28.8333 669.436 29 669.102 29H657.582ZM673.161 23C672.868 23 672.701 22.8467 672.661 22.54L672.061 13.86C672.021 13.5133 672.188 13.34 672.561 13.34H677.161C677.534 13.34 677.701 13.5133 677.661 13.86L677.061 22.54C677.021 22.8467 676.854 23 676.561 23H673.161ZM679.721 23C679.428 23 679.261 22.8467 679.221 22.54L678.621 13.86C678.581 13.5133 678.748 13.34 679.121 13.34H683.721C684.094 13.34 684.261 13.5133 684.221 13.86L683.621 22.54C683.581 22.8467 683.414 23 683.121 23H679.721ZM691.073 32.94C690.739 32.94 690.573 32.7733 690.573 32.44V20.9C690.573 20.5667 690.739 20.4 691.073 20.4H694.753C695.086 20.4 695.253 20.5667 695.253 20.9V32.44C695.253 32.7733 695.086 32.94 694.753 32.94H691.073ZM687.153 29C686.819 29 686.653 28.8333 686.653 28.5V24.84C686.653 24.5067 686.819 24.34 687.153 24.34H698.673C699.006 24.34 699.173 24.5067 699.173 24.84V28.5C699.173 28.8333 699.006 29 698.673 29H687.153ZM702.131 39.84C701.798 39.84 701.631 39.66 701.631 39.3V32.94C701.631 32.58 701.798 32.4 702.131 32.4H708.531C708.865 32.4 709.031 32.58 709.031 32.94V39.3C709.031 39.66 708.865 39.84 708.531 39.84H702.131ZM715.877 32.94C715.544 32.94 715.377 32.7733 715.377 32.44V20.9C715.377 20.5667 715.544 20.4 715.877 20.4H719.557C719.891 20.4 720.057 20.5667 720.057 20.9V32.44C720.057 32.7733 719.891 32.94 719.557 32.94H715.877ZM711.957 29C711.624 29 711.457 28.8333 711.457 28.5V24.84C711.457 24.5067 711.624 24.34 711.957 24.34H723.477C723.811 24.34 723.977 24.5067 723.977 24.84V28.5C723.977 28.8333 723.811 29 723.477 29H711.957ZM727.536 23C727.243 23 727.076 22.8467 727.036 22.54L726.436 13.86C726.396 13.5133 726.563 13.34 726.936 13.34H731.536C731.909 13.34 732.076 13.5133 732.036 13.86L731.436 22.54C731.396 22.8467 731.229 23 730.936 23H727.536ZM734.096 23C733.803 23 733.636 22.8467 733.596 22.54L732.996 13.86C732.956 13.5133 733.123 13.34 733.496 13.34H738.096C738.469 13.34 738.636 13.5133 738.596 13.86L737.996 22.54C737.956 22.8467 737.789 23 737.496 23H734.096ZM745.448 32.94C745.114 32.94 744.948 32.7733 744.948 32.44V20.9C744.948 20.5667 745.114 20.4 745.448 20.4H749.128C749.461 20.4 749.628 20.5667 749.628 20.9V32.44C749.628 32.7733 749.461 32.94 749.128 32.94H745.448ZM741.528 29C741.194 29 741.028 28.8333 741.028 28.5V24.84C741.028 24.5067 741.194 24.34 741.528 24.34H753.048C753.381 24.34 753.548 24.5067 753.548 24.84V28.5C753.548 28.8333 753.381 29 753.048 29H741.528ZM756.506 39.84C756.173 39.84 756.006 39.66 756.006 39.3V32.94C756.006 32.58 756.173 32.4 756.506 32.4H762.906C763.24 32.4 763.406 32.58 763.406 32.94V39.3C763.406 39.66 763.24 39.84 762.906 39.84H756.506ZM770.252 32.94C769.919 32.94 769.752 32.7733 769.752 32.44V20.9C769.752 20.5667 769.919 20.4 770.252 20.4H773.932C774.266 20.4 774.432 20.5667 774.432 20.9V32.44C774.432 32.7733 774.266 32.94 773.932 32.94H770.252ZM766.332 29C765.999 29 765.832 28.8333 765.832 28.5V24.84C765.832 24.5067 765.999 24.34 766.332 24.34H777.852C778.186 24.34 778.352 24.5067 778.352 24.84V28.5C778.352 28.8333 778.186 29 777.852 29H766.332ZM781.911 23C781.618 23 781.451 22.8467 781.411 22.54L780.811 13.86C780.771 13.5133 780.938 13.34 781.311 13.34H785.911C786.284 13.34 786.451 13.5133 786.411 13.86L785.811 22.54C785.771 22.8467 785.604 23 785.311 23H781.911ZM788.471 23C788.178 23 788.011 22.8467 787.971 22.54L787.371 13.86C787.331 13.5133 787.498 13.34 787.871 13.34H792.471C792.844 13.34 793.011 13.5133 792.971 13.86L792.371 22.54C792.331 22.8467 792.164 23 791.871 23H788.471ZM799.823 32.94C799.489 32.94 799.323 32.7733 799.323 32.44V20.9C799.323 20.5667 799.489 20.4 799.823 20.4H803.503C803.836 20.4 804.003 20.5667 804.003 20.9V32.44C804.003 32.7733 803.836 32.94 803.503 32.94H799.823ZM795.903 29C795.569 29 795.403 28.8333 795.403 28.5V24.84C795.403 24.5067 795.569 24.34 795.903 24.34H807.423C807.756 24.34 807.923 24.5067 807.923 24.84V28.5C807.923 28.8333 807.756 29 807.423 29H795.903ZM810.881 39.84C810.548 39.84 810.381 39.66 810.381 39.3V32.94C810.381 32.58 810.548 32.4 810.881 32.4H817.281C817.615 32.4 817.781 32.58 817.781 32.94V39.3C817.781 39.66 817.615 39.84 817.281 39.84H810.881ZM824.627 32.94C824.294 32.94 824.127 32.7733 824.127 32.44V20.9C824.127 20.5667 824.294 20.4 824.627 20.4H828.307C828.641 20.4 828.807 20.5667 828.807 20.9V32.44C828.807 32.7733 828.641 32.94 828.307 32.94H824.627ZM820.707 29C820.374 29 820.207 28.8333 820.207 28.5V24.84C820.207 24.5067 820.374 24.34 820.707 24.34H832.227C832.561 24.34 832.727 24.5067 832.727 24.84V28.5C832.727 28.8333 832.561 29 832.227 29H820.707ZM836.286 23C835.993 23 835.826 22.8467 835.786 22.54L835.186 13.86C835.146 13.5133 835.313 13.34 835.686 13.34H840.286C840.659 13.34 840.826 13.5133 840.786 13.86L840.186 22.54C840.146 22.8467 839.979 23 839.686 23H836.286ZM842.846 23C842.553 23 842.386 22.8467 842.346 22.54L841.746 13.86C841.706 13.5133 841.873 13.34 842.246 13.34H846.846C847.219 13.34 847.386 13.5133 847.346 13.86L846.746 22.54C846.706 22.8467 846.539 23 846.246 23H842.846ZM854.198 32.94C853.864 32.94 853.698 32.7733 853.698 32.44V20.9C853.698 20.5667 853.864 20.4 854.198 20.4H857.878C858.211 20.4 858.378 20.5667 858.378 20.9V32.44C858.378 32.7733 858.211 32.94 857.878 32.94H854.198ZM850.278 29C849.944 29 849.778 28.8333 849.778 28.5V24.84C849.778 24.5067 849.944 24.34 850.278 24.34H861.798C862.131 24.34 862.298 24.5067 862.298 24.84V28.5C862.298 28.8333 862.131 29 861.798 29H850.278ZM865.256 39.84C864.923 39.84 864.756 39.66 864.756 39.3V32.94C864.756 32.58 864.923 32.4 865.256 32.4H871.656C871.99 32.4 872.156 32.58 872.156 32.94V39.3C872.156 39.66 871.99 39.84 871.656 39.84H865.256ZM879.002 32.94C878.669 32.94 878.502 32.7733 878.502 32.44V20.9C878.502 20.5667 878.669 20.4 879.002 20.4H882.682C883.016 20.4 883.182 20.5667 883.182 20.9V32.44C883.182 32.7733 883.016 32.94 882.682 32.94H879.002ZM875.082 29C874.749 29 874.582 28.8333 874.582 28.5V24.84C874.582 24.5067 874.749 24.34 875.082 24.34H886.602C886.936 24.34 887.102 24.5067 887.102 24.84V28.5C887.102 28.8333 886.936 29 886.602 29H875.082ZM890.661 23C890.368 23 890.201 22.8467 890.161 22.54L889.561 13.86C889.521 13.5133 889.688 13.34 890.061 13.34H894.661C895.034 13.34 895.201 13.5133 895.161 13.86L894.561 22.54C894.521 22.8467 894.354 23 894.061 23H890.661ZM897.221 23C896.928 23 896.761 22.8467 896.721 22.54L896.121 13.86C896.081 13.5133 896.248 13.34 896.621 13.34H901.221C901.594 13.34 901.761 13.5133 901.721 13.86L901.121 22.54C901.081 22.8467 900.914 23 900.621 23H897.221ZM908.573 32.94C908.239 32.94 908.073 32.7733 908.073 32.44V20.9C908.073 20.5667 908.239 20.4 908.573 20.4H912.253C912.586 20.4 912.753 20.5667 912.753 20.9V32.44C912.753 32.7733 912.586 32.94 912.253 32.94H908.573ZM904.653 29C904.319 29 904.153 28.8333 904.153 28.5V24.84C904.153 24.5067 904.319 24.34 904.653 24.34H916.173C916.506 24.34 916.673 24.5067 916.673 24.84V28.5C916.673 28.8333 916.506 29 916.173 29H904.653ZM919.631 39.84C919.298 39.84 919.131 39.66 919.131 39.3V32.94C919.131 32.58 919.298 32.4 919.631 32.4H926.031C926.365 32.4 926.531 32.58 926.531 32.94V39.3C926.531 39.66 926.365 39.84 926.031 39.84H919.631ZM933.377 32.94C933.044 32.94 932.877 32.7733 932.877 32.44V20.9C932.877 20.5667 933.044 20.4 933.377 20.4H937.057C937.391 20.4 937.557 20.5667 937.557 20.9V32.44C937.557 32.7733 937.391 32.94 937.057 32.94H933.377ZM929.457 29C929.124 29 928.957 28.8333 928.957 28.5V24.84C928.957 24.5067 929.124 24.34 929.457 24.34H940.977C941.311 24.34 941.477 24.5067 941.477 24.84V28.5C941.477 28.8333 941.311 29 940.977 29H929.457ZM945.036 23C944.743 23 944.576 22.8467 944.536 22.54L943.936 13.86C943.896 13.5133 944.063 13.34 944.436 13.34H949.036C949.409 13.34 949.576 13.5133 949.536 13.86L948.936 22.54C948.896 22.8467 948.729 23 948.436 23H945.036ZM951.596 23C951.303 23 951.136 22.8467 951.096 22.54L950.496 13.86C950.456 13.5133 950.623 13.34 950.996 13.34H955.596C955.969 13.34 956.136 13.5133 956.096 13.86L955.496 22.54C955.456 22.8467 955.289 23 954.996 23H951.596ZM962.948 32.94C962.614 32.94 962.448 32.7733 962.448 32.44V20.9C962.448 20.5667 962.614 20.4 962.948 20.4H966.628C966.961 20.4 967.128 20.5667 967.128 20.9V32.44C967.128 32.7733 966.961 32.94 966.628 32.94H962.948ZM959.028 29C958.694 29 958.528 28.8333 958.528 28.5V24.84C958.528 24.5067 958.694 24.34 959.028 24.34H970.548C970.881 24.34 971.048 24.5067 971.048 24.84V28.5C971.048 28.8333 970.881 29 970.548 29H959.028ZM974.006 39.84C973.673 39.84 973.506 39.66 973.506 39.3V32.94C973.506 32.58 973.673 32.4 974.006 32.4H980.406C980.74 32.4 980.906 32.58 980.906 32.94V39.3C980.906 39.66 980.74 39.84 980.406 39.84H974.006ZM31.3 98.34C30.9533 98.34 30.6867 98.2467 30.5 98.06L24.5 92.06C24.3533 91.9133 24.26 91.7933 24.22 91.7C24.18 91.62 24.16 91.4733 24.16 91.26V63.06C24.16 62.8467 24.18 62.7 24.22 62.62C24.26 62.5267 24.3533 62.4067 24.5 62.26L30.5 56.26C30.6867 56.0867 30.9533 56 31.3 56H34.9C35.2333 56 35.4 56.1667 35.4 56.5V59.36C35.4 59.48 35.3867 59.5933 35.36 59.7C35.3333 59.7933 35.2667 59.8933 35.16 60L30.44 64.74V89.6L35.16 94.34C35.2667 94.4333 35.3333 94.5333 35.36 94.64C35.3867 94.7467 35.4 94.8533 35.4 94.96V97.84C35.4 98.1733 35.2333 98.34 34.9 98.34H31.3ZM980.459 98.34H976.859C976.526 98.34 976.359 98.1733 976.359 97.84V94.96C976.359 94.8533 976.373 94.7467 976.399 94.64C976.439 94.5333 976.506 94.4333 976.599 94.34L981.319 89.6V64.74L976.599 60C976.506 59.8933 976.439 59.7933 976.399 59.7C976.373 59.5933 976.359 59.48 976.359 59.36V56.5C976.359 56.1667 976.526 56 976.859 56H980.459C980.806 56 981.073 56.0867 981.259 56.26L987.259 62.26C987.406 62.4067 987.499 62.5267 987.539 62.62C987.579 62.7 987.599 62.8467 987.599 63.06V91.26C987.599 91.4733 987.579 91.62 987.539 91.7C987.499 91.7933 987.406 91.9133 987.259 92.06L981.259 98.06C981.073 98.2467 980.806 98.34 980.459 98.34ZM35.9672 148.34H32.3672C32.0339 148.34 31.8672 148.173 31.8672 147.84V144.96C31.8672 144.853 31.8805 144.747 31.9072 144.64C31.9472 144.533 32.0139 144.433 32.1072 144.34L36.8272 139.6V114.74L32.1072 110C32.0139 109.893 31.9472 109.793 31.9072 109.7C31.8805 109.593 31.8672 109.48 31.8672 109.36V106.5C31.8672 106.167 32.0339 106 32.3672 106H35.9672C36.3139 106 36.5805 106.087 36.7672 106.26L42.7672 112.26C42.9139 112.407 43.0072 112.527 43.0472 112.62C43.0872 112.7 43.1072 112.847 43.1072 113.06V141.26C43.1072 141.473 43.0872 141.62 43.0472 141.7C43.0072 141.793 42.9139 141.913 42.7672 142.06L36.7672 148.06C36.5805 148.247 36.3139 148.34 35.9672 148.34ZM969.425 148.34C969.078 148.34 968.812 148.247 968.625 148.06L962.625 142.06C962.478 141.913 962.385 141.793 962.345 141.7C962.305 141.62 962.285 141.473 962.285 141.26V113.06C962.285 112.847 962.305 112.7 962.345 112.62C962.385 112.527 962.478 112.407 962.625 112.26L968.625 106.26C968.812 106.087 969.078 106 969.425 106H973.025C973.358 106 973.525 106.167 973.525 106.5V109.36C973.525 109.48 973.512 109.593 973.485 109.7C973.458 109.793 973.392 109.893 973.285 110L968.565 114.74V139.6L973.285 144.34C973.392 144.433 973.458 144.533 973.485 144.64C973.512 144.747 973.525 144.853 973.525 144.96V147.84C973.525 148.173 973.358 148.34 973.025 148.34H969.425ZM31.3 198.34C30.9533 198.34 30.6867 198.247 30.5 198.06L24.5 192.06C24.3533 191.913 24.26 191.793 24.22 191.7C24.18 191.62 24.16 191.473 24.16 191.26V163.06C24.16 162.847 24.18 162.7 24.22 162.62C24.26 162.527 24.3533 162.407 24.5 162.26L30.5 156.26C30.6867 156.087 30.9533 156 31.3 156H34.9C35.2333 156 35.4 156.167 35.4 156.5V159.36C35.4 159.48 35.3867 159.593 35.36 159.7C35.3333 159.793 35.2667 159.893 35.16 160L30.44 164.74V189.6L35.16 194.34C35.2667 194.433 35.3333 194.533 35.36 194.64C35.3867 194.747 35.4 194.853 35.4 194.96V197.84C35.4 198.173 35.2333 198.34 34.9 198.34H31.3ZM974.092 198.34H970.492C970.159 198.34 969.992 198.173 969.992 197.84V194.96C969.992 194.853 970.006 194.747 970.032 194.64C970.072 194.533 970.139 194.433 970.232 194.34L974.952 189.6V164.74L970.232 160C970.139 159.893 970.072 159.793 970.032 159.7C970.006 159.593 969.992 159.48 969.992 159.36V156.5C969.992 156.167 970.159 156 970.492 156H974.092C974.439 156 974.706 156.087 974.892 156.26L980.892 162.26C981.039 162.407 981.132 162.527 981.172 162.62C981.212 162.7 981.232 162.847 981.232 163.06V191.26C981.232 191.473 981.212 191.62 981.172 191.7C981.132 191.793 981.039 191.913 980.892 192.06L974.892 198.06C974.706 198.247 974.439 198.34 974.092 198.34ZM35.9672 248.34H32.3672C32.0339 248.34 31.8672 248.173 31.8672 247.84V244.96C31.8672 244.853 31.8805 244.747 31.9072 244.64C31.9472 244.533 32.0139 244.433 32.1072 244.34L36.8272 239.6V214.74L32.1072 210C32.0139 209.893 31.9472 209.793 31.9072 209.7C31.8805 209.593 31.8672 209.48 31.8672 209.36V206.5C31.8672 206.167 32.0339 206 32.3672 206H35.9672C36.3139 206 36.5805 206.087 36.7672 206.26L42.7672 212.26C42.9139 212.407 43.0072 212.527 43.0472 212.62C43.0872 212.7 43.1072 212.847 43.1072 213.06V241.26C43.1072 241.473 43.0872 241.62 43.0472 241.7C43.0072 241.793 42.9139 241.913 42.7672 242.06L36.7672 248.06C36.5805 248.247 36.3139 248.34 35.9672 248.34ZM963.058 248.34C962.711 248.34 962.444 248.247 962.258 248.06L956.258 242.06C956.111 241.913 956.018 241.793 955.978 241.7C955.938 241.62 955.918 241.473 955.918 241.26V213.06C955.918 212.847 955.938 212.7 955.978 212.62C956.018 212.527 956.111 212.407 956.258 212.26L962.258 206.26C962.444 206.087 962.711 206 963.058 206H966.658C966.991 206 967.158 206.167 967.158 206.5V209.36C967.158 209.48 967.144 209.593 967.118 209.7C967.091 209.793 967.024 209.893 966.918 210L962.198 214.74V239.6L966.918 244.34C967.024 244.433 967.091 244.533 967.118 244.64C967.144 244.747 967.158 244.853 967.158 244.96V247.84C967.158 248.173 966.991 248.34 966.658 248.34H963.058ZM33.96 290.8C33 290.8 32.1067 290.547 31.28 290.04C30.48 289.56 29.8267 288.907 29.32 288.08C28.84 287.253 28.6 286.347 28.6 285.36C28.6 283.92 29.1333 282.693 30.2 281.68C31.2933 280.667 32.6533 280.08 34.28 279.92L33.88 278.64C33.3467 278.933 32.7333 279.187 32.04 279.4C31.3733 279.613 30.7333 279.72 30.12 279.72C29.16 279.72 28.2933 279.48 27.52 279C26.7733 278.493 26.1733 277.84 25.72 277.04C25.2667 276.213 25.04 275.333 25.04 274.4C25.04 273.387 25.28 272.48 25.76 271.68C26.2667 270.853 26.92 270.2 27.72 269.72C28.52 269.24 29.4 269 30.36 269C31.4533 269 32.5067 269.387 33.52 270.16C34.5333 270.933 35.2667 271.867 35.72 272.96L36.76 272.16C36.04 271.493 35.4533 270.76 35 269.96C34.5733 269.133 34.36 268.347 34.36 267.6C34.36 266.587 34.6 265.68 35.08 264.88C35.56 264.053 36.2 263.4 37 262.92C37.8267 262.413 38.7333 262.16 39.72 262.16C40.7067 262.16 41.6133 262.413 42.44 262.92C43.2667 263.4 43.92 264.053 44.4 264.88C44.9067 265.707 45.16 266.613 45.16 267.6C45.16 268.347 44.9333 269.147 44.48 270C44.0267 270.827 43.4533 271.547 42.76 272.16L43.8 272.96C44.2533 271.84 44.9733 270.907 45.96 270.16C46.9733 269.387 48.04 269 49.16 269C50.12 269 51 269.24 51.8 269.72C52.6267 270.2 53.28 270.853 53.76 271.68C54.24 272.48 54.48 273.387 54.48 274.4C54.48 275.333 54.24 276.213 53.76 277.04C53.3067 277.84 52.6933 278.493 51.92 279C51.1733 279.48 50.3467 279.72 49.44 279.72C48.24 279.72 46.9733 279.36 45.64 278.64L45.24 279.92C46.3067 280.027 47.2667 280.333 48.12 280.84C48.9733 281.32 49.6533 281.96 50.16 282.76C50.6667 283.533 50.92 284.4 50.92 285.36C50.92 286.32 50.6667 287.213 50.16 288.04C49.68 288.867 49.04 289.533 48.24 290.04C47.44 290.547 46.5467 290.8 45.56 290.8C44.04 290.8 42.7733 290.28 41.76 289.24C40.7467 288.173 40.24 286.813 40.24 285.16C40.24 284.547 40.3067 283.973 40.44 283.44H39.08C39.1333 283.707 39.1733 283.987 39.2 284.28C39.2533 284.573 39.28 284.867 39.28 285.16C39.28 286.787 38.7733 288.133 37.76 289.2C36.7467 290.267 35.48 290.8 33.96 290.8ZM39.72 282.4C40.6267 282.4 41.4533 282.173 42.2 281.72C42.9467 281.267 43.5467 280.667 44 279.92C44.4533 279.173 44.68 278.347 44.68 277.44C44.68 276.533 44.4533 275.707 44 274.96C43.5467 274.213 42.9467 273.613 42.2 273.16C41.4533 272.707 40.6267 272.48 39.72 272.48C38.8133 272.48 37.9867 272.707 37.24 273.16C36.52 273.613 35.9333 274.213 35.48 274.96C35.0533 275.707 34.84 276.533 34.84 277.44C34.84 278.347 35.0533 279.187 35.48 279.96C35.9333 280.707 36.5333 281.307 37.28 281.76C38.0267 282.187 38.84 282.4 39.72 282.4ZM965.249 290.8C964.289 290.8 963.396 290.547 962.569 290.04C961.769 289.56 961.116 288.907 960.609 288.08C960.129 287.253 959.889 286.347 959.889 285.36C959.889 283.92 960.422 282.693 961.489 281.68C962.582 280.667 963.942 280.08 965.569 279.92L965.169 278.64C964.636 278.933 964.022 279.187 963.329 279.4C962.662 279.613 962.022 279.72 961.409 279.72C960.449 279.72 959.582 279.48 958.809 279C958.062 278.493 957.462 277.84 957.009 277.04C956.556 276.213 956.329 275.333 956.329 274.4C956.329 273.387 956.569 272.48 957.049 271.68C957.556 270.853 958.209 270.2 959.009 269.72C959.809 269.24 960.689 269 961.649 269C962.742 269 963.796 269.387 964.809 270.16C965.822 270.933 966.556 271.867 967.009 272.96L968.049 272.16C967.329 271.493 966.742 270.76 966.289 269.96C965.862 269.133 965.649 268.347 965.649 267.6C965.649 266.587 965.889 265.68 966.369 264.88C966.849 264.053 967.489 263.4 968.289 262.92C969.116 262.413 970.022 262.16 971.009 262.16C971.996 262.16 972.902 262.413 973.729 262.92C974.556 263.4 975.209 264.053 975.689 264.88C976.196 265.707 976.449 266.613 976.449 267.6C976.449 268.347 976.222 269.147 975.769 270C975.316 270.827 974.742 271.547 974.049 272.16L975.089 272.96C975.542 271.84 976.262 270.907 977.249 270.16C978.262 269.387 979.329 269 980.449 269C981.409 269 982.289 269.24 983.089 269.72C983.916 270.2 984.569 270.853 985.049 271.68C985.529 272.48 985.769 273.387 985.769 274.4C985.769 275.333 985.529 276.213 985.049 277.04C984.596 277.84 983.982 278.493 983.209 279C982.462 279.48 981.636 279.72 980.729 279.72C979.529 279.72 978.262 279.36 976.929 278.64L976.529 279.92C977.596 280.027 978.556 280.333 979.409 280.84C980.262 281.32 980.942 281.96 981.449 282.76C981.956 283.533 982.209 284.4 982.209 285.36C982.209 286.32 981.956 287.213 981.449 288.04C980.969 288.867 980.329 289.533 979.529 290.04C978.729 290.547 977.836 290.8 976.849 290.8C975.329 290.8 974.062 290.28 973.049 289.24C972.036 288.173 971.529 286.813 971.529 285.16C971.529 284.547 971.596 283.973 971.729 283.44H970.369C970.422 283.707 970.462 283.987 970.489 284.28C970.542 284.573 970.569 284.867 970.569 285.16C970.569 286.787 970.062 288.133 969.049 289.2C968.036 290.267 966.769 290.8 965.249 290.8ZM971.009 282.4C971.916 282.4 972.742 282.173 973.489 281.72C974.236 281.267 974.836 280.667 975.289 279.92C975.742 279.173 975.969 278.347 975.969 277.44C975.969 276.533 975.742 275.707 975.289 274.96C974.836 274.213 974.236 273.613 973.489 273.16C972.742 272.707 971.916 272.48 971.009 272.48C970.102 272.48 969.276 272.707 968.529 273.16C967.809 273.613 967.222 274.213 966.769 274.96C966.342 275.707 966.129 276.533 966.129 277.44C966.129 278.347 966.342 279.187 966.769 279.96C967.222 280.707 967.822 281.307 968.569 281.76C969.316 282.187 970.129 282.4 971.009 282.4ZM33.96 340.8C33 340.8 32.1067 340.547 31.28 340.04C30.48 339.56 29.8267 338.907 29.32 338.08C28.84 337.253 28.6 336.347 28.6 335.36C28.6 333.92 29.1333 332.693 30.2 331.68C31.2933 330.667 32.6533 330.08 34.28 329.92L33.88 328.64C33.3467 328.933 32.7333 329.187 32.04 329.4C31.3733 329.613 30.7333 329.72 30.12 329.72C29.16 329.72 28.2933 329.48 27.52 329C26.7733 328.493 26.1733 327.84 25.72 327.04C25.2667 326.213 25.04 325.333 25.04 324.4C25.04 323.387 25.28 322.48 25.76 321.68C26.2667 320.853 26.92 320.2 27.72 319.72C28.52 319.24 29.4 319 30.36 319C31.4533 319 32.5067 319.387 33.52 320.16C34.5333 320.933 35.2667 321.867 35.72 322.96L36.76 322.16C36.04 321.493 35.4533 320.76 35 319.96C34.5733 319.133 34.36 318.347 34.36 317.6C34.36 316.587 34.6 315.68 35.08 314.88C35.56 314.053 36.2 313.4 37 312.92C37.8267 312.413 38.7333 312.16 39.72 312.16C40.7067 312.16 41.6133 312.413 42.44 312.92C43.2667 313.4 43.92 314.053 44.4 314.88C44.9067 315.707 45.16 316.613 45.16 317.6C45.16 318.347 44.9333 319.147 44.48 320C44.0267 320.827 43.4533 321.547 42.76 322.16L43.8 322.96C44.2533 321.84 44.9733 320.907 45.96 320.16C46.9733 319.387 48.04 319 49.16 319C50.12 319 51 319.24 51.8 319.72C52.6267 320.2 53.28 320.853 53.76 321.68C54.24 322.48 54.48 323.387 54.48 324.4C54.48 325.333 54.24 326.213 53.76 327.04C53.3067 327.84 52.6933 328.493 51.92 329C51.1733 329.48 50.3467 329.72 49.44 329.72C48.24 329.72 46.9733 329.36 45.64 328.64L45.24 329.92C46.3067 330.027 47.2667 330.333 48.12 330.84C48.9733 331.32 49.6533 331.96 50.16 332.76C50.6667 333.533 50.92 334.4 50.92 335.36C50.92 336.32 50.6667 337.213 50.16 338.04C49.68 338.867 49.04 339.533 48.24 340.04C47.44 340.547 46.5467 340.8 45.56 340.8C44.04 340.8 42.7733 340.28 41.76 339.24C40.7467 338.173 40.24 336.813 40.24 335.16C40.24 334.547 40.3067 333.973 40.44 333.44H39.08C39.1333 333.707 39.1733 333.987 39.2 334.28C39.2533 334.573 39.28 334.867 39.28 335.16C39.28 336.787 38.7733 338.133 37.76 339.2C36.7467 340.267 35.48 340.8 33.96 340.8ZM39.72 332.4C40.6267 332.4 41.4533 332.173 42.2 331.72C42.9467 331.267 43.5467 330.667 44 329.92C44.4533 329.173 44.68 328.347 44.68 327.44C44.68 326.533 44.4533 325.707 44 324.96C43.5467 324.213 42.9467 323.613 42.2 323.16C41.4533 322.707 40.6267 322.48 39.72 322.48C38.8133 322.48 37.9867 322.707 37.24 323.16C36.52 323.613 35.9333 324.213 35.48 324.96C35.0533 325.707 34.84 326.533 34.84 327.44C34.84 328.347 35.0533 329.187 35.48 329.96C35.9333 330.707 36.5333 331.307 37.28 331.76C38.0267 332.187 38.84 332.4 39.72 332.4ZM965.249 340.8C964.289 340.8 963.396 340.547 962.569 340.04C961.769 339.56 961.116 338.907 960.609 338.08C960.129 337.253 959.889 336.347 959.889 335.36C959.889 333.92 960.422 332.693 961.489 331.68C962.582 330.667 963.942 330.08 965.569 329.92L965.169 328.64C964.636 328.933 964.022 329.187 963.329 329.4C962.662 329.613 962.022 329.72 961.409 329.72C960.449 329.72 959.582 329.48 958.809 329C958.062 328.493 957.462 327.84 957.009 327.04C956.556 326.213 956.329 325.333 956.329 324.4C956.329 323.387 956.569 322.48 957.049 321.68C957.556 320.853 958.209 320.2 959.009 319.72C959.809 319.24 960.689 319 961.649 319C962.742 319 963.796 319.387 964.809 320.16C965.822 320.933 966.556 321.867 967.009 322.96L968.049 322.16C967.329 321.493 966.742 320.76 966.289 319.96C965.862 319.133 965.649 318.347 965.649 317.6C965.649 316.587 965.889 315.68 966.369 314.88C966.849 314.053 967.489 313.4 968.289 312.92C969.116 312.413 970.022 312.16 971.009 312.16C971.996 312.16 972.902 312.413 973.729 312.92C974.556 313.4 975.209 314.053 975.689 314.88C976.196 315.707 976.449 316.613 976.449 317.6C976.449 318.347 976.222 319.147 975.769 320C975.316 320.827 974.742 321.547 974.049 322.16L975.089 322.96C975.542 321.84 976.262 320.907 977.249 320.16C978.262 319.387 979.329 319 980.449 319C981.409 319 982.289 319.24 983.089 319.72C983.916 320.2 984.569 320.853 985.049 321.68C985.529 322.48 985.769 323.387 985.769 324.4C985.769 325.333 985.529 326.213 985.049 327.04C984.596 327.84 983.982 328.493 983.209 329C982.462 329.48 981.636 329.72 980.729 329.72C979.529 329.72 978.262 329.36 976.929 328.64L976.529 329.92C977.596 330.027 978.556 330.333 979.409 330.84C980.262 331.32 980.942 331.96 981.449 332.76C981.956 333.533 982.209 334.4 982.209 335.36C982.209 336.32 981.956 337.213 981.449 338.04C980.969 338.867 980.329 339.533 979.529 340.04C978.729 340.547 977.836 340.8 976.849 340.8C975.329 340.8 974.062 340.28 973.049 339.24C972.036 338.173 971.529 336.813 971.529 335.16C971.529 334.547 971.596 333.973 971.729 333.44H970.369C970.422 333.707 970.462 333.987 970.489 334.28C970.542 334.573 970.569 334.867 970.569 335.16C970.569 336.787 970.062 338.133 969.049 339.2C968.036 340.267 966.769 340.8 965.249 340.8ZM971.009 332.4C971.916 332.4 972.742 332.173 973.489 331.72C974.236 331.267 974.836 330.667 975.289 329.92C975.742 329.173 975.969 328.347 975.969 327.44C975.969 326.533 975.742 325.707 975.289 324.96C974.836 324.213 974.236 323.613 973.489 323.16C972.742 322.707 971.916 322.48 971.009 322.48C970.102 322.48 969.276 322.707 968.529 323.16C967.809 323.613 967.222 324.213 966.769 324.96C966.342 325.707 966.129 326.533 966.129 327.44C966.129 328.347 966.342 329.187 966.769 329.96C967.222 330.707 967.822 331.307 968.569 331.76C969.316 332.187 970.129 332.4 971.009 332.4ZM35.9672 398.34H32.3672C32.0339 398.34 31.8672 398.173 31.8672 397.84V394.96C31.8672 394.853 31.8805 394.747 31.9072 394.64C31.9472 394.533 32.0139 394.433 32.1072 394.34L36.8272 389.6V364.74L32.1072 360C32.0139 359.893 31.9472 359.793 31.9072 359.7C31.8805 359.593 31.8672 359.48 31.8672 359.36V356.5C31.8672 356.167 32.0339 356 32.3672 356H35.9672C36.3139 356 36.5805 356.087 36.7672 356.26L42.7672 362.26C42.9139 362.407 43.0072 362.527 43.0472 362.62C43.0872 362.7 43.1072 362.847 43.1072 363.06V391.26C43.1072 391.473 43.0872 391.62 43.0472 391.7C43.0072 391.793 42.9139 391.913 42.7672 392.06L36.7672 398.06C36.5805 398.247 36.3139 398.34 35.9672 398.34ZM969.425 398.34C969.078 398.34 968.812 398.247 968.625 398.06L962.625 392.06C962.478 391.913 962.385 391.793 962.345 391.7C962.305 391.62 962.285 391.473 962.285 391.26V363.06C962.285 362.847 962.305 362.7 962.345 362.62C962.385 362.527 962.478 362.407 962.625 362.26L968.625 356.26C968.812 356.087 969.078 356 969.425 356H973.025C973.358 356 973.525 356.167 973.525 356.5V359.36C973.525 359.48 973.512 359.593 973.485 359.7C973.458 359.793 973.392 359.893 973.285 360L968.565 364.74V389.6L973.285 394.34C973.392 394.433 973.458 394.533 973.485 394.64C973.512 394.747 973.525 394.853 973.525 394.96V397.84C973.525 398.173 973.358 398.34 973.025 398.34H969.425ZM31.3 448.34C30.9533 448.34 30.6867 448.247 30.5 448.06L24.5 442.06C24.3533 441.913 24.26 441.793 24.22 441.7C24.18 441.62 24.16 441.473 24.16 441.26V413.06C24.16 412.847 24.18 412.7 24.22 412.62C24.26 412.527 24.3533 412.407 24.5 412.26L30.5 406.26C30.6867 406.087 30.9533 406 31.3 406H34.9C35.2333 406 35.4 406.167 35.4 406.5V409.36C35.4 409.48 35.3867 409.593 35.36 409.7C35.3333 409.793 35.2667 409.893 35.16 410L30.44 414.74V439.6L35.16 444.34C35.2667 444.433 35.3333 444.533 35.36 444.64C35.3867 444.747 35.4 444.853 35.4 444.96V447.84C35.4 448.173 35.2333 448.34 34.9 448.34H31.3ZM974.092 448.34H970.492C970.159 448.34 969.992 448.173 969.992 447.84V444.96C969.992 444.853 970.006 444.747 970.032 444.64C970.072 444.533 970.139 444.433 970.232 444.34L974.952 439.6V414.74L970.232 410C970.139 409.893 970.072 409.793 970.032 409.7C970.006 409.593 969.992 409.48 969.992 409.36V406.5C969.992 406.167 970.159 406 970.492 406H974.092C974.439 406 974.706 406.087 974.892 406.26L980.892 412.26C981.039 412.407 981.132 412.527 981.172 412.62C981.212 412.7 981.232 412.847 981.232 413.06V441.26C981.232 441.473 981.212 441.62 981.172 441.7C981.132 441.793 981.039 441.913 980.892 442.06L974.892 448.06C974.706 448.247 974.439 448.34 974.092 448.34ZM35.9672 498.34H32.3672C32.0339 498.34 31.8672 498.173 31.8672 497.84V494.96C31.8672 494.853 31.8805 494.747 31.9072 494.64C31.9472 494.533 32.0139 494.433 32.1072 494.34L36.8272 489.6V464.74L32.1072 460C32.0139 459.893 31.9472 459.793 31.9072 459.7C31.8805 459.593 31.8672 459.48 31.8672 459.36V456.5C31.8672 456.167 32.0339 456 32.3672 456H35.9672C36.3139 456 36.5805 456.087 36.7672 456.26L42.7672 462.26C42.9139 462.407 43.0072 462.527 43.0472 462.62C43.0872 462.7 43.1072 462.847 43.1072 463.06V491.26C43.1072 491.473 43.0872 491.62 43.0472 491.7C43.0072 491.793 42.9139 491.913 42.7672 492.06L36.7672 498.06C36.5805 498.247 36.3139 498.34 35.9672 498.34ZM963.058 498.34C962.711 498.34 962.444 498.247 962.258 498.06L956.258 492.06C956.111 491.913 956.018 491.793 955.978 491.7C955.938 491.62 955.918 491.473 955.918 491.26V463.06C955.918 462.847 955.938 462.7 955.978 462.62C956.018 462.527 956.111 462.407 956.258 462.26L962.258 456.26C962.444 456.087 962.711 456 963.058 456H966.658C966.991 456 967.158 456.167 967.158 456.5V459.36C967.158 459.48 967.144 459.593 967.118 459.7C967.091 459.793 967.024 459.893 966.918 460L962.198 464.74V489.6L966.918 494.34C967.024 494.433 967.091 494.533 967.118 494.64C967.144 494.747 967.158 494.853 967.158 494.96V497.84C967.158 498.173 966.991 498.34 966.658 498.34H963.058ZM37.6672 548.34C37.3205 548.34 37.0539 548.247 36.8672 548.06L30.8672 542.06C30.7205 541.913 30.6272 541.793 30.5872 541.7C30.5472 541.62 30.5272 541.473 30.5272 541.26V513.06C30.5272 512.847 30.5472 512.7 30.5872 512.62C30.6272 512.527 30.7205 512.407 30.8672 512.26L36.8672 506.26C37.0539 506.087 37.3205 506 37.6672 506H41.2672C41.6005 506 41.7672 506.167 41.7672 506.5V509.36C41.7672 509.48 41.7539 509.593 41.7272 509.7C41.7005 509.793 41.6339 509.893 41.5272 510L36.8072 514.74V539.6L41.5272 544.34C41.6339 544.433 41.7005 544.533 41.7272 544.64C41.7539 544.747 41.7672 544.853 41.7672 544.96V547.84C41.7672 548.173 41.6005 548.34 41.2672 548.34H37.6672ZM974.092 548.34H970.492C970.159 548.34 969.992 548.173 969.992 547.84V544.96C969.992 544.853 970.006 544.747 970.032 544.64C970.072 544.533 970.139 544.433 970.232 544.34L974.952 539.6V514.74L970.232 510C970.139 509.893 970.072 509.793 970.032 509.7C970.006 509.593 969.992 509.48 969.992 509.36V506.5C969.992 506.167 970.159 506 970.492 506H974.092C974.439 506 974.706 506.087 974.892 506.26L980.892 512.26C981.039 512.407 981.132 512.527 981.172 512.62C981.212 512.7 981.232 512.847 981.232 513.06V541.26C981.232 541.473 981.212 541.62 981.172 541.7C981.132 541.793 981.039 541.913 980.892 542.06L974.892 548.06C974.706 548.247 974.439 548.34 974.092 548.34ZM38.4344 573C38.141 573 37.9744 572.847 37.9344 572.54L37.3344 563.86C37.2944 563.513 37.461 563.34 37.8344 563.34H42.4344C42.8077 563.34 42.9744 563.513 42.9344 563.86L42.3344 572.54C42.2944 572.847 42.1277 573 41.8344 573H38.4344ZM44.9944 573C44.701 573 44.5344 572.847 44.4944 572.54L43.8944 563.86C43.8544 563.513 44.021 563.34 44.3944 563.34H48.9944C49.3677 563.34 49.5344 563.513 49.4944 563.86L48.8944 572.54C48.8544 572.847 48.6877 573 48.3944 573H44.9944ZM56.3459 582.94C56.0126 582.94 55.8459 582.773 55.8459 582.44V570.9C55.8459 570.567 56.0126 570.4 56.3459 570.4H60.0259C60.3593 570.4 60.5259 570.567 60.5259 570.9V582.44C60.5259 582.773 60.3593 582.94 60.0259 582.94H56.3459ZM52.4259 579C52.0926 579 51.9259 578.833 51.9259 578.5V574.84C51.9259 574.507 52.0926 574.34 52.4259 574.34H63.9459C64.2793 574.34 64.4459 574.507 64.4459 574.84V578.5C64.4459 578.833 64.2793 579 63.9459 579H52.4259ZM67.4047 589.84C67.0714 589.84 66.9047 589.66 66.9047 589.3V582.94C66.9047 582.58 67.0714 582.4 67.4047 582.4H73.8047C74.138 582.4 74.3047 582.58 74.3047 582.94V589.3C74.3047 589.66 74.138 589.84 73.8047 589.84H67.4047ZM81.1506 582.94C80.8173 582.94 80.6506 582.773 80.6506 582.44V570.9C80.6506 570.567 80.8173 570.4 81.1506 570.4H84.8306C85.164 570.4 85.3306 570.567 85.3306 570.9V582.44C85.3306 582.773 85.164 582.94 84.8306 582.94H81.1506ZM77.2306 579C76.8973 579 76.7306 578.833 76.7306 578.5V574.84C76.7306 574.507 76.8973 574.34 77.2306 574.34H88.7506C89.084 574.34 89.2506 574.507 89.2506 574.84V578.5C89.2506 578.833 89.084 579 88.7506 579H77.2306ZM92.8094 573C92.516 573 92.3494 572.847 92.3094 572.54L91.7094 563.86C91.6694 563.513 91.836 563.34 92.2094 563.34H96.8094C97.1827 563.34 97.3494 563.513 97.3094 563.86L96.7094 572.54C96.6694 572.847 96.5027 573 96.2094 573H92.8094ZM99.3694 573C99.076 573 98.9094 572.847 98.8694 572.54L98.2694 563.86C98.2294 563.513 98.396 563.34 98.7694 563.34H103.369C103.743 563.34 103.909 563.513 103.869 563.86L103.269 572.54C103.229 572.847 103.063 573 102.769 573H99.3694ZM110.721 582.94C110.388 582.94 110.221 582.773 110.221 582.44V570.9C110.221 570.567 110.388 570.4 110.721 570.4H114.401C114.734 570.4 114.901 570.567 114.901 570.9V582.44C114.901 582.773 114.734 582.94 114.401 582.94H110.721ZM106.801 579C106.468 579 106.301 578.833 106.301 578.5V574.84C106.301 574.507 106.468 574.34 106.801 574.34H118.321C118.654 574.34 118.821 574.507 118.821 574.84V578.5C118.821 578.833 118.654 579 118.321 579H106.801ZM121.78 589.84C121.446 589.84 121.28 589.66 121.28 589.3V582.94C121.28 582.58 121.446 582.4 121.78 582.4H128.18C128.513 582.4 128.68 582.58 128.68 582.94V589.3C128.68 589.66 128.513 589.84 128.18 589.84H121.78ZM135.526 582.94C135.192 582.94 135.026 582.773 135.026 582.44V570.9C135.026 570.567 135.192 570.4 135.526 570.4H139.206C139.539 570.4 139.706 570.567 139.706 570.9V582.44C139.706 582.773 139.539 582.94 139.206 582.94H135.526ZM131.606 579C131.272 579 131.106 578.833 131.106 578.5V574.84C131.106 574.507 131.272 574.34 131.606 574.34H143.126C143.459 574.34 143.626 574.507 143.626 574.84V578.5C143.626 578.833 143.459 579 143.126 579H131.606ZM147.184 573C146.891 573 146.724 572.847 146.684 572.54L146.084 563.86C146.044 563.513 146.211 563.34 146.584 563.34H151.184C151.558 563.34 151.724 563.513 151.684 563.86L151.084 572.54C151.044 572.847 150.878 573 150.584 573H147.184ZM153.744 573C153.451 573 153.284 572.847 153.244 572.54L152.644 563.86C152.604 563.513 152.771 563.34 153.144 563.34H157.744C158.118 563.34 158.284 563.513 158.244 563.86L157.644 572.54C157.604 572.847 157.438 573 157.144 573H153.744ZM165.096 582.94C164.763 582.94 164.596 582.773 164.596 582.44V570.9C164.596 570.567 164.763 570.4 165.096 570.4H168.776C169.109 570.4 169.276 570.567 169.276 570.9V582.44C169.276 582.773 169.109 582.94 168.776 582.94H165.096ZM161.176 579C160.843 579 160.676 578.833 160.676 578.5V574.84C160.676 574.507 160.843 574.34 161.176 574.34H172.696C173.029 574.34 173.196 574.507 173.196 574.84V578.5C173.196 578.833 173.029 579 172.696 579H161.176ZM176.155 589.84C175.821 589.84 175.655 589.66 175.655 589.3V582.94C175.655 582.58 175.821 582.4 176.155 582.4H182.555C182.888 582.4 183.055 582.58 183.055 582.94V589.3C183.055 589.66 182.888 589.84 182.555 589.84H176.155ZM189.901 582.94C189.567 582.94 189.401 582.773 189.401 582.44V570.9C189.401 570.567 189.567 570.4 189.901 570.4H193.581C193.914 570.4 194.081 570.567 194.081 570.9V582.44C194.081 582.773 193.914 582.94 193.581 582.94H189.901ZM185.981 579C185.647 579 185.481 578.833 185.481 578.5V574.84C185.481 574.507 185.647 574.34 185.981 574.34H197.501C197.834 574.34 198.001 574.507 198.001 574.84V578.5C198.001 578.833 197.834 579 197.501 579H185.981ZM201.559 573C201.266 573 201.099 572.847 201.059 572.54L200.459 563.86C200.419 563.513 200.586 563.34 200.959 563.34H205.559C205.933 563.34 206.099 563.513 206.059 563.86L205.459 572.54C205.419 572.847 205.253 573 204.959 573H201.559ZM208.119 573C207.826 573 207.659 572.847 207.619 572.54L207.019 563.86C206.979 563.513 207.146 563.34 207.519 563.34H212.119C212.493 563.34 212.659 563.513 212.619 563.86L212.019 572.54C211.979 572.847 211.813 573 211.519 573H208.119ZM219.471 582.94C219.138 582.94 218.971 582.773 218.971 582.44V570.9C218.971 570.567 219.138 570.4 219.471 570.4H223.151C223.484 570.4 223.651 570.567 223.651 570.9V582.44C223.651 582.773 223.484 582.94 223.151 582.94H219.471ZM215.551 579C215.218 579 215.051 578.833 215.051 578.5V574.84C215.051 574.507 215.218 574.34 215.551 574.34H227.071C227.404 574.34 227.571 574.507 227.571 574.84V578.5C227.571 578.833 227.404 579 227.071 579H215.551ZM230.53 589.84C230.196 589.84 230.03 589.66 230.03 589.3V582.94C230.03 582.58 230.196 582.4 230.53 582.4H236.93C237.263 582.4 237.43 582.58 237.43 582.94V589.3C237.43 589.66 237.263 589.84 236.93 589.84H230.53ZM244.276 582.94C243.942 582.94 243.776 582.773 243.776 582.44V570.9C243.776 570.567 243.942 570.4 244.276 570.4H247.956C248.289 570.4 248.456 570.567 248.456 570.9V582.44C248.456 582.773 248.289 582.94 247.956 582.94H244.276ZM240.356 579C240.022 579 239.856 578.833 239.856 578.5V574.84C239.856 574.507 240.022 574.34 240.356 574.34H251.876C252.209 574.34 252.376 574.507 252.376 574.84V578.5C252.376 578.833 252.209 579 251.876 579H240.356ZM255.934 573C255.641 573 255.474 572.847 255.434 572.54L254.834 563.86C254.794 563.513 254.961 563.34 255.334 563.34H259.934C260.308 563.34 260.474 563.513 260.434 563.86L259.834 572.54C259.794 572.847 259.628 573 259.334 573H255.934ZM262.494 573C262.201 573 262.034 572.847 261.994 572.54L261.394 563.86C261.354 563.513 261.521 563.34 261.894 563.34H266.494C266.868 563.34 267.034 563.513 266.994 563.86L266.394 572.54C266.354 572.847 266.188 573 265.894 573H262.494ZM273.846 582.94C273.513 582.94 273.346 582.773 273.346 582.44V570.9C273.346 570.567 273.513 570.4 273.846 570.4H277.526C277.859 570.4 278.026 570.567 278.026 570.9V582.44C278.026 582.773 277.859 582.94 277.526 582.94H273.846ZM269.926 579C269.593 579 269.426 578.833 269.426 578.5V574.84C269.426 574.507 269.593 574.34 269.926 574.34H281.446C281.779 574.34 281.946 574.507 281.946 574.84V578.5C281.946 578.833 281.779 579 281.446 579H269.926ZM284.905 589.84C284.571 589.84 284.405 589.66 284.405 589.3V582.94C284.405 582.58 284.571 582.4 284.905 582.4H291.305C291.638 582.4 291.805 582.58 291.805 582.94V589.3C291.805 589.66 291.638 589.84 291.305 589.84H284.905ZM298.651 582.94C298.317 582.94 298.151 582.773 298.151 582.44V570.9C298.151 570.567 298.317 570.4 298.651 570.4H302.331C302.664 570.4 302.831 570.567 302.831 570.9V582.44C302.831 582.773 302.664 582.94 302.331 582.94H298.651ZM294.731 579C294.397 579 294.231 578.833 294.231 578.5V574.84C294.231 574.507 294.397 574.34 294.731 574.34H306.251C306.584 574.34 306.751 574.507 306.751 574.84V578.5C306.751 578.833 306.584 579 306.251 579H294.731ZM310.309 573C310.016 573 309.849 572.847 309.809 572.54L309.209 563.86C309.169 563.513 309.336 563.34 309.709 563.34H314.309C314.683 563.34 314.849 563.513 314.809 563.86L314.209 572.54C314.169 572.847 314.003 573 313.709 573H310.309ZM316.869 573C316.576 573 316.409 572.847 316.369 572.54L315.769 563.86C315.729 563.513 315.896 563.34 316.269 563.34H320.869C321.243 563.34 321.409 563.513 321.369 563.86L320.769 572.54C320.729 572.847 320.563 573 320.269 573H316.869ZM328.221 582.94C327.888 582.94 327.721 582.773 327.721 582.44V570.9C327.721 570.567 327.888 570.4 328.221 570.4H331.901C332.234 570.4 332.401 570.567 332.401 570.9V582.44C332.401 582.773 332.234 582.94 331.901 582.94H328.221ZM324.301 579C323.968 579 323.801 578.833 323.801 578.5V574.84C323.801 574.507 323.968 574.34 324.301 574.34H335.821C336.154 574.34 336.321 574.507 336.321 574.84V578.5C336.321 578.833 336.154 579 335.821 579H324.301ZM339.28 589.84C338.946 589.84 338.78 589.66 338.78 589.3V582.94C338.78 582.58 338.946 582.4 339.28 582.4H345.68C346.013 582.4 346.18 582.58 346.18 582.94V589.3C346.18 589.66 346.013 589.84 345.68 589.84H339.28ZM353.026 582.94C352.692 582.94 352.526 582.773 352.526 582.44V570.9C352.526 570.567 352.692 570.4 353.026 570.4H356.706C357.039 570.4 357.206 570.567 357.206 570.9V582.44C357.206 582.773 357.039 582.94 356.706 582.94H353.026ZM349.106 579C348.772 579 348.606 578.833 348.606 578.5V574.84C348.606 574.507 348.772 574.34 349.106 574.34H360.626C360.959 574.34 361.126 574.507 361.126 574.84V578.5C361.126 578.833 360.959 579 360.626 579H349.106ZM364.684 573C364.391 573 364.224 572.847 364.184 572.54L363.584 563.86C363.544 563.513 363.711 563.34 364.084 563.34H368.684C369.058 563.34 369.224 563.513 369.184 563.86L368.584 572.54C368.544 572.847 368.378 573 368.084 573H364.684ZM371.244 573C370.951 573 370.784 572.847 370.744 572.54L370.144 563.86C370.104 563.513 370.271 563.34 370.644 563.34H375.244C375.618 563.34 375.784 563.513 375.744 563.86L375.144 572.54C375.104 572.847 374.938 573 374.644 573H371.244ZM382.596 582.94C382.263 582.94 382.096 582.773 382.096 582.44V570.9C382.096 570.567 382.263 570.4 382.596 570.4H386.276C386.609 570.4 386.776 570.567 386.776 570.9V582.44C386.776 582.773 386.609 582.94 386.276 582.94H382.596ZM378.676 579C378.343 579 378.176 578.833 378.176 578.5V574.84C378.176 574.507 378.343 574.34 378.676 574.34H390.196C390.529 574.34 390.696 574.507 390.696 574.84V578.5C390.696 578.833 390.529 579 390.196 579H378.676ZM393.655 589.84C393.321 589.84 393.155 589.66 393.155 589.3V582.94C393.155 582.58 393.321 582.4 393.655 582.4H400.055C400.388 582.4 400.555 582.58 400.555 582.94V589.3C400.555 589.66 400.388 589.84 400.055 589.84H393.655ZM407.401 582.94C407.067 582.94 406.901 582.773 406.901 582.44V570.9C406.901 570.567 407.067 570.4 407.401 570.4H411.081C411.414 570.4 411.581 570.567 411.581 570.9V582.44C411.581 582.773 411.414 582.94 411.081 582.94H407.401ZM403.481 579C403.147 579 402.981 578.833 402.981 578.5V574.84C402.981 574.507 403.147 574.34 403.481 574.34H415.001C415.334 574.34 415.501 574.507 415.501 574.84V578.5C415.501 578.833 415.334 579 415.001 579H403.481ZM419.059 573C418.766 573 418.599 572.847 418.559 572.54L417.959 563.86C417.919 563.513 418.086 563.34 418.459 563.34H423.059C423.433 563.34 423.599 563.513 423.559 563.86L422.959 572.54C422.919 572.847 422.753 573 422.459 573H419.059ZM425.619 573C425.326 573 425.159 572.847 425.119 572.54L424.519 563.86C424.479 563.513 424.646 563.34 425.019 563.34H429.619C429.993 563.34 430.159 563.513 430.119 563.86L429.519 572.54C429.479 572.847 429.313 573 429.019 573H425.619ZM436.971 582.94C436.638 582.94 436.471 582.773 436.471 582.44V570.9C436.471 570.567 436.638 570.4 436.971 570.4H440.651C440.984 570.4 441.151 570.567 441.151 570.9V582.44C441.151 582.773 440.984 582.94 440.651 582.94H436.971ZM433.051 579C432.718 579 432.551 578.833 432.551 578.5V574.84C432.551 574.507 432.718 574.34 433.051 574.34H444.571C444.904 574.34 445.071 574.507 445.071 574.84V578.5C445.071 578.833 444.904 579 444.571 579H433.051ZM448.03 589.84C447.696 589.84 447.53 589.66 447.53 589.3V582.94C447.53 582.58 447.696 582.4 448.03 582.4H454.43C454.763 582.4 454.93 582.58 454.93 582.94V589.3C454.93 589.66 454.763 589.84 454.43 589.84H448.03ZM461.776 582.94C461.442 582.94 461.276 582.773 461.276 582.44V570.9C461.276 570.567 461.442 570.4 461.776 570.4H465.456C465.789 570.4 465.956 570.567 465.956 570.9V582.44C465.956 582.773 465.789 582.94 465.456 582.94H461.776ZM457.856 579C457.522 579 457.356 578.833 457.356 578.5V574.84C457.356 574.507 457.522 574.34 457.856 574.34H469.376C469.709 574.34 469.876 574.507 469.876 574.84V578.5C469.876 578.833 469.709 579 469.376 579H457.856ZM473.434 573C473.141 573 472.974 572.847 472.934 572.54L472.334 563.86C472.294 563.513 472.461 563.34 472.834 563.34H477.434C477.808 563.34 477.974 563.513 477.934 563.86L477.334 572.54C477.294 572.847 477.128 573 476.834 573H473.434ZM479.994 573C479.701 573 479.534 572.847 479.494 572.54L478.894 563.86C478.854 563.513 479.021 563.34 479.394 563.34H483.994C484.368 563.34 484.534 563.513 484.494 563.86L483.894 572.54C483.854 572.847 483.688 573 483.394 573H479.994ZM497.046 590.8C496.086 590.8 495.193 590.547 494.366 590.04C493.566 589.56 492.913 588.907 492.406 588.08C491.926 587.253 491.686 586.347 491.686 585.36C491.686 583.92 492.219 582.693 493.286 581.68C494.379 580.667 495.739 580.08 497.366 579.92L496.966 578.64C496.433 578.933 495.819 579.187 495.126 579.4C494.459 579.613 493.819 579.72 493.206 579.72C492.246 579.72 491.379 579.48 490.606 579C489.859 578.493 489.259 577.84 488.806 577.04C488.353 576.213 488.126 575.333 488.126 574.4C488.126 573.387 488.366 572.48 488.846 571.68C489.353 570.853 490.006 570.2 490.806 569.72C491.606 569.24 492.486 569 493.446 569C494.539 569 495.593 569.387 496.606 570.16C497.619 570.933 498.353 571.867 498.806 572.96L499.846 572.16C499.126 571.493 498.539 570.76 498.086 569.96C497.659 569.133 497.446 568.347 497.446 567.6C497.446 566.587 497.686 565.68 498.166 564.88C498.646 564.053 499.286 563.4 500.086 562.92C500.913 562.413 501.819 562.16 502.806 562.16C503.793 562.16 504.699 562.413 505.526 562.92C506.353 563.4 507.006 564.053 507.486 564.88C507.993 565.707 508.246 566.613 508.246 567.6C508.246 568.347 508.019 569.147 507.566 570C507.113 570.827 506.539 571.547 505.846 572.16L506.886 572.96C507.339 571.84 508.059 570.907 509.046 570.16C510.059 569.387 511.126 569 512.246 569C513.206 569 514.086 569.24 514.886 569.72C515.713 570.2 516.366 570.853 516.846 571.68C517.326 572.48 517.566 573.387 517.566 574.4C517.566 575.333 517.326 576.213 516.846 577.04C516.393 577.84 515.779 578.493 515.006 579C514.259 579.48 513.433 579.72 512.526 579.72C511.326 579.72 510.059 579.36 508.726 578.64L508.326 579.92C509.393 580.027 510.353 580.333 511.206 580.84C512.059 581.32 512.739 581.96 513.246 582.76C513.753 583.533 514.006 584.4 514.006 585.36C514.006 586.32 513.753 587.213 513.246 588.04C512.766 588.867 512.126 589.533 511.326 590.04C510.526 590.547 509.633 590.8 508.646 590.8C507.126 590.8 505.859 590.28 504.846 589.24C503.833 588.173 503.326 586.813 503.326 585.16C503.326 584.547 503.393 583.973 503.526 583.44H502.166C502.219 583.707 502.259 583.987 502.286 584.28C502.339 584.573 502.366 584.867 502.366 585.16C502.366 586.787 501.859 588.133 500.846 589.2C499.833 590.267 498.566 590.8 497.046 590.8ZM502.806 582.4C503.713 582.4 504.539 582.173 505.286 581.72C506.033 581.267 506.633 580.667 507.086 579.92C507.539 579.173 507.766 578.347 507.766 577.44C507.766 576.533 507.539 575.707 507.086 574.96C506.633 574.213 506.033 573.613 505.286 573.16C504.539 572.707 503.713 572.48 502.806 572.48C501.899 572.48 501.073 572.707 500.326 573.16C499.606 573.613 499.019 574.213 498.566 574.96C498.139 575.707 497.926 576.533 497.926 577.44C497.926 578.347 498.139 579.187 498.566 579.96C499.019 580.707 499.619 581.307 500.366 581.76C501.113 582.187 501.926 582.4 502.806 582.4ZM522.302 573C522.008 573 521.842 572.847 521.802 572.54L521.202 563.86C521.162 563.513 521.328 563.34 521.702 563.34H526.302C526.675 563.34 526.842 563.513 526.802 563.86L526.202 572.54C526.162 572.847 525.995 573 525.702 573H522.302ZM528.862 573C528.568 573 528.402 572.847 528.362 572.54L527.762 563.86C527.722 563.513 527.888 563.34 528.262 563.34H532.862C533.235 563.34 533.402 563.513 533.362 563.86L532.762 572.54C532.722 572.847 532.555 573 532.262 573H528.862ZM540.213 582.94C539.88 582.94 539.713 582.773 539.713 582.44V570.9C539.713 570.567 539.88 570.4 540.213 570.4H543.893C544.226 570.4 544.393 570.567 544.393 570.9V582.44C544.393 582.773 544.226 582.94 543.893 582.94H540.213ZM536.293 579C535.96 579 535.793 578.833 535.793 578.5V574.84C535.793 574.507 535.96 574.34 536.293 574.34H547.813C548.146 574.34 548.313 574.507 548.313 574.84V578.5C548.313 578.833 548.146 579 547.813 579H536.293ZM551.272 589.84C550.939 589.84 550.772 589.66 550.772 589.3V582.94C550.772 582.58 550.939 582.4 551.272 582.4H557.672C558.005 582.4 558.172 582.58 558.172 582.94V589.3C558.172 589.66 558.005 589.84 557.672 589.84H551.272ZM565.018 582.94C564.684 582.94 564.518 582.773 564.518 582.44V570.9C564.518 570.567 564.684 570.4 565.018 570.4H568.698C569.031 570.4 569.198 570.567 569.198 570.9V582.44C569.198 582.773 569.031 582.94 568.698 582.94H565.018ZM561.098 579C560.764 579 560.598 578.833 560.598 578.5V574.84C560.598 574.507 560.764 574.34 561.098 574.34H572.618C572.951 574.34 573.118 574.507 573.118 574.84V578.5C573.118 578.833 572.951 579 572.618 579H561.098ZM576.677 573C576.383 573 576.217 572.847 576.177 572.54L575.577 563.86C575.537 563.513 575.703 563.34 576.077 563.34H580.677C581.05 563.34 581.217 563.513 581.177 563.86L580.577 572.54C580.537 572.847 580.37 573 580.077 573H576.677ZM583.237 573C582.943 573 582.777 572.847 582.737 572.54L582.137 563.86C582.097 563.513 582.263 563.34 582.637 563.34H587.237C587.61 563.34 587.777 563.513 587.737 563.86L587.137 572.54C587.097 572.847 586.93 573 586.637 573H583.237ZM594.588 582.94C594.255 582.94 594.088 582.773 594.088 582.44V570.9C594.088 570.567 594.255 570.4 594.588 570.4H598.268C598.601 570.4 598.768 570.567 598.768 570.9V582.44C598.768 582.773 598.601 582.94 598.268 582.94H594.588ZM590.668 579C590.335 579 590.168 578.833 590.168 578.5V574.84C590.168 574.507 590.335 574.34 590.668 574.34H602.188C602.521 574.34 602.688 574.507 602.688 574.84V578.5C602.688 578.833 602.521 579 602.188 579H590.668ZM605.647 589.84C605.314 589.84 605.147 589.66 605.147 589.3V582.94C605.147 582.58 605.314 582.4 605.647 582.4H612.047C612.38 582.4 612.547 582.58 612.547 582.94V589.3C612.547 589.66 612.38 589.84 612.047 589.84H605.647ZM619.393 582.94C619.059 582.94 618.893 582.773 618.893 582.44V570.9C618.893 570.567 619.059 570.4 619.393 570.4H623.073C623.406 570.4 623.573 570.567 623.573 570.9V582.44C623.573 582.773 623.406 582.94 623.073 582.94H619.393ZM615.473 579C615.139 579 614.973 578.833 614.973 578.5V574.84C614.973 574.507 615.139 574.34 615.473 574.34H626.993C627.326 574.34 627.493 574.507 627.493 574.84V578.5C627.493 578.833 627.326 579 626.993 579H615.473ZM631.052 573C630.758 573 630.592 572.847 630.552 572.54L629.952 563.86C629.912 563.513 630.078 563.34 630.452 563.34H635.052C635.425 563.34 635.592 563.513 635.552 563.86L634.952 572.54C634.912 572.847 634.745 573 634.452 573H631.052ZM637.612 573C637.318 573 637.152 572.847 637.112 572.54L636.512 563.86C636.472 563.513 636.638 563.34 637.012 563.34H641.612C641.985 563.34 642.152 563.513 642.112 563.86L641.512 572.54C641.472 572.847 641.305 573 641.012 573H637.612ZM648.963 582.94C648.63 582.94 648.463 582.773 648.463 582.44V570.9C648.463 570.567 648.63 570.4 648.963 570.4H652.643C652.976 570.4 653.143 570.567 653.143 570.9V582.44C653.143 582.773 652.976 582.94 652.643 582.94H648.963ZM645.043 579C644.71 579 644.543 578.833 644.543 578.5V574.84C644.543 574.507 644.71 574.34 645.043 574.34H656.563C656.896 574.34 657.063 574.507 657.063 574.84V578.5C657.063 578.833 656.896 579 656.563 579H645.043ZM660.022 589.84C659.689 589.84 659.522 589.66 659.522 589.3V582.94C659.522 582.58 659.689 582.4 660.022 582.4H666.422C666.755 582.4 666.922 582.58 666.922 582.94V589.3C666.922 589.66 666.755 589.84 666.422 589.84H660.022ZM673.768 582.94C673.434 582.94 673.268 582.773 673.268 582.44V570.9C673.268 570.567 673.434 570.4 673.768 570.4H677.448C677.781 570.4 677.948 570.567 677.948 570.9V582.44C677.948 582.773 677.781 582.94 677.448 582.94H673.768ZM669.848 579C669.514 579 669.348 578.833 669.348 578.5V574.84C669.348 574.507 669.514 574.34 669.848 574.34H681.368C681.701 574.34 681.868 574.507 681.868 574.84V578.5C681.868 578.833 681.701 579 681.368 579H669.848ZM685.427 573C685.133 573 684.967 572.847 684.927 572.54L684.327 563.86C684.287 563.513 684.453 563.34 684.827 563.34H689.427C689.8 563.34 689.967 563.513 689.927 563.86L689.327 572.54C689.287 572.847 689.12 573 688.827 573H685.427ZM691.987 573C691.693 573 691.527 572.847 691.487 572.54L690.887 563.86C690.847 563.513 691.013 563.34 691.387 563.34H695.987C696.36 563.34 696.527 563.513 696.487 563.86L695.887 572.54C695.847 572.847 695.68 573 695.387 573H691.987ZM703.338 582.94C703.005 582.94 702.838 582.773 702.838 582.44V570.9C702.838 570.567 703.005 570.4 703.338 570.4H707.018C707.351 570.4 707.518 570.567 707.518 570.9V582.44C707.518 582.773 707.351 582.94 707.018 582.94H703.338ZM699.418 579C699.085 579 698.918 578.833 698.918 578.5V574.84C698.918 574.507 699.085 574.34 699.418 574.34H710.938C711.271 574.34 711.438 574.507 711.438 574.84V578.5C711.438 578.833 711.271 579 710.938 579H699.418ZM714.397 589.84C714.064 589.84 713.897 589.66 713.897 589.3V582.94C713.897 582.58 714.064 582.4 714.397 582.4H720.797C721.13 582.4 721.297 582.58 721.297 582.94V589.3C721.297 589.66 721.13 589.84 720.797 589.84H714.397ZM728.143 582.94C727.809 582.94 727.643 582.773 727.643 582.44V570.9C727.643 570.567 727.809 570.4 728.143 570.4H731.823C732.156 570.4 732.323 570.567 732.323 570.9V582.44C732.323 582.773 732.156 582.94 731.823 582.94H728.143ZM724.223 579C723.889 579 723.723 578.833 723.723 578.5V574.84C723.723 574.507 723.889 574.34 724.223 574.34H735.743C736.076 574.34 736.243 574.507 736.243 574.84V578.5C736.243 578.833 736.076 579 735.743 579H724.223ZM739.802 573C739.508 573 739.342 572.847 739.302 572.54L738.702 563.86C738.662 563.513 738.828 563.34 739.202 563.34H743.802C744.175 563.34 744.342 563.513 744.302 563.86L743.702 572.54C743.662 572.847 743.495 573 743.202 573H739.802ZM746.362 573C746.068 573 745.902 572.847 745.862 572.54L745.262 563.86C745.222 563.513 745.388 563.34 745.762 563.34H750.362C750.735 563.34 750.902 563.513 750.862 563.86L750.262 572.54C750.222 572.847 750.055 573 749.762 573H746.362ZM757.713 582.94C757.38 582.94 757.213 582.773 757.213 582.44V570.9C757.213 570.567 757.38 570.4 757.713 570.4H761.393C761.726 570.4 761.893 570.567 761.893 570.9V582.44C761.893 582.773 761.726 582.94 761.393 582.94H757.713ZM753.793 579C753.46 579 753.293 578.833 753.293 578.5V574.84C753.293 574.507 753.46 574.34 753.793 574.34H765.313C765.646 574.34 765.813 574.507 765.813 574.84V578.5C765.813 578.833 765.646 579 765.313 579H753.793ZM768.772 589.84C768.439 589.84 768.272 589.66 768.272 589.3V582.94C768.272 582.58 768.439 582.4 768.772 582.4H775.172C775.505 582.4 775.672 582.58 775.672 582.94V589.3C775.672 589.66 775.505 589.84 775.172 589.84H768.772ZM782.518 582.94C782.184 582.94 782.018 582.773 782.018 582.44V570.9C782.018 570.567 782.184 570.4 782.518 570.4H786.198C786.531 570.4 786.698 570.567 786.698 570.9V582.44C786.698 582.773 786.531 582.94 786.198 582.94H782.518ZM778.598 579C778.264 579 778.098 578.833 778.098 578.5V574.84C778.098 574.507 778.264 574.34 778.598 574.34H790.118C790.451 574.34 790.618 574.507 790.618 574.84V578.5C790.618 578.833 790.451 579 790.118 579H778.598ZM794.177 573C793.883 573 793.717 572.847 793.677 572.54L793.077 563.86C793.037 563.513 793.203 563.34 793.577 563.34H798.177C798.55 563.34 798.717 563.513 798.677 563.86L798.077 572.54C798.037 572.847 797.87 573 797.577 573H794.177ZM800.737 573C800.443 573 800.277 572.847 800.237 572.54L799.637 563.86C799.597 563.513 799.763 563.34 800.137 563.34H804.737C805.11 563.34 805.277 563.513 805.237 563.86L804.637 572.54C804.597 572.847 804.43 573 804.137 573H800.737ZM812.088 582.94C811.755 582.94 811.588 582.773 811.588 582.44V570.9C811.588 570.567 811.755 570.4 812.088 570.4H815.768C816.101 570.4 816.268 570.567 816.268 570.9V582.44C816.268 582.773 816.101 582.94 815.768 582.94H812.088ZM808.168 579C807.835 579 807.668 578.833 807.668 578.5V574.84C807.668 574.507 807.835 574.34 808.168 574.34H819.688C820.021 574.34 820.188 574.507 820.188 574.84V578.5C820.188 578.833 820.021 579 819.688 579H808.168ZM823.147 589.84C822.814 589.84 822.647 589.66 822.647 589.3V582.94C822.647 582.58 822.814 582.4 823.147 582.4H829.547C829.88 582.4 830.047 582.58 830.047 582.94V589.3C830.047 589.66 829.88 589.84 829.547 589.84H823.147ZM836.893 582.94C836.559 582.94 836.393 582.773 836.393 582.44V570.9C836.393 570.567 836.559 570.4 836.893 570.4H840.573C840.906 570.4 841.073 570.567 841.073 570.9V582.44C841.073 582.773 840.906 582.94 840.573 582.94H836.893ZM832.973 579C832.639 579 832.473 578.833 832.473 578.5V574.84C832.473 574.507 832.639 574.34 832.973 574.34H844.493C844.826 574.34 844.993 574.507 844.993 574.84V578.5C844.993 578.833 844.826 579 844.493 579H832.973ZM848.552 573C848.258 573 848.092 572.847 848.052 572.54L847.452 563.86C847.412 563.513 847.578 563.34 847.952 563.34H852.552C852.925 563.34 853.092 563.513 853.052 563.86L852.452 572.54C852.412 572.847 852.245 573 851.952 573H848.552ZM855.112 573C854.818 573 854.652 572.847 854.612 572.54L854.012 563.86C853.972 563.513 854.138 563.34 854.512 563.34H859.112C859.485 563.34 859.652 563.513 859.612 563.86L859.012 572.54C858.972 572.847 858.805 573 858.512 573H855.112ZM866.463 582.94C866.13 582.94 865.963 582.773 865.963 582.44V570.9C865.963 570.567 866.13 570.4 866.463 570.4H870.143C870.476 570.4 870.643 570.567 870.643 570.9V582.44C870.643 582.773 870.476 582.94 870.143 582.94H866.463ZM862.543 579C862.21 579 862.043 578.833 862.043 578.5V574.84C862.043 574.507 862.21 574.34 862.543 574.34H874.063C874.396 574.34 874.563 574.507 874.563 574.84V578.5C874.563 578.833 874.396 579 874.063 579H862.543ZM877.522 589.84C877.189 589.84 877.022 589.66 877.022 589.3V582.94C877.022 582.58 877.189 582.4 877.522 582.4H883.922C884.255 582.4 884.422 582.58 884.422 582.94V589.3C884.422 589.66 884.255 589.84 883.922 589.84H877.522ZM891.268 582.94C890.934 582.94 890.768 582.773 890.768 582.44V570.9C890.768 570.567 890.934 570.4 891.268 570.4H894.948C895.281 570.4 895.448 570.567 895.448 570.9V582.44C895.448 582.773 895.281 582.94 894.948 582.94H891.268ZM887.348 579C887.014 579 886.848 578.833 886.848 578.5V574.84C886.848 574.507 887.014 574.34 887.348 574.34H898.868C899.201 574.34 899.368 574.507 899.368 574.84V578.5C899.368 578.833 899.201 579 898.868 579H887.348ZM902.927 573C902.633 573 902.467 572.847 902.427 572.54L901.827 563.86C901.787 563.513 901.953 563.34 902.327 563.34H906.927C907.3 563.34 907.467 563.513 907.427 563.86L906.827 572.54C906.787 572.847 906.62 573 906.327 573H902.927ZM909.487 573C909.193 573 909.027 572.847 908.987 572.54L908.387 563.86C908.347 563.513 908.513 563.34 908.887 563.34H913.487C913.86 563.34 914.027 563.513 913.987 563.86L913.387 572.54C913.347 572.847 913.18 573 912.887 573H909.487ZM920.838 582.94C920.505 582.94 920.338 582.773 920.338 582.44V570.9C920.338 570.567 920.505 570.4 920.838 570.4H924.518C924.851 570.4 925.018 570.567 925.018 570.9V582.44C925.018 582.773 924.851 582.94 924.518 582.94H920.838ZM916.918 579C916.585 579 916.418 578.833 916.418 578.5V574.84C916.418 574.507 916.585 574.34 916.918 574.34H928.438C928.771 574.34 928.938 574.507 928.938 574.84V578.5C928.938 578.833 928.771 579 928.438 579H916.918ZM931.897 589.84C931.564 589.84 931.397 589.66 931.397 589.3V582.94C931.397 582.58 931.564 582.4 931.897 582.4H938.297C938.63 582.4 938.797 582.58 938.797 582.94V589.3C938.797 589.66 938.63 589.84 938.297 589.84H931.897ZM945.643 582.94C945.309 582.94 945.143 582.773 945.143 582.44V570.9C945.143 570.567 945.309 570.4 945.643 570.4H949.323C949.656 570.4 949.823 570.567 949.823 570.9V582.44C949.823 582.773 949.656 582.94 949.323 582.94H945.643ZM941.723 579C941.389 579 941.223 578.833 941.223 578.5V574.84C941.223 574.507 941.389 574.34 941.723 574.34H953.243C953.576 574.34 953.743 574.507 953.743 574.84V578.5C953.743 578.833 953.576 579 953.243 579H941.723ZM957.302 573C957.008 573 956.842 572.847 956.802 572.54L956.202 563.86C956.162 563.513 956.328 563.34 956.702 563.34H961.302C961.675 563.34 961.842 563.513 961.802 563.86L961.202 572.54C961.162 572.847 960.995 573 960.702 573H957.302ZM963.862 573C963.568 573 963.402 572.847 963.362 572.54L962.762 563.86C962.722 563.513 962.888 563.34 963.262 563.34H967.862C968.235 563.34 968.402 563.513 968.362 563.86L967.762 572.54C967.722 572.847 967.555 573 967.262 573H963.862Z" fill="#FFF7F3"/>
</svg>
