<svg width="801" height="158" viewBox="0 0 801 158" fill="none" xmlns="http://www.w3.org/2000/svg">
<path d="M4.4565 123.4C3.92317 123.4 3.6565 123.133 3.6565 122.6V116.744C3.6565 116.211 3.92317 115.944 4.4565 115.944H22.8885C23.4218 115.944 23.6885 116.211 23.6885 116.744V122.6C23.6885 123.133 23.4218 123.4 22.8885 123.4H4.4565ZM36.8385 96.904L26.8225 92.744C26.3745 92.5733 26.2465 92.2107 26.4385 91.656L28.0385 87.56C28.2732 86.984 28.6358 86.824 29.1265 87.08L38.8225 93C39.3132 93.2987 39.4412 93.672 39.2065 94.12L37.8625 96.52C37.6278 96.9467 37.2865 97.0747 36.8385 96.904ZM56.049 144.456C55.665 145.053 55.1103 145.779 54.385 146.632C53.6597 147.485 52.849 148.36 51.953 149.256C51.0997 150.195 50.225 151.069 49.329 151.88C48.4757 152.733 47.665 153.459 46.897 154.056H43.185V153.288C43.825 152.477 44.5077 151.517 45.233 150.408C46.001 149.299 46.7477 148.147 47.473 146.952C48.1983 145.8 48.7957 144.755 49.265 143.816H56.049V144.456ZM85.9645 141.64C83.7885 141.64 81.7405 141.213 79.8205 140.36C77.9005 139.507 76.3432 138.269 75.1485 136.648C73.9965 134.984 73.4205 132.979 73.4205 130.632C73.4205 129.224 73.6125 127.901 73.9965 126.664C74.3805 125.427 75.0632 124.104 76.0445 122.696C77.0258 121.288 78.4338 119.667 80.2685 117.832L95.5005 102.408L99.4685 106.248L86.0285 119.432C84.1512 121.267 82.6792 122.824 81.6125 124.104C80.5458 125.384 79.7778 126.536 79.3085 127.56C78.8818 128.584 78.6685 129.651 78.6685 130.76C78.6685 132.808 79.3938 134.365 80.8445 135.432C82.2952 136.456 84.0872 136.968 86.2205 136.968C88.7378 136.968 90.9138 136.605 92.7485 135.88C94.5832 135.112 96.4178 134.173 98.2525 133.064L100.621 137.48C99.4258 138.205 98.1032 138.888 96.6525 139.528C95.2018 140.168 93.5805 140.68 91.7885 141.064C90.0392 141.448 88.0978 141.64 85.9645 141.64ZM117.343 154.344C116.788 154.344 116.361 154.195 116.063 153.896L106.463 144.296C106.228 144.061 106.079 143.869 106.015 143.72C105.951 143.592 105.919 143.357 105.919 143.016V97.896C105.919 97.5547 105.951 97.32 106.015 97.192C106.079 97.0427 106.228 96.8507 106.463 96.616L116.063 87.016C116.361 86.7387 116.788 86.6 117.343 86.6H123.103C123.636 86.6 123.903 86.8667 123.903 87.4V91.976C123.903 92.168 123.881 92.3493 123.839 92.52C123.796 92.6693 123.689 92.8293 123.519 93L115.967 100.584V140.36L123.519 147.944C123.689 148.093 123.796 148.253 123.839 148.424C123.881 148.595 123.903 148.765 123.903 148.936V153.544C123.903 154.077 123.636 154.344 123.103 154.344H117.343ZM130.435 113.416V112.776H136.579C137.048 113.715 137.603 114.781 138.243 115.976C138.883 117.128 139.544 118.259 140.227 119.368C140.91 120.477 141.55 121.437 142.147 122.248V123.016H138.947C138.222 122.419 137.432 121.715 136.579 120.904C135.768 120.051 134.936 119.155 134.083 118.216C133.272 117.277 132.547 116.381 131.907 115.528C131.267 114.675 130.776 113.971 130.435 113.416ZM141.699 113.416V112.776H147.843C148.312 113.715 148.867 114.781 149.507 115.976C150.147 117.128 150.808 118.259 151.491 119.368C152.174 120.477 152.814 121.437 153.411 122.248V123.016H150.211C149.486 122.419 148.696 121.715 147.843 120.904C147.032 120.051 146.2 119.155 145.347 118.216C144.536 117.277 143.811 116.381 143.171 115.528C142.531 114.675 142.04 113.971 141.699 113.416ZM159.776 129.768C158.965 129.768 158.56 129.331 158.56 128.456V113.16C158.56 112.307 158.965 111.88 159.776 111.88H175.168C175.957 111.88 176.352 112.307 176.352 113.16V128.456C176.352 129.331 175.957 129.768 175.168 129.768H159.776ZM189.125 141.32L189.765 136.072C192.325 136.072 194.736 135.837 196.997 135.368C199.258 134.856 201.328 134.195 203.205 133.384C205.125 132.531 206.768 131.571 208.133 130.504C209.498 129.395 210.544 128.264 211.269 127.112C212.037 125.917 212.421 124.744 212.421 123.592C212.421 123.037 212.229 122.483 211.845 121.928C211.461 121.331 210.8 120.84 209.861 120.456C208.965 120.072 207.749 119.88 206.213 119.88C205.274 119.88 204.229 120.008 203.077 120.264C201.925 120.52 200.816 120.883 199.749 121.352C198.725 121.779 197.872 122.269 197.189 122.824C198.341 123.763 199.408 124.68 200.389 125.576C201.413 126.472 202.458 127.453 203.525 128.52C204.592 129.544 205.744 130.717 206.981 132.04C207.962 132.765 209.05 133.384 210.245 133.896C211.482 134.408 212.805 134.835 214.213 135.176C215.664 135.475 217.136 135.709 218.629 135.88C220.122 136.008 221.616 136.072 223.109 136.072C224.005 136.072 224.645 136.328 225.029 136.84C225.456 137.309 225.669 137.885 225.669 138.568C225.669 139.251 225.37 139.891 224.773 140.488C224.176 141.043 223.408 141.32 222.469 141.32C220.122 141.32 217.712 141.107 215.237 140.68C212.805 140.211 210.522 139.528 208.389 138.632C206.256 137.693 204.442 136.52 202.949 135.112C202.224 134.173 201.413 133.235 200.517 132.296C199.621 131.357 198.64 130.419 197.573 129.48C196.549 128.499 195.44 127.581 194.245 126.728C193.989 126.515 193.733 126.131 193.477 125.576C193.221 125.021 193.008 124.445 192.837 123.848C192.666 123.251 192.581 122.803 192.581 122.504C192.581 121.864 192.986 121.096 193.797 120.2C194.608 119.304 195.696 118.451 197.061 117.64C198.426 116.787 199.984 116.083 201.733 115.528C203.482 114.973 205.296 114.696 207.173 114.696C209.605 114.696 211.568 115.059 213.061 115.784C214.597 116.509 215.706 117.448 216.389 118.6C217.114 119.709 217.477 120.904 217.477 122.184C217.477 124.061 217.008 125.939 216.069 127.816C215.13 129.651 213.786 131.379 212.037 133C210.288 134.621 208.24 136.072 205.893 137.352C203.546 138.589 200.944 139.571 198.085 140.296C195.269 140.979 192.282 141.32 189.125 141.32ZM236.464 129.768C235.653 129.768 235.248 129.331 235.248 128.456V113.16C235.248 112.307 235.653 111.88 236.464 111.88H251.856C252.645 111.88 253.04 112.307 253.04 113.16V128.456C253.04 129.331 252.645 129.768 251.856 129.768H236.464ZM258.185 113.416V112.776H264.329C264.798 113.715 265.353 114.781 265.993 115.976C266.633 117.128 267.294 118.259 267.977 119.368C268.66 120.477 269.3 121.437 269.897 122.248V123.016H266.697C265.972 122.419 265.182 121.715 264.329 120.904C263.518 120.051 262.686 119.155 261.833 118.216C261.022 117.277 260.297 116.381 259.657 115.528C259.017 114.675 258.526 113.971 258.185 113.416ZM269.449 113.416V112.776H275.593C276.062 113.715 276.617 114.781 277.257 115.976C277.897 117.128 278.558 118.259 279.241 119.368C279.924 120.477 280.564 121.437 281.161 122.248V123.016H277.961C277.236 122.419 276.446 121.715 275.593 120.904C274.782 120.051 273.95 119.155 273.097 118.216C272.286 117.277 271.561 116.381 270.921 115.528C270.281 114.675 269.79 113.971 269.449 113.416ZM294.31 154.344H288.55C288.017 154.344 287.75 154.077 287.75 153.544V148.936C287.75 148.765 287.771 148.595 287.814 148.424C287.878 148.253 287.985 148.093 288.134 147.944L295.686 140.36V100.584L288.134 93C287.985 92.8293 287.878 92.6693 287.814 92.52C287.771 92.3493 287.75 92.168 287.75 91.976V87.4C287.75 86.8667 288.017 86.6 288.55 86.6H294.31C294.865 86.6 295.291 86.7387 295.59 87.016L305.19 96.616C305.425 96.8507 305.574 97.0427 305.638 97.192C305.702 97.32 305.734 97.5547 305.734 97.896V143.016C305.734 143.357 305.702 143.592 305.638 143.72C305.574 143.869 305.425 144.061 305.19 144.296L295.59 153.896C295.291 154.195 294.865 154.344 294.31 154.344ZM324.971 141.64C316.97 141.64 310.763 137.224 310.763 128.648C310.763 126.792 311.211 124.872 311.595 123.848H316.97C316.651 125 316.395 126.728 316.395 128.648C316.395 134.088 319.787 136.968 324.971 136.968C330.155 136.968 333.355 134.088 333.355 128.328C333.355 123.912 331.115 121.48 328.683 119.048C325.611 115.976 322.091 112.712 322.091 106.696H327.723C327.723 110.408 330.091 112.968 332.715 115.592C335.851 118.728 339.179 122.248 339.179 128.328C339.179 136.328 333.099 141.64 324.971 141.64Z" fill="#FFF7F3"/>
<path d="M194.703 79C194.169 79 193.903 78.7333 193.903 78.2V37.144C193.903 36.6107 194.169 36.344 194.703 36.344H203.759C204.292 36.344 204.559 36.6107 204.559 37.144V52.344H212.463V37.144C212.463 36.6107 212.729 36.344 213.263 36.344H222.319C222.852 36.344 223.118 36.6107 223.118 37.144V78.2C223.118 78.7333 222.852 79 222.319 79H213.263C212.729 79 212.463 78.7333 212.463 78.2V60.856H204.559V78.2C204.559 78.7333 204.292 79 203.759 79H194.703ZM173.923 84.256C173.709 84.256 173.549 84.1813 173.443 84.032C173.357 83.8827 173.389 83.6907 173.539 83.456L179.683 73.696C179.789 73.5253 179.907 73.376 180.035 73.248C180.184 73.12 180.397 73.056 180.675 73.056H191.203C191.693 73.056 192.067 73.3227 192.323 73.856L194.243 78.304H197.475L199.139 73.664C199.288 73.2587 199.587 73.056 200.035 73.056H208.003C208.216 73.056 208.365 73.1307 208.451 73.28C208.536 73.4293 208.504 73.6213 208.355 73.856L202.243 83.616C202.136 83.808 202.008 83.968 201.859 84.096C201.731 84.2027 201.517 84.256 201.219 84.256H190.723C190.189 84.256 189.816 83.9893 189.603 83.456L187.683 79.104H184.419L182.755 83.68C182.648 84.064 182.349 84.256 181.859 84.256H173.923ZM200.346 83.744C199.813 83.744 199.546 83.4773 199.546 82.944V74.4C199.546 73.8667 199.813 73.6 200.346 73.6H216.666C217.2 73.6 217.466 73.8667 217.466 74.4V82.944C217.466 83.4773 217.2 83.744 216.666 83.744H200.346ZM209.038 84.256C208.824 84.256 208.664 84.1813 208.558 84.032C208.472 83.8827 208.504 83.6907 208.654 83.456L214.798 73.696C214.904 73.5253 215.022 73.376 215.15 73.248C215.299 73.12 215.512 73.056 215.79 73.056H226.318C226.808 73.056 227.182 73.3227 227.438 73.856L229.358 78.304H232.59L234.254 73.664C234.403 73.2587 234.702 73.056 235.15 73.056H243.118C243.331 73.056 243.48 73.1307 243.566 73.28C243.651 73.4293 243.619 73.6213 243.47 73.856L237.358 83.616C237.251 83.808 237.123 83.968 236.974 84.096C236.846 84.2027 236.632 84.256 236.334 84.256H225.838C225.304 84.256 224.931 83.9893 224.718 83.456L222.798 79.104H219.534L217.87 83.68C217.763 84.064 217.464 84.256 216.974 84.256H209.038Z" fill="#FFF7F3"/>
<path d="M407.91 138.416C407.228 138.416 406.652 138.224 406.182 137.84C405.756 137.499 405.542 137.029 405.542 136.432C405.542 135.707 405.649 135.109 405.862 134.64C406.118 134.171 406.246 133.552 406.246 132.784C406.246 131.12 405.82 129.627 404.966 128.304C404.113 126.939 402.94 125.488 401.446 123.952C399.612 122.032 397.969 120.304 396.518 118.768C395.068 117.232 393.83 115.696 392.806 114.16C391.782 112.624 390.993 110.939 390.438 109.104C389.926 107.227 389.67 105.008 389.67 102.448C389.67 100.059 390.182 97.7547 391.206 95.536C392.273 93.3173 393.702 91.3973 395.494 89.776C397.329 88.1547 399.377 87.024 401.638 86.384C402.321 86.1707 403.004 86.0427 403.686 86C404.369 85.9147 405.052 85.872 405.734 85.872C407.654 85.872 409.574 86.2133 411.494 86.896C413.457 87.5787 415.228 88.5387 416.806 89.776C417.788 90.544 418.662 91.2053 419.43 91.76C420.198 92.3147 420.796 92.592 421.222 92.592C421.82 92.592 422.481 92.3147 423.206 91.76C423.932 91.1627 424.956 90.3733 426.278 89.392C427.174 88.7093 428.092 88.1547 429.03 87.728C430.012 87.2587 430.972 86.8747 431.91 86.576C432.678 86.32 433.446 86.1493 434.214 86.064C434.982 85.936 435.75 85.872 436.518 85.872C439.59 85.872 442.3 86.6187 444.646 88.112C447.036 89.5627 448.913 91.5467 450.278 94.064C451.644 96.5813 452.326 99.4187 452.326 102.576C452.326 105.307 451.665 108.101 450.342 110.96C449.02 113.776 446.908 116.635 444.006 119.536C442.086 121.456 439.868 123.355 437.35 125.232C434.876 127.109 432.252 128.88 429.478 130.544C426.705 132.165 423.953 133.573 421.222 134.768C418.534 136.005 415.996 136.923 413.606 137.52C412.198 137.861 411.025 138.096 410.086 138.224C409.148 138.352 408.422 138.416 407.91 138.416Z" fill="#FFF7F3"/>
<path d="M499.549 139.344C498.93 139.344 498.695 139.056 498.845 138.48L511.389 86.736C511.495 86.2453 511.783 86 512.253 86H520.413C521.01 86 521.234 86.288 521.085 86.864L508.573 138.576C508.445 139.088 508.157 139.344 507.709 139.344H499.549ZM534.245 89.904L524.229 85.744C523.781 85.5733 523.653 85.2107 523.845 84.656L525.445 80.56C525.679 79.984 526.042 79.824 526.533 80.08L536.229 86C536.719 86.2987 536.847 86.672 536.613 87.12L535.269 89.52C535.034 89.9467 534.693 90.0747 534.245 89.904ZM540.175 143.6C539.642 143.6 539.375 143.333 539.375 142.8V135.344C539.375 134.811 539.642 134.544 540.175 134.544H544.495L552.015 94.224C552.122 93.6053 552.389 93.072 552.815 92.624L558.767 86.544C559.13 86.1813 559.557 86 560.047 86H565.231C565.765 86 566.031 86.2667 566.031 86.8V94.256C566.031 94.7893 565.765 95.056 565.231 95.056H560.911L553.391 135.376C553.285 135.995 553.018 136.528 552.591 136.976L546.607 143.056C546.266 143.419 545.839 143.6 545.327 143.6H540.175ZM569.488 110.096C568.954 110.096 568.688 109.829 568.688 109.296V103.44C568.688 102.907 568.954 102.64 569.488 102.64H587.92C588.453 102.64 588.72 102.907 588.72 103.44V109.296C588.72 109.829 588.453 110.096 587.92 110.096H569.488ZM569.488 122.704C568.954 122.704 568.688 122.437 568.688 121.904V116.016C568.688 115.483 568.954 115.216 569.488 115.216H587.92C588.453 115.216 588.72 115.483 588.72 116.016V121.904C588.72 122.437 588.453 122.704 587.92 122.704H569.488ZM616.91 121.712H621.262V123.184C621.262 125.488 620.728 127.557 619.662 129.392C618.638 131.184 617.187 132.741 615.31 134.064C613.432 135.387 611.256 136.475 608.782 137.328C606.35 138.224 603.704 138.885 600.846 139.312L598.926 135.408C601.486 135.067 603.854 134.555 606.03 133.872C608.248 133.189 610.147 132.336 611.726 131.312C613.347 130.288 614.606 129.093 615.502 127.728C616.44 126.363 616.91 124.848 616.91 123.184V121.712ZM617.678 121.712H622.03V123.184C622.03 124.848 622.478 126.363 623.374 127.728C624.27 129.093 625.528 130.288 627.15 131.312C628.771 132.336 630.67 133.189 632.846 133.872C635.064 134.555 637.432 135.067 639.95 135.408L638.094 139.312C635.278 138.885 632.632 138.224 630.158 137.328C627.683 136.475 625.507 135.387 623.63 134.064C621.752 132.741 620.28 131.184 619.214 129.392C618.19 127.557 617.678 125.488 617.678 123.184V121.712ZM601.166 120.432H637.966V124.336H601.166V120.432ZM651.113 110.096C650.579 110.096 650.313 109.829 650.313 109.296V103.44C650.313 102.907 650.579 102.64 651.113 102.64H669.545C670.078 102.64 670.345 102.907 670.345 103.44V109.296C670.345 109.829 670.078 110.096 669.545 110.096H651.113ZM651.113 122.704C650.579 122.704 650.313 122.437 650.313 121.904V116.016C650.313 115.483 650.579 115.216 651.113 115.216H669.545C670.078 115.216 670.345 115.483 670.345 116.016V121.904C670.345 122.437 670.078 122.704 669.545 122.704H651.113ZM694.706 86.8C695.282 86.8 695.57 87.088 695.57 87.664V92.144C695.57 92.6987 695.282 92.976 694.706 92.976H692.37C691.73 92.976 691.41 93.2427 691.41 93.776V94.736H695.506C696.04 94.736 696.306 95.024 696.306 95.6L696.242 103.696C696.242 104.272 695.965 104.56 695.41 104.56H685.266C684.733 104.56 684.466 104.272 684.466 103.696V93.904C684.466 91.4933 685.032 89.712 686.162 88.56C687.314 87.3867 688.829 86.8 690.706 86.8H694.706ZM731.975 139.344H723.815C723.367 139.344 723.079 139.088 722.951 138.576L710.439 86.864C710.29 86.288 710.514 86 711.111 86H719.271C719.741 86 720.029 86.2453 720.135 86.736L732.679 138.48C732.85 139.056 732.615 139.344 731.975 139.344ZM753.499 136.816C753.968 137.755 754.544 138.8 755.227 139.952C755.952 141.147 756.699 142.299 757.467 143.408C758.277 144.517 759.003 145.477 759.643 146.288V147.056H755.867C755.141 146.459 754.331 145.733 753.435 144.88C752.539 144.069 751.643 143.195 750.747 142.256C749.893 141.36 749.104 140.485 748.379 139.632C747.696 138.779 747.163 138.053 746.779 137.456V136.816H753.499ZM765.995 89.904C765.568 90.0747 765.237 89.9467 765.003 89.52L763.659 87.12C763.403 86.6507 763.531 86.2773 764.043 86L773.739 80.08C774.229 79.824 774.581 79.984 774.795 80.56L776.395 84.656C776.587 85.2107 776.469 85.5733 776.043 85.744L765.995 89.904ZM779.925 116.4C779.392 116.4 779.125 116.133 779.125 115.6V109.744C779.125 109.211 779.392 108.944 779.925 108.944H798.357C798.891 108.944 799.157 109.211 799.157 109.744V115.6C799.157 116.133 798.891 116.4 798.357 116.4H779.925Z" fill="#FFF7F3"/>
<mask id="path-5-outside-1_154_9" maskUnits="userSpaceOnUse" x="633" y="36" width="65" height="54" fill="black">
<rect fill="white" x="633" y="36" width="65" height="54"/>
<path d="M675.328 88C671.36 81.6 664 78.208 656.384 78.208C652.224 78.208 648.192 79.424 644.416 81.536L642.176 77.44C644.8 76.16 648 75.136 650.944 74.944V74.752C641.728 71.872 634.176 65.408 634.176 53.184C634.176 43.456 638.592 37.056 646.848 37.056C651.584 37.056 654.528 39.36 655.872 43.136H656.192C657.6 39.36 660.736 37.056 665.472 37.056C670.464 37.056 673.408 39.36 674.752 43.136H675.072C676.48 39.36 679.616 37.056 684.16 37.056C692.416 37.056 696.832 44.032 696.832 54.336C696.832 59.776 695.68 64.384 693.312 68.864L688.448 67.072C690.432 62.912 691.072 59.2 691.072 54.272C691.072 46.016 688.32 41.728 683.712 41.728C679.872 41.728 677.632 44.736 677.632 50.048V60.352H672.256V50.048C672.256 45.248 670.336 41.728 665.472 41.728C660.992 41.728 658.752 44.736 658.752 50.048V60.352H653.376V50.048C653.376 45.248 651.456 41.728 647.232 41.728C642.688 41.728 639.936 45.44 639.936 53.184C639.936 65.088 648.448 70.528 657.6 72.512C666.24 74.368 675.712 77.76 679.616 85.696L675.328 88Z"/>
</mask>
<path d="M675.328 88C671.36 81.6 664 78.208 656.384 78.208C652.224 78.208 648.192 79.424 644.416 81.536L642.176 77.44C644.8 76.16 648 75.136 650.944 74.944V74.752C641.728 71.872 634.176 65.408 634.176 53.184C634.176 43.456 638.592 37.056 646.848 37.056C651.584 37.056 654.528 39.36 655.872 43.136H656.192C657.6 39.36 660.736 37.056 665.472 37.056C670.464 37.056 673.408 39.36 674.752 43.136H675.072C676.48 39.36 679.616 37.056 684.16 37.056C692.416 37.056 696.832 44.032 696.832 54.336C696.832 59.776 695.68 64.384 693.312 68.864L688.448 67.072C690.432 62.912 691.072 59.2 691.072 54.272C691.072 46.016 688.32 41.728 683.712 41.728C679.872 41.728 677.632 44.736 677.632 50.048V60.352H672.256V50.048C672.256 45.248 670.336 41.728 665.472 41.728C660.992 41.728 658.752 44.736 658.752 50.048V60.352H653.376V50.048C653.376 45.248 651.456 41.728 647.232 41.728C642.688 41.728 639.936 45.44 639.936 53.184C639.936 65.088 648.448 70.528 657.6 72.512C666.24 74.368 675.712 77.76 679.616 85.696L675.328 88Z" fill="#FFF7F3"/>
<path d="M675.328 88L674.478 88.5269L674.974 89.3258L675.802 88.8809L675.328 88ZM644.416 81.536L643.539 82.0158L644.023 82.9016L644.904 82.4088L644.416 81.536ZM642.176 77.44L641.738 76.5412L640.796 77.0006L641.299 77.9198L642.176 77.44ZM650.944 74.944L651.009 75.9419L651.944 75.8809V74.944H650.944ZM650.944 74.752H651.944V74.0168L651.243 73.7975L650.944 74.752ZM655.872 43.136L654.93 43.4713L655.167 44.136H655.872V43.136ZM656.192 43.136V44.136H656.887L657.129 43.4854L656.192 43.136ZM674.752 43.136L673.81 43.4713L674.047 44.136H674.752V43.136ZM675.072 43.136V44.136H675.767L676.009 43.4854L675.072 43.136ZM693.312 68.864L692.967 69.8023L693.787 70.1048L694.196 69.3313L693.312 68.864ZM688.448 67.072L687.546 66.6415L687.074 67.6313L688.103 68.0103L688.448 67.072ZM677.632 60.352V61.352H678.632V60.352H677.632ZM672.256 60.352H671.256V61.352H672.256V60.352ZM658.752 60.352V61.352H659.752V60.352H658.752ZM653.376 60.352H652.376V61.352H653.376V60.352ZM657.6 72.512L657.388 73.4893L657.39 73.4897L657.6 72.512ZM679.616 85.696L680.09 86.5769L680.939 86.1203L680.514 85.2546L679.616 85.696ZM676.178 87.4731C671.994 80.725 664.278 77.208 656.384 77.208V79.208C663.723 79.208 670.726 82.475 674.478 88.5269L676.178 87.4731ZM656.384 77.208C652.025 77.208 647.826 78.483 643.928 80.6632L644.904 82.4088C648.558 80.365 652.424 79.208 656.384 79.208V77.208ZM645.294 81.0562L643.054 76.9602L641.299 77.9198L643.539 82.0158L645.294 81.0562ZM642.615 78.3388C645.156 77.0989 648.229 76.1232 651.009 75.9419L650.879 73.9461C647.772 74.1488 644.444 75.2211 641.738 76.5412L642.615 78.3388ZM651.944 74.944V74.752H649.944V74.944H651.944ZM651.243 73.7975C646.756 72.3955 642.745 70.1422 639.86 66.8167C636.989 63.5074 635.176 59.0729 635.176 53.184H633.176C633.176 59.5191 635.14 64.4286 638.349 68.1273C641.544 71.8098 645.916 74.2285 650.646 75.7065L651.243 73.7975ZM635.176 53.184C635.176 48.4542 636.252 44.6617 638.213 42.0763C640.146 39.5277 643.01 38.056 646.848 38.056V36.056C642.431 36.056 638.958 37.7843 636.62 40.8677C634.309 43.9143 633.176 48.1858 633.176 53.184H635.176ZM646.848 38.056C649.051 38.056 650.761 38.5898 652.058 39.499C653.356 40.4081 654.315 41.7435 654.93 43.4713L656.814 42.8007C656.085 40.7525 654.9 39.0479 653.206 37.861C651.512 36.6742 649.382 36.056 646.848 36.056V38.056ZM655.872 44.136H656.192V42.136H655.872V44.136ZM657.129 43.4854C657.77 41.7676 658.785 40.4261 660.144 39.5087C661.504 38.5903 663.269 38.056 665.472 38.056V36.056C662.939 36.056 660.768 36.6737 659.025 37.8512C657.279 39.0299 656.023 40.7284 655.255 42.7866L657.129 43.4854ZM665.472 38.056C667.813 38.056 669.588 38.5948 670.915 39.5047C672.239 40.4127 673.196 41.7446 673.81 43.4713L675.694 42.8007C674.965 40.7514 673.778 39.0433 672.046 37.8553C670.316 36.6692 668.123 36.056 665.472 36.056V38.056ZM674.752 44.136H675.072V42.136H674.752V44.136ZM676.009 43.4854C676.65 41.7668 677.667 40.4228 679.006 39.5047C680.345 38.5863 682.061 38.056 684.16 38.056V36.056C681.715 36.056 679.592 36.6777 677.875 37.8553C676.157 39.0331 674.902 40.7292 674.135 42.7866L676.009 43.4854ZM684.16 38.056C687.965 38.056 690.827 39.6431 692.775 42.4079C694.752 45.2147 695.832 49.308 695.832 54.336H697.832C697.832 49.06 696.704 44.5133 694.41 41.2561C692.086 37.9569 688.612 36.056 684.16 36.056V38.056ZM695.832 54.336C695.832 59.6182 694.718 64.0651 692.428 68.3967L694.196 69.3313C696.643 64.7029 697.832 59.9338 697.832 54.336H695.832ZM693.658 67.9257L688.794 66.1337L688.103 68.0103L692.967 69.8023L693.658 67.9257ZM689.351 67.5025C691.414 63.1763 692.072 59.3093 692.072 54.272H690.072C690.072 59.0907 689.45 62.6477 687.546 66.6415L689.351 67.5025ZM692.072 54.272C692.072 50.0586 691.374 46.7142 689.977 44.389C688.545 42.0043 686.39 40.728 683.712 40.728V42.728C685.642 42.728 687.168 43.5956 688.263 45.419C689.394 47.3018 690.072 50.2294 690.072 54.272H692.072ZM683.712 40.728C681.498 40.728 679.668 41.6129 678.426 43.304C677.215 44.9534 676.632 47.2711 676.632 50.048H678.632C678.632 47.5129 679.17 45.6706 680.038 44.488C680.876 43.3471 682.087 42.728 683.712 42.728V40.728ZM676.632 50.048V60.352H678.632V50.048H676.632ZM677.632 59.352H672.256V61.352H677.632V59.352ZM673.256 60.352V50.048H671.256V60.352H673.256ZM673.256 50.048C673.256 47.5394 672.758 45.2158 671.494 43.4957C670.192 41.7242 668.176 40.728 665.472 40.728V42.728C667.632 42.728 669.009 43.4918 669.883 44.6803C670.794 45.9202 671.256 47.7566 671.256 50.048H673.256ZM665.472 40.728C662.99 40.728 660.994 41.5744 659.648 43.2756C658.334 44.9369 657.752 47.2737 657.752 50.048H659.752C659.752 47.5103 660.291 45.6871 661.217 44.5164C662.111 43.3856 663.475 42.728 665.472 42.728V40.728ZM657.752 50.048V60.352H659.752V50.048H657.752ZM658.752 59.352H653.376V61.352H658.752V59.352ZM654.376 60.352V50.048H652.376V60.352H654.376ZM654.376 50.048C654.376 47.5372 653.878 45.2324 652.715 43.5251C651.517 41.7662 649.668 40.728 647.232 40.728V42.728C649.02 42.728 650.244 43.4498 651.062 44.6509C651.915 45.9036 652.376 47.7588 652.376 50.048H654.376ZM647.232 40.728C644.642 40.728 642.497 41.8103 641.047 43.9997C639.636 46.129 638.936 49.22 638.936 53.184H640.936C640.936 49.404 641.612 46.767 642.714 45.1043C643.776 43.5017 645.279 42.728 647.232 42.728V40.728ZM638.936 53.184C638.936 59.4038 641.172 64.0047 644.649 67.2944C648.098 70.5577 652.705 72.474 657.388 73.4893L657.812 71.5347C653.344 70.566 649.119 68.7703 646.024 65.8416C642.956 62.9393 640.936 58.8682 640.936 53.184H638.936ZM657.39 73.4897C666.035 75.3467 675.044 78.6679 678.719 86.1374L680.514 85.2546C676.38 76.8521 666.446 73.3893 657.81 71.5343L657.39 73.4897ZM679.143 84.8151L674.855 87.1191L675.802 88.8809L680.09 86.5769L679.143 84.8151Z" fill="#FFF7F3" mask="url(#path-5-outside-1_154_9)"/>
</svg>
