<svg width="72" height="72" viewBox="0 0 72 72" fill="none" xmlns="http://www.w3.org/2000/svg">
<path d="M40.1213 16.3713C40.3999 16.0927 40.6209 15.762 40.7716 15.3981C40.9224 15.0341 41 14.644 41 14.25C41 13.856 40.9224 13.4659 40.7716 13.1019C40.6209 12.738 40.3999 12.4073 40.1213 12.1287C39.8427 11.8501 39.512 11.6291 39.1481 11.4784C38.7841 11.3276 38.394 11.25 38 11.25C37.606 11.25 37.2159 11.3276 36.8519 11.4784C36.488 11.6291 36.1573 11.8501 35.8787 12.1287L38 14.25L40.1213 16.3713Z" fill="#FFF7F3"/>
<path d="M35.8787 59.8813C36.1573 60.1599 36.488 60.3809 36.8519 60.5316C37.2159 60.6824 37.606 60.76 38 60.76C38.394 60.76 38.7841 60.6824 39.1481 60.5316C39.512 60.3809 39.8427 60.1599 40.1213 59.8813C40.3999 59.6028 40.6209 59.272 40.7716 58.9081C40.9224 58.5441 41 58.154 41 57.76C41 57.366 40.9224 56.9759 40.7716 56.612C40.6209 56.248 40.3999 55.9173 40.1213 55.6387L38 57.76L35.8787 59.8813Z" fill="#FFF7F3"/>
<path d="M60 39C60.7956 39 61.5587 38.6839 62.1213 38.1213C62.6839 37.5587 63 36.7956 63 36C63 35.2044 62.6839 34.4413 62.1213 33.8787C61.5587 33.3161 60.7957 33 60 33L60 36L60 39Z" fill="#FFF7F3"/>
<path d="M23.475 39L40.275 55.8L36 60L12 36L36 12L40.275 16.2L23.475 33H60V39H23.475Z" fill="#FFF7F3"/>
</svg>
