<svg width="47" height="47" viewBox="0 0 47 47" fill="none" xmlns="http://www.w3.org/2000/svg">
<g clip-path="url(#clip0_12_100)">
<path d="M44.3225 8.08253V19.5392M44.3225 19.5392H32.8658M44.3225 19.5392L35.4627 11.214C33.4105 9.16082 30.8717 7.66094 28.0831 6.85433C25.2945 6.04772 22.347 5.96067 19.5156 6.6013C16.6842 7.24193 14.0613 8.58936 11.8915 10.5179C9.72179 12.4464 8.07592 14.8931 7.10751 17.6297M2.31482 38.6336V27.1769M2.31482 27.1769H13.7715M2.31482 27.1769L11.1746 35.5021C13.2268 37.5553 15.7656 39.0552 18.5542 39.8618C21.3428 40.6684 24.2903 40.7554 27.1217 40.1148C29.9531 39.4742 32.576 38.1267 34.7458 36.1982C36.9155 34.2697 38.5614 31.823 39.5298 29.0864" stroke="#FFF7F3" stroke-width="6" stroke-linecap="round" stroke-linejoin="round"/>
</g>
<defs>
<clipPath id="clip0_12_100">
<rect width="45.8265" height="45.8265" fill="white" transform="translate(0.405396 0.444824)"/>
</clipPath>
</defs>
</svg>
