<svg width="37" height="37" viewBox="0 0 37 37" fill="none" xmlns="http://www.w3.org/2000/svg">
<g clip-path="url(#clip0_1_2243)">
<path d="M35.4584 4.625C33.9821 5.66636 32.3475 6.46284 30.6176 6.98375C29.6891 5.91616 28.4551 5.15948 27.0826 4.81605C25.71 4.47262 24.2651 4.55901 22.9433 5.06353C21.6214 5.56805 20.4864 6.46637 19.6918 7.63698C18.8971 8.80759 18.4811 10.194 18.5001 11.6088V13.1504C15.7908 13.2207 13.1062 12.6198 10.6854 11.4013C8.26456 10.1828 6.18265 8.38456 4.62508 6.16667C4.62508 6.16667 -1.54158 20.0417 12.3334 26.2083C9.15839 28.3635 5.37611 29.4442 1.54175 29.2917C15.4167 37 32.3751 29.2917 32.3751 11.5625C32.3737 11.1331 32.3324 10.7047 32.2517 10.2829C33.8252 8.73122 34.9355 6.7721 35.4584 4.625Z" stroke="#FFF7F3" stroke-width="4" stroke-linecap="round" stroke-linejoin="round"/>
</g>
<defs>
<clipPath id="clip0_1_2243">
<rect width="37" height="37" fill="white"/>
</clipPath>
</defs>
</svg>
