<svg width="925" height="279" viewBox="0 0 925 279" fill="none" xmlns="http://www.w3.org/2000/svg">
<path d="M730.641 36.4C730.929 36.4 731.073 36.544 731.073 36.832V39.072C731.073 39.3493 730.929 39.488 730.641 39.488H729.473C729.153 39.488 728.993 39.6213 728.993 39.888V40.368H731.041C731.307 40.368 731.441 40.512 731.441 40.8L731.409 44.848C731.409 45.136 731.27 45.28 730.993 45.28H725.921C725.654 45.28 725.521 45.136 725.521 44.848V39.952C725.521 38.7467 725.803 37.856 726.369 37.28C726.945 36.6933 727.702 36.4 728.641 36.4H730.641ZM723.713 36.4C724.001 36.4 724.145 36.544 724.145 36.832V39.072C724.145 39.3493 724.001 39.488 723.713 39.488H722.545C722.225 39.488 722.065 39.6213 722.065 39.888V40.368H724.113C724.379 40.368 724.513 40.512 724.513 40.8L724.481 44.848C724.481 45.136 724.342 45.28 724.065 45.28H718.993C718.726 45.28 718.593 45.136 718.593 44.848V39.952C718.593 38.7467 718.875 37.856 719.441 37.28C720.017 36.6933 720.774 36.4 721.713 36.4H723.713ZM738.639 60C738.393 60 738.18 59.9093 737.999 59.728L734.799 56.528C734.617 56.3573 734.527 56.144 734.527 55.888V46.512C734.527 46.256 734.617 46.0427 734.799 45.872L737.999 42.672C738.18 42.4907 738.393 42.4 738.639 42.4H747.199C747.465 42.4 747.599 42.5333 747.599 42.8V59.6C747.599 59.8667 747.465 60 747.199 60H743.871C743.732 60 743.625 59.9733 743.551 59.92C743.487 59.8667 743.412 59.8027 743.327 59.728L742.527 58.928L741.727 59.728C741.556 59.9093 741.343 60 741.087 60H738.639ZM740.511 56.272H741.631C741.972 56.272 742.207 56.2027 742.335 56.064C742.463 55.9253 742.527 55.68 742.527 55.328V46.128H740.511C740.159 46.128 739.919 46.1973 739.791 46.336C739.663 46.4747 739.599 46.72 739.599 47.072V55.328C739.599 55.68 739.663 55.9253 739.791 56.064C739.919 56.2027 740.159 56.272 740.511 56.272ZM760.932 65.328C760.665 65.328 760.532 65.1947 760.532 64.928V62.432C760.532 62.2187 760.612 62.1013 760.772 62.08L763.108 61.488L764.772 60.608C764.932 60.5227 765.012 60.3573 765.012 60.112V57.488L763.508 58.88C763.327 59.0613 763.113 59.152 762.868 59.152L760.148 59.248C759.903 59.248 759.689 59.1627 759.508 58.992L756.58 56.048C756.399 55.8773 756.308 55.664 756.308 55.408V46.512C756.308 46.256 756.399 46.0427 756.58 45.872L759.78 42.672C759.961 42.4907 760.175 42.4 760.42 42.4H768.98C769.247 42.4 769.38 42.5333 769.38 42.8V62.032C769.38 62.32 769.289 62.5333 769.108 62.672L766.98 64.032L764.292 65.152C764.132 65.216 764.009 65.2587 763.924 65.28C763.849 65.312 763.721 65.328 763.54 65.328H760.932ZM762.292 55.792H763.412C763.753 55.792 763.988 55.7227 764.116 55.584C764.244 55.4453 764.308 55.2 764.308 54.848V46.128H762.292C761.94 46.128 761.7 46.1973 761.572 46.336C761.444 46.4747 761.38 46.72 761.38 47.072V54.848C761.38 55.2 761.444 55.4453 761.572 55.584C761.7 55.7227 761.94 55.792 762.292 55.792ZM773.508 60C773.241 60 773.108 59.8667 773.108 59.6V42.8C773.108 42.5333 773.241 42.4 773.508 42.4H777.764C778.03 42.4 778.164 42.5333 778.164 42.8V59.6C778.164 59.8667 778.03 60 777.764 60H773.508ZM773.428 41.072C773.214 41.072 773.108 40.9653 773.108 40.752V38.72C773.108 38.5067 773.214 38.4 773.428 38.4H777.876C778.068 38.4 778.164 38.5067 778.164 38.72V40.752C778.164 40.9653 778.068 41.072 777.876 41.072H773.428ZM782.721 60C782.454 60 782.321 59.8667 782.321 59.6V42.768C782.321 42.5227 782.406 42.3093 782.577 42.128L785.777 38.928C785.958 38.7573 786.171 38.672 786.417 38.672H789.857C790.123 38.672 790.257 38.8053 790.257 39.072V42.8C790.257 43.0667 790.123 43.2 789.857 43.2H787.377V59.6C787.377 59.8667 787.243 60 786.977 60H782.721ZM781.329 50C781.062 50 780.929 49.8667 780.929 49.6V46.672C780.929 46.4053 781.062 46.272 781.329 46.272H789.857C790.123 46.272 790.257 46.4053 790.257 46.672V49.6C790.257 49.8667 790.123 50 789.857 50H781.329ZM796.819 60C796.573 60 796.36 59.9093 796.179 59.728L793.507 57.072C793.336 56.8907 793.251 56.6773 793.251 56.432V46.128H792.579C792.312 46.128 792.179 45.9947 792.179 45.728V42.8C792.179 42.5333 792.312 42.4 792.579 42.4H793.251V40.4C793.251 40.1333 793.384 40 793.651 40H797.907C798.173 40 798.307 40.1333 798.307 40.4V42.4H799.859C800.125 42.4 800.259 42.5333 800.259 42.8V45.728C800.259 45.9947 800.125 46.128 799.859 46.128H798.307V54.672C798.307 54.8747 798.371 55.04 798.499 55.168L800.067 56.752C800.173 56.848 800.227 57.008 800.227 57.232V59.6C800.227 59.8667 800.093 60 799.827 60H796.819ZM809.065 60C808.798 60 808.664 59.8667 808.664 59.6V42.768C808.664 42.5227 808.75 42.3093 808.921 42.128L812.121 38.928C812.302 38.7573 812.515 38.672 812.761 38.672H816.201C816.467 38.672 816.601 38.8053 816.601 39.072V42.8C816.601 43.0667 816.467 43.2 816.201 43.2H813.721V59.6C813.721 59.8667 813.587 60 813.321 60H809.065ZM807.673 50C807.406 50 807.273 49.8667 807.273 49.6V46.672C807.273 46.4053 807.406 46.272 807.673 46.272H816.201C816.467 46.272 816.601 46.4053 816.601 46.672V49.6C816.601 49.8667 816.467 50 816.201 50H807.673ZM823.483 60C823.237 60 823.024 59.9093 822.843 59.728L819.643 56.528C819.461 56.3573 819.371 56.144 819.371 55.888V46.512C819.371 46.256 819.461 46.0427 819.643 45.872L822.843 42.672C823.024 42.4907 823.237 42.4 823.483 42.4H828.331C828.587 42.4 828.8 42.4907 828.971 42.672L832.171 45.872C832.352 46.0427 832.443 46.256 832.443 46.512V55.888C832.443 56.144 832.352 56.3573 832.171 56.528L828.971 59.728C828.8 59.9093 828.587 60 828.331 60H823.483ZM825.355 56.272H826.475C826.816 56.272 827.051 56.2027 827.179 56.064C827.307 55.9253 827.371 55.68 827.371 55.328V47.072C827.371 46.72 827.307 46.4747 827.179 46.336C827.051 46.1973 826.816 46.128 826.475 46.128H825.355C825.003 46.128 824.763 46.1973 824.635 46.336C824.507 46.4747 824.443 46.72 824.443 47.072V55.328C824.443 55.68 824.507 55.9253 824.635 56.064C824.763 56.2027 825.003 56.272 825.355 56.272ZM836.57 60C836.303 60 836.17 59.8667 836.17 59.6V42.8C836.17 42.5333 836.303 42.4 836.57 42.4H839.002C839.205 42.4 839.381 42.4907 839.53 42.672L841.098 44.48L842.842 42.592C842.959 42.464 843.109 42.4 843.29 42.4H845.018C845.285 42.4 845.418 42.5333 845.418 42.8V46.24C845.418 46.4107 845.407 46.528 845.386 46.592C845.365 46.6453 845.306 46.704 845.21 46.768L841.242 49.696V59.6C841.242 59.8667 841.109 60 840.842 60H836.57ZM857.028 65.328C856.761 65.328 856.628 65.1947 856.628 64.928V62.432C856.628 62.2293 856.708 62.112 856.868 62.08L859.22 61.488L860.868 60.608C861.028 60.5227 861.108 60.3573 861.108 60.112V57.488L859.62 58.88C859.439 59.0613 859.225 59.152 858.98 59.152L856.26 59.248C856.015 59.248 855.801 59.1627 855.62 58.992L852.692 56.048C852.511 55.8773 852.42 55.664 852.42 55.408V42.8C852.42 42.5333 852.553 42.4 852.82 42.4H857.092C857.359 42.4 857.492 42.5333 857.492 42.8V54.848C857.492 55.2 857.556 55.4453 857.684 55.584C857.812 55.7227 858.047 55.792 858.388 55.792H860.42V42.8C860.42 42.5333 860.553 42.4 860.82 42.4H865.092C865.359 42.4 865.492 42.5333 865.492 42.8V62.032C865.492 62.352 865.401 62.5653 865.22 62.672L863.092 64.032L860.388 65.152C860.228 65.216 860.105 65.2587 860.02 65.28C859.945 65.312 859.823 65.328 859.652 65.328H857.028ZM873.233 60C872.987 60 872.774 59.9093 872.593 59.728L869.393 56.528C869.211 56.3573 869.121 56.144 869.121 55.888V46.512C869.121 46.256 869.211 46.0427 869.393 45.872L872.593 42.672C872.774 42.4907 872.987 42.4 873.233 42.4H878.081C878.337 42.4 878.55 42.4907 878.721 42.672L881.921 45.872C882.102 46.0427 882.193 46.256 882.193 46.512V55.888C882.193 56.144 882.102 56.3573 881.921 56.528L878.721 59.728C878.55 59.9093 878.337 60 878.081 60H873.233ZM875.105 56.272H876.225C876.566 56.272 876.801 56.2027 876.929 56.064C877.057 55.9253 877.121 55.68 877.121 55.328V47.072C877.121 46.72 877.057 46.4747 876.929 46.336C876.801 46.1973 876.566 46.128 876.225 46.128H875.105C874.753 46.128 874.513 46.1973 874.385 46.336C874.257 46.4747 874.193 46.72 874.193 47.072V55.328C874.193 55.68 874.257 55.9253 874.385 56.064C874.513 56.2027 874.753 56.272 875.105 56.272ZM890.032 60C889.776 60 889.563 59.9093 889.392 59.728L886.192 56.528C886.011 56.3573 885.92 56.144 885.92 55.888V42.8C885.92 42.5333 886.053 42.4 886.32 42.4H890.592C890.859 42.4 890.992 42.5333 890.992 42.8V55.248C890.992 55.7493 891.237 56 891.728 56H893.92V42.8C893.92 42.5333 894.053 42.4 894.32 42.4H898.592C898.859 42.4 898.992 42.5333 898.992 42.8V59.6C898.992 59.8667 898.859 60 898.592 60H890.032ZM902.493 59.872C902.226 59.872 902.093 59.728 902.093 59.44V54.352C902.093 54.064 902.226 53.92 902.493 53.92H907.613C907.879 53.92 908.013 54.064 908.013 54.352V59.44C908.013 59.728 907.879 59.872 907.613 59.872H902.493ZM911.361 45.28C911.073 45.28 910.929 45.136 910.929 44.848V42.608C910.929 42.3307 911.073 42.192 911.361 42.192H912.529C912.849 42.192 913.009 42.0587 913.009 41.792V41.312H910.961C910.695 41.312 910.561 41.168 910.561 40.88L910.593 36.832C910.593 36.544 910.732 36.4 911.009 36.4H916.081C916.348 36.4 916.481 36.544 916.481 36.832V41.728C916.481 42.9227 916.199 43.8133 915.633 44.4C915.068 44.9867 914.311 45.28 913.361 45.28H911.361ZM918.289 45.28C918.001 45.28 917.857 45.136 917.857 44.848V42.608C917.857 42.3307 918.001 42.192 918.289 42.192H919.457C919.777 42.192 919.937 42.0587 919.937 41.792V41.312H917.889C917.623 41.312 917.489 41.168 917.489 40.88L917.521 36.832C917.521 36.544 917.66 36.4 917.937 36.4H923.009C923.276 36.4 923.409 36.544 923.409 36.832V41.728C923.409 42.9227 923.127 43.8133 922.561 44.4C921.996 44.9867 921.239 45.28 920.289 45.28H918.289Z" fill="#FFF7F3"/>
<path d="M13.328 12.4C13.616 12.4 13.76 12.544 13.76 12.832V15.072C13.76 15.3493 13.616 15.488 13.328 15.488H12.16C11.84 15.488 11.68 15.6213 11.68 15.888V16.368H13.728C13.9947 16.368 14.128 16.512 14.128 16.8L14.096 20.848C14.096 21.136 13.9573 21.28 13.68 21.28H8.608C8.34133 21.28 8.208 21.136 8.208 20.848V15.952C8.208 14.7467 8.49067 13.856 9.056 13.28C9.632 12.6933 10.3893 12.4 11.328 12.4H13.328ZM6.4 12.4C6.688 12.4 6.832 12.544 6.832 12.832V15.072C6.832 15.3493 6.688 15.488 6.4 15.488H5.232C4.912 15.488 4.752 15.6213 4.752 15.888V16.368H6.8C7.06667 16.368 7.2 16.512 7.2 16.8L7.168 20.848C7.168 21.136 7.02933 21.28 6.752 21.28H1.68C1.41333 21.28 1.28 21.136 1.28 20.848V15.952C1.28 14.7467 1.56267 13.856 2.128 13.28C2.704 12.6933 3.46133 12.4 4.4 12.4H6.4ZM17.7263 36C17.4596 36 17.3263 35.8667 17.3263 35.6V15.072C17.3263 14.8053 17.4596 14.672 17.7263 14.672H22.2543C22.5209 14.672 22.6543 14.8053 22.6543 15.072V35.6C22.6543 35.8667 22.5209 36 22.2543 36H17.7263ZM30.1625 36C29.9172 36 29.7038 35.9093 29.5225 35.728L26.8505 33.072C26.6798 32.8907 26.5945 32.6773 26.5945 32.432V22.128H25.9225C25.6558 22.128 25.5225 21.9947 25.5225 21.728V18.8C25.5225 18.5333 25.6558 18.4 25.9225 18.4H26.5945V16.4C26.5945 16.1333 26.7278 16 26.9945 16H31.2505C31.5172 16 31.6505 16.1333 31.6505 16.4V18.4H33.2025C33.4692 18.4 33.6025 18.5333 33.6025 18.8V21.728C33.6025 21.9947 33.4692 22.128 33.2025 22.128H31.6505V30.672C31.6505 30.8747 31.7145 31.04 31.8425 31.168L33.4105 32.752C33.5172 32.848 33.5705 33.008 33.5705 33.232V35.6C33.5705 35.8667 33.4372 36 33.1705 36H30.1625ZM36.6425 21.28C36.3545 21.28 36.2105 21.136 36.2105 20.848V18.608C36.2105 18.3307 36.3545 18.192 36.6425 18.192H37.8105C38.1305 18.192 38.2905 18.0587 38.2905 17.792V17.312H36.2425C35.9758 17.312 35.8425 17.168 35.8425 16.88L35.8745 12.832C35.8745 12.544 36.0132 12.4 36.2905 12.4H41.3625C41.6292 12.4 41.7625 12.544 41.7625 12.832V17.728C41.7625 18.9227 41.4798 19.8133 40.9145 20.4C40.3492 20.9867 39.5918 21.28 38.6425 21.28H36.6425ZM44.8553 36C44.5886 36 44.4553 35.8667 44.4553 35.6V33.008C44.4553 32.7627 44.5353 32.6027 44.6953 32.528L47.9593 30.592V28.928L44.6953 27.168C44.5353 27.072 44.4553 26.9067 44.4553 26.672V21.568C44.4553 21.4507 44.4713 21.3547 44.5033 21.28C44.5459 21.2053 44.6046 21.1413 44.6793 21.088L48.0873 18.592C48.2046 18.5067 48.3006 18.4533 48.3753 18.432C48.4499 18.4107 48.5246 18.4 48.5993 18.4H52.4873C52.7539 18.4 52.8873 18.5333 52.8873 18.8V21.312C52.8873 21.4933 52.8713 21.616 52.8393 21.68C52.8179 21.744 52.7646 21.7973 52.6793 21.84L49.6553 23.472V25.328L52.8873 26.928C53.0686 27.0027 53.1593 27.1627 53.1593 27.408V32.32C53.1593 32.5867 53.0686 32.8 52.8873 32.96L49.4793 35.792C49.3086 35.9307 49.0953 36 48.8393 36H44.8553ZM62.0075 36C61.7408 36 61.6075 35.8667 61.6075 35.6V18.8C61.6075 18.5333 61.7408 18.4 62.0075 18.4H70.5675C70.8128 18.4 71.0262 18.4907 71.2075 18.672L74.4075 21.872C74.5888 22.0427 74.6795 22.256 74.6795 22.512V35.6C74.6795 35.8667 74.5462 36 74.2795 36H70.0075C69.7408 36 69.6075 35.8667 69.6075 35.6V23.152C69.6075 22.6507 69.3568 22.4 68.8555 22.4H66.6795V35.6C66.6795 35.8667 66.5462 36 66.2795 36H62.0075ZM82.42 36C82.1747 36 81.9613 35.9093 81.78 35.728L78.58 32.528C78.3987 32.3573 78.308 32.144 78.308 31.888V22.512C78.308 22.256 78.3987 22.0427 78.58 21.872L81.78 18.672C81.9613 18.4907 82.1747 18.4 82.42 18.4H87.268C87.524 18.4 87.7373 18.4907 87.908 18.672L91.108 21.872C91.2893 22.0427 91.38 22.256 91.38 22.512V31.888C91.38 32.144 91.2893 32.3573 91.108 32.528L87.908 35.728C87.7373 35.9093 87.524 36 87.268 36H82.42ZM84.292 32.272H85.412C85.7533 32.272 85.988 32.2027 86.116 32.064C86.244 31.9253 86.308 31.68 86.308 31.328V23.072C86.308 22.72 86.244 22.4747 86.116 22.336C85.988 22.1973 85.7533 22.128 85.412 22.128H84.292C83.94 22.128 83.7 22.1973 83.572 22.336C83.444 22.4747 83.38 22.72 83.38 23.072V31.328C83.38 31.68 83.444 31.9253 83.572 32.064C83.7 32.2027 83.94 32.272 84.292 32.272ZM98.7875 36C98.5422 36 98.3288 35.9093 98.1475 35.728L95.4755 33.072C95.3048 32.8907 95.2195 32.6773 95.2195 32.432V22.128H94.5475C94.2808 22.128 94.1475 21.9947 94.1475 21.728V18.8C94.1475 18.5333 94.2808 18.4 94.5475 18.4H95.2195V16.4C95.2195 16.1333 95.3528 16 95.6195 16H99.8755C100.142 16 100.276 16.1333 100.276 16.4V18.4H101.828C102.094 18.4 102.227 18.5333 102.227 18.8V21.728C102.227 21.9947 102.094 22.128 101.828 22.128H100.276V30.672C100.276 30.8747 100.34 31.04 100.468 31.168L102.036 32.752C102.142 32.848 102.196 33.008 102.196 33.232V35.6C102.196 35.8667 102.062 36 101.796 36H98.7875ZM110.601 36C110.335 36 110.201 35.8667 110.201 35.6V18.8C110.201 18.5333 110.335 18.4 110.601 18.4H117.881C118.127 18.4 118.34 18.4907 118.521 18.672L120.489 20.64H121.081L123.049 18.672C123.231 18.4907 123.444 18.4 123.689 18.4H127.161C127.407 18.4 127.62 18.4907 127.801 18.672L131.001 21.872C131.183 22.0427 131.273 22.256 131.273 22.512V35.6C131.273 35.8667 131.14 36 130.873 36H126.601C126.335 36 126.201 35.8667 126.201 35.6V23.072C126.201 22.624 125.977 22.4 125.529 22.4H123.273V35.6C123.273 35.8667 123.14 36 122.873 36H118.601C118.335 36 118.201 35.8667 118.201 35.6V23.072C118.201 22.624 117.977 22.4 117.529 22.4H115.273V35.6C115.273 35.8667 115.14 36 114.873 36H110.601ZM139.126 36C138.87 36 138.656 35.9093 138.486 35.728L135.286 32.528C135.104 32.3573 135.014 32.144 135.014 31.888V18.8C135.014 18.5333 135.147 18.4 135.414 18.4H139.686C139.952 18.4 140.086 18.5333 140.086 18.8V31.248C140.086 31.7493 140.331 32 140.822 32H143.014V18.8C143.014 18.5333 143.147 18.4 143.414 18.4H147.686C147.952 18.4 148.086 18.5333 148.086 18.8V35.6C148.086 35.8667 147.952 36 147.686 36H139.126ZM157.026 36C156.813 36 156.6 35.9307 156.386 35.792L153.778 34.032L151.986 31.152C151.912 31.0133 151.848 30.9227 151.794 30.88C151.741 30.8267 151.714 30.72 151.714 30.56V23.84C151.714 23.68 151.736 23.5733 151.778 23.52C151.821 23.4667 151.89 23.3707 151.986 23.232L153.618 20.512L156.386 18.608C156.482 18.544 156.578 18.496 156.674 18.464C156.77 18.4213 156.888 18.4 157.026 18.4H159.794C160.061 18.4 160.194 18.5333 160.194 18.8V21.792C160.194 21.8773 160.184 21.968 160.162 22.064C160.152 22.16 160.104 22.2347 160.018 22.288L158.194 23.2L156.786 25.04V29.312L158.274 31.008L160.018 32.112C160.125 32.176 160.178 32.256 160.178 32.352C160.189 32.4373 160.194 32.5227 160.194 32.608V35.6C160.194 35.8667 160.061 36 159.794 36H157.026ZM163.789 36C163.522 36 163.389 35.8667 163.389 35.6V15.072C163.389 14.8053 163.522 14.672 163.789 14.672H168.061C168.327 14.672 168.461 14.8053 168.461 15.072V18.4H172.349C172.594 18.4 172.807 18.4907 172.989 18.672L176.189 21.872C176.37 22.0427 176.461 22.256 176.461 22.512V35.6C176.461 35.8667 176.327 36 176.061 36H171.789C171.522 36 171.389 35.8667 171.389 35.6V23.072C171.389 22.624 171.165 22.4 170.717 22.4H168.461V35.6C168.461 35.8667 168.327 36 168.061 36H163.789ZM185.695 36C185.428 36 185.295 35.8667 185.295 35.6V15.072C185.295 14.8053 185.428 14.672 185.695 14.672H189.967C190.234 14.672 190.367 14.8053 190.367 15.072V19.472L191.167 18.672C191.338 18.4907 191.551 18.4 191.807 18.4H194.255C194.5 18.4 194.714 18.4907 194.895 18.672L198.095 21.872C198.276 22.0427 198.367 22.256 198.367 22.512V31.888C198.367 32.144 198.276 32.3573 198.095 32.528L194.895 35.728C194.714 35.9093 194.5 36 194.255 36H185.695ZM190.367 32.272H192.383C192.735 32.272 192.975 32.2027 193.103 32.064C193.231 31.9253 193.295 31.68 193.295 31.328V23.072C193.295 22.72 193.231 22.4747 193.103 22.336C192.975 22.1973 192.735 22.128 192.383 22.128H191.263C190.922 22.128 190.687 22.1973 190.559 22.336C190.431 22.4747 190.367 22.72 190.367 23.072V32.272ZM206.22 36C205.964 36 205.75 35.9093 205.58 35.728L202.38 32.528C202.198 32.3573 202.108 32.144 202.108 31.888V18.8C202.108 18.5333 202.241 18.4 202.508 18.4H206.78C207.046 18.4 207.18 18.5333 207.18 18.8V31.248C207.18 31.7493 207.425 32 207.916 32H210.108V18.8C210.108 18.5333 210.241 18.4 210.508 18.4H214.78C215.046 18.4 215.18 18.5333 215.18 18.8V35.6C215.18 35.8667 215.046 36 214.78 36H206.22ZM222.6 36C222.355 36 222.141 35.9093 221.96 35.728L219.288 33.072C219.117 32.8907 219.032 32.6773 219.032 32.432V22.128H218.36C218.093 22.128 217.96 21.9947 217.96 21.728V18.8C217.96 18.5333 218.093 18.4 218.36 18.4H219.032V16.4C219.032 16.1333 219.165 16 219.432 16H223.688C223.955 16 224.088 16.1333 224.088 16.4V18.4H225.64C225.907 18.4 226.04 18.5333 226.04 18.8V21.728C226.04 21.9947 225.907 22.128 225.64 22.128H224.088V30.672C224.088 30.8747 224.152 31.04 224.28 31.168L225.848 32.752C225.955 32.848 226.008 33.008 226.008 33.232V35.6C226.008 35.8667 225.875 36 225.608 36H222.6ZM51.1781 84C50.9328 84 50.7195 83.9093 50.5381 83.728L47.8661 81.072C47.6955 80.8907 47.6101 80.6773 47.6101 80.432V70.128H46.9381C46.6715 70.128 46.5381 69.9947 46.5381 69.728V66.8C46.5381 66.5333 46.6715 66.4 46.9381 66.4H47.6101V64.4C47.6101 64.1333 47.7435 64 48.0101 64H52.2661C52.5328 64 52.6661 64.1333 52.6661 64.4V66.4H54.2181C54.4848 66.4 54.6181 66.5333 54.6181 66.8V69.728C54.6181 69.9947 54.4848 70.128 54.2181 70.128H52.6661V78.672C52.6661 78.8747 52.7301 79.04 52.8581 79.168L54.4261 80.752C54.5328 80.848 54.5861 81.008 54.5861 81.232V83.6C54.5861 83.8667 54.4528 84 54.1861 84H51.1781ZM57.8981 84C57.6315 84 57.4981 83.8667 57.4981 83.6V63.072C57.4981 62.8053 57.6315 62.672 57.8981 62.672H62.1701C62.4368 62.672 62.5701 62.8053 62.5701 63.072V66.4H66.4581C66.7035 66.4 66.9168 66.4907 67.0981 66.672L70.2981 69.872C70.4795 70.0427 70.5701 70.256 70.5701 70.512V83.6C70.5701 83.8667 70.4368 84 70.1701 84H65.8981C65.6315 84 65.4981 83.8667 65.4981 83.6V71.072C65.4981 70.624 65.2741 70.4 64.8261 70.4H62.5701V83.6C62.5701 83.8667 62.4368 84 62.1701 84H57.8981ZM78.3106 84C78.0653 84 77.852 83.9093 77.6706 83.728L74.4706 80.528C74.2893 80.3573 74.1986 80.144 74.1986 79.888V70.512C74.1986 70.256 74.2893 70.0427 74.4706 69.872L77.6706 66.672C77.852 66.4907 78.0653 66.4 78.3106 66.4H86.8706C87.1373 66.4 87.2706 66.5333 87.2706 66.8V83.6C87.2706 83.8667 87.1373 84 86.8706 84H83.5426C83.404 84 83.2973 83.9733 83.2226 83.92C83.1586 83.8667 83.084 83.8027 82.9986 83.728L82.1986 82.928L81.3986 83.728C81.228 83.9093 81.0146 84 80.7586 84H78.3106ZM80.1826 80.272H81.3026C81.644 80.272 81.8786 80.2027 82.0066 80.064C82.1346 79.9253 82.1986 79.68 82.1986 79.328V70.128H80.1826C79.8306 70.128 79.5906 70.1973 79.4626 70.336C79.3346 70.4747 79.2706 70.72 79.2706 71.072V79.328C79.2706 79.68 79.3346 79.9253 79.4626 80.064C79.5906 80.2027 79.8306 80.272 80.1826 80.272ZM91.3981 84C91.1315 84 90.9981 83.8667 90.9981 83.6V66.8C90.9981 66.5333 91.1315 66.4 91.3981 66.4H99.9581C100.203 66.4 100.417 66.4907 100.598 66.672L103.798 69.872C103.979 70.0427 104.07 70.256 104.07 70.512V83.6C104.07 83.8667 103.937 84 103.67 84H99.3981C99.1315 84 98.9981 83.8667 98.9981 83.6V71.152C98.9981 70.6507 98.7475 70.4 98.2461 70.4H96.0701V83.6C96.0701 83.8667 95.9368 84 95.6701 84H91.3981ZM116.691 84C116.552 84 116.44 83.9787 116.355 83.936C116.28 83.8933 116.232 83.8347 116.211 83.76L114.371 76.512H112.883V72.672H114.371L116.211 66.672C116.232 66.5867 116.28 66.528 116.355 66.496C116.44 66.4533 116.552 66.432 116.691 66.432H120.739C121.005 66.432 121.139 66.5653 121.139 66.832V68.528C121.139 68.6773 121.128 68.7947 121.107 68.88C121.085 68.9653 121.053 69.056 121.011 69.152L118.643 74.608V75.152L121.139 81.28C121.192 81.3973 121.229 81.504 121.251 81.6C121.272 81.6853 121.283 81.7813 121.283 81.888V83.6C121.283 83.8667 121.149 84 120.883 84H116.691ZM108.211 84C107.944 84 107.811 83.8667 107.811 83.6V63.072C107.811 62.8053 107.944 62.672 108.211 62.672H112.483C112.749 62.672 112.883 62.8053 112.883 63.072V83.6C112.883 83.8667 112.749 84 112.483 84H108.211ZM124.058 84C123.792 84 123.658 83.8667 123.658 83.6V81.008C123.658 80.7627 123.738 80.6027 123.898 80.528L127.162 78.592V76.928L123.898 75.168C123.738 75.072 123.658 74.9067 123.658 74.672V69.568C123.658 69.4507 123.674 69.3547 123.706 69.28C123.749 69.2053 123.808 69.1413 123.882 69.088L127.29 66.592C127.408 66.5067 127.504 66.4533 127.578 66.432C127.653 66.4107 127.728 66.4 127.802 66.4H131.69C131.957 66.4 132.09 66.5333 132.09 66.8V69.312C132.09 69.4933 132.074 69.616 132.042 69.68C132.021 69.744 131.968 69.7973 131.882 69.84L128.858 71.472V73.328L132.09 74.928C132.272 75.0027 132.362 75.1627 132.362 75.408V80.32C132.362 80.5867 132.272 80.8 132.09 80.96L128.682 83.792C128.512 83.9307 128.298 84 128.042 84H124.058ZM146.443 79.072C146.251 79.072 146.096 79.072 145.979 79.072C145.872 79.0613 145.739 78.9867 145.579 78.848L139.899 74.24C139.739 74.1013 139.643 74.0053 139.611 73.952C139.579 73.888 139.563 73.7707 139.563 73.6V73.072C139.563 72.8907 139.579 72.7733 139.611 72.72C139.643 72.656 139.739 72.56 139.899 72.432L145.579 67.808C145.739 67.68 145.872 67.616 145.979 67.616C146.096 67.6053 146.251 67.6 146.443 67.6H147.691C148.064 67.6 148.251 67.7333 148.251 68V70.848C148.251 70.944 148.24 71.04 148.219 71.136C148.197 71.232 148.117 71.3067 147.979 71.36L144.363 72.768V73.888L147.979 75.312C148.117 75.3547 148.197 75.4293 148.219 75.536C148.24 75.632 148.251 75.7227 148.251 75.808V78.672C148.251 78.9387 148.064 79.072 147.691 79.072H146.443ZM152.054 84C151.788 84 151.654 83.8667 151.654 83.6V80.4C151.654 80.1333 151.788 80 152.054 80H158.774V75.2H153.382C153.116 75.2 152.982 75.0667 152.982 74.8V71.6C152.982 71.3333 153.116 71.2 153.382 71.2H158.774V66.928H152.054C151.788 66.928 151.654 66.7947 151.654 66.528V63.072C151.654 62.8053 151.788 62.672 152.054 62.672H160.006C160.252 62.672 160.465 62.7573 160.646 62.928L163.846 66.128C164.017 66.3093 164.102 66.5227 164.102 66.768V69.968C164.102 70.192 164.049 70.352 163.942 70.448L161.862 72.832V73.84L163.942 76.208C164.049 76.3147 164.102 76.4747 164.102 76.688V79.888C164.102 80.144 164.017 80.3573 163.846 80.528L160.646 83.728C160.465 83.9093 160.252 84 160.006 84H152.054ZM168.096 69.28C167.808 69.28 167.664 69.136 167.664 68.848V66.608C167.664 66.3307 167.808 66.192 168.096 66.192H169.264C169.584 66.192 169.744 66.0587 169.744 65.792V65.312H167.696C167.429 65.312 167.296 65.168 167.296 64.88L167.328 60.832C167.328 60.544 167.466 60.4 167.744 60.4H172.816C173.082 60.4 173.216 60.544 173.216 60.832V65.728C173.216 66.9227 172.933 67.8133 172.368 68.4C171.802 68.9867 171.045 69.28 170.096 69.28H168.096ZM175.024 69.28C174.736 69.28 174.592 69.136 174.592 68.848V66.608C174.592 66.3307 174.736 66.192 175.024 66.192H176.192C176.512 66.192 176.672 66.0587 176.672 65.792V65.312H174.624C174.357 65.312 174.224 65.168 174.224 64.88L174.256 60.832C174.256 60.544 174.394 60.4 174.672 60.4H179.744C180.01 60.4 180.144 60.544 180.144 60.832V65.728C180.144 66.9227 179.861 67.8133 179.296 68.4C178.73 68.9867 177.973 69.28 177.024 69.28H175.024Z" fill="#FFF7F3"/>
<path d="M520.615 201.347C520.151 201.347 519.975 201.131 520.087 200.699L529.495 161.891C529.575 161.523 529.791 161.339 530.143 161.339H536.263C536.711 161.339 536.879 161.555 536.767 161.987L527.383 200.771C527.287 201.155 527.071 201.347 526.735 201.347H520.615ZM546.637 164.267L539.125 161.147C538.789 161.019 538.693 160.747 538.837 160.331L540.037 157.259C540.213 156.827 540.485 156.707 540.853 156.899L548.125 161.339C548.493 161.563 548.589 161.843 548.413 162.179L547.405 163.979C547.229 164.299 546.973 164.395 546.637 164.267ZM551.085 204.539C550.685 204.539 550.485 204.339 550.485 203.939V198.347C550.485 197.947 550.685 197.747 551.085 197.747H554.325L559.965 167.507C560.045 167.043 560.245 166.643 560.565 166.307L565.029 161.747C565.301 161.475 565.621 161.339 565.989 161.339H569.877C570.277 161.339 570.477 161.539 570.477 161.939V167.531C570.477 167.931 570.277 168.131 569.877 168.131H566.637L560.997 198.371C560.917 198.835 560.717 199.235 560.397 199.571L555.909 204.131C555.653 204.403 555.333 204.539 554.949 204.539H551.085ZM573.07 179.411C572.67 179.411 572.47 179.211 572.47 178.811V174.419C572.47 174.019 572.67 173.819 573.07 173.819H586.894C587.294 173.819 587.494 174.019 587.494 174.419V178.811C587.494 179.211 587.294 179.411 586.894 179.411H573.07ZM573.07 188.867C572.67 188.867 572.47 188.667 572.47 188.267V183.851C572.47 183.451 572.67 183.251 573.07 183.251H586.894C587.294 183.251 587.494 183.451 587.494 183.851V188.267C587.494 188.667 587.294 188.867 586.894 188.867H573.07ZM608.636 188.123H611.9V189.227C611.9 190.955 611.5 192.507 610.7 193.883C609.932 195.227 608.844 196.395 607.436 197.387C606.028 198.379 604.396 199.195 602.54 199.835C600.716 200.507 598.732 201.003 596.588 201.323L595.148 198.395C597.068 198.139 598.844 197.755 600.476 197.243C602.14 196.731 603.564 196.091 604.748 195.323C605.964 194.555 606.908 193.659 607.58 192.635C608.284 191.611 608.636 190.475 608.636 189.227V188.123ZM609.212 188.123H612.476V189.227C612.476 190.475 612.812 191.611 613.484 192.635C614.156 193.659 615.1 194.555 616.316 195.323C617.532 196.091 618.956 196.731 620.588 197.243C622.252 197.755 624.028 198.139 625.916 198.395L624.524 201.323C622.412 201.003 620.428 200.507 618.572 199.835C616.716 199.195 615.084 198.379 613.676 197.387C612.268 196.395 611.164 195.227 610.364 193.883C609.596 192.507 609.212 190.955 609.212 189.227V188.123ZM596.828 187.163H624.428V190.091H596.828V187.163ZM634.288 179.411C633.888 179.411 633.688 179.211 633.688 178.811V174.419C633.688 174.019 633.888 173.819 634.288 173.819H648.112C648.512 173.819 648.712 174.019 648.712 174.419V178.811C648.712 179.211 648.512 179.411 648.112 179.411H634.288ZM634.288 188.867C633.888 188.867 633.688 188.667 633.688 188.267V183.851C633.688 183.451 633.888 183.251 634.288 183.251H648.112C648.512 183.251 648.712 183.451 648.712 183.851V188.267C648.712 188.667 648.512 188.867 648.112 188.867H634.288ZM666.984 161.939C667.416 161.939 667.632 162.155 667.632 162.587V165.947C667.632 166.363 667.416 166.571 666.984 166.571H665.232C664.752 166.571 664.512 166.771 664.512 167.171V167.891H667.584C667.984 167.891 668.184 168.107 668.184 168.539L668.136 174.611C668.136 175.043 667.928 175.259 667.512 175.259H659.904C659.504 175.259 659.304 175.043 659.304 174.611V167.267C659.304 165.459 659.728 164.123 660.576 163.259C661.44 162.379 662.576 161.939 663.984 161.939H666.984ZM694.935 201.347H688.815C688.479 201.347 688.263 201.155 688.167 200.771L678.783 161.987C678.671 161.555 678.839 161.339 679.287 161.339H685.407C685.759 161.339 685.975 161.523 686.055 161.891L695.463 200.699C695.591 201.131 695.415 201.347 694.935 201.347Z" fill="#FFF7F3"/>
<mask id="path-4-outside-1_141_9" maskUnits="userSpaceOnUse" x="641.476" y="115" width="50" height="42" fill="black">
<rect fill="white" x="641.476" y="115" width="50" height="42"/>
<path d="M674.142 155C671.166 150.2 665.646 147.656 659.934 147.656C656.814 147.656 653.79 148.568 650.958 150.152L649.278 147.08C651.246 146.12 653.646 145.352 655.854 145.208V145.064C648.942 142.904 643.278 138.056 643.278 128.888C643.278 121.592 646.59 116.792 652.782 116.792C656.334 116.792 658.542 118.52 659.55 121.352H659.79C660.846 118.52 663.198 116.792 666.75 116.792C670.494 116.792 672.702 118.52 673.71 121.352H673.95C675.006 118.52 677.358 116.792 680.766 116.792C686.958 116.792 690.27 122.024 690.27 129.752C690.27 133.832 689.406 137.288 687.63 140.648L683.982 139.304C685.47 136.184 685.95 133.4 685.95 129.704C685.95 123.512 683.886 120.296 680.43 120.296C677.55 120.296 675.87 122.552 675.87 126.536V134.264H671.838V126.536C671.838 122.936 670.398 120.296 666.75 120.296C663.39 120.296 661.71 122.552 661.71 126.536V134.264H657.678V126.536C657.678 122.936 656.238 120.296 653.07 120.296C649.662 120.296 647.598 123.08 647.598 128.888C647.598 137.816 653.982 141.896 660.846 143.384C667.326 144.776 674.43 147.32 677.358 153.272L674.142 155Z"/>
</mask>
<path d="M674.142 155C671.166 150.2 665.646 147.656 659.934 147.656C656.814 147.656 653.79 148.568 650.958 150.152L649.278 147.08C651.246 146.12 653.646 145.352 655.854 145.208V145.064C648.942 142.904 643.278 138.056 643.278 128.888C643.278 121.592 646.59 116.792 652.782 116.792C656.334 116.792 658.542 118.52 659.55 121.352H659.79C660.846 118.52 663.198 116.792 666.75 116.792C670.494 116.792 672.702 118.52 673.71 121.352H673.95C675.006 118.52 677.358 116.792 680.766 116.792C686.958 116.792 690.27 122.024 690.27 129.752C690.27 133.832 689.406 137.288 687.63 140.648L683.982 139.304C685.47 136.184 685.95 133.4 685.95 129.704C685.95 123.512 683.886 120.296 680.43 120.296C677.55 120.296 675.87 122.552 675.87 126.536V134.264H671.838V126.536C671.838 122.936 670.398 120.296 666.75 120.296C663.39 120.296 661.71 122.552 661.71 126.536V134.264H657.678V126.536C657.678 122.936 656.238 120.296 653.07 120.296C649.662 120.296 647.598 123.08 647.598 128.888C647.598 137.816 653.982 141.896 660.846 143.384C667.326 144.776 674.43 147.32 677.358 153.272L674.142 155Z" fill="#FFF7F3"/>
<path d="M674.142 155L673.292 155.527L673.787 156.326L674.615 155.881L674.142 155ZM650.958 150.152L650.081 150.632L650.565 151.518L651.446 151.025L650.958 150.152ZM649.278 147.08L648.84 146.181L647.898 146.641L648.401 147.56L649.278 147.08ZM655.854 145.208L655.919 146.206L656.854 146.145V145.208H655.854ZM655.854 145.064H656.854V144.329L656.152 144.11L655.854 145.064ZM659.55 121.352L658.608 121.687L658.844 122.352H659.55V121.352ZM659.79 121.352V122.352H660.484L660.727 121.701L659.79 121.352ZM673.71 121.352L672.768 121.687L673.004 122.352H673.71V121.352ZM673.95 121.352V122.352H674.644L674.887 121.701L673.95 121.352ZM687.63 140.648L687.284 141.586L688.105 141.889L688.514 141.115L687.63 140.648ZM683.982 139.304L683.079 138.874L682.607 139.863L683.636 140.242L683.982 139.304ZM675.87 134.264V135.264H676.87V134.264H675.87ZM671.838 134.264H670.838V135.264H671.838V134.264ZM661.71 134.264V135.264H662.71V134.264H661.71ZM657.678 134.264H656.678V135.264H657.678V134.264ZM660.846 143.384L660.634 144.361L660.636 144.362L660.846 143.384ZM677.358 153.272L677.831 154.153L678.681 153.696L678.255 152.831L677.358 153.272ZM674.992 154.473C671.8 149.325 665.923 146.656 659.934 146.656V148.656C665.368 148.656 670.532 151.075 673.292 155.527L674.992 154.473ZM659.934 146.656C656.614 146.656 653.424 147.627 650.47 149.279L651.446 151.025C654.156 149.509 657.014 148.656 659.934 148.656V146.656ZM651.835 149.672L650.155 146.6L648.401 147.56L650.081 150.632L651.835 149.672ZM649.716 147.979C651.602 147.059 653.874 146.339 655.919 146.206L655.789 144.21C653.418 144.365 650.89 145.181 648.84 146.181L649.716 147.979ZM656.854 145.208V145.064H654.854V145.208H656.854ZM656.152 144.11C652.818 143.068 649.854 141.398 647.729 138.949C645.618 136.515 644.278 133.249 644.278 128.888H642.278C642.278 133.695 643.77 137.437 646.219 140.259C648.653 143.066 651.978 144.9 655.556 146.018L656.152 144.11ZM644.278 128.888C644.278 125.374 645.078 122.59 646.505 120.708C647.904 118.864 649.975 117.792 652.782 117.792V115.792C649.397 115.792 646.716 117.12 644.911 119.5C643.134 121.842 642.278 125.106 642.278 128.888H644.278ZM652.782 117.792C654.393 117.792 655.622 118.182 656.546 118.829C657.47 119.476 658.161 120.432 658.608 121.687L660.492 121.017C659.931 119.44 659.014 118.116 657.694 117.191C656.374 116.266 654.723 115.792 652.782 115.792V117.792ZM659.55 122.352H659.79V120.352H659.55V122.352ZM660.727 121.701C661.191 120.456 661.923 119.494 662.894 118.839C663.866 118.182 665.139 117.792 666.75 117.792V115.792C664.809 115.792 663.13 116.266 661.774 117.181C660.417 118.098 659.444 119.416 658.853 121.003L660.727 121.701ZM666.75 117.792C668.467 117.792 669.746 118.187 670.69 118.835C671.632 119.481 672.321 120.433 672.768 121.687L674.652 121.017C674.091 119.439 673.172 118.111 671.822 117.185C670.474 116.261 668.777 115.792 666.75 115.792V117.792ZM673.71 122.352H673.95V120.352H673.71V122.352ZM674.887 121.701C675.352 120.455 676.085 119.491 677.042 118.835C677.999 118.178 679.235 117.792 680.766 117.792V115.792C678.889 115.792 677.245 116.27 675.91 117.185C674.575 118.101 673.604 119.417 673.013 121.003L674.887 121.701ZM680.766 117.792C683.538 117.792 685.609 118.943 687.022 120.95C688.466 122.999 689.27 126.012 689.27 129.752H691.27C691.27 125.764 690.418 122.297 688.657 119.798C686.867 117.257 684.186 115.792 680.766 115.792V117.792ZM689.27 129.752C689.27 133.674 688.443 136.969 686.746 140.181L688.514 141.115C690.369 137.607 691.27 133.99 691.27 129.752H689.27ZM687.976 139.71L684.328 138.366L683.636 140.242L687.284 141.586L687.976 139.71ZM684.885 139.734C686.452 136.448 686.95 133.509 686.95 129.704H684.95C684.95 133.291 684.488 135.92 683.079 138.874L684.885 139.734ZM686.95 129.704C686.95 126.523 686.424 123.962 685.343 122.163C684.227 120.304 682.532 119.296 680.43 119.296V121.296C681.784 121.296 682.849 121.896 683.629 123.193C684.444 124.55 684.95 126.693 684.95 129.704H686.95ZM680.43 119.296C678.696 119.296 677.246 119.993 676.264 121.33C675.313 122.625 674.87 124.423 674.87 126.536H676.87C676.87 124.665 677.267 123.343 677.876 122.514C678.454 121.727 679.284 121.296 680.43 121.296V119.296ZM674.87 126.536V134.264H676.87V126.536H674.87ZM675.87 133.264H671.838V135.264H675.87V133.264ZM672.838 134.264V126.536H670.838V134.264H672.838ZM672.838 126.536C672.838 124.627 672.46 122.824 671.468 121.474C670.437 120.072 668.846 119.296 666.75 119.296V121.296C668.302 121.296 669.255 121.84 669.856 122.658C670.496 123.528 670.838 124.845 670.838 126.536H672.838ZM666.75 119.296C664.827 119.296 663.251 119.954 662.186 121.302C661.152 122.609 660.71 124.426 660.71 126.536H662.71C662.71 124.662 663.108 123.359 663.754 122.542C664.369 121.766 665.313 121.296 666.75 121.296V119.296ZM660.71 126.536V134.264H662.71V126.536H660.71ZM661.71 133.264H657.678V135.264H661.71V133.264ZM658.678 134.264V126.536H656.678V134.264H658.678ZM658.678 126.536C658.678 124.625 658.299 122.84 657.388 121.503C656.443 120.114 654.978 119.296 653.07 119.296V121.296C654.33 121.296 655.169 121.798 655.735 122.629C656.337 123.512 656.678 124.847 656.678 126.536H658.678ZM653.07 119.296C651.048 119.296 649.359 120.146 648.222 121.862C647.126 123.517 646.598 125.892 646.598 128.888H648.598C648.598 126.076 649.102 124.155 649.89 122.966C650.637 121.838 651.684 121.296 653.07 121.296V119.296ZM646.598 128.888C646.598 133.62 648.302 137.137 650.961 139.652C653.592 142.142 657.095 143.594 660.634 144.361L661.058 142.407C657.733 141.686 654.612 140.354 652.335 138.2C650.086 136.071 648.598 133.084 648.598 128.888H646.598ZM660.636 144.362C667.121 145.755 673.762 148.228 676.461 153.713L678.255 152.831C675.098 146.412 667.531 143.797 661.056 142.406L660.636 144.362ZM676.885 152.391L673.669 154.119L674.615 155.881L677.831 154.153L676.885 152.391Z" fill="#FFF7F3" mask="url(#path-4-outside-1_141_9)"/>
<path d="M612.26 227.144C611.876 227.144 611.567 227.144 611.332 227.144C611.119 227.123 610.852 226.973 610.532 226.696L599.172 217.48C598.852 217.203 598.66 217.011 598.596 216.904C598.532 216.776 598.5 216.541 598.5 216.2V215.144C598.5 214.781 598.532 214.547 598.596 214.44C598.66 214.312 598.852 214.12 599.172 213.864L610.532 204.616C610.852 204.36 611.119 204.232 611.332 204.232C611.567 204.211 611.876 204.2 612.26 204.2H614.756C615.503 204.2 615.876 204.467 615.876 205V210.696C615.876 210.888 615.855 211.08 615.812 211.272C615.77 211.464 615.61 211.613 615.332 211.72L608.1 214.536V216.776L615.332 219.624C615.61 219.709 615.77 219.859 615.812 220.072C615.855 220.264 615.876 220.445 615.876 220.616V226.344C615.876 226.877 615.503 227.144 614.756 227.144H612.26Z" fill="#FFF7F3"/>
<path d="M513.26 227.144C512.876 227.144 512.567 227.144 512.332 227.144C512.119 227.123 511.852 226.973 511.532 226.696L500.172 217.48C499.852 217.203 499.66 217.011 499.596 216.904C499.532 216.776 499.5 216.541 499.5 216.2V215.144C499.5 214.781 499.532 214.547 499.596 214.44C499.66 214.312 499.852 214.12 500.172 213.864L511.532 204.616C511.852 204.36 512.119 204.232 512.332 204.232C512.567 204.211 512.876 204.2 513.26 204.2H515.756C516.503 204.2 516.876 204.467 516.876 205V210.696C516.876 210.888 516.855 211.08 516.812 211.272C516.77 211.464 516.61 211.613 516.332 211.72L509.1 214.536V216.776L516.332 219.624C516.61 219.709 516.77 219.859 516.812 220.072C516.855 220.264 516.876 220.445 516.876 220.616V226.344C516.876 226.877 516.503 227.144 515.756 227.144H513.26Z" fill="#FFF7F3"/>
<path d="M523.88 243.06V207.42H528.47C528.47 211.74 529.25 215.79 530.81 219.57C532.43 223.29 534.65 226.59 537.47 229.47C540.35 232.29 543.65 234.51 547.37 236.13C551.15 237.69 555.2 238.47 559.52 238.47C563.84 238.47 567.86 237.69 571.58 236.13C575.36 234.51 578.66 232.29 581.48 229.47C584.36 226.59 586.58 223.29 588.14 219.57C589.76 215.79 590.57 211.74 590.57 207.42H595.16V243.06H523.88ZM559.52 233.43C555.92 233.43 552.53 232.77 549.35 231.45C546.23 230.07 543.47 228.21 541.07 225.87C538.73 223.47 536.87 220.71 535.49 217.59C534.17 214.41 533.51 211.02 533.51 207.42H585.53C585.53 211.02 584.84 214.41 583.46 217.59C582.14 220.71 580.28 223.47 577.88 225.87C575.54 228.21 572.78 230.07 569.6 231.45C566.48 232.77 563.12 233.43 559.52 233.43Z" fill="#FFF7F3"/>
<path d="M186.723 201.48C185.091 201.48 183.555 201.16 182.115 200.52C180.675 199.88 179.507 198.952 178.611 197.736C177.747 196.488 177.315 194.984 177.315 193.224C177.315 192.168 177.459 191.176 177.747 190.248C178.035 189.32 178.547 188.328 179.283 187.272C180.019 186.216 181.075 185 182.451 183.624L193.875 172.056L196.851 174.936L186.771 184.824C185.363 186.2 184.259 187.368 183.459 188.328C182.659 189.288 182.083 190.152 181.731 190.92C181.411 191.688 181.251 192.488 181.251 193.32C181.251 194.856 181.795 196.024 182.883 196.824C183.971 197.592 185.315 197.976 186.915 197.976C188.803 197.976 190.435 197.704 191.811 197.16C193.187 196.584 194.563 195.88 195.939 195.048L197.715 198.36C196.819 198.904 195.827 199.416 194.739 199.896C193.651 200.376 192.435 200.76 191.091 201.048C189.779 201.336 188.323 201.48 186.723 201.48ZM210.257 211.008C209.841 211.008 209.521 210.896 209.297 210.672L202.097 203.472C201.921 203.296 201.809 203.152 201.761 203.04C201.713 202.944 201.689 202.768 201.689 202.512V168.672C201.689 168.416 201.713 168.24 201.761 168.144C201.809 168.032 201.921 167.888 202.097 167.712L209.297 160.512C209.521 160.304 209.841 160.2 210.257 160.2H214.577C214.977 160.2 215.177 160.4 215.177 160.8V164.232C215.177 164.376 215.161 164.512 215.129 164.64C215.097 164.752 215.017 164.872 214.889 165L209.225 170.688V200.52L214.889 206.208C215.017 206.32 215.097 206.44 215.129 206.568C215.161 206.696 215.177 206.824 215.177 206.952V210.408C215.177 210.808 214.977 211.008 214.577 211.008H210.257ZM219.236 188.808C218.836 188.808 218.636 188.608 218.636 188.208V181.8C218.636 181.4 218.836 181.2 219.236 181.2H231.476C231.876 181.2 232.076 181.4 232.076 181.8V188.208C232.076 188.608 231.876 188.808 231.476 188.808H219.236ZM243.02 192.576C242.412 192.576 242.108 192.248 242.108 191.592V180.12C242.108 179.48 242.412 179.16 243.02 179.16H254.564C255.156 179.16 255.452 179.48 255.452 180.12V191.592C255.452 192.248 255.156 192.576 254.564 192.576H243.02ZM265.031 201.24L265.511 197.304C267.431 197.304 269.239 197.128 270.935 196.776C272.631 196.392 274.183 195.896 275.591 195.288C277.031 194.648 278.263 193.928 279.287 193.128C280.311 192.296 281.095 191.448 281.639 190.584C282.215 189.688 282.503 188.808 282.503 187.944C282.503 187.528 282.359 187.112 282.071 186.696C281.783 186.248 281.287 185.88 280.583 185.592C279.911 185.304 278.999 185.16 277.847 185.16C277.143 185.16 276.359 185.256 275.495 185.448C274.631 185.64 273.799 185.912 272.999 186.264C272.231 186.584 271.591 186.952 271.079 187.368C271.943 188.072 272.743 188.76 273.479 189.432C274.247 190.104 275.031 190.84 275.831 191.64C276.631 192.408 277.495 193.288 278.423 194.28C279.159 194.824 279.975 195.288 280.871 195.672C281.799 196.056 282.791 196.376 283.847 196.632C284.935 196.856 286.039 197.032 287.159 197.16C288.279 197.256 289.399 197.304 290.519 197.304C291.191 197.304 291.671 197.496 291.959 197.88C292.279 198.232 292.439 198.664 292.439 199.176C292.439 199.688 292.215 200.168 291.767 200.616C291.319 201.032 290.743 201.24 290.039 201.24C288.279 201.24 286.471 201.08 284.615 200.76C282.791 200.408 281.079 199.896 279.479 199.224C277.879 198.52 276.519 197.64 275.399 196.584C274.855 195.88 274.247 195.176 273.575 194.472C272.903 193.768 272.167 193.064 271.367 192.36C270.599 191.624 269.767 190.936 268.871 190.296C268.679 190.136 268.487 189.848 268.295 189.432C268.103 189.016 267.943 188.584 267.815 188.136C267.687 187.688 267.623 187.352 267.623 187.128C267.623 186.648 267.927 186.072 268.535 185.4C269.143 184.728 269.959 184.088 270.983 183.48C272.007 182.84 273.175 182.312 274.487 181.896C275.799 181.48 277.159 181.272 278.567 181.272C280.391 181.272 281.863 181.544 282.983 182.088C284.135 182.632 284.967 183.336 285.479 184.2C286.023 185.032 286.295 185.928 286.295 186.888C286.295 188.296 285.943 189.704 285.239 191.112C284.535 192.488 283.527 193.784 282.215 195C280.903 196.216 279.367 197.304 277.607 198.264C275.847 199.192 273.895 199.928 271.751 200.472C269.639 200.984 267.399 201.24 265.031 201.24ZM300.535 192.576C299.927 192.576 299.623 192.248 299.623 191.592V180.12C299.623 179.48 299.927 179.16 300.535 179.16H312.079C312.671 179.16 312.967 179.48 312.967 180.12V191.592C312.967 192.248 312.671 192.576 312.079 192.576H300.535ZM323.627 188.808C323.227 188.808 323.027 188.608 323.027 188.208V181.8C323.027 181.4 323.227 181.2 323.627 181.2H335.867C336.267 181.2 336.467 181.4 336.467 181.8V188.208C336.467 188.608 336.267 188.808 335.867 188.808H323.627ZM344.858 211.008H340.538C340.138 211.008 339.938 210.808 339.938 210.408V206.952C339.938 206.824 339.954 206.696 339.986 206.568C340.034 206.44 340.114 206.32 340.226 206.208L345.89 200.52V170.688L340.226 165C340.114 164.872 340.034 164.752 339.986 164.64C339.954 164.512 339.938 164.376 339.938 164.232V160.8C339.938 160.4 340.138 160.2 340.538 160.2H344.858C345.274 160.2 345.594 160.304 345.818 160.512L353.018 167.712C353.194 167.888 353.306 168.032 353.354 168.144C353.402 168.24 353.426 168.416 353.426 168.672V202.512C353.426 202.768 353.402 202.944 353.354 203.04C353.306 203.152 353.194 203.296 353.018 203.472L345.818 210.672C345.594 210.896 345.274 211.008 344.858 211.008ZM367.853 201.48C361.853 201.48 357.197 198.168 357.197 191.736C357.197 190.344 357.533 188.904 357.821 188.136H361.853C361.613 189 361.421 190.296 361.421 191.736C361.421 195.816 363.965 197.976 367.853 197.976C371.741 197.976 374.141 195.816 374.141 191.496C374.141 188.184 372.461 186.36 370.637 184.536C368.333 182.232 365.693 179.784 365.693 175.272H369.917C369.917 178.056 371.693 179.976 373.661 181.944C376.013 184.296 378.509 186.936 378.509 191.496C378.509 197.496 373.949 201.48 367.853 201.48Z" fill="#FFF7F3"/>
<path d="M267.152 154C266.752 154 266.552 153.8 266.552 153.4V122.608C266.552 122.208 266.752 122.008 267.152 122.008H273.944C274.344 122.008 274.544 122.208 274.544 122.608V134.008H280.472V122.608C280.472 122.208 280.672 122.008 281.072 122.008H287.864C288.264 122.008 288.464 122.208 288.464 122.608V153.4C288.464 153.8 288.264 154 287.864 154H281.072C280.672 154 280.472 153.8 280.472 153.4V140.392H274.544V153.4C274.544 153.8 274.344 154 273.944 154H267.152ZM251.567 158.192C251.407 158.192 251.287 158.136 251.207 158.024C251.143 157.912 251.167 157.768 251.279 157.592L255.887 150.272C255.967 150.144 256.055 150.032 256.151 149.936C256.263 149.84 256.423 149.792 256.631 149.792H264.527C264.895 149.792 265.175 149.992 265.367 150.392L266.807 153.728H269.231L270.479 150.248C270.591 149.944 270.815 149.792 271.151 149.792H277.127C277.287 149.792 277.399 149.848 277.463 149.96C277.527 150.072 277.503 150.216 277.391 150.392L272.807 157.712C272.727 157.856 272.631 157.976 272.519 158.072C272.423 158.152 272.263 158.192 272.039 158.192H264.167C263.767 158.192 263.487 157.992 263.327 157.592L261.887 154.328H259.439L258.191 157.76C258.111 158.048 257.887 158.192 257.519 158.192H251.567ZM271.385 157.808C270.985 157.808 270.785 157.608 270.785 157.208V150.8C270.785 150.4 270.985 150.2 271.385 150.2H283.625C284.025 150.2 284.225 150.4 284.225 150.8V157.208C284.225 157.608 284.025 157.808 283.625 157.808H271.385ZM277.903 158.192C277.743 158.192 277.623 158.136 277.543 158.024C277.479 157.912 277.503 157.768 277.615 157.592L282.223 150.272C282.303 150.144 282.391 150.032 282.487 149.936C282.599 149.84 282.759 149.792 282.967 149.792H290.863C291.231 149.792 291.511 149.992 291.703 150.392L293.143 153.728H295.567L296.815 150.248C296.927 149.944 297.151 149.792 297.487 149.792H303.463C303.623 149.792 303.735 149.848 303.799 149.96C303.863 150.072 303.839 150.216 303.727 150.392L299.143 157.712C299.063 157.856 298.967 157.976 298.855 158.072C298.759 158.152 298.599 158.192 298.375 158.192H290.503C290.103 158.192 289.823 157.992 289.663 157.592L288.223 154.328H285.775L284.527 157.76C284.447 158.048 284.223 158.192 283.855 158.192H277.903Z" fill="#FFF7F3"/>
<path d="M211.038 271.008C210.622 271.008 210.302 270.896 210.078 270.672L202.878 263.472C202.702 263.296 202.59 263.152 202.542 263.04C202.494 262.944 202.47 262.768 202.47 262.512V228.672C202.47 228.416 202.494 228.24 202.542 228.144C202.59 228.032 202.702 227.888 202.878 227.712L210.078 220.512C210.302 220.304 210.622 220.2 211.038 220.2H215.358C215.758 220.2 215.958 220.4 215.958 220.8V224.232C215.958 224.376 215.942 224.512 215.91 224.64C215.878 224.752 215.798 224.872 215.67 225L210.006 230.688V260.52L215.67 266.208C215.798 266.32 215.878 266.44 215.91 266.568C215.942 266.696 215.958 266.824 215.958 266.952V270.408C215.958 270.808 215.758 271.008 215.358 271.008H211.038ZM221.77 236.808C222.634 236.648 223.498 236.44 224.362 236.184C225.258 235.928 226.154 235.672 227.05 235.416C228.074 235.096 229.386 234.664 230.986 234.12C232.586 233.576 234.33 233.048 236.218 232.536C238.106 231.992 240.026 231.544 241.978 231.192C243.962 230.808 245.818 230.616 247.546 230.616C250.234 230.616 252.65 231.128 254.794 232.152C256.938 233.144 258.65 234.584 259.93 236.472C261.21 238.328 261.85 240.6 261.85 243.288C261.85 245.592 261.418 247.656 260.554 249.48C259.69 251.304 258.458 252.92 256.858 254.328C255.258 255.704 253.37 256.872 251.194 257.832C249.05 258.792 246.65 259.56 243.994 260.136C241.338 260.68 238.538 261.032 235.594 261.192L233.914 257.208C237.05 257.112 240.026 256.792 242.842 256.248C245.69 255.704 248.218 254.888 250.426 253.8C252.666 252.68 254.426 251.256 255.706 249.528C256.986 247.768 257.626 245.672 257.626 243.24C257.626 241.544 257.226 240.024 256.426 238.68C255.658 237.304 254.506 236.216 252.97 235.416C251.466 234.616 249.626 234.216 247.45 234.216C245.882 234.216 244.17 234.408 242.314 234.792C240.49 235.144 238.634 235.608 236.746 236.184C234.858 236.728 233.05 237.32 231.322 237.96C229.594 238.6 228.058 239.192 226.714 239.736C225.37 240.28 224.314 240.696 223.546 240.984L221.77 236.808ZM255.226 223.32C255.642 223.896 256.09 224.584 256.57 225.384C257.05 226.184 257.514 226.984 257.962 227.784C258.442 228.584 258.858 229.32 259.21 229.992L256.57 231.144C256.122 230.152 255.514 229.016 254.746 227.736C254.01 226.456 253.322 225.352 252.682 224.424L255.226 223.32ZM260.506 221.4C260.954 222.008 261.434 222.712 261.946 223.512C262.458 224.312 262.954 225.112 263.434 225.912C263.914 226.68 264.298 227.368 264.586 227.976L261.994 229.128C261.482 228.072 260.858 226.936 260.122 225.72C259.386 224.472 258.682 223.4 258.01 222.504L260.506 221.4ZM315.692 261.576C305.276 261.576 299.948 256.68 299.948 247.608C299.948 238.488 305.276 233.64 315.692 233.64H328.604V237.048H315.692C307.388 237.048 303.404 240.216 303.404 247.608C303.404 255 307.34 258.216 315.692 258.216H328.604V261.576H315.692ZM338.983 271.008H334.663C334.263 271.008 334.062 270.808 334.062 270.408V266.952C334.062 266.824 334.079 266.696 334.111 266.568C334.159 266.44 334.239 266.32 334.351 266.208L340.015 260.52V230.688L334.351 225C334.239 224.872 334.159 224.752 334.111 224.64C334.079 224.512 334.062 224.376 334.062 224.232V220.8C334.062 220.4 334.263 220.2 334.663 220.2H338.983C339.399 220.2 339.719 220.304 339.943 220.512L347.143 227.712C347.319 227.888 347.431 228.032 347.479 228.144C347.527 228.24 347.551 228.416 347.551 228.672V262.512C347.551 262.768 347.527 262.944 347.479 263.04C347.431 263.152 347.319 263.296 347.143 263.472L339.943 270.672C339.719 270.896 339.399 271.008 338.983 271.008Z" fill="#FFF7F3"/>
</svg>
