<svg width="907" height="274" viewBox="0 0 907 274" fill="none" xmlns="http://www.w3.org/2000/svg">
<path d="M712.641 36.4C712.929 36.4 713.073 36.544 713.073 36.832V39.072C713.073 39.3493 712.929 39.488 712.641 39.488H711.473C711.153 39.488 710.993 39.6213 710.993 39.888V40.368H713.041C713.307 40.368 713.441 40.512 713.441 40.8L713.409 44.848C713.409 45.136 713.27 45.28 712.993 45.28H707.921C707.654 45.28 707.521 45.136 707.521 44.848V39.952C707.521 38.7467 707.803 37.856 708.369 37.28C708.945 36.6933 709.702 36.4 710.641 36.4H712.641ZM705.713 36.4C706.001 36.4 706.145 36.544 706.145 36.832V39.072C706.145 39.3493 706.001 39.488 705.713 39.488H704.545C704.225 39.488 704.065 39.6213 704.065 39.888V40.368H706.113C706.379 40.368 706.513 40.512 706.513 40.8L706.481 44.848C706.481 45.136 706.342 45.28 706.065 45.28H700.993C700.726 45.28 700.593 45.136 700.593 44.848V39.952C700.593 38.7467 700.875 37.856 701.441 37.28C702.017 36.6933 702.774 36.4 703.713 36.4H705.713ZM720.639 60C720.393 60 720.18 59.9093 719.999 59.728L716.799 56.528C716.617 56.3573 716.527 56.144 716.527 55.888V46.512C716.527 46.256 716.617 46.0427 716.799 45.872L719.999 42.672C720.18 42.4907 720.393 42.4 720.639 42.4H729.199C729.465 42.4 729.599 42.5333 729.599 42.8V59.6C729.599 59.8667 729.465 60 729.199 60H725.871C725.732 60 725.625 59.9733 725.551 59.92C725.487 59.8667 725.412 59.8027 725.327 59.728L724.527 58.928L723.727 59.728C723.556 59.9093 723.343 60 723.087 60H720.639ZM722.511 56.272H723.631C723.972 56.272 724.207 56.2027 724.335 56.064C724.463 55.9253 724.527 55.68 724.527 55.328V46.128H722.511C722.159 46.128 721.919 46.1973 721.791 46.336C721.663 46.4747 721.599 46.72 721.599 47.072V55.328C721.599 55.68 721.663 55.9253 721.791 56.064C721.919 56.2027 722.159 56.272 722.511 56.272ZM742.932 65.328C742.665 65.328 742.532 65.1947 742.532 64.928V62.432C742.532 62.2187 742.612 62.1013 742.772 62.08L745.108 61.488L746.772 60.608C746.932 60.5227 747.012 60.3573 747.012 60.112V57.488L745.508 58.88C745.327 59.0613 745.113 59.152 744.868 59.152L742.148 59.248C741.903 59.248 741.689 59.1627 741.508 58.992L738.58 56.048C738.399 55.8773 738.308 55.664 738.308 55.408V46.512C738.308 46.256 738.399 46.0427 738.58 45.872L741.78 42.672C741.961 42.4907 742.175 42.4 742.42 42.4H750.98C751.247 42.4 751.38 42.5333 751.38 42.8V62.032C751.38 62.32 751.289 62.5333 751.108 62.672L748.98 64.032L746.292 65.152C746.132 65.216 746.009 65.2587 745.924 65.28C745.849 65.312 745.721 65.328 745.54 65.328H742.932ZM744.292 55.792H745.412C745.753 55.792 745.988 55.7227 746.116 55.584C746.244 55.4453 746.308 55.2 746.308 54.848V46.128H744.292C743.94 46.128 743.7 46.1973 743.572 46.336C743.444 46.4747 743.38 46.72 743.38 47.072V54.848C743.38 55.2 743.444 55.4453 743.572 55.584C743.7 55.7227 743.94 55.792 744.292 55.792ZM755.508 60C755.241 60 755.108 59.8667 755.108 59.6V42.8C755.108 42.5333 755.241 42.4 755.508 42.4H759.764C760.03 42.4 760.164 42.5333 760.164 42.8V59.6C760.164 59.8667 760.03 60 759.764 60H755.508ZM755.428 41.072C755.214 41.072 755.108 40.9653 755.108 40.752V38.72C755.108 38.5067 755.214 38.4 755.428 38.4H759.876C760.068 38.4 760.164 38.5067 760.164 38.72V40.752C760.164 40.9653 760.068 41.072 759.876 41.072H755.428ZM764.721 60C764.454 60 764.321 59.8667 764.321 59.6V42.768C764.321 42.5227 764.406 42.3093 764.577 42.128L767.777 38.928C767.958 38.7573 768.171 38.672 768.417 38.672H771.857C772.123 38.672 772.257 38.8053 772.257 39.072V42.8C772.257 43.0667 772.123 43.2 771.857 43.2H769.377V59.6C769.377 59.8667 769.243 60 768.977 60H764.721ZM763.329 50C763.062 50 762.929 49.8667 762.929 49.6V46.672C762.929 46.4053 763.062 46.272 763.329 46.272H771.857C772.123 46.272 772.257 46.4053 772.257 46.672V49.6C772.257 49.8667 772.123 50 771.857 50H763.329ZM778.819 60C778.573 60 778.36 59.9093 778.179 59.728L775.507 57.072C775.336 56.8907 775.251 56.6773 775.251 56.432V46.128H774.579C774.312 46.128 774.179 45.9947 774.179 45.728V42.8C774.179 42.5333 774.312 42.4 774.579 42.4H775.251V40.4C775.251 40.1333 775.384 40 775.651 40H779.907C780.173 40 780.307 40.1333 780.307 40.4V42.4H781.859C782.125 42.4 782.259 42.5333 782.259 42.8V45.728C782.259 45.9947 782.125 46.128 781.859 46.128H780.307V54.672C780.307 54.8747 780.371 55.04 780.499 55.168L782.067 56.752C782.173 56.848 782.227 57.008 782.227 57.232V59.6C782.227 59.8667 782.093 60 781.827 60H778.819ZM791.065 60C790.798 60 790.664 59.8667 790.664 59.6V42.768C790.664 42.5227 790.75 42.3093 790.921 42.128L794.121 38.928C794.302 38.7573 794.515 38.672 794.761 38.672H798.201C798.467 38.672 798.601 38.8053 798.601 39.072V42.8C798.601 43.0667 798.467 43.2 798.201 43.2H795.721V59.6C795.721 59.8667 795.587 60 795.321 60H791.065ZM789.673 50C789.406 50 789.273 49.8667 789.273 49.6V46.672C789.273 46.4053 789.406 46.272 789.673 46.272H798.201C798.467 46.272 798.601 46.4053 798.601 46.672V49.6C798.601 49.8667 798.467 50 798.201 50H789.673ZM805.483 60C805.237 60 805.024 59.9093 804.843 59.728L801.643 56.528C801.461 56.3573 801.371 56.144 801.371 55.888V46.512C801.371 46.256 801.461 46.0427 801.643 45.872L804.843 42.672C805.024 42.4907 805.237 42.4 805.483 42.4H810.331C810.587 42.4 810.8 42.4907 810.971 42.672L814.171 45.872C814.352 46.0427 814.443 46.256 814.443 46.512V55.888C814.443 56.144 814.352 56.3573 814.171 56.528L810.971 59.728C810.8 59.9093 810.587 60 810.331 60H805.483ZM807.355 56.272H808.475C808.816 56.272 809.051 56.2027 809.179 56.064C809.307 55.9253 809.371 55.68 809.371 55.328V47.072C809.371 46.72 809.307 46.4747 809.179 46.336C809.051 46.1973 808.816 46.128 808.475 46.128H807.355C807.003 46.128 806.763 46.1973 806.635 46.336C806.507 46.4747 806.443 46.72 806.443 47.072V55.328C806.443 55.68 806.507 55.9253 806.635 56.064C806.763 56.2027 807.003 56.272 807.355 56.272ZM818.57 60C818.303 60 818.17 59.8667 818.17 59.6V42.8C818.17 42.5333 818.303 42.4 818.57 42.4H821.002C821.205 42.4 821.381 42.4907 821.53 42.672L823.098 44.48L824.842 42.592C824.959 42.464 825.109 42.4 825.29 42.4H827.018C827.285 42.4 827.418 42.5333 827.418 42.8V46.24C827.418 46.4107 827.407 46.528 827.386 46.592C827.365 46.6453 827.306 46.704 827.21 46.768L823.242 49.696V59.6C823.242 59.8667 823.109 60 822.842 60H818.57ZM839.028 65.328C838.761 65.328 838.628 65.1947 838.628 64.928V62.432C838.628 62.2293 838.708 62.112 838.868 62.08L841.22 61.488L842.868 60.608C843.028 60.5227 843.108 60.3573 843.108 60.112V57.488L841.62 58.88C841.439 59.0613 841.225 59.152 840.98 59.152L838.26 59.248C838.015 59.248 837.801 59.1627 837.62 58.992L834.692 56.048C834.511 55.8773 834.42 55.664 834.42 55.408V42.8C834.42 42.5333 834.553 42.4 834.82 42.4H839.092C839.359 42.4 839.492 42.5333 839.492 42.8V54.848C839.492 55.2 839.556 55.4453 839.684 55.584C839.812 55.7227 840.047 55.792 840.388 55.792H842.42V42.8C842.42 42.5333 842.553 42.4 842.82 42.4H847.092C847.359 42.4 847.492 42.5333 847.492 42.8V62.032C847.492 62.352 847.401 62.5653 847.22 62.672L845.092 64.032L842.388 65.152C842.228 65.216 842.105 65.2587 842.02 65.28C841.945 65.312 841.823 65.328 841.652 65.328H839.028ZM855.233 60C854.987 60 854.774 59.9093 854.593 59.728L851.393 56.528C851.211 56.3573 851.121 56.144 851.121 55.888V46.512C851.121 46.256 851.211 46.0427 851.393 45.872L854.593 42.672C854.774 42.4907 854.987 42.4 855.233 42.4H860.081C860.337 42.4 860.55 42.4907 860.721 42.672L863.921 45.872C864.102 46.0427 864.193 46.256 864.193 46.512V55.888C864.193 56.144 864.102 56.3573 863.921 56.528L860.721 59.728C860.55 59.9093 860.337 60 860.081 60H855.233ZM857.105 56.272H858.225C858.566 56.272 858.801 56.2027 858.929 56.064C859.057 55.9253 859.121 55.68 859.121 55.328V47.072C859.121 46.72 859.057 46.4747 858.929 46.336C858.801 46.1973 858.566 46.128 858.225 46.128H857.105C856.753 46.128 856.513 46.1973 856.385 46.336C856.257 46.4747 856.193 46.72 856.193 47.072V55.328C856.193 55.68 856.257 55.9253 856.385 56.064C856.513 56.2027 856.753 56.272 857.105 56.272ZM872.032 60C871.776 60 871.563 59.9093 871.392 59.728L868.192 56.528C868.011 56.3573 867.92 56.144 867.92 55.888V42.8C867.92 42.5333 868.053 42.4 868.32 42.4H872.592C872.859 42.4 872.992 42.5333 872.992 42.8V55.248C872.992 55.7493 873.237 56 873.728 56H875.92V42.8C875.92 42.5333 876.053 42.4 876.32 42.4H880.592C880.859 42.4 880.992 42.5333 880.992 42.8V59.6C880.992 59.8667 880.859 60 880.592 60H872.032ZM884.493 59.872C884.226 59.872 884.093 59.728 884.093 59.44V54.352C884.093 54.064 884.226 53.92 884.493 53.92H889.613C889.879 53.92 890.013 54.064 890.013 54.352V59.44C890.013 59.728 889.879 59.872 889.613 59.872H884.493ZM893.361 45.28C893.073 45.28 892.929 45.136 892.929 44.848V42.608C892.929 42.3307 893.073 42.192 893.361 42.192H894.529C894.849 42.192 895.009 42.0587 895.009 41.792V41.312H892.961C892.695 41.312 892.561 41.168 892.561 40.88L892.593 36.832C892.593 36.544 892.732 36.4 893.009 36.4H898.081C898.348 36.4 898.481 36.544 898.481 36.832V41.728C898.481 42.9227 898.199 43.8133 897.633 44.4C897.068 44.9867 896.311 45.28 895.361 45.28H893.361ZM900.289 45.28C900.001 45.28 899.857 45.136 899.857 44.848V42.608C899.857 42.3307 900.001 42.192 900.289 42.192H901.457C901.777 42.192 901.937 42.0587 901.937 41.792V41.312H899.889C899.623 41.312 899.489 41.168 899.489 40.88L899.521 36.832C899.521 36.544 899.66 36.4 899.937 36.4H905.009C905.276 36.4 905.409 36.544 905.409 36.832V41.728C905.409 42.9227 905.127 43.8133 904.561 44.4C903.996 44.9867 903.239 45.28 902.289 45.28H900.289Z" fill="#FFF7F3"/>
<path d="M20.3124 12.4C20.6004 12.4 20.7444 12.544 20.7444 12.832V15.072C20.7444 15.3493 20.6004 15.488 20.3124 15.488H19.1444C18.8244 15.488 18.6644 15.6213 18.6644 15.888V16.368H20.7124C20.979 16.368 21.1124 16.512 21.1124 16.8L21.0804 20.848C21.0804 21.136 20.9417 21.28 20.6644 21.28H15.5924C15.3257 21.28 15.1924 21.136 15.1924 20.848V15.952C15.1924 14.7467 15.475 13.856 16.0404 13.28C16.6164 12.6933 17.3737 12.4 18.3124 12.4H20.3124ZM13.3844 12.4C13.6724 12.4 13.8164 12.544 13.8164 12.832V15.072C13.8164 15.3493 13.6724 15.488 13.3844 15.488H12.2164C11.8964 15.488 11.7364 15.6213 11.7364 15.888V16.368H13.7844C14.051 16.368 14.1844 16.512 14.1844 16.8L14.1524 20.848C14.1524 21.136 14.0137 21.28 13.7364 21.28H8.66438C8.39771 21.28 8.26438 21.136 8.26438 20.848V15.952C8.26438 14.7467 8.54704 13.856 9.11238 13.28C9.68838 12.6933 10.4457 12.4 11.3844 12.4H13.3844ZM27.9906 36C27.7453 36 27.532 35.9093 27.3506 35.728L24.6786 33.072C24.508 32.8907 24.4226 32.6773 24.4226 32.432V22.128H23.7506C23.484 22.128 23.3506 21.9947 23.3506 21.728V18.8C23.3506 18.5333 23.484 18.4 23.7506 18.4H24.4226V16.4C24.4226 16.1333 24.556 16 24.8226 16H29.0786C29.3453 16 29.4786 16.1333 29.4786 16.4V18.4H31.0306C31.2973 18.4 31.4306 18.5333 31.4306 18.8V21.728C31.4306 21.9947 31.2973 22.128 31.0306 22.128H29.4786V30.672C29.4786 30.8747 29.5426 31.04 29.6706 31.168L31.2386 32.752C31.3453 32.848 31.3986 33.008 31.3986 33.232V35.6C31.3986 35.8667 31.2653 36 30.9986 36H27.9906ZM34.7106 36C34.444 36 34.3106 35.8667 34.3106 35.6V15.072C34.3106 14.8053 34.444 14.672 34.7106 14.672H38.9826C39.2493 14.672 39.3826 14.8053 39.3826 15.072V18.4H43.2706C43.516 18.4 43.7293 18.4907 43.9106 18.672L47.1106 21.872C47.292 22.0427 47.3826 22.256 47.3826 22.512V35.6C47.3826 35.8667 47.2493 36 46.9826 36H42.7106C42.444 36 42.3106 35.8667 42.3106 35.6V23.072C42.3106 22.624 42.0866 22.4 41.6386 22.4H39.3826V35.6C39.3826 35.8667 39.2493 36 38.9826 36H34.7106ZM55.1231 36C54.8778 36 54.6645 35.9093 54.4831 35.728L51.2831 32.528C51.1018 32.3573 51.0111 32.144 51.0111 31.888V22.512C51.0111 22.256 51.1018 22.0427 51.2831 21.872L54.4831 18.672C54.6645 18.4907 54.8778 18.4 55.1231 18.4H63.6831C63.9498 18.4 64.0831 18.5333 64.0831 18.8V35.6C64.0831 35.8667 63.9498 36 63.6831 36H60.3551C60.2165 36 60.1098 35.9733 60.0351 35.92C59.9711 35.8667 59.8965 35.8027 59.8111 35.728L59.0111 34.928L58.2111 35.728C58.0405 35.9093 57.8271 36 57.5711 36H55.1231ZM56.9951 32.272H58.1151C58.4565 32.272 58.6911 32.2027 58.8191 32.064C58.9471 31.9253 59.0111 31.68 59.0111 31.328V22.128H56.9951C56.6431 22.128 56.4031 22.1973 56.2751 22.336C56.1471 22.4747 56.0831 22.72 56.0831 23.072V31.328C56.0831 31.68 56.1471 31.9253 56.2751 32.064C56.4031 32.2027 56.6431 32.272 56.9951 32.272ZM68.2106 36C67.944 36 67.8106 35.8667 67.8106 35.6V18.8C67.8106 18.5333 67.944 18.4 68.2106 18.4H76.7706C77.016 18.4 77.2293 18.4907 77.4106 18.672L80.6106 21.872C80.792 22.0427 80.8826 22.256 80.8826 22.512V35.6C80.8826 35.8667 80.7493 36 80.4826 36H76.2106C75.944 36 75.8106 35.8667 75.8106 35.6V23.152C75.8106 22.6507 75.56 22.4 75.0586 22.4H72.8826V35.6C72.8826 35.8667 72.7493 36 72.4826 36H68.2106ZM93.5031 36C93.3645 36 93.2525 35.9787 93.1671 35.936C93.0925 35.8933 93.0445 35.8347 93.0231 35.76L91.1831 28.512H89.6951V24.672H91.1831L93.0231 18.672C93.0445 18.5867 93.0925 18.528 93.1671 18.496C93.2525 18.4533 93.3645 18.432 93.5031 18.432H97.5511C97.8178 18.432 97.9511 18.5653 97.9511 18.832V20.528C97.9511 20.6773 97.9405 20.7947 97.9191 20.88C97.8978 20.9653 97.8658 21.056 97.8231 21.152L95.4551 26.608V27.152L97.9511 33.28C98.0045 33.3973 98.0418 33.504 98.0631 33.6C98.0845 33.6853 98.0951 33.7813 98.0951 33.888V35.6C98.0951 35.8667 97.9618 36 97.6951 36H93.5031ZM85.0231 36C84.7565 36 84.6231 35.8667 84.6231 35.6V15.072C84.6231 14.8053 84.7565 14.672 85.0231 14.672H89.2951C89.5618 14.672 89.6951 14.8053 89.6951 15.072V35.6C89.6951 35.8667 89.5618 36 89.2951 36H85.0231ZM110.669 41.328C110.402 41.328 110.269 41.1947 110.269 40.928V38.432C110.269 38.2293 110.349 38.112 110.509 38.08L112.861 37.488L114.509 36.608C114.669 36.5227 114.749 36.3573 114.749 36.112V33.488L113.261 34.88C113.079 35.0613 112.866 35.152 112.621 35.152L109.901 35.248C109.655 35.248 109.442 35.1627 109.261 34.992L106.333 32.048C106.151 31.8773 106.061 31.664 106.061 31.408V18.8C106.061 18.5333 106.194 18.4 106.461 18.4H110.733C110.999 18.4 111.133 18.5333 111.133 18.8V30.848C111.133 31.2 111.197 31.4453 111.325 31.584C111.453 31.7227 111.687 31.792 112.029 31.792H114.061V18.8C114.061 18.5333 114.194 18.4 114.461 18.4H118.733C118.999 18.4 119.133 18.5333 119.133 18.8V38.032C119.133 38.352 119.042 38.5653 118.861 38.672L116.733 40.032L114.029 41.152C113.869 41.216 113.746 41.2587 113.661 41.28C113.586 41.312 113.463 41.328 113.293 41.328H110.669ZM126.873 36C126.628 36 126.414 35.9093 126.233 35.728L123.033 32.528C122.852 32.3573 122.761 32.144 122.761 31.888V22.512C122.761 22.256 122.852 22.0427 123.033 21.872L126.233 18.672C126.414 18.4907 126.628 18.4 126.873 18.4H131.721C131.977 18.4 132.19 18.4907 132.361 18.672L135.561 21.872C135.742 22.0427 135.833 22.256 135.833 22.512V31.888C135.833 32.144 135.742 32.3573 135.561 32.528L132.361 35.728C132.19 35.9093 131.977 36 131.721 36H126.873ZM128.745 32.272H129.865C130.206 32.272 130.441 32.2027 130.569 32.064C130.697 31.9253 130.761 31.68 130.761 31.328V23.072C130.761 22.72 130.697 22.4747 130.569 22.336C130.441 22.1973 130.206 22.128 129.865 22.128H128.745C128.393 22.128 128.153 22.1973 128.025 22.336C127.897 22.4747 127.833 22.72 127.833 23.072V31.328C127.833 31.68 127.897 31.9253 128.025 32.064C128.153 32.2027 128.393 32.272 128.745 32.272ZM143.673 36C143.417 36 143.203 35.9093 143.033 35.728L139.833 32.528C139.651 32.3573 139.561 32.144 139.561 31.888V18.8C139.561 18.5333 139.694 18.4 139.961 18.4H144.233C144.499 18.4 144.633 18.5333 144.633 18.8V31.248C144.633 31.7493 144.878 32 145.369 32H147.561V18.8C147.561 18.5333 147.694 18.4 147.961 18.4H152.233C152.499 18.4 152.633 18.5333 152.633 18.8V35.6C152.633 35.8667 152.499 36 152.233 36H143.673ZM156.533 38.88C156.245 38.88 156.101 38.736 156.101 38.448V36.208C156.101 35.9307 156.245 35.792 156.533 35.792H157.701C158.021 35.792 158.181 35.6587 158.181 35.392V34.912H156.133C155.866 34.912 155.733 34.768 155.733 34.48L155.765 30.432C155.765 30.144 155.904 30 156.181 30H161.253C161.52 30 161.653 30.144 161.653 30.432V35.328C161.653 36.5227 161.37 37.4133 160.805 38C160.24 38.5867 159.482 38.88 158.533 38.88H156.533ZM1.93338 84C1.66671 84 1.53338 83.8667 1.53338 83.6V81.008C1.53338 80.7627 1.61338 80.6027 1.77338 80.528L5.03738 78.592V76.928L1.77338 75.168C1.61338 75.072 1.53338 74.9067 1.53338 74.672V69.568C1.53338 69.4507 1.54938 69.3547 1.58138 69.28C1.62404 69.2053 1.68271 69.1413 1.75738 69.088L5.16538 66.592C5.28271 66.5067 5.37871 66.4533 5.45338 66.432C5.52804 66.4107 5.60271 66.4 5.67738 66.4H9.56538C9.83204 66.4 9.96538 66.5333 9.96538 66.8V69.312C9.96538 69.4933 9.94938 69.616 9.91738 69.68C9.89604 69.744 9.84271 69.7973 9.75738 69.84L6.73338 71.472V73.328L9.96538 74.928C10.1467 75.0027 10.2374 75.1627 10.2374 75.408V80.32C10.2374 80.5867 10.1467 80.8 9.96538 80.96L6.55738 83.792C6.38671 83.9307 6.17338 84 5.91738 84H1.93338ZM17.5919 84C17.3465 84 17.1332 83.9093 16.9519 83.728L13.7519 80.528C13.5705 80.3573 13.4799 80.144 13.4799 79.888V66.8C13.4799 66.5333 13.6132 66.4 13.8799 66.4H18.1519C18.4185 66.4 18.5519 66.5333 18.5519 66.8V80H21.2239V66.8C21.2239 66.5333 21.3572 66.4 21.6239 66.4H25.8799C26.1465 66.4 26.2799 66.5333 26.2799 66.8V80H28.9519V66.8C28.9519 66.5333 29.0852 66.4 29.3519 66.4H33.6239C33.8905 66.4 34.0239 66.5333 34.0239 66.8V79.888C34.0239 80.144 33.9332 80.3573 33.7519 80.528L30.5519 83.728C30.3705 83.9093 30.1572 84 29.9119 84H26.2639C26.0079 84 25.7945 83.9093 25.6239 83.728L23.4639 81.568H24.0399L21.8799 83.728C21.7092 83.9093 21.4959 84 21.2399 84H17.5919ZM44.9161 84C44.8095 84 44.6921 83.984 44.5641 83.952C44.4468 83.92 44.3348 83.8933 44.2281 83.872L41.3801 83.168L38.1161 82.08C37.7961 81.9733 37.6361 81.664 37.6361 81.152V70.512C37.6361 70.256 37.7268 70.0427 37.9081 69.872L41.1081 66.672C41.2895 66.4907 41.5028 66.4 41.7481 66.4H46.8681C47.1135 66.4 47.3268 66.4907 47.5081 66.672L50.7081 69.872C50.8895 70.0427 50.9801 70.256 50.9801 70.512V77.072H42.3881L42.2761 79.2L44.5481 79.952L48.6281 80.24C48.8095 80.272 48.9001 80.3947 48.9001 80.608V83.6C48.9001 83.8667 48.7668 84 48.5001 84H44.9161ZM44.2761 74.56H44.5801C45.1028 74.56 45.5188 74.3627 45.8281 73.968C46.1481 73.5733 46.3081 73.04 46.3081 72.368V72.048C46.3081 71.3867 46.1481 70.8587 45.8281 70.464C45.5188 70.0693 45.1028 69.872 44.5801 69.872H44.2601C43.7481 69.872 43.3375 70.0693 43.0281 70.464C42.7295 70.8587 42.5801 71.3867 42.5801 72.048V72.368C42.5801 73.04 42.7295 73.5733 43.0281 73.968C43.3375 74.3627 43.7535 74.56 44.2761 74.56ZM61.4786 84C61.372 84 61.2546 83.984 61.1266 83.952C61.0093 83.92 60.8973 83.8933 60.7906 83.872L57.9426 83.168L54.6786 82.08C54.3586 81.9733 54.1986 81.664 54.1986 81.152V70.512C54.1986 70.256 54.2893 70.0427 54.4706 69.872L57.6706 66.672C57.852 66.4907 58.0653 66.4 58.3106 66.4H63.4306C63.676 66.4 63.8893 66.4907 64.0706 66.672L67.2706 69.872C67.452 70.0427 67.5426 70.256 67.5426 70.512V77.072H58.9506L58.8386 79.2L61.1106 79.952L65.1906 80.24C65.372 80.272 65.4626 80.3947 65.4626 80.608V83.6C65.4626 83.8667 65.3293 84 65.0626 84H61.4786ZM60.8386 74.56H61.1426C61.6653 74.56 62.0813 74.3627 62.3906 73.968C62.7106 73.5733 62.8706 73.04 62.8706 72.368V72.048C62.8706 71.3867 62.7106 70.8587 62.3906 70.464C62.0813 70.0693 61.6653 69.872 61.1426 69.872H60.8226C60.3106 69.872 59.9 70.0693 59.5906 70.464C59.292 70.8587 59.1426 71.3867 59.1426 72.048V72.368C59.1426 73.04 59.292 73.5733 59.5906 73.968C59.9 74.3627 60.316 74.56 60.8386 74.56ZM74.5531 84C74.3078 84 74.0945 83.9093 73.9131 83.728L71.2411 81.072C71.0705 80.8907 70.9851 80.6773 70.9851 80.432V70.128H70.3131C70.0465 70.128 69.9131 69.9947 69.9131 69.728V66.8C69.9131 66.5333 70.0465 66.4 70.3131 66.4H70.9851V64.4C70.9851 64.1333 71.1185 64 71.3851 64H75.6411C75.9078 64 76.0411 64.1333 76.0411 64.4V66.4H77.5931C77.8598 66.4 77.9931 66.5333 77.9931 66.8V69.728C77.9931 69.9947 77.8598 70.128 77.5931 70.128H76.0411V78.672C76.0411 78.8747 76.1051 79.04 76.2331 79.168L77.8011 80.752C77.9078 80.848 77.9611 81.008 77.9611 81.232V83.6C77.9611 83.8667 77.8278 84 77.5611 84H74.5531ZM81.2731 84C81.0065 84 80.8731 83.8667 80.8731 83.6V63.072C80.8731 62.8053 81.0065 62.672 81.2731 62.672H85.5451C85.8118 62.672 85.9451 62.8053 85.9451 63.072V66.4H89.8331C90.0785 66.4 90.2918 66.4907 90.4731 66.672L93.6731 69.872C93.8545 70.0427 93.9451 70.256 93.9451 70.512V83.6C93.9451 83.8667 93.8118 84 93.5451 84H89.2731C89.0065 84 88.8731 83.8667 88.8731 83.6V71.072C88.8731 70.624 88.6491 70.4 88.2011 70.4H85.9451V83.6C85.9451 83.8667 85.8118 84 85.5451 84H81.2731ZM104.854 84C104.747 84 104.63 83.984 104.502 83.952C104.384 83.92 104.272 83.8933 104.166 83.872L101.318 83.168L98.0536 82.08C97.7336 81.9733 97.5736 81.664 97.5736 81.152V70.512C97.5736 70.256 97.6643 70.0427 97.8456 69.872L101.046 66.672C101.227 66.4907 101.44 66.4 101.686 66.4H106.806C107.051 66.4 107.264 66.4907 107.446 66.672L110.646 69.872C110.827 70.0427 110.918 70.256 110.918 70.512V77.072H102.326L102.214 79.2L104.486 79.952L108.566 80.24C108.747 80.272 108.838 80.3947 108.838 80.608V83.6C108.838 83.8667 108.704 84 108.438 84H104.854ZM104.214 74.56H104.518C105.04 74.56 105.456 74.3627 105.766 73.968C106.086 73.5733 106.246 73.04 106.246 72.368V72.048C106.246 71.3867 106.086 70.8587 105.766 70.464C105.456 70.0693 105.04 69.872 104.518 69.872H104.198C103.686 69.872 103.275 70.0693 102.966 70.464C102.667 70.8587 102.518 71.3867 102.518 72.048V72.368C102.518 73.04 102.667 73.5733 102.966 73.968C103.275 74.3627 103.691 74.56 104.214 74.56ZM118.248 84C118.003 84 117.789 83.9093 117.608 83.728L114.408 80.528C114.227 80.3573 114.136 80.144 114.136 79.888V70.512C114.136 70.256 114.227 70.0427 114.408 69.872L117.608 66.672C117.789 66.4907 118.003 66.4 118.248 66.4H126.808C127.075 66.4 127.208 66.5333 127.208 66.8V83.6C127.208 83.8667 127.075 84 126.808 84H123.48C123.341 84 123.235 83.9733 123.16 83.92C123.096 83.8667 123.021 83.8027 122.936 83.728L122.136 82.928L121.336 83.728C121.165 83.9093 120.952 84 120.696 84H118.248ZM120.12 80.272H121.24C121.581 80.272 121.816 80.2027 121.944 80.064C122.072 79.9253 122.136 79.68 122.136 79.328V70.128H120.12C119.768 70.128 119.528 70.1973 119.4 70.336C119.272 70.4747 119.208 70.72 119.208 71.072V79.328C119.208 79.68 119.272 79.9253 119.4 80.064C119.528 80.2027 119.768 80.272 120.12 80.272ZM131.336 84C131.069 84 130.936 83.8667 130.936 83.6V66.8C130.936 66.5333 131.069 66.4 131.336 66.4H133.768C133.97 66.4 134.146 66.4907 134.296 66.672L135.864 68.48L137.608 66.592C137.725 66.464 137.874 66.4 138.056 66.4H139.784C140.05 66.4 140.184 66.5333 140.184 66.8V70.24C140.184 70.4107 140.173 70.528 140.152 70.592C140.13 70.6453 140.072 70.704 139.976 70.768L136.008 73.696V83.6C136.008 83.8667 135.874 84 135.608 84H131.336ZM145.772 84C145.527 84 145.313 83.9093 145.132 83.728L142.46 81.072C142.289 80.8907 142.204 80.6773 142.204 80.432V70.128H141.532C141.265 70.128 141.132 69.9947 141.132 69.728V66.8C141.132 66.5333 141.265 66.4 141.532 66.4H142.204V64.4C142.204 64.1333 142.337 64 142.604 64H146.86C147.127 64 147.26 64.1333 147.26 64.4V66.4H148.812C149.079 66.4 149.212 66.5333 149.212 66.8V69.728C149.212 69.9947 149.079 70.128 148.812 70.128H147.26V78.672C147.26 78.8747 147.324 79.04 147.452 79.168L149.02 80.752C149.127 80.848 149.18 81.008 149.18 81.232V83.6C149.18 83.8667 149.047 84 148.78 84H145.772ZM152.7 75.872C152.465 75.872 152.332 75.744 152.3 75.488L151.452 63.088C151.42 62.8107 151.553 62.672 151.852 62.672H157.82C158.119 62.672 158.252 62.8107 158.22 63.088L157.372 75.488C157.34 75.744 157.207 75.872 156.972 75.872H152.7ZM152.284 83.872C152.017 83.872 151.884 83.728 151.884 83.44V78.352C151.884 78.064 152.017 77.92 152.284 77.92H157.404C157.671 77.92 157.804 78.064 157.804 78.352V83.44C157.804 83.728 157.671 83.872 157.404 83.872H152.284ZM161.564 69.28C161.276 69.28 161.132 69.136 161.132 68.848V66.608C161.132 66.3307 161.276 66.192 161.564 66.192H162.732C163.052 66.192 163.212 66.0587 163.212 65.792V65.312H161.164C160.898 65.312 160.764 65.168 160.764 64.88L160.796 60.832C160.796 60.544 160.935 60.4 161.212 60.4H166.284C166.551 60.4 166.684 60.544 166.684 60.832V65.728C166.684 66.9227 166.402 67.8133 165.836 68.4C165.271 68.9867 164.514 69.28 163.564 69.28H161.564ZM168.492 69.28C168.204 69.28 168.06 69.136 168.06 68.848V66.608C168.06 66.3307 168.204 66.192 168.492 66.192H169.66C169.98 66.192 170.14 66.0587 170.14 65.792V65.312H168.092C167.826 65.312 167.692 65.168 167.692 64.88L167.724 60.832C167.724 60.544 167.863 60.4 168.14 60.4H173.212C173.479 60.4 173.612 60.544 173.612 60.832V65.728C173.612 66.9227 173.33 67.8133 172.764 68.4C172.199 68.9867 171.442 69.28 170.492 69.28H168.492Z" fill="#FFF7F3"/>
<path d="M502.615 201.347C502.151 201.347 501.975 201.131 502.087 200.699L511.495 161.891C511.575 161.523 511.791 161.339 512.143 161.339H518.263C518.711 161.339 518.879 161.555 518.767 161.987L509.383 200.771C509.287 201.155 509.071 201.347 508.735 201.347H502.615ZM528.637 164.267L521.125 161.147C520.789 161.019 520.693 160.747 520.837 160.331L522.037 157.259C522.213 156.827 522.485 156.707 522.853 156.899L530.125 161.339C530.493 161.563 530.589 161.843 530.413 162.179L529.405 163.979C529.229 164.299 528.973 164.395 528.637 164.267ZM533.085 204.539C532.685 204.539 532.485 204.339 532.485 203.939V198.347C532.485 197.947 532.685 197.747 533.085 197.747H536.325L541.965 167.507C542.045 167.043 542.245 166.643 542.565 166.307L547.029 161.747C547.301 161.475 547.621 161.339 547.989 161.339H551.877C552.277 161.339 552.477 161.539 552.477 161.939V167.531C552.477 167.931 552.277 168.131 551.877 168.131H548.637L542.997 198.371C542.917 198.835 542.717 199.235 542.397 199.571L537.909 204.131C537.653 204.403 537.333 204.539 536.949 204.539H533.085ZM555.07 179.411C554.67 179.411 554.47 179.211 554.47 178.811V174.419C554.47 174.019 554.67 173.819 555.07 173.819H568.894C569.294 173.819 569.494 174.019 569.494 174.419V178.811C569.494 179.211 569.294 179.411 568.894 179.411H555.07ZM555.07 188.867C554.67 188.867 554.47 188.667 554.47 188.267V183.851C554.47 183.451 554.67 183.251 555.07 183.251H568.894C569.294 183.251 569.494 183.451 569.494 183.851V188.267C569.494 188.667 569.294 188.867 568.894 188.867H555.07ZM590.636 188.123H593.9V189.227C593.9 190.955 593.5 192.507 592.7 193.883C591.932 195.227 590.844 196.395 589.436 197.387C588.028 198.379 586.396 199.195 584.54 199.835C582.716 200.507 580.732 201.003 578.588 201.323L577.148 198.395C579.068 198.139 580.844 197.755 582.476 197.243C584.14 196.731 585.564 196.091 586.748 195.323C587.964 194.555 588.908 193.659 589.58 192.635C590.284 191.611 590.636 190.475 590.636 189.227V188.123ZM591.212 188.123H594.476V189.227C594.476 190.475 594.812 191.611 595.484 192.635C596.156 193.659 597.1 194.555 598.316 195.323C599.532 196.091 600.956 196.731 602.588 197.243C604.252 197.755 606.028 198.139 607.916 198.395L606.524 201.323C604.412 201.003 602.428 200.507 600.572 199.835C598.716 199.195 597.084 198.379 595.676 197.387C594.268 196.395 593.164 195.227 592.364 193.883C591.596 192.507 591.212 190.955 591.212 189.227V188.123ZM578.828 187.163H606.428V190.091H578.828V187.163ZM616.288 179.411C615.888 179.411 615.688 179.211 615.688 178.811V174.419C615.688 174.019 615.888 173.819 616.288 173.819H630.112C630.512 173.819 630.712 174.019 630.712 174.419V178.811C630.712 179.211 630.512 179.411 630.112 179.411H616.288ZM616.288 188.867C615.888 188.867 615.688 188.667 615.688 188.267V183.851C615.688 183.451 615.888 183.251 616.288 183.251H630.112C630.512 183.251 630.712 183.451 630.712 183.851V188.267C630.712 188.667 630.512 188.867 630.112 188.867H616.288ZM648.984 161.939C649.416 161.939 649.632 162.155 649.632 162.587V165.947C649.632 166.363 649.416 166.571 648.984 166.571H647.232C646.752 166.571 646.512 166.771 646.512 167.171V167.891H649.584C649.984 167.891 650.184 168.107 650.184 168.539L650.136 174.611C650.136 175.043 649.928 175.259 649.512 175.259H641.904C641.504 175.259 641.304 175.043 641.304 174.611V167.267C641.304 165.459 641.728 164.123 642.576 163.259C643.44 162.379 644.576 161.939 645.984 161.939H648.984ZM676.935 201.347H670.815C670.479 201.347 670.263 201.155 670.167 200.771L660.783 161.987C660.671 161.555 660.839 161.339 661.287 161.339H667.407C667.759 161.339 667.975 161.523 668.055 161.891L677.463 200.699C677.591 201.131 677.415 201.347 676.935 201.347Z" fill="#FFF7F3"/>
<mask id="path-4-outside-1_140_8" maskUnits="userSpaceOnUse" x="623.476" y="115" width="50" height="42" fill="black">
<rect fill="white" x="623.476" y="115" width="50" height="42"/>
<path d="M656.142 155C653.166 150.2 647.646 147.656 641.934 147.656C638.814 147.656 635.79 148.568 632.958 150.152L631.278 147.08C633.246 146.12 635.646 145.352 637.854 145.208V145.064C630.942 142.904 625.278 138.056 625.278 128.888C625.278 121.592 628.59 116.792 634.782 116.792C638.334 116.792 640.542 118.52 641.55 121.352H641.79C642.846 118.52 645.198 116.792 648.75 116.792C652.494 116.792 654.702 118.52 655.71 121.352H655.95C657.006 118.52 659.358 116.792 662.766 116.792C668.958 116.792 672.27 122.024 672.27 129.752C672.27 133.832 671.406 137.288 669.63 140.648L665.982 139.304C667.47 136.184 667.95 133.4 667.95 129.704C667.95 123.512 665.886 120.296 662.43 120.296C659.55 120.296 657.87 122.552 657.87 126.536V134.264H653.838V126.536C653.838 122.936 652.398 120.296 648.75 120.296C645.39 120.296 643.71 122.552 643.71 126.536V134.264H639.678V126.536C639.678 122.936 638.238 120.296 635.07 120.296C631.662 120.296 629.598 123.08 629.598 128.888C629.598 137.816 635.982 141.896 642.846 143.384C649.326 144.776 656.43 147.32 659.358 153.272L656.142 155Z"/>
</mask>
<path d="M656.142 155C653.166 150.2 647.646 147.656 641.934 147.656C638.814 147.656 635.79 148.568 632.958 150.152L631.278 147.08C633.246 146.12 635.646 145.352 637.854 145.208V145.064C630.942 142.904 625.278 138.056 625.278 128.888C625.278 121.592 628.59 116.792 634.782 116.792C638.334 116.792 640.542 118.52 641.55 121.352H641.79C642.846 118.52 645.198 116.792 648.75 116.792C652.494 116.792 654.702 118.52 655.71 121.352H655.95C657.006 118.52 659.358 116.792 662.766 116.792C668.958 116.792 672.27 122.024 672.27 129.752C672.27 133.832 671.406 137.288 669.63 140.648L665.982 139.304C667.47 136.184 667.95 133.4 667.95 129.704C667.95 123.512 665.886 120.296 662.43 120.296C659.55 120.296 657.87 122.552 657.87 126.536V134.264H653.838V126.536C653.838 122.936 652.398 120.296 648.75 120.296C645.39 120.296 643.71 122.552 643.71 126.536V134.264H639.678V126.536C639.678 122.936 638.238 120.296 635.07 120.296C631.662 120.296 629.598 123.08 629.598 128.888C629.598 137.816 635.982 141.896 642.846 143.384C649.326 144.776 656.43 147.32 659.358 153.272L656.142 155Z" fill="#FFF7F3"/>
<path d="M656.142 155L655.292 155.527L655.787 156.326L656.615 155.881L656.142 155ZM632.958 150.152L632.081 150.632L632.565 151.518L633.446 151.025L632.958 150.152ZM631.278 147.08L630.84 146.181L629.898 146.641L630.401 147.56L631.278 147.08ZM637.854 145.208L637.919 146.206L638.854 146.145V145.208H637.854ZM637.854 145.064H638.854V144.329L638.152 144.11L637.854 145.064ZM641.55 121.352L640.608 121.687L640.844 122.352H641.55V121.352ZM641.79 121.352V122.352H642.484L642.727 121.701L641.79 121.352ZM655.71 121.352L654.768 121.687L655.004 122.352H655.71V121.352ZM655.95 121.352V122.352H656.644L656.887 121.701L655.95 121.352ZM669.63 140.648L669.284 141.586L670.105 141.889L670.514 141.115L669.63 140.648ZM665.982 139.304L665.079 138.874L664.607 139.863L665.636 140.242L665.982 139.304ZM657.87 134.264V135.264H658.87V134.264H657.87ZM653.838 134.264H652.838V135.264H653.838V134.264ZM643.71 134.264V135.264H644.71V134.264H643.71ZM639.678 134.264H638.678V135.264H639.678V134.264ZM642.846 143.384L642.634 144.361L642.636 144.362L642.846 143.384ZM659.358 153.272L659.831 154.153L660.681 153.696L660.255 152.831L659.358 153.272ZM656.992 154.473C653.8 149.325 647.923 146.656 641.934 146.656V148.656C647.368 148.656 652.532 151.075 655.292 155.527L656.992 154.473ZM641.934 146.656C638.614 146.656 635.424 147.627 632.47 149.279L633.446 151.025C636.156 149.509 639.014 148.656 641.934 148.656V146.656ZM633.835 149.672L632.155 146.6L630.401 147.56L632.081 150.632L633.835 149.672ZM631.716 147.979C633.602 147.059 635.874 146.339 637.919 146.206L637.789 144.21C635.418 144.365 632.89 145.181 630.84 146.181L631.716 147.979ZM638.854 145.208V145.064H636.854V145.208H638.854ZM638.152 144.11C634.818 143.068 631.854 141.398 629.729 138.949C627.618 136.515 626.278 133.249 626.278 128.888H624.278C624.278 133.695 625.77 137.437 628.219 140.259C630.653 143.066 633.978 144.9 637.556 146.018L638.152 144.11ZM626.278 128.888C626.278 125.374 627.078 122.59 628.505 120.708C629.904 118.864 631.975 117.792 634.782 117.792V115.792C631.397 115.792 628.716 117.12 626.911 119.5C625.134 121.842 624.278 125.106 624.278 128.888H626.278ZM634.782 117.792C636.393 117.792 637.622 118.182 638.546 118.829C639.47 119.476 640.161 120.432 640.608 121.687L642.492 121.017C641.931 119.44 641.014 118.116 639.694 117.191C638.374 116.266 636.723 115.792 634.782 115.792V117.792ZM641.55 122.352H641.79V120.352H641.55V122.352ZM642.727 121.701C643.191 120.456 643.923 119.494 644.894 118.839C645.866 118.182 647.139 117.792 648.75 117.792V115.792C646.809 115.792 645.13 116.266 643.774 117.181C642.417 118.098 641.444 119.416 640.853 121.003L642.727 121.701ZM648.75 117.792C650.467 117.792 651.746 118.187 652.69 118.835C653.632 119.481 654.321 120.433 654.768 121.687L656.652 121.017C656.091 119.439 655.172 118.111 653.822 117.185C652.474 116.261 650.777 115.792 648.75 115.792V117.792ZM655.71 122.352H655.95V120.352H655.71V122.352ZM656.887 121.701C657.352 120.455 658.085 119.491 659.042 118.835C659.999 118.178 661.235 117.792 662.766 117.792V115.792C660.889 115.792 659.245 116.27 657.91 117.185C656.575 118.101 655.604 119.417 655.013 121.003L656.887 121.701ZM662.766 117.792C665.538 117.792 667.609 118.943 669.022 120.95C670.466 122.999 671.27 126.012 671.27 129.752H673.27C673.27 125.764 672.418 122.297 670.657 119.798C668.867 117.257 666.186 115.792 662.766 115.792V117.792ZM671.27 129.752C671.27 133.674 670.443 136.969 668.746 140.181L670.514 141.115C672.369 137.607 673.27 133.99 673.27 129.752H671.27ZM669.976 139.71L666.328 138.366L665.636 140.242L669.284 141.586L669.976 139.71ZM666.885 139.734C668.452 136.448 668.95 133.509 668.95 129.704H666.95C666.95 133.291 666.488 135.92 665.079 138.874L666.885 139.734ZM668.95 129.704C668.95 126.523 668.424 123.962 667.343 122.163C666.227 120.304 664.532 119.296 662.43 119.296V121.296C663.784 121.296 664.849 121.896 665.629 123.193C666.444 124.55 666.95 126.693 666.95 129.704H668.95ZM662.43 119.296C660.696 119.296 659.246 119.993 658.264 121.33C657.313 122.625 656.87 124.423 656.87 126.536H658.87C658.87 124.665 659.267 123.343 659.876 122.514C660.454 121.727 661.284 121.296 662.43 121.296V119.296ZM656.87 126.536V134.264H658.87V126.536H656.87ZM657.87 133.264H653.838V135.264H657.87V133.264ZM654.838 134.264V126.536H652.838V134.264H654.838ZM654.838 126.536C654.838 124.627 654.46 122.824 653.468 121.474C652.437 120.072 650.846 119.296 648.75 119.296V121.296C650.302 121.296 651.255 121.84 651.856 122.658C652.496 123.528 652.838 124.845 652.838 126.536H654.838ZM648.75 119.296C646.827 119.296 645.251 119.954 644.186 121.302C643.152 122.609 642.71 124.426 642.71 126.536H644.71C644.71 124.662 645.108 123.359 645.754 122.542C646.369 121.766 647.313 121.296 648.75 121.296V119.296ZM642.71 126.536V134.264H644.71V126.536H642.71ZM643.71 133.264H639.678V135.264H643.71V133.264ZM640.678 134.264V126.536H638.678V134.264H640.678ZM640.678 126.536C640.678 124.625 640.299 122.84 639.388 121.503C638.443 120.114 636.978 119.296 635.07 119.296V121.296C636.33 121.296 637.169 121.798 637.735 122.629C638.337 123.512 638.678 124.847 638.678 126.536H640.678ZM635.07 119.296C633.048 119.296 631.359 120.146 630.222 121.862C629.126 123.517 628.598 125.892 628.598 128.888H630.598C630.598 126.076 631.102 124.155 631.89 122.966C632.637 121.838 633.684 121.296 635.07 121.296V119.296ZM628.598 128.888C628.598 133.62 630.302 137.137 632.961 139.652C635.592 142.142 639.095 143.594 642.634 144.361L643.058 142.407C639.733 141.686 636.612 140.354 634.335 138.2C632.086 136.071 630.598 133.084 630.598 128.888H628.598ZM642.636 144.362C649.121 145.755 655.762 148.228 658.461 153.713L660.255 152.831C657.098 146.412 649.531 143.797 643.056 142.406L642.636 144.362ZM658.885 152.391L655.669 154.119L656.615 155.881L659.831 154.153L658.885 152.391Z" fill="#FFF7F3" mask="url(#path-4-outside-1_140_8)"/>
<path d="M594.26 227.144C593.876 227.144 593.567 227.144 593.332 227.144C593.119 227.123 592.852 226.973 592.532 226.696L581.172 217.48C580.852 217.203 580.66 217.011 580.596 216.904C580.532 216.776 580.5 216.541 580.5 216.2V215.144C580.5 214.781 580.532 214.547 580.596 214.44C580.66 214.312 580.852 214.12 581.172 213.864L592.532 204.616C592.852 204.36 593.119 204.232 593.332 204.232C593.567 204.211 593.876 204.2 594.26 204.2H596.756C597.503 204.2 597.876 204.467 597.876 205V210.696C597.876 210.888 597.855 211.08 597.812 211.272C597.77 211.464 597.61 211.613 597.332 211.72L590.1 214.536V216.776L597.332 219.624C597.61 219.709 597.77 219.859 597.812 220.072C597.855 220.264 597.876 220.445 597.876 220.616V226.344C597.876 226.877 597.503 227.144 596.756 227.144H594.26Z" fill="#FFF7F3"/>
<path d="M495.26 227.144C494.876 227.144 494.567 227.144 494.332 227.144C494.119 227.123 493.852 226.973 493.532 226.696L482.172 217.48C481.852 217.203 481.66 217.011 481.596 216.904C481.532 216.776 481.5 216.541 481.5 216.2V215.144C481.5 214.781 481.532 214.547 481.596 214.44C481.66 214.312 481.852 214.12 482.172 213.864L493.532 204.616C493.852 204.36 494.119 204.232 494.332 204.232C494.567 204.211 494.876 204.2 495.26 204.2H497.756C498.503 204.2 498.876 204.467 498.876 205V210.696C498.876 210.888 498.855 211.08 498.812 211.272C498.77 211.464 498.61 211.613 498.332 211.72L491.1 214.536V216.776L498.332 219.624C498.61 219.709 498.77 219.859 498.812 220.072C498.855 220.264 498.876 220.445 498.876 220.616V226.344C498.876 226.877 498.503 227.144 497.756 227.144H495.26Z" fill="#FFF7F3"/>
<path d="M505.88 243.06V207.42H510.47C510.47 211.74 511.25 215.79 512.81 219.57C514.43 223.29 516.65 226.59 519.47 229.47C522.35 232.29 525.65 234.51 529.37 236.13C533.15 237.69 537.2 238.47 541.52 238.47C545.84 238.47 549.86 237.69 553.58 236.13C557.36 234.51 560.66 232.29 563.48 229.47C566.36 226.59 568.58 223.29 570.14 219.57C571.76 215.79 572.57 211.74 572.57 207.42H577.16V243.06H505.88ZM541.52 233.43C537.92 233.43 534.53 232.77 531.35 231.45C528.23 230.07 525.47 228.21 523.07 225.87C520.73 223.47 518.87 220.71 517.49 217.59C516.17 214.41 515.51 211.02 515.51 207.42H567.53C567.53 211.02 566.84 214.41 565.46 217.59C564.14 220.71 562.28 223.47 559.88 225.87C557.54 228.21 554.78 230.07 551.6 231.45C548.48 232.77 545.12 233.43 541.52 233.43Z" fill="#FFF7F3"/>
<path d="M169.661 201.48C168.029 201.48 166.493 201.16 165.053 200.52C163.613 199.88 162.445 198.952 161.549 197.736C160.685 196.488 160.253 194.984 160.253 193.224C160.253 192.168 160.397 191.176 160.685 190.248C160.973 189.32 161.485 188.328 162.221 187.272C162.957 186.216 164.013 185 165.389 183.624L176.813 172.056L179.789 174.936L169.709 184.824C168.301 186.2 167.197 187.368 166.397 188.328C165.597 189.288 165.021 190.152 164.669 190.92C164.349 191.688 164.189 192.488 164.189 193.32C164.189 194.856 164.733 196.024 165.821 196.824C166.909 197.592 168.253 197.976 169.853 197.976C171.741 197.976 173.373 197.704 174.749 197.16C176.125 196.584 177.501 195.88 178.877 195.048L180.653 198.36C179.757 198.904 178.765 199.416 177.677 199.896C176.589 200.376 175.373 200.76 174.029 201.048C172.717 201.336 171.261 201.48 169.661 201.48ZM193.194 211.008C192.778 211.008 192.458 210.896 192.234 210.672L185.034 203.472C184.858 203.296 184.746 203.152 184.698 203.04C184.65 202.944 184.626 202.768 184.626 202.512V168.672C184.626 168.416 184.65 168.24 184.698 168.144C184.746 168.032 184.858 167.888 185.034 167.712L192.234 160.512C192.458 160.304 192.778 160.2 193.194 160.2H197.514C197.914 160.2 198.114 160.4 198.114 160.8V164.232C198.114 164.376 198.098 164.512 198.066 164.64C198.034 164.752 197.954 164.872 197.826 165L192.162 170.688V200.52L197.826 206.208C197.954 206.32 198.034 206.44 198.066 206.568C198.098 206.696 198.114 206.824 198.114 206.952V210.408C198.114 210.808 197.914 211.008 197.514 211.008H193.194ZM203.014 180.312V179.832H207.622C207.974 180.536 208.39 181.336 208.87 182.232C209.35 183.096 209.846 183.944 210.358 184.776C210.87 185.608 211.35 186.328 211.798 186.936V187.512H209.398C208.854 187.064 208.262 186.536 207.622 185.928C207.014 185.288 206.39 184.616 205.75 183.912C205.142 183.208 204.598 182.536 204.118 181.896C203.638 181.256 203.27 180.728 203.014 180.312ZM211.462 180.312V179.832H216.07C216.422 180.536 216.838 181.336 217.318 182.232C217.798 183.096 218.294 183.944 218.806 184.776C219.318 185.608 219.798 186.328 220.246 186.936V187.512H217.846C217.302 187.064 216.71 186.536 216.07 185.928C215.462 185.288 214.838 184.616 214.198 183.912C213.59 183.208 213.046 182.536 212.566 181.896C212.086 181.256 211.718 180.728 211.462 180.312ZM225.02 192.576C224.412 192.576 224.108 192.248 224.108 191.592V180.12C224.108 179.48 224.412 179.16 225.02 179.16H236.564C237.156 179.16 237.452 179.48 237.452 180.12V191.592C237.452 192.248 237.156 192.576 236.564 192.576H225.02ZM247.031 201.24L247.511 197.304C249.431 197.304 251.239 197.128 252.935 196.776C254.631 196.392 256.183 195.896 257.591 195.288C259.031 194.648 260.263 193.928 261.287 193.128C262.311 192.296 263.095 191.448 263.639 190.584C264.215 189.688 264.503 188.808 264.503 187.944C264.503 187.528 264.359 187.112 264.071 186.696C263.783 186.248 263.287 185.88 262.583 185.592C261.911 185.304 260.999 185.16 259.847 185.16C259.143 185.16 258.359 185.256 257.495 185.448C256.631 185.64 255.799 185.912 254.999 186.264C254.231 186.584 253.591 186.952 253.079 187.368C253.943 188.072 254.743 188.76 255.479 189.432C256.247 190.104 257.031 190.84 257.831 191.64C258.631 192.408 259.495 193.288 260.423 194.28C261.159 194.824 261.975 195.288 262.871 195.672C263.799 196.056 264.791 196.376 265.847 196.632C266.935 196.856 268.039 197.032 269.159 197.16C270.279 197.256 271.399 197.304 272.519 197.304C273.191 197.304 273.671 197.496 273.959 197.88C274.279 198.232 274.439 198.664 274.439 199.176C274.439 199.688 274.215 200.168 273.767 200.616C273.319 201.032 272.743 201.24 272.039 201.24C270.279 201.24 268.471 201.08 266.615 200.76C264.791 200.408 263.079 199.896 261.479 199.224C259.879 198.52 258.519 197.64 257.399 196.584C256.855 195.88 256.247 195.176 255.575 194.472C254.903 193.768 254.167 193.064 253.367 192.36C252.599 191.624 251.767 190.936 250.871 190.296C250.679 190.136 250.487 189.848 250.295 189.432C250.103 189.016 249.943 188.584 249.815 188.136C249.687 187.688 249.623 187.352 249.623 187.128C249.623 186.648 249.927 186.072 250.535 185.4C251.143 184.728 251.959 184.088 252.983 183.48C254.007 182.84 255.175 182.312 256.487 181.896C257.799 181.48 259.159 181.272 260.567 181.272C262.391 181.272 263.863 181.544 264.983 182.088C266.135 182.632 266.967 183.336 267.479 184.2C268.023 185.032 268.295 185.928 268.295 186.888C268.295 188.296 267.943 189.704 267.239 191.112C266.535 192.488 265.527 193.784 264.215 195C262.903 196.216 261.367 197.304 259.607 198.264C257.847 199.192 255.895 199.928 253.751 200.472C251.639 200.984 249.399 201.24 247.031 201.24ZM282.535 192.576C281.927 192.576 281.623 192.248 281.623 191.592V180.12C281.623 179.48 281.927 179.16 282.535 179.16H294.079C294.671 179.16 294.967 179.48 294.967 180.12V191.592C294.967 192.248 294.671 192.576 294.079 192.576H282.535ZM298.826 180.312V179.832H303.434C303.786 180.536 304.202 181.336 304.682 182.232C305.162 183.096 305.658 183.944 306.17 184.776C306.682 185.608 307.162 186.328 307.61 186.936V187.512H305.21C304.666 187.064 304.074 186.536 303.434 185.928C302.826 185.288 302.202 184.616 301.562 183.912C300.954 183.208 300.41 182.536 299.93 181.896C299.45 181.256 299.082 180.728 298.826 180.312ZM307.274 180.312V179.832H311.882C312.234 180.536 312.65 181.336 313.13 182.232C313.61 183.096 314.106 183.944 314.618 184.776C315.13 185.608 315.61 186.328 316.058 186.936V187.512H313.658C313.114 187.064 312.522 186.536 311.882 185.928C311.274 185.288 310.65 184.616 310.01 183.912C309.402 183.208 308.858 182.536 308.378 181.896C307.898 181.256 307.53 180.728 307.274 180.312ZM325.92 211.008H321.6C321.2 211.008 321 210.808 321 210.408V206.952C321 206.824 321.016 206.696 321.048 206.568C321.096 206.44 321.176 206.32 321.288 206.208L326.952 200.52V170.688L321.288 165C321.176 164.872 321.096 164.752 321.048 164.64C321.016 164.512 321 164.376 321 164.232V160.8C321 160.4 321.2 160.2 321.6 160.2H325.92C326.336 160.2 326.656 160.304 326.88 160.512L334.08 167.712C334.256 167.888 334.368 168.032 334.416 168.144C334.464 168.24 334.488 168.416 334.488 168.672V202.512C334.488 202.768 334.464 202.944 334.416 203.04C334.368 203.152 334.256 203.296 334.08 203.472L326.88 210.672C326.656 210.896 326.336 211.008 325.92 211.008ZM348.915 201.48C342.915 201.48 338.259 198.168 338.259 191.736C338.259 190.344 338.595 188.904 338.883 188.136H342.915C342.675 189 342.483 190.296 342.483 191.736C342.483 195.816 345.027 197.976 348.915 197.976C352.803 197.976 355.203 195.816 355.203 191.496C355.203 188.184 353.523 186.36 351.699 184.536C349.395 182.232 346.755 179.784 346.755 175.272H350.979C350.979 178.056 352.755 179.976 354.723 181.944C357.075 184.296 359.571 186.936 359.571 191.496C359.571 197.496 355.011 201.48 348.915 201.48Z" fill="#FFF7F3"/>
<path d="M249.152 154C248.752 154 248.552 153.8 248.552 153.4V122.608C248.552 122.208 248.752 122.008 249.152 122.008H255.944C256.344 122.008 256.544 122.208 256.544 122.608V134.008H262.472V122.608C262.472 122.208 262.672 122.008 263.072 122.008H269.864C270.264 122.008 270.464 122.208 270.464 122.608V153.4C270.464 153.8 270.264 154 269.864 154H263.072C262.672 154 262.472 153.8 262.472 153.4V140.392H256.544V153.4C256.544 153.8 256.344 154 255.944 154H249.152ZM233.567 158.192C233.407 158.192 233.287 158.136 233.207 158.024C233.143 157.912 233.167 157.768 233.279 157.592L237.887 150.272C237.967 150.144 238.055 150.032 238.151 149.936C238.263 149.84 238.423 149.792 238.631 149.792H246.527C246.895 149.792 247.175 149.992 247.367 150.392L248.807 153.728H251.231L252.479 150.248C252.591 149.944 252.815 149.792 253.151 149.792H259.127C259.287 149.792 259.399 149.848 259.463 149.96C259.527 150.072 259.503 150.216 259.391 150.392L254.807 157.712C254.727 157.856 254.631 157.976 254.519 158.072C254.423 158.152 254.263 158.192 254.039 158.192H246.167C245.767 158.192 245.487 157.992 245.327 157.592L243.887 154.328H241.439L240.191 157.76C240.111 158.048 239.887 158.192 239.519 158.192H233.567ZM253.385 157.808C252.985 157.808 252.785 157.608 252.785 157.208V150.8C252.785 150.4 252.985 150.2 253.385 150.2H265.625C266.025 150.2 266.225 150.4 266.225 150.8V157.208C266.225 157.608 266.025 157.808 265.625 157.808H253.385ZM259.903 158.192C259.743 158.192 259.623 158.136 259.543 158.024C259.479 157.912 259.503 157.768 259.615 157.592L264.223 150.272C264.303 150.144 264.391 150.032 264.487 149.936C264.599 149.84 264.759 149.792 264.967 149.792H272.863C273.231 149.792 273.511 149.992 273.703 150.392L275.143 153.728H277.567L278.815 150.248C278.927 149.944 279.151 149.792 279.487 149.792H285.463C285.623 149.792 285.735 149.848 285.799 149.96C285.863 150.072 285.839 150.216 285.727 150.392L281.143 157.712C281.063 157.856 280.967 157.976 280.855 158.072C280.759 158.152 280.599 158.192 280.375 158.192H272.503C272.103 158.192 271.823 157.992 271.663 157.592L270.223 154.328H267.775L266.527 157.76C266.447 158.048 266.223 158.192 265.855 158.192H259.903Z" fill="#FFF7F3"/>
<path d="M165.891 256C165.571 256 165.251 255.896 164.931 255.688L161.019 253.048L158.331 248.728C158.219 248.52 158.123 248.384 158.043 248.32C157.963 248.24 157.923 248.08 157.923 247.84V237.76C157.923 237.52 157.955 237.36 158.019 237.28C158.083 237.2 158.187 237.056 158.331 236.848L160.779 232.768L164.931 229.912C165.075 229.816 165.219 229.744 165.363 229.696C165.507 229.632 165.683 229.6 165.891 229.6H170.043C170.443 229.6 170.643 229.8 170.643 230.2V234.688C170.643 234.816 170.627 234.952 170.595 235.096C170.579 235.24 170.507 235.352 170.379 235.432L167.643 236.8L165.531 239.56V245.968L167.763 248.512L170.379 250.168C170.539 250.264 170.619 250.384 170.619 250.528C170.635 250.656 170.643 250.784 170.643 250.912V255.4C170.643 255.8 170.443 256 170.043 256H165.891ZM181.755 260.008C181.291 260.008 181.115 259.792 181.227 259.36L190.635 220.552C190.715 220.184 190.931 220 191.283 220H197.403C197.851 220 198.019 220.216 197.907 220.648L188.523 259.432C188.427 259.816 188.211 260.008 187.875 260.008H181.755ZM201.777 231.808C202.641 231.648 203.505 231.44 204.369 231.184C205.265 230.928 206.161 230.672 207.057 230.416C208.081 230.096 209.393 229.664 210.993 229.12C212.593 228.576 214.337 228.048 216.225 227.536C218.113 226.992 220.033 226.544 221.985 226.192C223.969 225.808 225.825 225.616 227.553 225.616C230.241 225.616 232.657 226.128 234.801 227.152C236.945 228.144 238.657 229.584 239.937 231.472C241.217 233.328 241.857 235.6 241.857 238.288C241.857 240.592 241.425 242.656 240.561 244.48C239.697 246.304 238.465 247.92 236.865 249.328C235.265 250.704 233.377 251.872 231.201 252.832C229.057 253.792 226.657 254.56 224.001 255.136C221.345 255.68 218.545 256.032 215.601 256.192L213.921 252.208C217.057 252.112 220.033 251.792 222.849 251.248C225.697 250.704 228.225 249.888 230.433 248.8C232.673 247.68 234.433 246.256 235.713 244.528C236.993 242.768 237.633 240.672 237.633 238.24C237.633 236.544 237.233 235.024 236.433 233.68C235.665 232.304 234.513 231.216 232.977 230.416C231.473 229.616 229.633 229.216 227.457 229.216C225.889 229.216 224.177 229.408 222.321 229.792C220.497 230.144 218.641 230.608 216.753 231.184C214.865 231.728 213.057 232.32 211.329 232.96C209.601 233.6 208.065 234.192 206.721 234.736C205.377 235.28 204.321 235.696 203.553 235.984L201.777 231.808ZM235.233 218.32C235.649 218.896 236.097 219.584 236.577 220.384C237.057 221.184 237.521 221.984 237.969 222.784C238.449 223.584 238.865 224.32 239.217 224.992L236.577 226.144C236.129 225.152 235.521 224.016 234.753 222.736C234.017 221.456 233.329 220.352 232.689 219.424L235.233 218.32ZM240.513 216.4C240.961 217.008 241.441 217.712 241.953 218.512C242.465 219.312 242.961 220.112 243.441 220.912C243.921 221.68 244.305 222.368 244.593 222.976L242.001 224.128C241.489 223.072 240.865 221.936 240.129 220.72C239.393 219.472 238.689 218.4 238.017 217.504L240.513 216.4ZM295.621 231.808C296.485 231.648 297.349 231.44 298.213 231.184C299.109 230.928 300.005 230.672 300.901 230.416C301.925 230.096 303.237 229.664 304.837 229.12C306.437 228.576 308.181 228.048 310.069 227.536C311.957 226.992 313.877 226.544 315.829 226.192C317.813 225.808 319.669 225.616 321.397 225.616C324.085 225.616 326.501 226.128 328.645 227.152C330.789 228.144 332.501 229.584 333.781 231.472C335.061 233.328 335.701 235.6 335.701 238.288C335.701 240.592 335.269 242.656 334.405 244.48C333.541 246.304 332.309 247.92 330.709 249.328C329.109 250.704 327.221 251.872 325.045 252.832C322.901 253.792 320.501 254.56 317.845 255.136C315.189 255.68 312.389 256.032 309.445 256.192L307.765 252.208C310.901 252.112 313.877 251.792 316.693 251.248C319.541 250.704 322.069 249.888 324.277 248.8C326.517 247.68 328.277 246.256 329.557 244.528C330.837 242.768 331.477 240.672 331.477 238.24C331.477 236.544 331.077 235.024 330.277 233.68C329.509 232.304 328.357 231.216 326.821 230.416C325.317 229.616 323.477 229.216 321.301 229.216C319.733 229.216 318.021 229.408 316.165 229.792C314.341 230.144 312.485 230.608 310.597 231.184C308.709 231.728 306.901 232.32 305.173 232.96C303.445 233.6 301.909 234.192 300.565 234.736C299.221 235.28 298.165 235.696 297.397 235.984L295.621 231.808ZM329.077 218.32C329.493 218.896 329.941 219.584 330.421 220.384C330.901 221.184 331.365 221.984 331.813 222.784C332.293 223.584 332.709 224.32 333.061 224.992L330.421 226.144C329.973 225.152 329.365 224.016 328.597 222.736C327.861 221.456 327.173 220.352 326.533 219.424L329.077 218.32ZM334.357 216.4C334.805 217.008 335.285 217.712 335.797 218.512C336.309 219.312 336.805 220.112 337.285 220.912C337.765 221.68 338.149 222.368 338.437 222.976L335.845 224.128C335.333 223.072 334.709 221.936 333.973 220.72C333.237 219.472 332.533 218.4 331.861 217.504L334.357 216.4Z" fill="#FFF7F3"/>
</svg>
