<svg width="933" height="274" viewBox="0 0 933 274" fill="none" xmlns="http://www.w3.org/2000/svg">
<path d="M738.641 36.4C738.929 36.4 739.073 36.544 739.073 36.832V39.072C739.073 39.3493 738.929 39.488 738.641 39.488H737.473C737.153 39.488 736.993 39.6213 736.993 39.888V40.368H739.041C739.307 40.368 739.441 40.512 739.441 40.8L739.409 44.848C739.409 45.136 739.27 45.28 738.993 45.28H733.921C733.654 45.28 733.521 45.136 733.521 44.848V39.952C733.521 38.7467 733.803 37.856 734.369 37.28C734.945 36.6933 735.702 36.4 736.641 36.4H738.641ZM731.713 36.4C732.001 36.4 732.145 36.544 732.145 36.832V39.072C732.145 39.3493 732.001 39.488 731.713 39.488H730.545C730.225 39.488 730.065 39.6213 730.065 39.888V40.368H732.113C732.379 40.368 732.513 40.512 732.513 40.8L732.481 44.848C732.481 45.136 732.342 45.28 732.065 45.28H726.993C726.726 45.28 726.593 45.136 726.593 44.848V39.952C726.593 38.7467 726.875 37.856 727.441 37.28C728.017 36.6933 728.774 36.4 729.713 36.4H731.713ZM746.639 60C746.393 60 746.18 59.9093 745.999 59.728L742.799 56.528C742.617 56.3573 742.527 56.144 742.527 55.888V46.512C742.527 46.256 742.617 46.0427 742.799 45.872L745.999 42.672C746.18 42.4907 746.393 42.4 746.639 42.4H755.199C755.465 42.4 755.599 42.5333 755.599 42.8V59.6C755.599 59.8667 755.465 60 755.199 60H751.871C751.732 60 751.625 59.9733 751.551 59.92C751.487 59.8667 751.412 59.8027 751.327 59.728L750.527 58.928L749.727 59.728C749.556 59.9093 749.343 60 749.087 60H746.639ZM748.511 56.272H749.631C749.972 56.272 750.207 56.2027 750.335 56.064C750.463 55.9253 750.527 55.68 750.527 55.328V46.128H748.511C748.159 46.128 747.919 46.1973 747.791 46.336C747.663 46.4747 747.599 46.72 747.599 47.072V55.328C747.599 55.68 747.663 55.9253 747.791 56.064C747.919 56.2027 748.159 56.272 748.511 56.272ZM768.932 65.328C768.665 65.328 768.532 65.1947 768.532 64.928V62.432C768.532 62.2187 768.612 62.1013 768.772 62.08L771.108 61.488L772.772 60.608C772.932 60.5227 773.012 60.3573 773.012 60.112V57.488L771.508 58.88C771.327 59.0613 771.113 59.152 770.868 59.152L768.148 59.248C767.903 59.248 767.689 59.1627 767.508 58.992L764.58 56.048C764.399 55.8773 764.308 55.664 764.308 55.408V46.512C764.308 46.256 764.399 46.0427 764.58 45.872L767.78 42.672C767.961 42.4907 768.175 42.4 768.42 42.4H776.98C777.247 42.4 777.38 42.5333 777.38 42.8V62.032C777.38 62.32 777.289 62.5333 777.108 62.672L774.98 64.032L772.292 65.152C772.132 65.216 772.009 65.2587 771.924 65.28C771.849 65.312 771.721 65.328 771.54 65.328H768.932ZM770.292 55.792H771.412C771.753 55.792 771.988 55.7227 772.116 55.584C772.244 55.4453 772.308 55.2 772.308 54.848V46.128H770.292C769.94 46.128 769.7 46.1973 769.572 46.336C769.444 46.4747 769.38 46.72 769.38 47.072V54.848C769.38 55.2 769.444 55.4453 769.572 55.584C769.7 55.7227 769.94 55.792 770.292 55.792ZM781.508 60C781.241 60 781.108 59.8667 781.108 59.6V42.8C781.108 42.5333 781.241 42.4 781.508 42.4H785.764C786.03 42.4 786.164 42.5333 786.164 42.8V59.6C786.164 59.8667 786.03 60 785.764 60H781.508ZM781.428 41.072C781.214 41.072 781.108 40.9653 781.108 40.752V38.72C781.108 38.5067 781.214 38.4 781.428 38.4H785.876C786.068 38.4 786.164 38.5067 786.164 38.72V40.752C786.164 40.9653 786.068 41.072 785.876 41.072H781.428ZM790.721 60C790.454 60 790.321 59.8667 790.321 59.6V42.768C790.321 42.5227 790.406 42.3093 790.577 42.128L793.777 38.928C793.958 38.7573 794.171 38.672 794.417 38.672H797.857C798.123 38.672 798.257 38.8053 798.257 39.072V42.8C798.257 43.0667 798.123 43.2 797.857 43.2H795.377V59.6C795.377 59.8667 795.243 60 794.977 60H790.721ZM789.329 50C789.062 50 788.929 49.8667 788.929 49.6V46.672C788.929 46.4053 789.062 46.272 789.329 46.272H797.857C798.123 46.272 798.257 46.4053 798.257 46.672V49.6C798.257 49.8667 798.123 50 797.857 50H789.329ZM804.819 60C804.573 60 804.36 59.9093 804.179 59.728L801.507 57.072C801.336 56.8907 801.251 56.6773 801.251 56.432V46.128H800.579C800.312 46.128 800.179 45.9947 800.179 45.728V42.8C800.179 42.5333 800.312 42.4 800.579 42.4H801.251V40.4C801.251 40.1333 801.384 40 801.651 40H805.907C806.173 40 806.307 40.1333 806.307 40.4V42.4H807.859C808.125 42.4 808.259 42.5333 808.259 42.8V45.728C808.259 45.9947 808.125 46.128 807.859 46.128H806.307V54.672C806.307 54.8747 806.371 55.04 806.499 55.168L808.067 56.752C808.173 56.848 808.227 57.008 808.227 57.232V59.6C808.227 59.8667 808.093 60 807.827 60H804.819ZM817.065 60C816.798 60 816.664 59.8667 816.664 59.6V42.768C816.664 42.5227 816.75 42.3093 816.921 42.128L820.121 38.928C820.302 38.7573 820.515 38.672 820.761 38.672H824.201C824.467 38.672 824.601 38.8053 824.601 39.072V42.8C824.601 43.0667 824.467 43.2 824.201 43.2H821.721V59.6C821.721 59.8667 821.587 60 821.321 60H817.065ZM815.673 50C815.406 50 815.273 49.8667 815.273 49.6V46.672C815.273 46.4053 815.406 46.272 815.673 46.272H824.201C824.467 46.272 824.601 46.4053 824.601 46.672V49.6C824.601 49.8667 824.467 50 824.201 50H815.673ZM831.483 60C831.237 60 831.024 59.9093 830.843 59.728L827.643 56.528C827.461 56.3573 827.371 56.144 827.371 55.888V46.512C827.371 46.256 827.461 46.0427 827.643 45.872L830.843 42.672C831.024 42.4907 831.237 42.4 831.483 42.4H836.331C836.587 42.4 836.8 42.4907 836.971 42.672L840.171 45.872C840.352 46.0427 840.443 46.256 840.443 46.512V55.888C840.443 56.144 840.352 56.3573 840.171 56.528L836.971 59.728C836.8 59.9093 836.587 60 836.331 60H831.483ZM833.355 56.272H834.475C834.816 56.272 835.051 56.2027 835.179 56.064C835.307 55.9253 835.371 55.68 835.371 55.328V47.072C835.371 46.72 835.307 46.4747 835.179 46.336C835.051 46.1973 834.816 46.128 834.475 46.128H833.355C833.003 46.128 832.763 46.1973 832.635 46.336C832.507 46.4747 832.443 46.72 832.443 47.072V55.328C832.443 55.68 832.507 55.9253 832.635 56.064C832.763 56.2027 833.003 56.272 833.355 56.272ZM844.57 60C844.303 60 844.17 59.8667 844.17 59.6V42.8C844.17 42.5333 844.303 42.4 844.57 42.4H847.002C847.205 42.4 847.381 42.4907 847.53 42.672L849.098 44.48L850.842 42.592C850.959 42.464 851.109 42.4 851.29 42.4H853.018C853.285 42.4 853.418 42.5333 853.418 42.8V46.24C853.418 46.4107 853.407 46.528 853.386 46.592C853.365 46.6453 853.306 46.704 853.21 46.768L849.242 49.696V59.6C849.242 59.8667 849.109 60 848.842 60H844.57ZM865.028 65.328C864.761 65.328 864.628 65.1947 864.628 64.928V62.432C864.628 62.2293 864.708 62.112 864.868 62.08L867.22 61.488L868.868 60.608C869.028 60.5227 869.108 60.3573 869.108 60.112V57.488L867.62 58.88C867.439 59.0613 867.225 59.152 866.98 59.152L864.26 59.248C864.015 59.248 863.801 59.1627 863.62 58.992L860.692 56.048C860.511 55.8773 860.42 55.664 860.42 55.408V42.8C860.42 42.5333 860.553 42.4 860.82 42.4H865.092C865.359 42.4 865.492 42.5333 865.492 42.8V54.848C865.492 55.2 865.556 55.4453 865.684 55.584C865.812 55.7227 866.047 55.792 866.388 55.792H868.42V42.8C868.42 42.5333 868.553 42.4 868.82 42.4H873.092C873.359 42.4 873.492 42.5333 873.492 42.8V62.032C873.492 62.352 873.401 62.5653 873.22 62.672L871.092 64.032L868.388 65.152C868.228 65.216 868.105 65.2587 868.02 65.28C867.945 65.312 867.823 65.328 867.652 65.328H865.028ZM881.233 60C880.987 60 880.774 59.9093 880.593 59.728L877.393 56.528C877.211 56.3573 877.121 56.144 877.121 55.888V46.512C877.121 46.256 877.211 46.0427 877.393 45.872L880.593 42.672C880.774 42.4907 880.987 42.4 881.233 42.4H886.081C886.337 42.4 886.55 42.4907 886.721 42.672L889.921 45.872C890.102 46.0427 890.193 46.256 890.193 46.512V55.888C890.193 56.144 890.102 56.3573 889.921 56.528L886.721 59.728C886.55 59.9093 886.337 60 886.081 60H881.233ZM883.105 56.272H884.225C884.566 56.272 884.801 56.2027 884.929 56.064C885.057 55.9253 885.121 55.68 885.121 55.328V47.072C885.121 46.72 885.057 46.4747 884.929 46.336C884.801 46.1973 884.566 46.128 884.225 46.128H883.105C882.753 46.128 882.513 46.1973 882.385 46.336C882.257 46.4747 882.193 46.72 882.193 47.072V55.328C882.193 55.68 882.257 55.9253 882.385 56.064C882.513 56.2027 882.753 56.272 883.105 56.272ZM898.032 60C897.776 60 897.563 59.9093 897.392 59.728L894.192 56.528C894.011 56.3573 893.92 56.144 893.92 55.888V42.8C893.92 42.5333 894.053 42.4 894.32 42.4H898.592C898.859 42.4 898.992 42.5333 898.992 42.8V55.248C898.992 55.7493 899.237 56 899.728 56H901.92V42.8C901.92 42.5333 902.053 42.4 902.32 42.4H906.592C906.859 42.4 906.992 42.5333 906.992 42.8V59.6C906.992 59.8667 906.859 60 906.592 60H898.032ZM910.493 59.872C910.226 59.872 910.093 59.728 910.093 59.44V54.352C910.093 54.064 910.226 53.92 910.493 53.92H915.613C915.879 53.92 916.013 54.064 916.013 54.352V59.44C916.013 59.728 915.879 59.872 915.613 59.872H910.493ZM919.361 45.28C919.073 45.28 918.929 45.136 918.929 44.848V42.608C918.929 42.3307 919.073 42.192 919.361 42.192H920.529C920.849 42.192 921.009 42.0587 921.009 41.792V41.312H918.961C918.695 41.312 918.561 41.168 918.561 40.88L918.593 36.832C918.593 36.544 918.732 36.4 919.009 36.4H924.081C924.348 36.4 924.481 36.544 924.481 36.832V41.728C924.481 42.9227 924.199 43.8133 923.633 44.4C923.068 44.9867 922.311 45.28 921.361 45.28H919.361ZM926.289 45.28C926.001 45.28 925.857 45.136 925.857 44.848V42.608C925.857 42.3307 926.001 42.192 926.289 42.192H927.457C927.777 42.192 927.937 42.0587 927.937 41.792V41.312H925.889C925.623 41.312 925.489 41.168 925.489 40.88L925.521 36.832C925.521 36.544 925.66 36.4 925.937 36.4H931.009C931.276 36.4 931.409 36.544 931.409 36.832V41.728C931.409 42.9227 931.127 43.8133 930.561 44.4C929.996 44.9867 929.239 45.28 928.289 45.28H926.289Z" fill="#FFF7F3"/>
<path d="M27.203 12.4C27.491 12.4 27.635 12.544 27.635 12.832V15.072C27.635 15.3493 27.491 15.488 27.203 15.488H26.035C25.715 15.488 25.555 15.6213 25.555 15.888V16.368H27.603C27.8697 16.368 28.003 16.512 28.003 16.8L27.971 20.848C27.971 21.136 27.8323 21.28 27.555 21.28H22.483C22.2163 21.28 22.083 21.136 22.083 20.848V15.952C22.083 14.7467 22.3657 13.856 22.931 13.28C23.507 12.6933 24.2643 12.4 25.203 12.4H27.203ZM20.275 12.4C20.563 12.4 20.707 12.544 20.707 12.832V15.072C20.707 15.3493 20.563 15.488 20.275 15.488H19.107C18.787 15.488 18.627 15.6213 18.627 15.888V16.368H20.675C20.9417 16.368 21.075 16.512 21.075 16.8L21.043 20.848C21.043 21.136 20.9043 21.28 20.627 21.28H15.555C15.2883 21.28 15.155 21.136 15.155 20.848V15.952C15.155 14.7467 15.4377 13.856 16.003 13.28C16.579 12.6933 17.3363 12.4 18.275 12.4H20.275ZM35.2013 36C34.9559 36 34.7426 35.9093 34.5613 35.728L31.3613 32.528C31.1799 32.3573 31.0893 32.144 31.0893 31.888V22.512C31.0893 22.256 31.1799 22.0427 31.3613 21.872L34.5613 18.672C34.7426 18.4907 34.9559 18.4 35.2013 18.4H43.7613C44.0279 18.4 44.1613 18.5333 44.1613 18.8V35.6C44.1613 35.8667 44.0279 36 43.7613 36H40.4333C40.2946 36 40.1879 35.9733 40.1133 35.92C40.0493 35.8667 39.9746 35.8027 39.8893 35.728L39.0893 34.928L38.2893 35.728C38.1186 35.9093 37.9053 36 37.6493 36H35.2013ZM37.0733 32.272H38.1933C38.5346 32.272 38.7693 32.2027 38.8973 32.064C39.0253 31.9253 39.0893 31.68 39.0893 31.328V22.128H37.0733C36.7213 22.128 36.4813 22.1973 36.3533 22.336C36.2253 22.4747 36.1613 22.72 36.1613 23.072V31.328C36.1613 31.68 36.2253 31.9253 36.3533 32.064C36.4813 32.2027 36.7213 32.272 37.0733 32.272ZM51.8888 36C51.6434 36 51.4301 35.9093 51.2488 35.728L48.0488 32.528C47.8674 32.3573 47.7768 32.144 47.7768 31.888V18.8C47.7768 18.5333 47.9101 18.4 48.1768 18.4H52.4488C52.7154 18.4 52.8488 18.5333 52.8488 18.8V32H55.5208V18.8C55.5208 18.5333 55.6541 18.4 55.9208 18.4H60.1768C60.4434 18.4 60.5768 18.5333 60.5768 18.8V32H63.2488V18.8C63.2488 18.5333 63.3821 18.4 63.6488 18.4H67.9208C68.1874 18.4 68.3208 18.5333 68.3208 18.8V31.888C68.3208 32.144 68.2301 32.3573 68.0488 32.528L64.8488 35.728C64.6674 35.9093 64.4541 36 64.2088 36H60.5608C60.3048 36 60.0914 35.9093 59.9208 35.728L57.7608 33.568H58.3368L56.1768 35.728C56.0061 35.9093 55.7928 36 55.5368 36H51.8888ZM77.5388 36C77.2721 36 77.1388 35.8667 77.1388 35.6V15.072C77.1388 14.8053 77.2721 14.672 77.5388 14.672H81.8108C82.0774 14.672 82.2108 14.8053 82.2108 15.072V18.4H86.0988C86.3441 18.4 86.5574 18.4907 86.7388 18.672L89.9388 21.872C90.1201 22.0427 90.2108 22.256 90.2108 22.512V35.6C90.2108 35.8667 90.0774 36 89.8108 36H85.5388C85.2721 36 85.1388 35.8667 85.1388 35.6V23.072C85.1388 22.624 84.9148 22.4 84.4668 22.4H82.2108V35.6C82.2108 35.8667 82.0774 36 81.8108 36H77.5388ZM97.9513 36C97.7059 36 97.4926 35.9093 97.3113 35.728L94.1113 32.528C93.9299 32.3573 93.8393 32.144 93.8393 31.888V22.512C93.8393 22.256 93.9299 22.0427 94.1113 21.872L97.3113 18.672C97.4926 18.4907 97.7059 18.4 97.9513 18.4H106.511C106.778 18.4 106.911 18.5333 106.911 18.8V35.6C106.911 35.8667 106.778 36 106.511 36H103.183C103.045 36 102.938 35.9733 102.863 35.92C102.799 35.8667 102.725 35.8027 102.639 35.728L101.839 34.928L101.039 35.728C100.869 35.9093 100.655 36 100.399 36H97.9513ZM99.8233 32.272H100.943C101.285 32.272 101.519 32.2027 101.647 32.064C101.775 31.9253 101.839 31.68 101.839 31.328V22.128H99.8233C99.4713 22.128 99.2313 22.1973 99.1033 22.336C98.9753 22.4747 98.9113 22.72 98.9113 23.072V31.328C98.9113 31.68 98.9753 31.9253 99.1033 32.064C99.2313 32.2027 99.4713 32.272 99.8233 32.272ZM111.039 36C110.772 36 110.639 35.8667 110.639 35.6V18.8C110.639 18.5333 110.772 18.4 111.039 18.4H119.599C119.844 18.4 120.057 18.4907 120.239 18.672L123.439 21.872C123.62 22.0427 123.711 22.256 123.711 22.512V35.6C123.711 35.8667 123.577 36 123.311 36H119.039C118.772 36 118.639 35.8667 118.639 35.6V23.152C118.639 22.6507 118.388 22.4 117.887 22.4H115.711V35.6C115.711 35.8667 115.577 36 115.311 36H111.039ZM127.851 36C127.585 36 127.451 35.8667 127.451 35.6V18.8C127.451 18.5333 127.585 18.4 127.851 18.4H136.411C136.657 18.4 136.87 18.4907 137.051 18.672L140.251 21.872C140.433 22.0427 140.523 22.256 140.523 22.512V35.6C140.523 35.8667 140.39 36 140.123 36H135.851C135.585 36 135.451 35.8667 135.451 35.6V23.152C135.451 22.6507 135.201 22.4 134.699 22.4H132.523V35.6C132.523 35.8667 132.39 36 132.123 36H127.851ZM148.872 41.328C148.605 41.328 148.472 41.1947 148.472 40.928V38.432C148.472 38.2293 148.552 38.112 148.712 38.08L151.064 37.488L152.712 36.608C152.872 36.5227 152.952 36.3573 152.952 36.112V33.488L151.464 34.88C151.282 35.0613 151.069 35.152 150.824 35.152L148.104 35.248C147.858 35.248 147.645 35.1627 147.464 34.992L144.536 32.048C144.354 31.8773 144.264 31.664 144.264 31.408V18.8C144.264 18.5333 144.397 18.4 144.664 18.4H148.936C149.202 18.4 149.336 18.5333 149.336 18.8V30.848C149.336 31.2 149.4 31.4453 149.528 31.584C149.656 31.7227 149.89 31.792 150.232 31.792H152.264V18.8C152.264 18.5333 152.397 18.4 152.664 18.4H156.936C157.202 18.4 157.336 18.5333 157.336 18.8V38.032C157.336 38.352 157.245 38.5653 157.064 38.672L154.936 40.032L152.232 41.152C152.072 41.216 151.949 41.2587 151.864 41.28C151.789 41.312 151.666 41.328 151.496 41.328H148.872ZM161.236 38.88C160.948 38.88 160.804 38.736 160.804 38.448V36.208C160.804 35.9307 160.948 35.792 161.236 35.792H162.404C162.724 35.792 162.884 35.6587 162.884 35.392V34.912H160.836C160.57 34.912 160.436 34.768 160.436 34.48L160.468 30.432C160.468 30.144 160.607 30 160.884 30H165.956C166.223 30 166.356 30.144 166.356 30.432V35.328C166.356 36.5227 166.074 37.4133 165.508 38C164.943 38.5867 164.186 38.88 163.236 38.88H161.236ZM179.247 41.328C178.98 41.328 178.847 41.1947 178.847 40.928V38.432C178.847 38.2293 178.927 38.112 179.087 38.08L181.439 37.488L183.087 36.608C183.247 36.5227 183.327 36.3573 183.327 36.112V33.488L181.839 34.88C181.657 35.0613 181.444 35.152 181.199 35.152L178.479 35.248C178.233 35.248 178.02 35.1627 177.839 34.992L174.911 32.048C174.729 31.8773 174.639 31.664 174.639 31.408V18.8C174.639 18.5333 174.772 18.4 175.039 18.4H179.311C179.577 18.4 179.711 18.5333 179.711 18.8V30.848C179.711 31.2 179.775 31.4453 179.903 31.584C180.031 31.7227 180.265 31.792 180.607 31.792H182.639V18.8C182.639 18.5333 182.772 18.4 183.039 18.4H187.311C187.577 18.4 187.711 18.5333 187.711 18.8V38.032C187.711 38.352 187.62 38.5653 187.439 38.672L185.311 40.032L182.607 41.152C182.447 41.216 182.324 41.2587 182.239 41.28C182.164 41.312 182.041 41.328 181.871 41.328H179.247ZM195.451 36C195.206 36 194.993 35.9093 194.811 35.728L191.611 32.528C191.43 32.3573 191.339 32.144 191.339 31.888V22.512C191.339 22.256 191.43 22.0427 191.611 21.872L194.811 18.672C194.993 18.4907 195.206 18.4 195.451 18.4H200.299C200.555 18.4 200.769 18.4907 200.939 18.672L204.139 21.872C204.321 22.0427 204.411 22.256 204.411 22.512V31.888C204.411 32.144 204.321 32.3573 204.139 32.528L200.939 35.728C200.769 35.9093 200.555 36 200.299 36H195.451ZM197.323 32.272H198.443C198.785 32.272 199.019 32.2027 199.147 32.064C199.275 31.9253 199.339 31.68 199.339 31.328V23.072C199.339 22.72 199.275 22.4747 199.147 22.336C199.019 22.1973 198.785 22.128 198.443 22.128H197.323C196.971 22.128 196.731 22.1973 196.603 22.336C196.475 22.4747 196.411 22.72 196.411 23.072V31.328C196.411 31.68 196.475 31.9253 196.603 32.064C196.731 32.2027 196.971 32.272 197.323 32.272ZM212.251 36C211.995 36 211.781 35.9093 211.611 35.728L208.411 32.528C208.229 32.3573 208.139 32.144 208.139 31.888V18.8C208.139 18.5333 208.272 18.4 208.539 18.4H212.811C213.077 18.4 213.211 18.5333 213.211 18.8V31.248C213.211 31.7493 213.456 32 213.947 32H216.139V18.8C216.139 18.5333 216.272 18.4 216.539 18.4H220.811C221.077 18.4 221.211 18.5333 221.211 18.8V35.6C221.211 35.8667 221.077 36 220.811 36H212.251ZM1.96463 84C1.69796 84 1.56463 83.8667 1.56463 83.6V81.008C1.56463 80.7627 1.64463 80.6027 1.80463 80.528L5.06863 78.592V76.928L1.80463 75.168C1.64463 75.072 1.56463 74.9067 1.56463 74.672V69.568C1.56463 69.4507 1.58063 69.3547 1.61263 69.28C1.65529 69.2053 1.71396 69.1413 1.78863 69.088L5.19663 66.592C5.31396 66.5067 5.40996 66.4533 5.48463 66.432C5.55929 66.4107 5.63396 66.4 5.70863 66.4H9.59663C9.86329 66.4 9.99663 66.5333 9.99663 66.8V69.312C9.99663 69.4933 9.98063 69.616 9.94863 69.68C9.92729 69.744 9.87396 69.7973 9.78863 69.84L6.76463 71.472V73.328L9.99663 74.928C10.178 75.0027 10.2686 75.1627 10.2686 75.408V80.32C10.2686 80.5867 10.178 80.8 9.99663 80.96L6.58863 83.792C6.41796 83.9307 6.20463 84 5.94863 84H1.96463ZM14.0231 84C13.7565 84 13.6231 83.8667 13.6231 83.6V63.072C13.6231 62.8053 13.7565 62.672 14.0231 62.672H18.2951C18.5618 62.672 18.6951 62.8053 18.6951 63.072V66.4H22.5831C22.8285 66.4 23.0418 66.4907 23.2231 66.672L26.4231 69.872C26.6045 70.0427 26.6951 70.256 26.6951 70.512V83.6C26.6951 83.8667 26.5618 84 26.2951 84H22.0231C21.7565 84 21.6231 83.8667 21.6231 83.6V71.072C21.6231 70.624 21.3991 70.4 20.9511 70.4H18.6951V83.6C18.6951 83.8667 18.5618 84 18.2951 84H14.0231ZM34.4356 84C34.1903 84 33.977 83.9093 33.7956 83.728L30.5956 80.528C30.4143 80.3573 30.3236 80.144 30.3236 79.888V70.512C30.3236 70.256 30.4143 70.0427 30.5956 69.872L33.7956 66.672C33.977 66.4907 34.1903 66.4 34.4356 66.4H39.2836C39.5396 66.4 39.753 66.4907 39.9236 66.672L43.1236 69.872C43.305 70.0427 43.3956 70.256 43.3956 70.512V79.888C43.3956 80.144 43.305 80.3573 43.1236 80.528L39.9236 83.728C39.753 83.9093 39.5396 84 39.2836 84H34.4356ZM36.3076 80.272H37.4276C37.769 80.272 38.0036 80.2027 38.1316 80.064C38.2596 79.9253 38.3236 79.68 38.3236 79.328V71.072C38.3236 70.72 38.2596 70.4747 38.1316 70.336C38.0036 70.1973 37.769 70.128 37.4276 70.128H36.3076C35.9556 70.128 35.7156 70.1973 35.5876 70.336C35.4596 70.4747 35.3956 70.72 35.3956 71.072V79.328C35.3956 79.68 35.4596 79.9253 35.5876 80.064C35.7156 80.2027 35.9556 80.272 36.3076 80.272ZM51.2351 84C50.9791 84 50.7658 83.9093 50.5951 83.728L47.3951 80.528C47.2138 80.3573 47.1231 80.144 47.1231 79.888V66.8C47.1231 66.5333 47.2565 66.4 47.5231 66.4H51.7951C52.0618 66.4 52.1951 66.5333 52.1951 66.8V79.248C52.1951 79.7493 52.4405 80 52.9311 80H55.1231V66.8C55.1231 66.5333 55.2565 66.4 55.5231 66.4H59.7951C60.0618 66.4 60.1951 66.5333 60.1951 66.8V83.6C60.1951 83.8667 60.0618 84 59.7951 84H51.2351ZM64.1436 84C63.877 84 63.7436 83.8667 63.7436 83.6V63.072C63.7436 62.8053 63.877 62.672 64.1436 62.672H68.4156C68.6823 62.672 68.8156 62.8053 68.8156 63.072V83.6C68.8156 83.8667 68.6823 84 68.4156 84H64.1436ZM76.3419 84C76.0965 84 75.8832 83.9093 75.7019 83.728L72.5019 80.528C72.3205 80.3573 72.2299 80.144 72.2299 79.888V70.512C72.2299 70.256 72.3205 70.0427 72.5019 69.872L75.7019 66.672C75.8832 66.4907 76.0965 66.4 76.3419 66.4H78.7899C79.0459 66.4 79.2592 66.4907 79.4299 66.672L80.2299 67.472V63.072C80.2299 62.8053 80.3632 62.672 80.6299 62.672H84.9019C85.1685 62.672 85.3019 62.8053 85.3019 63.072V83.6C85.3019 83.8667 85.1685 84 84.9019 84H81.5739C81.4352 84 81.3285 83.9733 81.2539 83.92C81.1899 83.8667 81.1152 83.8027 81.0299 83.728L80.2299 82.928L79.4299 83.728C79.2592 83.9093 79.0459 84 78.7899 84H76.3419ZM78.2139 80.272H79.3339C79.6752 80.272 79.9099 80.2027 80.0379 80.064C80.1659 79.9253 80.2299 79.68 80.2299 79.328V70.128H78.2139C77.8619 70.128 77.6219 70.1973 77.4939 70.336C77.3659 70.4747 77.3019 70.72 77.3019 71.072V79.328C77.3019 79.68 77.3659 79.9253 77.4939 80.064C77.6219 80.2027 77.8619 80.272 78.2139 80.272ZM89.4294 84C89.1627 84 89.0294 83.8667 89.0294 83.6V66.8C89.0294 66.5333 89.1627 66.4 89.4294 66.4H97.9894C98.2347 66.4 98.448 66.4907 98.6294 66.672L101.829 69.872C102.011 70.0427 102.101 70.256 102.101 70.512V83.6C102.101 83.8667 101.968 84 101.701 84H97.4294C97.1627 84 97.0294 83.8667 97.0294 83.6V71.152C97.0294 70.6507 96.7787 70.4 96.2774 70.4H94.1014V83.6C94.1014 83.8667 93.968 84 93.7014 84H89.4294ZM106.002 69.28C105.714 69.28 105.57 69.136 105.57 68.848V66.608C105.57 66.3307 105.714 66.192 106.002 66.192H107.17C107.49 66.192 107.65 66.0587 107.65 65.792V65.312H105.602C105.335 65.312 105.202 65.168 105.202 64.88L105.234 60.832C105.234 60.544 105.373 60.4 105.65 60.4H110.722C110.989 60.4 111.122 60.544 111.122 60.832V65.728C111.122 66.9227 110.839 67.8133 110.274 68.4C109.709 68.9867 108.951 69.28 108.002 69.28H106.002ZM117.991 84C117.745 84 117.532 83.9093 117.351 83.728L114.679 81.072C114.508 80.8907 114.423 80.6773 114.423 80.432V70.128H113.751C113.484 70.128 113.351 69.9947 113.351 69.728V66.8C113.351 66.5333 113.484 66.4 113.751 66.4H114.423V64.4C114.423 64.1333 114.556 64 114.823 64H119.079C119.345 64 119.479 64.1333 119.479 64.4V66.4H121.031C121.297 66.4 121.431 66.5333 121.431 66.8V69.728C121.431 69.9947 121.297 70.128 121.031 70.128H119.479V78.672C119.479 78.8747 119.543 79.04 119.671 79.168L121.239 80.752C121.345 80.848 121.399 81.008 121.399 81.232V83.6C121.399 83.8667 121.265 84 120.999 84H117.991ZM129.804 84C129.538 84 129.404 83.8667 129.404 83.6V63.072C129.404 62.8053 129.538 62.672 129.804 62.672H134.076C134.343 62.672 134.476 62.8053 134.476 63.072V66.4H138.364C138.61 66.4 138.823 66.4907 139.004 66.672L142.204 69.872C142.386 70.0427 142.476 70.256 142.476 70.512V83.6C142.476 83.8667 142.343 84 142.076 84H137.804C137.538 84 137.404 83.8667 137.404 83.6V71.072C137.404 70.624 137.18 70.4 136.732 70.4H134.476V83.6C134.476 83.8667 134.343 84 134.076 84H129.804ZM150.217 84C149.972 84 149.758 83.9093 149.577 83.728L146.377 80.528C146.196 80.3573 146.105 80.144 146.105 79.888V70.512C146.105 70.256 146.196 70.0427 146.377 69.872L149.577 66.672C149.758 66.4907 149.972 66.4 150.217 66.4H158.777C159.044 66.4 159.177 66.5333 159.177 66.8V83.6C159.177 83.8667 159.044 84 158.777 84H155.449C155.31 84 155.204 83.9733 155.129 83.92C155.065 83.8667 154.99 83.8027 154.905 83.728L154.105 82.928L153.305 83.728C153.134 83.9093 152.921 84 152.665 84H150.217ZM152.089 80.272H153.209C153.55 80.272 153.785 80.2027 153.913 80.064C154.041 79.9253 154.105 79.68 154.105 79.328V70.128H152.089C151.737 70.128 151.497 70.1973 151.369 70.336C151.241 70.4747 151.177 70.72 151.177 71.072V79.328C151.177 79.68 151.241 79.9253 151.369 80.064C151.497 80.2027 151.737 80.272 152.089 80.272ZM166.904 84C166.659 84 166.446 83.9093 166.264 83.728L163.064 80.528C162.883 80.3573 162.792 80.144 162.792 79.888V66.8C162.792 66.5333 162.926 66.4 163.192 66.4H167.464C167.731 66.4 167.864 66.5333 167.864 66.8V80H170.792V66.8C170.792 66.5333 170.926 66.4 171.192 66.4H175.464C175.731 66.4 175.864 66.5333 175.864 66.8V79.888C175.864 80.144 175.774 80.3573 175.592 80.528L172.392 83.728C172.222 83.9093 172.008 84 171.752 84H166.904ZM186.76 84C186.653 84 186.536 83.984 186.408 83.952C186.291 83.92 186.179 83.8933 186.072 83.872L183.224 83.168L179.96 82.08C179.64 81.9733 179.48 81.664 179.48 81.152V70.512C179.48 70.256 179.571 70.0427 179.752 69.872L182.952 66.672C183.133 66.4907 183.347 66.4 183.592 66.4H188.712C188.957 66.4 189.171 66.4907 189.352 66.672L192.552 69.872C192.733 70.0427 192.824 70.256 192.824 70.512V77.072H184.232L184.12 79.2L186.392 79.952L190.472 80.24C190.653 80.272 190.744 80.3947 190.744 80.608V83.6C190.744 83.8667 190.611 84 190.344 84H186.76ZM186.12 74.56H186.424C186.947 74.56 187.363 74.3627 187.672 73.968C187.992 73.5733 188.152 73.04 188.152 72.368V72.048C188.152 71.3867 187.992 70.8587 187.672 70.464C187.363 70.0693 186.947 69.872 186.424 69.872H186.104C185.592 69.872 185.181 70.0693 184.872 70.464C184.573 70.8587 184.424 71.3867 184.424 72.048V72.368C184.424 73.04 184.573 73.5733 184.872 73.968C185.181 74.3627 185.597 74.56 186.12 74.56ZM206.88 79.072C206.688 79.072 206.533 79.072 206.416 79.072C206.309 79.0613 206.176 78.9867 206.016 78.848L200.336 74.24C200.176 74.1013 200.08 74.0053 200.048 73.952C200.016 73.888 200 73.7707 200 73.6V73.072C200 72.8907 200.016 72.7733 200.048 72.72C200.08 72.656 200.176 72.56 200.336 72.432L206.016 67.808C206.176 67.68 206.309 67.616 206.416 67.616C206.533 67.6053 206.688 67.6 206.88 67.6H208.128C208.501 67.6 208.688 67.7333 208.688 68V70.848C208.688 70.944 208.677 71.04 208.656 71.136C208.635 71.232 208.555 71.3067 208.416 71.36L204.8 72.768V73.888L208.416 75.312C208.555 75.3547 208.635 75.4293 208.656 75.536C208.677 75.632 208.688 75.7227 208.688 75.808V78.672C208.688 78.9387 208.501 79.072 208.128 79.072H206.88ZM212.492 84C212.225 84 212.092 83.8667 212.092 83.6V80.4C212.092 80.1333 212.225 80 212.492 80H219.212V75.2H213.82C213.553 75.2 213.42 75.0667 213.42 74.8V71.6C213.42 71.3333 213.553 71.2 213.82 71.2H219.212V66.928H212.492C212.225 66.928 212.092 66.7947 212.092 66.528V63.072C212.092 62.8053 212.225 62.672 212.492 62.672H220.444C220.689 62.672 220.903 62.7573 221.084 62.928L224.284 66.128C224.455 66.3093 224.54 66.5227 224.54 66.768V69.968C224.54 70.192 224.487 70.352 224.38 70.448L222.3 72.832V73.84L224.38 76.208C224.487 76.3147 224.54 76.4747 224.54 76.688V79.888C224.54 80.144 224.455 80.3573 224.284 80.528L221.084 83.728C220.903 83.9093 220.689 84 220.444 84H212.492ZM228.533 69.28C228.245 69.28 228.101 69.136 228.101 68.848V66.608C228.101 66.3307 228.245 66.192 228.533 66.192H229.701C230.021 66.192 230.181 66.0587 230.181 65.792V65.312H228.133C227.866 65.312 227.733 65.168 227.733 64.88L227.765 60.832C227.765 60.544 227.904 60.4 228.181 60.4H233.253C233.52 60.4 233.653 60.544 233.653 60.832V65.728C233.653 66.9227 233.37 67.8133 232.805 68.4C232.24 68.9867 231.482 69.28 230.533 69.28H228.533ZM235.461 69.28C235.173 69.28 235.029 69.136 235.029 68.848V66.608C235.029 66.3307 235.173 66.192 235.461 66.192H236.629C236.949 66.192 237.109 66.0587 237.109 65.792V65.312H235.061C234.794 65.312 234.661 65.168 234.661 64.88L234.693 60.832C234.693 60.544 234.832 60.4 235.109 60.4H240.181C240.448 60.4 240.581 60.544 240.581 60.832V65.728C240.581 66.9227 240.298 67.8133 239.733 68.4C239.168 68.9867 238.41 69.28 237.461 69.28H235.461Z" fill="#FFF7F3"/>
<path d="M528.615 201.347C528.151 201.347 527.975 201.131 528.087 200.699L537.495 161.891C537.575 161.523 537.791 161.339 538.143 161.339H544.263C544.711 161.339 544.879 161.555 544.767 161.987L535.383 200.771C535.287 201.155 535.071 201.347 534.735 201.347H528.615ZM554.637 164.267L547.125 161.147C546.789 161.019 546.693 160.747 546.837 160.331L548.037 157.259C548.213 156.827 548.485 156.707 548.853 156.899L556.125 161.339C556.493 161.563 556.589 161.843 556.413 162.179L555.405 163.979C555.229 164.299 554.973 164.395 554.637 164.267ZM559.085 204.539C558.685 204.539 558.485 204.339 558.485 203.939V198.347C558.485 197.947 558.685 197.747 559.085 197.747H562.325L567.965 167.507C568.045 167.043 568.245 166.643 568.565 166.307L573.029 161.747C573.301 161.475 573.621 161.339 573.989 161.339H577.877C578.277 161.339 578.477 161.539 578.477 161.939V167.531C578.477 167.931 578.277 168.131 577.877 168.131H574.637L568.997 198.371C568.917 198.835 568.717 199.235 568.397 199.571L563.909 204.131C563.653 204.403 563.333 204.539 562.949 204.539H559.085ZM581.07 179.411C580.67 179.411 580.47 179.211 580.47 178.811V174.419C580.47 174.019 580.67 173.819 581.07 173.819H594.894C595.294 173.819 595.494 174.019 595.494 174.419V178.811C595.494 179.211 595.294 179.411 594.894 179.411H581.07ZM581.07 188.867C580.67 188.867 580.47 188.667 580.47 188.267V183.851C580.47 183.451 580.67 183.251 581.07 183.251H594.894C595.294 183.251 595.494 183.451 595.494 183.851V188.267C595.494 188.667 595.294 188.867 594.894 188.867H581.07ZM616.636 188.123H619.9V189.227C619.9 190.955 619.5 192.507 618.7 193.883C617.932 195.227 616.844 196.395 615.436 197.387C614.028 198.379 612.396 199.195 610.54 199.835C608.716 200.507 606.732 201.003 604.588 201.323L603.148 198.395C605.068 198.139 606.844 197.755 608.476 197.243C610.14 196.731 611.564 196.091 612.748 195.323C613.964 194.555 614.908 193.659 615.58 192.635C616.284 191.611 616.636 190.475 616.636 189.227V188.123ZM617.212 188.123H620.476V189.227C620.476 190.475 620.812 191.611 621.484 192.635C622.156 193.659 623.1 194.555 624.316 195.323C625.532 196.091 626.956 196.731 628.588 197.243C630.252 197.755 632.028 198.139 633.916 198.395L632.524 201.323C630.412 201.003 628.428 200.507 626.572 199.835C624.716 199.195 623.084 198.379 621.676 197.387C620.268 196.395 619.164 195.227 618.364 193.883C617.596 192.507 617.212 190.955 617.212 189.227V188.123ZM604.828 187.163H632.428V190.091H604.828V187.163ZM642.288 179.411C641.888 179.411 641.688 179.211 641.688 178.811V174.419C641.688 174.019 641.888 173.819 642.288 173.819H656.112C656.512 173.819 656.712 174.019 656.712 174.419V178.811C656.712 179.211 656.512 179.411 656.112 179.411H642.288ZM642.288 188.867C641.888 188.867 641.688 188.667 641.688 188.267V183.851C641.688 183.451 641.888 183.251 642.288 183.251H656.112C656.512 183.251 656.712 183.451 656.712 183.851V188.267C656.712 188.667 656.512 188.867 656.112 188.867H642.288ZM674.984 161.939C675.416 161.939 675.632 162.155 675.632 162.587V165.947C675.632 166.363 675.416 166.571 674.984 166.571H673.232C672.752 166.571 672.512 166.771 672.512 167.171V167.891H675.584C675.984 167.891 676.184 168.107 676.184 168.539L676.136 174.611C676.136 175.043 675.928 175.259 675.512 175.259H667.904C667.504 175.259 667.304 175.043 667.304 174.611V167.267C667.304 165.459 667.728 164.123 668.576 163.259C669.44 162.379 670.576 161.939 671.984 161.939H674.984ZM702.935 201.347H696.815C696.479 201.347 696.263 201.155 696.167 200.771L686.783 161.987C686.671 161.555 686.839 161.339 687.287 161.339H693.407C693.759 161.339 693.975 161.523 694.055 161.891L703.463 200.699C703.591 201.131 703.415 201.347 702.935 201.347Z" fill="#FFF7F3"/>
<mask id="path-4-outside-1_105_8" maskUnits="userSpaceOnUse" x="649.476" y="115" width="50" height="42" fill="black">
<rect fill="white" x="649.476" y="115" width="50" height="42"/>
<path d="M682.142 155C679.166 150.2 673.646 147.656 667.934 147.656C664.814 147.656 661.79 148.568 658.958 150.152L657.278 147.08C659.246 146.12 661.646 145.352 663.854 145.208V145.064C656.942 142.904 651.278 138.056 651.278 128.888C651.278 121.592 654.59 116.792 660.782 116.792C664.334 116.792 666.542 118.52 667.55 121.352H667.79C668.846 118.52 671.198 116.792 674.75 116.792C678.494 116.792 680.702 118.52 681.71 121.352H681.95C683.006 118.52 685.358 116.792 688.766 116.792C694.958 116.792 698.27 122.024 698.27 129.752C698.27 133.832 697.406 137.288 695.63 140.648L691.982 139.304C693.47 136.184 693.95 133.4 693.95 129.704C693.95 123.512 691.886 120.296 688.43 120.296C685.55 120.296 683.87 122.552 683.87 126.536V134.264H679.838V126.536C679.838 122.936 678.398 120.296 674.75 120.296C671.39 120.296 669.71 122.552 669.71 126.536V134.264H665.678V126.536C665.678 122.936 664.238 120.296 661.07 120.296C657.662 120.296 655.598 123.08 655.598 128.888C655.598 137.816 661.982 141.896 668.846 143.384C675.326 144.776 682.43 147.32 685.358 153.272L682.142 155Z"/>
</mask>
<path d="M682.142 155C679.166 150.2 673.646 147.656 667.934 147.656C664.814 147.656 661.79 148.568 658.958 150.152L657.278 147.08C659.246 146.12 661.646 145.352 663.854 145.208V145.064C656.942 142.904 651.278 138.056 651.278 128.888C651.278 121.592 654.59 116.792 660.782 116.792C664.334 116.792 666.542 118.52 667.55 121.352H667.79C668.846 118.52 671.198 116.792 674.75 116.792C678.494 116.792 680.702 118.52 681.71 121.352H681.95C683.006 118.52 685.358 116.792 688.766 116.792C694.958 116.792 698.27 122.024 698.27 129.752C698.27 133.832 697.406 137.288 695.63 140.648L691.982 139.304C693.47 136.184 693.95 133.4 693.95 129.704C693.95 123.512 691.886 120.296 688.43 120.296C685.55 120.296 683.87 122.552 683.87 126.536V134.264H679.838V126.536C679.838 122.936 678.398 120.296 674.75 120.296C671.39 120.296 669.71 122.552 669.71 126.536V134.264H665.678V126.536C665.678 122.936 664.238 120.296 661.07 120.296C657.662 120.296 655.598 123.08 655.598 128.888C655.598 137.816 661.982 141.896 668.846 143.384C675.326 144.776 682.43 147.32 685.358 153.272L682.142 155Z" fill="#FFF7F3"/>
<path d="M682.142 155L681.292 155.527L681.787 156.326L682.615 155.881L682.142 155ZM658.958 150.152L658.081 150.632L658.565 151.518L659.446 151.025L658.958 150.152ZM657.278 147.08L656.84 146.181L655.898 146.641L656.401 147.56L657.278 147.08ZM663.854 145.208L663.919 146.206L664.854 146.145V145.208H663.854ZM663.854 145.064H664.854V144.329L664.152 144.11L663.854 145.064ZM667.55 121.352L666.608 121.687L666.844 122.352H667.55V121.352ZM667.79 121.352V122.352H668.484L668.727 121.701L667.79 121.352ZM681.71 121.352L680.768 121.687L681.004 122.352H681.71V121.352ZM681.95 121.352V122.352H682.644L682.887 121.701L681.95 121.352ZM695.63 140.648L695.284 141.586L696.105 141.889L696.514 141.115L695.63 140.648ZM691.982 139.304L691.079 138.874L690.607 139.863L691.636 140.242L691.982 139.304ZM683.87 134.264V135.264H684.87V134.264H683.87ZM679.838 134.264H678.838V135.264H679.838V134.264ZM669.71 134.264V135.264H670.71V134.264H669.71ZM665.678 134.264H664.678V135.264H665.678V134.264ZM668.846 143.384L668.634 144.361L668.636 144.362L668.846 143.384ZM685.358 153.272L685.831 154.153L686.681 153.696L686.255 152.831L685.358 153.272ZM682.992 154.473C679.8 149.325 673.923 146.656 667.934 146.656V148.656C673.368 148.656 678.532 151.075 681.292 155.527L682.992 154.473ZM667.934 146.656C664.614 146.656 661.424 147.627 658.47 149.279L659.446 151.025C662.156 149.509 665.014 148.656 667.934 148.656V146.656ZM659.835 149.672L658.155 146.6L656.401 147.56L658.081 150.632L659.835 149.672ZM657.716 147.979C659.602 147.059 661.874 146.339 663.919 146.206L663.789 144.21C661.418 144.365 658.89 145.181 656.84 146.181L657.716 147.979ZM664.854 145.208V145.064H662.854V145.208H664.854ZM664.152 144.11C660.818 143.068 657.854 141.398 655.729 138.949C653.618 136.515 652.278 133.249 652.278 128.888H650.278C650.278 133.695 651.77 137.437 654.219 140.259C656.653 143.066 659.978 144.9 663.556 146.018L664.152 144.11ZM652.278 128.888C652.278 125.374 653.078 122.59 654.505 120.708C655.904 118.864 657.975 117.792 660.782 117.792V115.792C657.397 115.792 654.716 117.12 652.911 119.5C651.134 121.842 650.278 125.106 650.278 128.888H652.278ZM660.782 117.792C662.393 117.792 663.622 118.182 664.546 118.829C665.47 119.476 666.161 120.432 666.608 121.687L668.492 121.017C667.931 119.44 667.014 118.116 665.694 117.191C664.374 116.266 662.723 115.792 660.782 115.792V117.792ZM667.55 122.352H667.79V120.352H667.55V122.352ZM668.727 121.701C669.191 120.456 669.923 119.494 670.894 118.839C671.866 118.182 673.139 117.792 674.75 117.792V115.792C672.809 115.792 671.13 116.266 669.774 117.181C668.417 118.098 667.444 119.416 666.853 121.003L668.727 121.701ZM674.75 117.792C676.467 117.792 677.746 118.187 678.69 118.835C679.632 119.481 680.321 120.433 680.768 121.687L682.652 121.017C682.091 119.439 681.172 118.111 679.822 117.185C678.474 116.261 676.777 115.792 674.75 115.792V117.792ZM681.71 122.352H681.95V120.352H681.71V122.352ZM682.887 121.701C683.352 120.455 684.085 119.491 685.042 118.835C685.999 118.178 687.235 117.792 688.766 117.792V115.792C686.889 115.792 685.245 116.27 683.91 117.185C682.575 118.101 681.604 119.417 681.013 121.003L682.887 121.701ZM688.766 117.792C691.538 117.792 693.609 118.943 695.022 120.95C696.466 122.999 697.27 126.012 697.27 129.752H699.27C699.27 125.764 698.418 122.297 696.657 119.798C694.867 117.257 692.186 115.792 688.766 115.792V117.792ZM697.27 129.752C697.27 133.674 696.443 136.969 694.746 140.181L696.514 141.115C698.369 137.607 699.27 133.99 699.27 129.752H697.27ZM695.976 139.71L692.328 138.366L691.636 140.242L695.284 141.586L695.976 139.71ZM692.885 139.734C694.452 136.448 694.95 133.509 694.95 129.704H692.95C692.95 133.291 692.488 135.92 691.079 138.874L692.885 139.734ZM694.95 129.704C694.95 126.523 694.424 123.962 693.343 122.163C692.227 120.304 690.532 119.296 688.43 119.296V121.296C689.784 121.296 690.849 121.896 691.629 123.193C692.444 124.55 692.95 126.693 692.95 129.704H694.95ZM688.43 119.296C686.696 119.296 685.246 119.993 684.264 121.33C683.313 122.625 682.87 124.423 682.87 126.536H684.87C684.87 124.665 685.267 123.343 685.876 122.514C686.454 121.727 687.284 121.296 688.43 121.296V119.296ZM682.87 126.536V134.264H684.87V126.536H682.87ZM683.87 133.264H679.838V135.264H683.87V133.264ZM680.838 134.264V126.536H678.838V134.264H680.838ZM680.838 126.536C680.838 124.627 680.46 122.824 679.468 121.474C678.437 120.072 676.846 119.296 674.75 119.296V121.296C676.302 121.296 677.255 121.84 677.856 122.658C678.496 123.528 678.838 124.845 678.838 126.536H680.838ZM674.75 119.296C672.827 119.296 671.251 119.954 670.186 121.302C669.152 122.609 668.71 124.426 668.71 126.536H670.71C670.71 124.662 671.108 123.359 671.754 122.542C672.369 121.766 673.313 121.296 674.75 121.296V119.296ZM668.71 126.536V134.264H670.71V126.536H668.71ZM669.71 133.264H665.678V135.264H669.71V133.264ZM666.678 134.264V126.536H664.678V134.264H666.678ZM666.678 126.536C666.678 124.625 666.299 122.84 665.388 121.503C664.443 120.114 662.978 119.296 661.07 119.296V121.296C662.33 121.296 663.169 121.798 663.735 122.629C664.337 123.512 664.678 124.847 664.678 126.536H666.678ZM661.07 119.296C659.048 119.296 657.359 120.146 656.222 121.862C655.126 123.517 654.598 125.892 654.598 128.888H656.598C656.598 126.076 657.102 124.155 657.89 122.966C658.637 121.838 659.684 121.296 661.07 121.296V119.296ZM654.598 128.888C654.598 133.62 656.302 137.137 658.961 139.652C661.592 142.142 665.095 143.594 668.634 144.361L669.058 142.407C665.733 141.686 662.612 140.354 660.335 138.2C658.086 136.071 656.598 133.084 656.598 128.888H654.598ZM668.636 144.362C675.121 145.755 681.762 148.228 684.461 153.713L686.255 152.831C683.098 146.412 675.531 143.797 669.056 142.406L668.636 144.362ZM684.885 152.391L681.669 154.119L682.615 155.881L685.831 154.153L684.885 152.391Z" fill="#FFF7F3" mask="url(#path-4-outside-1_105_8)"/>
<path d="M620.26 227.144C619.876 227.144 619.567 227.144 619.332 227.144C619.119 227.123 618.852 226.973 618.532 226.696L607.172 217.48C606.852 217.203 606.66 217.011 606.596 216.904C606.532 216.776 606.5 216.541 606.5 216.2V215.144C606.5 214.781 606.532 214.547 606.596 214.44C606.66 214.312 606.852 214.12 607.172 213.864L618.532 204.616C618.852 204.36 619.119 204.232 619.332 204.232C619.567 204.211 619.876 204.2 620.26 204.2H622.756C623.503 204.2 623.876 204.467 623.876 205V210.696C623.876 210.888 623.855 211.08 623.812 211.272C623.77 211.464 623.61 211.613 623.332 211.72L616.1 214.536V216.776L623.332 219.624C623.61 219.709 623.77 219.859 623.812 220.072C623.855 220.264 623.876 220.445 623.876 220.616V226.344C623.876 226.877 623.503 227.144 622.756 227.144H620.26Z" fill="#FFF7F3"/>
<path d="M521.26 227.144C520.876 227.144 520.567 227.144 520.332 227.144C520.119 227.123 519.852 226.973 519.532 226.696L508.172 217.48C507.852 217.203 507.66 217.011 507.596 216.904C507.532 216.776 507.5 216.541 507.5 216.2V215.144C507.5 214.781 507.532 214.547 507.596 214.44C507.66 214.312 507.852 214.12 508.172 213.864L519.532 204.616C519.852 204.36 520.119 204.232 520.332 204.232C520.567 204.211 520.876 204.2 521.26 204.2H523.756C524.503 204.2 524.876 204.467 524.876 205V210.696C524.876 210.888 524.855 211.08 524.812 211.272C524.77 211.464 524.61 211.613 524.332 211.72L517.1 214.536V216.776L524.332 219.624C524.61 219.709 524.77 219.859 524.812 220.072C524.855 220.264 524.876 220.445 524.876 220.616V226.344C524.876 226.877 524.503 227.144 523.756 227.144H521.26Z" fill="#FFF7F3"/>
<path d="M531.88 243.06V207.42H536.47C536.47 211.74 537.25 215.79 538.81 219.57C540.43 223.29 542.65 226.59 545.47 229.47C548.35 232.29 551.65 234.51 555.37 236.13C559.15 237.69 563.2 238.47 567.52 238.47C571.84 238.47 575.86 237.69 579.58 236.13C583.36 234.51 586.66 232.29 589.48 229.47C592.36 226.59 594.58 223.29 596.14 219.57C597.76 215.79 598.57 211.74 598.57 207.42H603.16V243.06H531.88ZM567.52 233.43C563.92 233.43 560.53 232.77 557.35 231.45C554.23 230.07 551.47 228.21 549.07 225.87C546.73 223.47 544.87 220.71 543.49 217.59C542.17 214.41 541.51 211.02 541.51 207.42H593.53C593.53 211.02 592.84 214.41 591.46 217.59C590.14 220.71 588.28 223.47 585.88 225.87C583.54 228.21 580.78 230.07 577.6 231.45C574.48 232.77 571.12 233.43 567.52 233.43Z" fill="#FFF7F3"/>
<path d="M195.661 201.48C194.029 201.48 192.493 201.16 191.053 200.52C189.613 199.88 188.445 198.952 187.549 197.736C186.685 196.488 186.253 194.984 186.253 193.224C186.253 192.168 186.397 191.176 186.685 190.248C186.973 189.32 187.485 188.328 188.221 187.272C188.957 186.216 190.013 185 191.389 183.624L202.813 172.056L205.789 174.936L195.709 184.824C194.301 186.2 193.197 187.368 192.397 188.328C191.597 189.288 191.021 190.152 190.669 190.92C190.349 191.688 190.189 192.488 190.189 193.32C190.189 194.856 190.733 196.024 191.821 196.824C192.909 197.592 194.253 197.976 195.853 197.976C197.741 197.976 199.373 197.704 200.749 197.16C202.125 196.584 203.501 195.88 204.877 195.048L206.653 198.36C205.757 198.904 204.765 199.416 203.677 199.896C202.589 200.376 201.373 200.76 200.029 201.048C198.717 201.336 197.261 201.48 195.661 201.48ZM219.194 211.008C218.778 211.008 218.458 210.896 218.234 210.672L211.034 203.472C210.858 203.296 210.746 203.152 210.698 203.04C210.65 202.944 210.626 202.768 210.626 202.512V168.672C210.626 168.416 210.65 168.24 210.698 168.144C210.746 168.032 210.858 167.888 211.034 167.712L218.234 160.512C218.458 160.304 218.778 160.2 219.194 160.2H223.514C223.914 160.2 224.114 160.4 224.114 160.8V164.232C224.114 164.376 224.098 164.512 224.066 164.64C224.034 164.752 223.954 164.872 223.826 165L218.162 170.688V200.52L223.826 206.208C223.954 206.32 224.034 206.44 224.066 206.568C224.098 206.696 224.114 206.824 224.114 206.952V210.408C224.114 210.808 223.914 211.008 223.514 211.008H219.194ZM229.014 180.312V179.832H233.622C233.974 180.536 234.39 181.336 234.87 182.232C235.35 183.096 235.846 183.944 236.358 184.776C236.87 185.608 237.35 186.328 237.798 186.936V187.512H235.398C234.854 187.064 234.262 186.536 233.622 185.928C233.014 185.288 232.39 184.616 231.75 183.912C231.142 183.208 230.598 182.536 230.118 181.896C229.638 181.256 229.27 180.728 229.014 180.312ZM237.462 180.312V179.832H242.07C242.422 180.536 242.838 181.336 243.318 182.232C243.798 183.096 244.294 183.944 244.806 184.776C245.318 185.608 245.798 186.328 246.246 186.936V187.512H243.846C243.302 187.064 242.71 186.536 242.07 185.928C241.462 185.288 240.838 184.616 240.198 183.912C239.59 183.208 239.046 182.536 238.566 181.896C238.086 181.256 237.718 180.728 237.462 180.312ZM251.02 192.576C250.412 192.576 250.108 192.248 250.108 191.592V180.12C250.108 179.48 250.412 179.16 251.02 179.16H262.564C263.156 179.16 263.452 179.48 263.452 180.12V191.592C263.452 192.248 263.156 192.576 262.564 192.576H251.02ZM273.031 201.24L273.511 197.304C275.431 197.304 277.239 197.128 278.935 196.776C280.631 196.392 282.183 195.896 283.591 195.288C285.031 194.648 286.263 193.928 287.287 193.128C288.311 192.296 289.095 191.448 289.639 190.584C290.215 189.688 290.503 188.808 290.503 187.944C290.503 187.528 290.359 187.112 290.071 186.696C289.783 186.248 289.287 185.88 288.583 185.592C287.911 185.304 286.999 185.16 285.847 185.16C285.143 185.16 284.359 185.256 283.495 185.448C282.631 185.64 281.799 185.912 280.999 186.264C280.231 186.584 279.591 186.952 279.079 187.368C279.943 188.072 280.743 188.76 281.479 189.432C282.247 190.104 283.031 190.84 283.831 191.64C284.631 192.408 285.495 193.288 286.423 194.28C287.159 194.824 287.975 195.288 288.871 195.672C289.799 196.056 290.791 196.376 291.847 196.632C292.935 196.856 294.039 197.032 295.159 197.16C296.279 197.256 297.399 197.304 298.519 197.304C299.191 197.304 299.671 197.496 299.959 197.88C300.279 198.232 300.439 198.664 300.439 199.176C300.439 199.688 300.215 200.168 299.767 200.616C299.319 201.032 298.743 201.24 298.039 201.24C296.279 201.24 294.471 201.08 292.615 200.76C290.791 200.408 289.079 199.896 287.479 199.224C285.879 198.52 284.519 197.64 283.399 196.584C282.855 195.88 282.247 195.176 281.575 194.472C280.903 193.768 280.167 193.064 279.367 192.36C278.599 191.624 277.767 190.936 276.871 190.296C276.679 190.136 276.487 189.848 276.295 189.432C276.103 189.016 275.943 188.584 275.815 188.136C275.687 187.688 275.623 187.352 275.623 187.128C275.623 186.648 275.927 186.072 276.535 185.4C277.143 184.728 277.959 184.088 278.983 183.48C280.007 182.84 281.175 182.312 282.487 181.896C283.799 181.48 285.159 181.272 286.567 181.272C288.391 181.272 289.863 181.544 290.983 182.088C292.135 182.632 292.967 183.336 293.479 184.2C294.023 185.032 294.295 185.928 294.295 186.888C294.295 188.296 293.943 189.704 293.239 191.112C292.535 192.488 291.527 193.784 290.215 195C288.903 196.216 287.367 197.304 285.607 198.264C283.847 199.192 281.895 199.928 279.751 200.472C277.639 200.984 275.399 201.24 273.031 201.24ZM308.535 192.576C307.927 192.576 307.623 192.248 307.623 191.592V180.12C307.623 179.48 307.927 179.16 308.535 179.16H320.079C320.671 179.16 320.967 179.48 320.967 180.12V191.592C320.967 192.248 320.671 192.576 320.079 192.576H308.535ZM324.826 180.312V179.832H329.434C329.786 180.536 330.202 181.336 330.682 182.232C331.162 183.096 331.658 183.944 332.17 184.776C332.682 185.608 333.162 186.328 333.61 186.936V187.512H331.21C330.666 187.064 330.074 186.536 329.434 185.928C328.826 185.288 328.202 184.616 327.562 183.912C326.954 183.208 326.41 182.536 325.93 181.896C325.45 181.256 325.082 180.728 324.826 180.312ZM333.274 180.312V179.832H337.882C338.234 180.536 338.65 181.336 339.13 182.232C339.61 183.096 340.106 183.944 340.618 184.776C341.13 185.608 341.61 186.328 342.058 186.936V187.512H339.658C339.114 187.064 338.522 186.536 337.882 185.928C337.274 185.288 336.65 184.616 336.01 183.912C335.402 183.208 334.858 182.536 334.378 181.896C333.898 181.256 333.53 180.728 333.274 180.312ZM351.92 211.008H347.6C347.2 211.008 347 210.808 347 210.408V206.952C347 206.824 347.016 206.696 347.048 206.568C347.096 206.44 347.176 206.32 347.288 206.208L352.952 200.52V170.688L347.288 165C347.176 164.872 347.096 164.752 347.048 164.64C347.016 164.512 347 164.376 347 164.232V160.8C347 160.4 347.2 160.2 347.6 160.2H351.92C352.336 160.2 352.656 160.304 352.88 160.512L360.08 167.712C360.256 167.888 360.368 168.032 360.416 168.144C360.464 168.24 360.488 168.416 360.488 168.672V202.512C360.488 202.768 360.464 202.944 360.416 203.04C360.368 203.152 360.256 203.296 360.08 203.472L352.88 210.672C352.656 210.896 352.336 211.008 351.92 211.008ZM374.915 201.48C368.915 201.48 364.259 198.168 364.259 191.736C364.259 190.344 364.595 188.904 364.883 188.136H368.915C368.675 189 368.483 190.296 368.483 191.736C368.483 195.816 371.027 197.976 374.915 197.976C378.803 197.976 381.203 195.816 381.203 191.496C381.203 188.184 379.523 186.36 377.699 184.536C375.395 182.232 372.755 179.784 372.755 175.272H376.979C376.979 178.056 378.755 179.976 380.723 181.944C383.075 184.296 385.571 186.936 385.571 191.496C385.571 197.496 381.011 201.48 374.915 201.48Z" fill="#FFF7F3"/>
<path d="M275.152 154C274.752 154 274.552 153.8 274.552 153.4V122.608C274.552 122.208 274.752 122.008 275.152 122.008H281.944C282.344 122.008 282.544 122.208 282.544 122.608V134.008H288.472V122.608C288.472 122.208 288.672 122.008 289.072 122.008H295.864C296.264 122.008 296.464 122.208 296.464 122.608V153.4C296.464 153.8 296.264 154 295.864 154H289.072C288.672 154 288.472 153.8 288.472 153.4V140.392H282.544V153.4C282.544 153.8 282.344 154 281.944 154H275.152ZM259.567 158.192C259.407 158.192 259.287 158.136 259.207 158.024C259.143 157.912 259.167 157.768 259.279 157.592L263.887 150.272C263.967 150.144 264.055 150.032 264.151 149.936C264.263 149.84 264.423 149.792 264.631 149.792H272.527C272.895 149.792 273.175 149.992 273.367 150.392L274.807 153.728H277.231L278.479 150.248C278.591 149.944 278.815 149.792 279.151 149.792H285.127C285.287 149.792 285.399 149.848 285.463 149.96C285.527 150.072 285.503 150.216 285.391 150.392L280.807 157.712C280.727 157.856 280.631 157.976 280.519 158.072C280.423 158.152 280.263 158.192 280.039 158.192H272.167C271.767 158.192 271.487 157.992 271.327 157.592L269.887 154.328H267.439L266.191 157.76C266.111 158.048 265.887 158.192 265.519 158.192H259.567ZM279.385 157.808C278.985 157.808 278.785 157.608 278.785 157.208V150.8C278.785 150.4 278.985 150.2 279.385 150.2H291.625C292.025 150.2 292.225 150.4 292.225 150.8V157.208C292.225 157.608 292.025 157.808 291.625 157.808H279.385ZM285.903 158.192C285.743 158.192 285.623 158.136 285.543 158.024C285.479 157.912 285.503 157.768 285.615 157.592L290.223 150.272C290.303 150.144 290.391 150.032 290.487 149.936C290.599 149.84 290.759 149.792 290.967 149.792H298.863C299.231 149.792 299.511 149.992 299.703 150.392L301.143 153.728H303.567L304.815 150.248C304.927 149.944 305.151 149.792 305.487 149.792H311.463C311.623 149.792 311.735 149.848 311.799 149.96C311.863 150.072 311.839 150.216 311.727 150.392L307.143 157.712C307.063 157.856 306.967 157.976 306.855 158.072C306.759 158.152 306.599 158.192 306.375 158.192H298.503C298.103 158.192 297.823 157.992 297.663 157.592L296.223 154.328H293.775L292.527 157.76C292.447 158.048 292.223 158.192 291.855 158.192H285.903Z" fill="#FFF7F3"/>
<path d="M363.819 147.76C363.392 147.76 363.032 147.64 362.739 147.4C362.472 147.187 362.339 146.893 362.339 146.52C362.339 146.067 362.406 145.693 362.539 145.4C362.699 145.107 362.779 144.72 362.779 144.24C362.779 143.2 362.512 142.267 361.979 141.44C361.446 140.587 360.712 139.68 359.779 138.72C358.632 137.52 357.606 136.44 356.699 135.48C355.792 134.52 355.019 133.56 354.379 132.6C353.739 131.64 353.246 130.587 352.899 129.44C352.579 128.267 352.419 126.88 352.419 125.28C352.419 123.787 352.739 122.347 353.379 120.96C354.046 119.573 354.939 118.373 356.059 117.36C357.206 116.347 358.486 115.64 359.899 115.24C360.326 115.107 360.752 115.027 361.179 115C361.606 114.947 362.032 114.92 362.459 114.92C363.659 114.92 364.859 115.133 366.059 115.56C367.286 115.987 368.392 116.587 369.379 117.36C369.992 117.84 370.539 118.253 371.019 118.6C371.499 118.947 371.872 119.12 372.139 119.12C372.512 119.12 372.926 118.947 373.379 118.6C373.832 118.227 374.472 117.733 375.299 117.12C375.859 116.693 376.432 116.347 377.019 116.08C377.632 115.787 378.232 115.547 378.819 115.36C379.299 115.2 379.779 115.093 380.259 115.04C380.739 114.96 381.219 114.92 381.699 114.92C383.619 114.92 385.312 115.387 386.779 116.32C388.272 117.227 389.446 118.467 390.299 120.04C391.152 121.613 391.579 123.387 391.579 125.36C391.579 127.067 391.166 128.813 390.339 130.6C389.512 132.36 388.192 134.147 386.379 135.96C385.179 137.16 383.792 138.347 382.219 139.52C380.672 140.693 379.032 141.8 377.299 142.84C375.566 143.853 373.846 144.733 372.139 145.48C370.459 146.253 368.872 146.827 367.379 147.2C366.499 147.413 365.766 147.56 365.179 147.64C364.592 147.72 364.139 147.76 363.819 147.76Z" fill="#FFF7F3"/>
<path d="M231.015 266.008C230.599 266.008 230.279 265.896 230.055 265.672L222.855 258.472C222.679 258.296 222.567 258.152 222.519 258.04C222.471 257.944 222.447 257.768 222.447 257.512V223.672C222.447 223.416 222.471 223.24 222.519 223.144C222.567 223.032 222.679 222.888 222.855 222.712L230.055 215.512C230.279 215.304 230.599 215.2 231.015 215.2H235.335C235.735 215.2 235.935 215.4 235.935 215.8V219.232C235.935 219.376 235.919 219.512 235.887 219.64C235.855 219.752 235.775 219.872 235.647 220L229.983 225.688V255.52L235.647 261.208C235.775 261.32 235.855 261.44 235.887 261.568C235.919 261.696 235.935 261.824 235.935 261.952V265.408C235.935 265.808 235.735 266.008 235.335 266.008H231.015ZM242.154 235.6C241.802 235.6 241.602 235.416 241.554 235.048L240.834 224.632C240.786 224.216 240.986 224.008 241.434 224.008H246.954C247.402 224.008 247.602 224.216 247.554 224.632L246.834 235.048C246.786 235.416 246.586 235.6 246.234 235.6H242.154ZM250.026 235.6C249.674 235.6 249.474 235.416 249.426 235.048L248.706 224.632C248.658 224.216 248.858 224.008 249.306 224.008H254.826C255.274 224.008 255.474 224.216 255.426 224.632L254.706 235.048C254.658 235.416 254.458 235.6 254.106 235.6H250.026ZM265.256 266.008H260.936C260.536 266.008 260.336 265.808 260.336 265.408V261.952C260.336 261.824 260.352 261.696 260.384 261.568C260.432 261.44 260.512 261.32 260.624 261.208L266.288 255.52V225.688L260.624 220C260.512 219.872 260.432 219.752 260.384 219.64C260.352 219.512 260.336 219.376 260.336 219.232V215.8C260.336 215.4 260.536 215.2 260.936 215.2H265.256C265.672 215.2 265.992 215.304 266.216 215.512L273.416 222.712C273.592 222.888 273.704 223.032 273.752 223.144C273.8 223.24 273.824 223.416 273.824 223.672V257.512C273.824 257.768 273.8 257.944 273.752 258.04C273.704 258.152 273.592 258.296 273.416 258.472L266.216 265.672C265.992 265.896 265.672 266.008 265.256 266.008ZM276.803 257.992C276.403 257.992 276.203 257.792 276.203 257.392V256.6C276.203 256.2 276.403 256 276.803 256H295.187C295.587 256 295.787 256.2 295.787 256.6V257.392C295.787 257.792 295.587 257.992 295.187 257.992H276.803ZM306.765 266.008C306.349 266.008 306.029 265.896 305.805 265.672L298.605 258.472C298.429 258.296 298.317 258.152 298.269 258.04C298.221 257.944 298.197 257.768 298.197 257.512V223.672C298.197 223.416 298.221 223.24 298.269 223.144C298.317 223.032 298.429 222.888 298.605 222.712L305.805 215.512C306.029 215.304 306.349 215.2 306.765 215.2H311.085C311.485 215.2 311.685 215.4 311.685 215.8V219.232C311.685 219.376 311.669 219.512 311.637 219.64C311.605 219.752 311.525 219.872 311.397 220L305.733 225.688V255.52L311.397 261.208C311.525 261.32 311.605 261.44 311.637 261.568C311.669 261.696 311.685 261.824 311.685 261.952V265.408C311.685 265.808 311.485 266.008 311.085 266.008H306.765ZM317.904 235.6C317.552 235.6 317.352 235.416 317.304 235.048L316.584 224.632C316.536 224.216 316.736 224.008 317.184 224.008H322.704C323.152 224.008 323.352 224.216 323.304 224.632L322.584 235.048C322.536 235.416 322.336 235.6 321.984 235.6H317.904ZM325.776 235.6C325.424 235.6 325.224 235.416 325.176 235.048L324.456 224.632C324.408 224.216 324.608 224.008 325.056 224.008H330.576C331.024 224.008 331.224 224.216 331.176 224.632L330.456 235.048C330.408 235.416 330.208 235.6 329.856 235.6H325.776ZM341.006 266.008H336.686C336.286 266.008 336.086 265.808 336.086 265.408V261.952C336.086 261.824 336.102 261.696 336.134 261.568C336.182 261.44 336.262 261.32 336.374 261.208L342.038 255.52V225.688L336.374 220C336.262 219.872 336.182 219.752 336.134 219.64C336.102 219.512 336.086 219.376 336.086 219.232V215.8C336.086 215.4 336.286 215.2 336.686 215.2H341.006C341.422 215.2 341.742 215.304 341.966 215.512L349.166 222.712C349.342 222.888 349.454 223.032 349.502 223.144C349.55 223.24 349.574 223.416 349.574 223.672V257.512C349.574 257.768 349.55 257.944 349.502 258.04C349.454 258.152 349.342 258.296 349.166 258.472L341.966 265.672C341.742 265.896 341.422 266.008 341.006 266.008Z" fill="#FFF7F3"/>
</svg>
