<svg width="82" height="61" viewBox="0 0 82 61" fill="none" xmlns="http://www.w3.org/2000/svg">
<path d="M19.5835 0.918552C17.2795 2.88122 15.1675 5.33455 13.2475 8.27855C11.3275 11.2226 9.79152 14.5719 8.63952 18.3266C7.48752 22.0386 6.91152 26.0706 6.91152 30.4226C6.91152 34.7319 7.48752 38.7639 8.63952 42.5186C9.79152 46.2732 11.3275 49.6226 13.2475 52.5666C15.1675 55.4679 17.2795 57.9212 19.5835 59.9266V60.2466H0.383522V0.598553H19.5835V0.918552ZM53.5675 3.92655C56.9382 5.46255 59.8822 7.57455 62.3995 10.2626C64.9169 12.9079 66.8795 15.9586 68.2875 19.4146C69.6955 22.8279 70.3995 26.4972 70.3995 30.4226C70.3995 34.5186 69.6315 38.3586 68.0955 41.9426C66.6022 45.4839 64.4902 48.5986 61.7595 51.2866C59.0715 53.9746 55.9355 56.0652 52.3515 57.5586C48.8102 59.0946 45.0129 59.8626 40.9595 59.8626V56.5986C44.6289 56.5986 48.0422 55.9159 51.1995 54.5506C54.3569 53.1426 57.1302 51.2439 59.5195 48.8546C61.9089 46.4226 63.7649 43.6279 65.0875 40.4706C66.4529 37.3132 67.1355 33.9639 67.1355 30.4226C67.1355 26.1559 66.2395 22.2519 64.4475 18.7106C62.6555 15.1692 60.1382 12.1826 56.8955 9.75055V16.7266C56.8955 18.6892 56.7462 20.3106 56.4475 21.5906C56.1489 22.8279 55.5302 24.0012 54.5915 25.1106C53.6529 26.1772 52.5649 26.9452 51.3275 27.4146C50.0902 27.8412 48.9169 28.0546 47.8075 28.0546C46.4849 28.0546 45.4395 27.8626 44.6715 27.4786C43.9462 27.0946 43.2422 26.6466 42.5595 26.1346C42.5595 26.1346 42.5595 26.2412 42.5595 26.4546C42.5595 26.6252 42.5595 27.1799 42.5595 28.1186C42.5595 29.0146 42.5595 30.5292 42.5595 32.6626C42.5595 34.7959 42.5595 37.8252 42.5595 41.7506H39.2955C39.3809 40.2572 39.1675 38.9986 38.6555 37.9746C38.1435 36.9079 37.1409 36.3746 35.6475 36.3746C34.5382 36.3746 33.6422 36.7586 32.9595 37.5266C32.2769 38.2519 31.9355 39.0412 31.9355 39.8946C31.9355 40.8332 32.1702 41.6652 32.6395 42.3906C33.1089 43.0732 33.8342 43.9052 34.8155 44.8866C35.3702 45.4412 35.9035 46.1026 36.4155 46.8706C36.9275 47.6386 37.1835 48.6839 37.1835 50.0066C37.1835 51.1586 36.9062 52.2892 36.3515 53.3986C35.8395 54.4652 35.0715 55.3399 34.0475 56.0226C33.0235 56.7479 31.7222 57.1106 30.1435 57.1106C28.1809 57.1106 26.1115 56.4066 23.9355 54.9986C21.8022 53.6332 19.7969 51.7346 17.9195 49.3026C16.0422 46.8279 14.5062 43.9906 13.3115 40.7906C12.1169 37.5479 11.5195 34.0919 11.5195 30.4226C11.5195 26.3266 12.2662 22.5079 13.7595 18.9666C15.2955 15.4252 17.4075 12.3106 20.0955 9.62255C22.7835 6.89188 25.8982 4.77988 29.4395 3.28655C33.0235 1.75055 36.8635 0.982552 40.9595 0.982552V4.24655C37.3329 4.24655 33.9409 4.92922 30.7835 6.29455C27.6262 7.65989 24.8529 9.53722 22.4635 11.9266C20.0742 14.3159 18.1969 17.0892 16.8315 20.2466C15.4662 23.4039 14.7835 26.7959 14.7835 30.4226C14.7835 33.7932 15.3169 36.9079 16.3835 39.7666C17.4929 42.6252 18.8795 45.0999 20.5435 47.1906C22.2075 49.2386 23.8929 50.8386 25.5995 51.9906C27.3489 53.1426 28.8422 53.7186 30.0795 53.7186C31.1462 53.7186 32.0209 53.3559 32.7035 52.6306C33.3862 51.9052 33.7275 50.9879 33.7275 49.8786C33.7275 49.5372 33.6422 49.1319 33.4715 48.6626C33.3009 48.1932 32.8529 47.5532 32.1275 46.7426C31.1889 45.6332 30.3782 44.6306 29.6955 43.7346C29.0129 42.7959 28.6715 41.5586 28.6715 40.0226C28.6715 37.9746 29.3542 36.2679 30.7195 34.9026C32.1275 33.4946 33.8769 32.7906 35.9675 32.7906C36.8209 32.7906 37.4822 32.8972 37.9515 33.1106C38.4635 33.2812 38.9115 33.4732 39.2955 33.6866V19.2866H42.5595C42.5595 19.5852 42.6235 20.0546 42.7515 20.6946C42.8795 21.2919 43.1355 21.9319 43.5195 22.6146C43.9035 23.2546 44.4582 23.8092 45.1835 24.2786C45.9089 24.7479 46.8689 24.9826 48.0635 24.9826C49.4289 24.9826 50.4955 24.6839 51.2635 24.0866C52.0315 23.4466 52.5649 22.6786 52.8635 21.7826C53.2049 20.8439 53.3969 19.9266 53.4395 19.0306C53.5249 18.0919 53.5675 17.3026 53.5675 16.6626V3.92655ZM81.5355 60.2466H62.3355V59.9266C64.6822 57.9212 66.7942 55.4679 68.6715 52.5666C70.5915 49.6226 72.1275 46.2732 73.2795 42.5186C74.4315 38.7639 75.0075 34.7319 75.0075 30.4226C75.0075 26.0706 74.4315 22.0386 73.2795 18.3266C72.1275 14.5719 70.5915 11.2226 68.6715 8.27855C66.7942 5.33455 64.6822 2.88122 62.3355 0.918552V0.598553H81.5355V60.2466Z" fill="#FFF7F3"/>
</svg>
