<svg width="81" height="67" viewBox="0 0 81 67" fill="none" xmlns="http://www.w3.org/2000/svg">
<path d="M21.62 1.13C19.1 3.27667 16.79 5.96 14.69 9.18C12.59 12.4 10.91 16.0633 9.65 20.17C8.39 24.23 7.76 28.64 7.76 33.4C7.76 38.1133 8.39 42.5233 9.65 46.63C10.91 50.7367 12.59 54.4 14.69 57.62C16.79 60.7933 19.1 63.4767 21.62 65.67V66.02H0.620001V0.779999H21.62V1.13ZM30.58 61.4C28.9 61.4 27.3367 60.9567 25.89 60.07C24.49 59.23 23.3467 58.0867 22.46 56.64C21.62 55.1933 21.2 53.6067 21.2 51.88C21.2 49.36 22.1333 47.2133 24 45.44C25.9133 43.6667 28.2933 42.64 31.14 42.36L30.44 40.12C29.5067 40.6333 28.4333 41.0767 27.22 41.45C26.0533 41.8233 24.9333 42.01 23.86 42.01C22.18 42.01 20.6633 41.59 19.31 40.75C18.0033 39.8633 16.9533 38.72 16.16 37.32C15.3667 35.8733 14.97 34.3333 14.97 32.7C14.97 30.9267 15.39 29.34 16.23 27.94C17.1167 26.4933 18.26 25.35 19.66 24.51C21.06 23.67 22.6 23.25 24.28 23.25C26.1933 23.25 28.0367 23.9267 29.81 25.28C31.5833 26.6333 32.8667 28.2667 33.66 30.18L35.48 28.78C34.22 27.6133 33.1933 26.33 32.4 24.93C31.6533 23.4833 31.28 22.1067 31.28 20.8C31.28 19.0267 31.7 17.44 32.54 16.04C33.38 14.5933 34.5 13.45 35.9 12.61C37.3467 11.7233 38.9333 11.28 40.66 11.28C42.3867 11.28 43.9733 11.7233 45.42 12.61C46.8667 13.45 48.01 14.5933 48.85 16.04C49.7367 17.4867 50.18 19.0733 50.18 20.8C50.18 22.1067 49.7833 23.5067 48.99 25C48.1967 26.4467 47.1933 27.7067 45.98 28.78L47.8 30.18C48.5933 28.22 49.8533 26.5867 51.58 25.28C53.3533 23.9267 55.22 23.25 57.18 23.25C58.86 23.25 60.4 23.67 61.8 24.51C63.2467 25.35 64.39 26.4933 65.23 27.94C66.07 29.34 66.49 30.9267 66.49 32.7C66.49 34.3333 66.07 35.8733 65.23 37.32C64.4367 38.72 63.3633 39.8633 62.01 40.75C60.7033 41.59 59.2567 42.01 57.67 42.01C55.57 42.01 53.3533 41.38 51.02 40.12L50.32 42.36C52.1867 42.5467 53.8667 43.0833 55.36 43.97C56.8533 44.81 58.0433 45.93 58.93 47.33C59.8167 48.6833 60.26 50.2 60.26 51.88C60.26 53.56 59.8167 55.1233 58.93 56.57C58.09 58.0167 56.97 59.1833 55.57 60.07C54.17 60.9567 52.6067 61.4 50.88 61.4C48.22 61.4 46.0033 60.49 44.23 58.67C42.4567 56.8033 41.57 54.4233 41.57 51.53C41.57 50.4567 41.6867 49.4533 41.92 48.52H39.54C39.6333 48.9867 39.7033 49.4767 39.75 49.99C39.8433 50.5033 39.89 51.0167 39.89 51.53C39.89 54.3767 39.0033 56.7333 37.23 58.6C35.4567 60.4667 33.24 61.4 30.58 61.4ZM40.66 46.7C42.2467 46.7 43.6933 46.3033 45 45.51C46.3067 44.7167 47.3567 43.6667 48.15 42.36C48.9433 41.0533 49.34 39.6067 49.34 38.02C49.34 36.4333 48.9433 34.9867 48.15 33.68C47.3567 32.3733 46.3067 31.3233 45 30.53C43.6933 29.7367 42.2467 29.34 40.66 29.34C39.0733 29.34 37.6267 29.7367 36.32 30.53C35.06 31.3233 34.0333 32.3733 33.24 33.68C32.4933 34.9867 32.12 36.4333 32.12 38.02C32.12 39.6067 32.4933 41.0767 33.24 42.43C34.0333 43.7367 35.0833 44.7867 36.39 45.58C37.6967 46.3267 39.12 46.7 40.66 46.7ZM80.8323 66.02H59.8323V65.67C62.399 63.4767 64.709 60.7933 66.7623 57.62C68.8623 54.4 70.5423 50.7367 71.8023 46.63C73.0623 42.5233 73.6923 38.1133 73.6923 33.4C73.6923 28.64 73.0623 24.23 71.8023 20.17C70.5423 16.0633 68.8623 12.4 66.7623 9.18C64.709 5.96 62.399 3.27667 59.8323 1.13V0.779999H80.8323V66.02Z" fill="#FFF7F3"/>
</svg>
