<svg width="81" height="67" viewBox="0 0 81 67" fill="none" xmlns="http://www.w3.org/2000/svg">
<path d="M11.8 66.6069L0.67 43.0169L0.6 24.2569L11.8 0.666872H16.98L11.17 12.9169V54.3569L16.98 66.6069H11.8ZM38.7407 55.5469C38.134 54.0069 37.504 52.5835 36.8507 51.2769C36.244 49.9235 35.474 48.4769 34.5407 46.9369C33.6074 45.3969 32.4407 43.6002 31.0407 41.5469C29.6407 39.4935 27.8674 36.9969 25.7207 34.0569C22.9674 30.2769 21.0074 27.0335 19.8407 24.3269C18.674 21.6202 18.0907 18.9835 18.0907 16.4169C18.0907 14.3635 18.604 12.4969 19.6307 10.8169C20.704 9.0902 22.104 7.73687 23.8307 6.75687C25.604 5.73021 27.5174 5.21687 29.5707 5.21687C31.764 5.21687 33.794 5.77687 35.6607 6.89687C37.574 8.01687 39.1374 9.72021 40.3507 12.0069C41.6107 9.72021 43.1974 8.01687 45.1107 6.89687C47.024 5.77687 49.0774 5.21687 51.2707 5.21687C53.2774 5.21687 55.144 5.73021 56.8707 6.75687C58.644 7.73687 60.0674 9.0902 61.1407 10.8169C62.214 12.4969 62.7507 14.3635 62.7507 16.4169C62.7507 18.0502 62.5174 19.7302 62.0507 21.4569C61.6307 23.1369 60.8607 25.0035 59.7407 27.0569C58.6207 29.0635 57.0807 31.4202 55.1207 34.1269C52.974 37.1135 51.1774 39.6569 49.7307 41.7569C48.284 43.8102 47.094 45.6069 46.1607 47.1469C45.274 48.6869 44.504 50.1102 43.8507 51.4169C43.1974 52.7235 42.5907 54.1002 42.0307 55.5469H38.7407ZM40.3507 49.4569C41.2374 47.6835 42.4274 45.6302 43.9207 43.2969C45.4607 40.9635 47.2574 38.3735 49.3107 35.5269C51.364 32.6802 53.044 30.2302 54.3507 28.1769C55.6574 26.1235 56.5907 24.4902 57.1507 23.2769C58.2707 20.8035 58.8307 18.5169 58.8307 16.4169C58.8307 15.0635 58.4807 13.8502 57.7807 12.7769C57.0807 11.6569 56.1474 10.7702 54.9807 10.1169C53.8607 9.46354 52.624 9.13687 51.2707 9.13687C49.264 9.13687 47.444 9.97687 45.8107 11.6569C44.1774 13.2902 42.964 15.5535 42.1707 18.4469H38.6007C37.714 15.2735 36.454 12.9402 34.8207 11.4469C33.234 9.90687 31.484 9.13687 29.5707 9.13687C28.264 9.13687 27.0274 9.46354 25.8607 10.1169C24.694 10.7702 23.7607 11.6569 23.0607 12.7769C22.3607 13.8502 22.0107 15.0635 22.0107 16.4169C22.0107 18.3769 22.5474 20.6169 23.6207 23.1369C24.6474 25.5169 27.214 29.5069 31.3207 35.1069C33.374 37.8135 35.1474 40.3802 36.6407 42.8069C38.134 45.1869 39.3707 47.4035 40.3507 49.4569ZM63.8871 66.6069L69.6971 54.3569V12.9169L63.8871 0.666872H69.0671L80.2671 24.2569L80.1971 43.0169L69.0671 66.6069H63.8871Z" fill="#FFF7F3"/>
</svg>
