<svg width="99" height="57" viewBox="0 0 99 57" fill="none" xmlns="http://www.w3.org/2000/svg">
<path d="M8.39259 56.211L0.0725939 28.179L8.39259 0.402973H25.1606L17.4806 28.179L25.1606 56.211H8.39259ZM47.8256 54.163C47.3989 51.3896 46.1616 48.403 44.1136 45.203C42.1083 42.003 39.2496 38.995 35.5376 36.179C31.7829 33.3203 28.1563 31.5496 24.6576 30.867V28.179C28.1989 27.3683 31.6336 25.7896 34.9616 23.443C38.2896 21.0963 41.1056 18.3016 43.4096 15.059C45.7136 11.7736 47.1856 8.42431 47.8256 5.01097H50.5136C50.8976 7.18697 51.6656 9.38431 52.8176 11.603C54.0123 13.8216 55.5269 15.955 57.3616 18.003C59.1963 20.0083 61.2229 21.8216 63.4416 23.443C66.8123 25.8323 70.2683 27.411 73.8096 28.179V30.867C71.4203 31.3363 68.9669 32.2963 66.4496 33.747C63.9749 35.1976 61.6709 36.9043 59.5376 38.867C57.4043 40.8296 55.6549 42.899 54.2896 45.075C52.1989 48.403 50.9403 51.4323 50.5136 54.163H47.8256ZM48.7216 52.627H49.6176C49.8309 50.4083 50.1723 48.1896 50.6416 45.971C51.1536 43.7096 51.7296 41.619 52.3696 39.699C53.0523 37.779 53.7563 36.2003 54.4816 34.963C55.9323 34.1523 57.6603 33.4056 59.6656 32.723C61.7136 32.0403 63.8256 31.4643 66.0016 30.995C68.2203 30.5256 70.2683 30.227 72.1456 30.099V29.203C70.2683 29.0323 68.1989 28.7123 65.9376 28.243C63.7189 27.731 61.5856 27.1336 59.5376 26.451C57.4896 25.7256 55.8043 24.979 54.4816 24.211C53.7563 22.931 53.0523 21.3523 52.3696 19.475C51.7296 17.555 51.1536 15.507 50.6416 13.331C50.1723 11.1123 49.8309 8.89364 49.6176 6.67497H48.7216C48.5509 8.68031 48.2309 10.771 47.7616 12.947C47.3349 15.0803 46.7803 17.1283 46.0976 19.091C45.4149 21.0536 44.6683 22.7603 43.8576 24.211C42.4923 24.979 40.8069 25.7256 38.8016 26.451C36.7963 27.1336 34.6843 27.731 32.4656 28.243C30.2469 28.7123 28.1563 29.0323 26.1936 29.203V30.099C28.1563 30.227 30.2256 30.5256 32.4016 30.995C34.5776 31.4643 36.6683 32.0403 38.6736 32.723C40.6789 33.4056 42.4069 34.1523 43.8576 34.963C44.6683 36.3283 45.3936 38.0136 46.0336 40.019C46.7163 41.9816 47.2923 44.0723 47.7616 46.291C48.2309 48.467 48.5509 50.579 48.7216 52.627ZM73.3051 56.211L80.9851 28.179L73.3051 0.402973H90.0731L98.3931 28.179L90.0731 56.211H73.3051Z" fill="#FFF7F3"/>
</svg>
